<?xml version="1.0" encoding="utf-8" standalone="no"?>
<!DOCTYPE svg PUBLIC "-//W3C//DTD SVG 1.1//EN"
  "http://www.w3.org/Graphics/SVG/1.1/DTD/svg11.dtd">
<!-- Created with matplotlib (https://matplotlib.org/) -->
<svg height="177.632283pt" version="1.1" viewBox="0 0 420.986614 177.632283" width="420.986614pt" xmlns="http://www.w3.org/2000/svg" xmlns:xlink="http://www.w3.org/1999/xlink">
 <defs>
  <style type="text/css">
*{stroke-linecap:butt;stroke-linejoin:round;}
  </style>
 </defs>
 <g id="figure_1">
  <g id="patch_1">
   <path d="M 0 177.632283 
L 420.986614 177.632283 
L 420.986614 0 
L 0 0 
z
" style="fill:#ffffff;"/>
  </g>
  <g id="axes_1">
   <g id="patch_2">
    <path d="M 14.853543 30.148305 
L 410.286614 30.148305 
L 410.286614 17.12126 
L 14.853543 17.12126 
z
" style="fill:#ffffff;"/>
   </g>
   <g id="matplotlib.axis_1">
    <g id="xtick_1"/>
    <g id="xtick_2"/>
    <g id="xtick_3"/>
    <g id="xtick_4"/>
    <g id="xtick_5"/>
    <g id="xtick_6"/>
   </g>
   <g id="matplotlib.axis_2">
    <g id="ytick_1"/>
    <g id="ytick_2"/>
   </g>
   <g id="legend_1">
    <g id="patch_3">
     <path d="M 89.694766 26.892822 
L 101.694766 26.892822 
L 101.694766 22.692822 
L 89.694766 22.692822 
z
" style="fill:#b07aa1;stroke:#b07aa1;stroke-linejoin:miter;"/>
    </g>
    <g id="text_1">
     <!-- PHIAL &amp; TARGET -->
     <defs>
      <path d="M 7.71875 0 
L 7.71875 71.578125 
L 34.71875 71.578125 
Q 41.84375 71.578125 45.609375 70.90625 
Q 50.875 70.015625 54.4375 67.546875 
Q 58.015625 65.09375 60.1875 60.640625 
Q 62.359375 56.203125 62.359375 50.875 
Q 62.359375 41.75 56.546875 35.421875 
Q 50.734375 29.109375 35.546875 29.109375 
L 17.1875 29.109375 
L 17.1875 0 
z
M 17.1875 37.546875 
L 35.6875 37.546875 
Q 44.875 37.546875 48.734375 40.96875 
Q 52.59375 44.390625 52.59375 50.59375 
Q 52.59375 55.078125 50.3125 58.265625 
Q 48.046875 61.46875 44.34375 62.5 
Q 41.9375 63.140625 35.5 63.140625 
L 17.1875 63.140625 
z
" id="ArialMT-80"/>
      <path d="M 8.015625 0 
L 8.015625 71.578125 
L 17.484375 71.578125 
L 17.484375 42.1875 
L 54.6875 42.1875 
L 54.6875 71.578125 
L 64.15625 71.578125 
L 64.15625 0 
L 54.6875 0 
L 54.6875 33.734375 
L 17.484375 33.734375 
L 17.484375 0 
z
" id="ArialMT-72"/>
      <path d="M 9.328125 0 
L 9.328125 71.578125 
L 18.796875 71.578125 
L 18.796875 0 
z
" id="ArialMT-73"/>
      <path d="M -0.140625 0 
L 27.34375 71.578125 
L 37.546875 71.578125 
L 66.84375 0 
L 56.0625 0 
L 47.703125 21.6875 
L 17.78125 21.6875 
L 9.90625 0 
z
M 20.515625 29.390625 
L 44.78125 29.390625 
L 37.3125 49.21875 
Q 33.890625 58.25 32.234375 64.0625 
Q 30.859375 57.171875 28.375 50.390625 
z
" id="ArialMT-65"/>
      <path d="M 7.328125 0 
L 7.328125 71.578125 
L 16.796875 71.578125 
L 16.796875 8.453125 
L 52.046875 8.453125 
L 52.046875 0 
z
" id="ArialMT-76"/>
      <path id="ArialMT-32"/>
      <path d="M 47.515625 8.453125 
Q 43.171875 3.609375 38.03125 1.1875 
Q 32.90625 -1.21875 26.953125 -1.21875 
Q 15.96875 -1.21875 9.515625 6.203125 
Q 4.296875 12.25 4.296875 19.734375 
Q 4.296875 26.375 8.5625 31.71875 
Q 12.84375 37.0625 21.34375 41.109375 
Q 16.5 46.6875 14.890625 50.140625 
Q 13.28125 53.609375 13.28125 56.84375 
Q 13.28125 63.28125 18.328125 68.03125 
Q 23.390625 72.796875 31.0625 72.796875 
Q 38.375 72.796875 43.03125 68.296875 
Q 47.703125 63.8125 47.703125 57.515625 
Q 47.703125 47.3125 34.1875 40.09375 
L 47.015625 23.734375 
Q 49.21875 28.03125 50.4375 33.6875 
L 59.578125 31.734375 
Q 57.234375 22.359375 53.21875 16.3125 
Q 58.15625 9.765625 64.40625 5.328125 
L 58.5 -1.65625 
Q 53.171875 1.765625 47.515625 8.453125 
z
M 29.640625 45.75 
Q 35.359375 49.125 37.03125 51.65625 
Q 38.71875 54.203125 38.71875 57.28125 
Q 38.71875 60.9375 36.390625 63.25 
Q 34.078125 65.578125 30.609375 65.578125 
Q 27.046875 65.578125 24.671875 63.28125 
Q 22.3125 60.984375 22.3125 57.671875 
Q 22.3125 56 23.171875 54.171875 
Q 24.03125 52.34375 25.734375 50.296875 
z
M 42 15.375 
L 25.875 35.359375 
Q 18.75 31.109375 16.25 27.46875 
Q 13.765625 23.828125 13.765625 20.265625 
Q 13.765625 15.921875 17.234375 11.234375 
Q 20.703125 6.546875 27.046875 6.546875 
Q 31 6.546875 35.21875 9 
Q 39.453125 11.46875 42 15.375 
z
" id="ArialMT-38"/>
      <path d="M 25.921875 0 
L 25.921875 63.140625 
L 2.34375 63.140625 
L 2.34375 71.578125 
L 59.078125 71.578125 
L 59.078125 63.140625 
L 35.40625 63.140625 
L 35.40625 0 
z
" id="ArialMT-84"/>
      <path d="M 7.859375 0 
L 7.859375 71.578125 
L 39.59375 71.578125 
Q 49.171875 71.578125 54.140625 69.640625 
Q 59.125 67.71875 62.109375 62.828125 
Q 65.09375 57.953125 65.09375 52.046875 
Q 65.09375 44.4375 60.15625 39.203125 
Q 55.21875 33.984375 44.921875 32.5625 
Q 48.6875 30.765625 50.640625 29 
Q 54.78125 25.203125 58.5 19.484375 
L 70.953125 0 
L 59.03125 0 
L 49.5625 14.890625 
Q 45.40625 21.34375 42.71875 24.75 
Q 40.046875 28.171875 37.921875 29.53125 
Q 35.796875 30.90625 33.59375 31.453125 
Q 31.984375 31.78125 28.328125 31.78125 
L 17.328125 31.78125 
L 17.328125 0 
z
M 17.328125 39.984375 
L 37.703125 39.984375 
Q 44.1875 39.984375 47.84375 41.328125 
Q 51.515625 42.671875 53.421875 45.625 
Q 55.328125 48.578125 55.328125 52.046875 
Q 55.328125 57.125 51.640625 60.390625 
Q 47.953125 63.671875 39.984375 63.671875 
L 17.328125 63.671875 
z
" id="ArialMT-82"/>
      <path d="M 41.21875 28.078125 
L 41.21875 36.46875 
L 71.53125 36.53125 
L 71.53125 9.96875 
Q 64.546875 4.390625 57.125 1.578125 
Q 49.703125 -1.21875 41.890625 -1.21875 
Q 31.34375 -1.21875 22.71875 3.296875 
Q 14.109375 7.8125 9.71875 16.359375 
Q 5.328125 24.90625 5.328125 35.453125 
Q 5.328125 45.90625 9.6875 54.953125 
Q 14.0625 64.015625 22.265625 68.40625 
Q 30.46875 72.796875 41.15625 72.796875 
Q 48.921875 72.796875 55.1875 70.28125 
Q 61.46875 67.78125 65.03125 63.28125 
Q 68.609375 58.796875 70.453125 51.5625 
L 61.921875 49.21875 
Q 60.296875 54.6875 57.90625 57.8125 
Q 55.515625 60.9375 51.0625 62.8125 
Q 46.625 64.703125 41.21875 64.703125 
Q 34.71875 64.703125 29.984375 62.71875 
Q 25.25 60.75 22.34375 57.515625 
Q 19.4375 54.296875 17.828125 50.4375 
Q 15.09375 43.796875 15.09375 36.03125 
Q 15.09375 26.46875 18.390625 20.015625 
Q 21.6875 13.578125 27.984375 10.453125 
Q 34.28125 7.328125 41.359375 7.328125 
Q 47.515625 7.328125 53.375 9.6875 
Q 59.234375 12.0625 62.25 14.75 
L 62.25 28.078125 
z
" id="ArialMT-71"/>
      <path d="M 7.90625 0 
L 7.90625 71.578125 
L 59.671875 71.578125 
L 59.671875 63.140625 
L 17.390625 63.140625 
L 17.390625 41.21875 
L 56.984375 41.21875 
L 56.984375 32.8125 
L 17.390625 32.8125 
L 17.390625 8.453125 
L 61.328125 8.453125 
L 61.328125 0 
z
" id="ArialMT-69"/>
     </defs>
     <g transform="translate(106.494766 26.892822)scale(0.06 -0.06)">
      <use xlink:href="#ArialMT-80"/>
      <use x="66.699219" xlink:href="#ArialMT-72"/>
      <use x="138.916016" xlink:href="#ArialMT-73"/>
      <use x="166.699219" xlink:href="#ArialMT-65"/>
      <use x="233.398438" xlink:href="#ArialMT-76"/>
      <use x="288.966797" xlink:href="#ArialMT-32"/>
      <use x="316.75" xlink:href="#ArialMT-38"/>
      <use x="383.449219" xlink:href="#ArialMT-32"/>
      <use x="411.216797" xlink:href="#ArialMT-84"/>
      <use x="472.191406" xlink:href="#ArialMT-65"/>
      <use x="538.890625" xlink:href="#ArialMT-82"/>
      <use x="611.107422" xlink:href="#ArialMT-71"/>
      <use x="688.890625" xlink:href="#ArialMT-69"/>
      <use x="755.589844" xlink:href="#ArialMT-84"/>
     </g>
    </g>
    <g id="patch_4">
     <path d="M 167.495079 26.892822 
L 179.495079 26.892822 
L 179.495079 22.692822 
L 167.495079 22.692822 
z
" style="fill:#e19da7;stroke:#e19da7;stroke-linejoin:miter;"/>
    </g>
    <g id="text_2">
     <!-- MOAlmanac (SNVs &amp; CNAs) -->
     <defs>
      <path d="M 7.421875 0 
L 7.421875 71.578125 
L 21.6875 71.578125 
L 38.625 20.90625 
Q 40.96875 13.8125 42.046875 10.296875 
Q 43.265625 14.203125 45.84375 21.78125 
L 62.984375 71.578125 
L 75.734375 71.578125 
L 75.734375 0 
L 66.609375 0 
L 66.609375 59.90625 
L 45.796875 0 
L 37.25 0 
L 16.546875 60.9375 
L 16.546875 0 
z
" id="ArialMT-77"/>
      <path d="M 4.828125 34.859375 
Q 4.828125 52.6875 14.390625 62.765625 
Q 23.96875 72.859375 39.109375 72.859375 
Q 49.03125 72.859375 56.984375 68.109375 
Q 64.9375 63.375 69.109375 54.90625 
Q 73.296875 46.4375 73.296875 35.6875 
Q 73.296875 24.8125 68.890625 16.21875 
Q 64.5 7.625 56.4375 3.203125 
Q 48.390625 -1.21875 39.0625 -1.21875 
Q 28.953125 -1.21875 20.984375 3.65625 
Q 13.03125 8.546875 8.921875 16.984375 
Q 4.828125 25.4375 4.828125 34.859375 
z
M 14.59375 34.71875 
Q 14.59375 21.78125 21.546875 14.328125 
Q 28.515625 6.890625 39.015625 6.890625 
Q 49.703125 6.890625 56.609375 14.40625 
Q 63.53125 21.921875 63.53125 35.75 
Q 63.53125 44.484375 60.578125 51 
Q 57.625 57.515625 51.921875 61.109375 
Q 46.234375 64.703125 39.15625 64.703125 
Q 29.109375 64.703125 21.84375 57.78125 
Q 14.59375 50.875 14.59375 34.71875 
z
" id="ArialMT-79"/>
      <path d="M 6.390625 0 
L 6.390625 71.578125 
L 15.1875 71.578125 
L 15.1875 0 
z
" id="ArialMT-108"/>
      <path d="M 6.59375 0 
L 6.59375 51.859375 
L 14.453125 51.859375 
L 14.453125 44.578125 
Q 16.890625 48.390625 20.9375 50.703125 
Q 25 53.03125 30.171875 53.03125 
Q 35.9375 53.03125 39.625 50.640625 
Q 43.3125 48.25 44.828125 43.953125 
Q 50.984375 53.03125 60.84375 53.03125 
Q 68.5625 53.03125 72.703125 48.75 
Q 76.859375 44.484375 76.859375 35.59375 
L 76.859375 0 
L 68.109375 0 
L 68.109375 32.671875 
Q 68.109375 37.9375 67.25 40.25 
Q 66.40625 42.578125 64.15625 43.984375 
Q 61.921875 45.40625 58.890625 45.40625 
Q 53.421875 45.40625 49.796875 41.765625 
Q 46.1875 38.140625 46.1875 30.125 
L 46.1875 0 
L 37.40625 0 
L 37.40625 33.6875 
Q 37.40625 39.546875 35.25 42.46875 
Q 33.109375 45.40625 28.21875 45.40625 
Q 24.515625 45.40625 21.359375 43.453125 
Q 18.21875 41.5 16.796875 37.734375 
Q 15.375 33.984375 15.375 26.90625 
L 15.375 0 
z
" id="ArialMT-109"/>
      <path d="M 40.4375 6.390625 
Q 35.546875 2.25 31.03125 0.53125 
Q 26.515625 -1.171875 21.34375 -1.171875 
Q 12.796875 -1.171875 8.203125 3 
Q 3.609375 7.171875 3.609375 13.671875 
Q 3.609375 17.484375 5.34375 20.625 
Q 7.078125 23.78125 9.890625 25.6875 
Q 12.703125 27.59375 16.21875 28.5625 
Q 18.796875 29.25 24.03125 29.890625 
Q 34.671875 31.15625 39.703125 32.90625 
Q 39.75 34.71875 39.75 35.203125 
Q 39.75 40.578125 37.25 42.78125 
Q 33.890625 45.75 27.25 45.75 
Q 21.046875 45.75 18.09375 43.578125 
Q 15.140625 41.40625 13.71875 35.890625 
L 5.125 37.0625 
Q 6.296875 42.578125 8.984375 45.96875 
Q 11.671875 49.359375 16.75 51.1875 
Q 21.828125 53.03125 28.515625 53.03125 
Q 35.15625 53.03125 39.296875 51.46875 
Q 43.453125 49.90625 45.40625 47.53125 
Q 47.359375 45.171875 48.140625 41.546875 
Q 48.578125 39.3125 48.578125 33.453125 
L 48.578125 21.734375 
Q 48.578125 9.46875 49.140625 6.21875 
Q 49.703125 2.984375 51.375 0 
L 42.1875 0 
Q 40.828125 2.734375 40.4375 6.390625 
z
M 39.703125 26.03125 
Q 34.90625 24.078125 25.34375 22.703125 
Q 19.921875 21.921875 17.671875 20.9375 
Q 15.4375 19.96875 14.203125 18.09375 
Q 12.984375 16.21875 12.984375 13.921875 
Q 12.984375 10.40625 15.640625 8.0625 
Q 18.3125 5.71875 23.4375 5.71875 
Q 28.515625 5.71875 32.46875 7.9375 
Q 36.421875 10.15625 38.28125 14.015625 
Q 39.703125 17 39.703125 22.796875 
z
" id="ArialMT-97"/>
      <path d="M 6.59375 0 
L 6.59375 51.859375 
L 14.5 51.859375 
L 14.5 44.484375 
Q 20.21875 53.03125 31 53.03125 
Q 35.6875 53.03125 39.625 51.34375 
Q 43.5625 49.65625 45.515625 46.921875 
Q 47.46875 44.1875 48.25 40.4375 
Q 48.734375 37.984375 48.734375 31.890625 
L 48.734375 0 
L 39.9375 0 
L 39.9375 31.546875 
Q 39.9375 36.921875 38.90625 39.578125 
Q 37.890625 42.234375 35.28125 43.8125 
Q 32.671875 45.40625 29.15625 45.40625 
Q 23.53125 45.40625 19.453125 41.84375 
Q 15.375 38.28125 15.375 28.328125 
L 15.375 0 
z
" id="ArialMT-110"/>
      <path d="M 40.4375 19 
L 49.078125 17.875 
Q 47.65625 8.9375 41.8125 3.875 
Q 35.984375 -1.171875 27.484375 -1.171875 
Q 16.84375 -1.171875 10.375 5.78125 
Q 3.90625 12.75 3.90625 25.734375 
Q 3.90625 34.125 6.6875 40.421875 
Q 9.46875 46.734375 15.15625 49.875 
Q 20.84375 53.03125 27.546875 53.03125 
Q 35.984375 53.03125 41.359375 48.75 
Q 46.734375 44.484375 48.25 36.625 
L 39.703125 35.296875 
Q 38.484375 40.53125 35.375 43.15625 
Q 32.28125 45.796875 27.875 45.796875 
Q 21.234375 45.796875 17.078125 41.03125 
Q 12.9375 36.28125 12.9375 25.984375 
Q 12.9375 15.53125 16.9375 10.796875 
Q 20.953125 6.0625 27.390625 6.0625 
Q 32.5625 6.0625 36.03125 9.234375 
Q 39.5 12.40625 40.4375 19 
z
" id="ArialMT-99"/>
      <path d="M 23.390625 -21.046875 
Q 16.109375 -11.859375 11.078125 0.4375 
Q 6.0625 12.75 6.0625 25.921875 
Q 6.0625 37.546875 9.8125 48.1875 
Q 14.203125 60.546875 23.390625 72.796875 
L 29.6875 72.796875 
Q 23.78125 62.640625 21.875 58.296875 
Q 18.890625 51.5625 17.1875 44.234375 
Q 15.09375 35.109375 15.09375 25.875 
Q 15.09375 2.390625 29.6875 -21.046875 
z
" id="ArialMT-40"/>
      <path d="M 4.5 23 
L 13.421875 23.78125 
Q 14.0625 18.40625 16.375 14.96875 
Q 18.703125 11.53125 23.578125 9.40625 
Q 28.46875 7.28125 34.578125 7.28125 
Q 39.984375 7.28125 44.140625 8.890625 
Q 48.296875 10.5 50.3125 13.296875 
Q 52.34375 16.109375 52.34375 19.4375 
Q 52.34375 22.796875 50.390625 25.3125 
Q 48.4375 27.828125 43.953125 29.546875 
Q 41.0625 30.671875 31.203125 33.03125 
Q 21.34375 35.40625 17.390625 37.5 
Q 12.25 40.1875 9.734375 44.15625 
Q 7.234375 48.140625 7.234375 53.078125 
Q 7.234375 58.5 10.296875 63.203125 
Q 13.375 67.921875 19.28125 70.359375 
Q 25.203125 72.796875 32.421875 72.796875 
Q 40.375 72.796875 46.453125 70.234375 
Q 52.546875 67.671875 55.8125 62.6875 
Q 59.078125 57.71875 59.328125 51.421875 
L 50.25 50.734375 
Q 49.515625 57.515625 45.28125 60.984375 
Q 41.0625 64.453125 32.8125 64.453125 
Q 24.21875 64.453125 20.28125 61.296875 
Q 16.359375 58.15625 16.359375 53.71875 
Q 16.359375 49.859375 19.140625 47.359375 
Q 21.875 44.875 33.421875 42.265625 
Q 44.96875 39.65625 49.265625 37.703125 
Q 55.515625 34.8125 58.484375 30.390625 
Q 61.46875 25.984375 61.46875 20.21875 
Q 61.46875 14.5 58.203125 9.4375 
Q 54.9375 4.390625 48.796875 1.578125 
Q 42.671875 -1.21875 35.015625 -1.21875 
Q 25.296875 -1.21875 18.71875 1.609375 
Q 12.15625 4.4375 8.421875 10.125 
Q 4.6875 15.828125 4.5 23 
z
" id="ArialMT-83"/>
      <path d="M 7.625 0 
L 7.625 71.578125 
L 17.328125 71.578125 
L 54.9375 15.375 
L 54.9375 71.578125 
L 64.015625 71.578125 
L 64.015625 0 
L 54.296875 0 
L 16.703125 56.25 
L 16.703125 0 
z
" id="ArialMT-78"/>
      <path d="M 28.171875 0 
L 0.4375 71.578125 
L 10.6875 71.578125 
L 29.296875 19.578125 
Q 31.546875 13.328125 33.0625 7.859375 
Q 34.71875 13.71875 36.921875 19.578125 
L 56.25 71.578125 
L 65.921875 71.578125 
L 37.890625 0 
z
" id="ArialMT-86"/>
      <path d="M 3.078125 15.484375 
L 11.765625 16.84375 
Q 12.5 11.625 15.84375 8.84375 
Q 19.1875 6.0625 25.203125 6.0625 
Q 31.25 6.0625 34.171875 8.515625 
Q 37.109375 10.984375 37.109375 14.3125 
Q 37.109375 17.28125 34.515625 19 
Q 32.71875 20.171875 25.53125 21.96875 
Q 15.875 24.421875 12.140625 26.203125 
Q 8.40625 27.984375 6.46875 31.125 
Q 4.546875 34.28125 4.546875 38.09375 
Q 4.546875 41.546875 6.125 44.5 
Q 7.71875 47.46875 10.453125 49.421875 
Q 12.5 50.921875 16.03125 51.96875 
Q 19.578125 53.03125 23.640625 53.03125 
Q 29.734375 53.03125 34.34375 51.265625 
Q 38.96875 49.515625 41.15625 46.5 
Q 43.359375 43.5 44.1875 38.484375 
L 35.59375 37.3125 
Q 35.015625 41.3125 32.203125 43.546875 
Q 29.390625 45.796875 24.265625 45.796875 
Q 18.21875 45.796875 15.625 43.796875 
Q 13.03125 41.796875 13.03125 39.109375 
Q 13.03125 37.40625 14.109375 36.03125 
Q 15.1875 34.625 17.484375 33.6875 
Q 18.796875 33.203125 25.25 31.453125 
Q 34.578125 28.953125 38.25 27.359375 
Q 41.9375 25.78125 44.03125 22.75 
Q 46.140625 19.734375 46.140625 15.234375 
Q 46.140625 10.84375 43.578125 6.953125 
Q 41.015625 3.078125 36.171875 0.953125 
Q 31.34375 -1.171875 25.25 -1.171875 
Q 15.140625 -1.171875 9.84375 3.03125 
Q 4.546875 7.234375 3.078125 15.484375 
z
" id="ArialMT-115"/>
      <path d="M 58.796875 25.09375 
L 68.265625 22.703125 
Q 65.28125 11.03125 57.546875 4.90625 
Q 49.8125 -1.21875 38.625 -1.21875 
Q 27.046875 -1.21875 19.796875 3.484375 
Q 12.546875 8.203125 8.765625 17.140625 
Q 4.984375 26.078125 4.984375 36.328125 
Q 4.984375 47.515625 9.25 55.828125 
Q 13.53125 64.15625 21.40625 68.46875 
Q 29.296875 72.796875 38.765625 72.796875 
Q 49.515625 72.796875 56.828125 67.328125 
Q 64.15625 61.859375 67.046875 51.953125 
L 57.71875 49.75 
Q 55.21875 57.5625 50.484375 61.125 
Q 45.75 64.703125 38.578125 64.703125 
Q 30.328125 64.703125 24.78125 60.734375 
Q 19.234375 56.78125 16.984375 50.109375 
Q 14.75 43.453125 14.75 36.375 
Q 14.75 27.25 17.40625 20.4375 
Q 20.0625 13.625 25.671875 10.25 
Q 31.296875 6.890625 37.84375 6.890625 
Q 45.796875 6.890625 51.3125 11.46875 
Q 56.84375 16.0625 58.796875 25.09375 
z
" id="ArialMT-67"/>
      <path d="M 12.359375 -21.046875 
L 6.0625 -21.046875 
Q 20.65625 2.390625 20.65625 25.875 
Q 20.65625 35.0625 18.5625 44.09375 
Q 16.890625 51.421875 13.921875 58.15625 
Q 12.015625 62.546875 6.0625 72.796875 
L 12.359375 72.796875 
Q 21.53125 60.546875 25.921875 48.1875 
Q 29.6875 37.546875 29.6875 25.921875 
Q 29.6875 12.75 24.625 0.4375 
Q 19.578125 -11.859375 12.359375 -21.046875 
z
" id="ArialMT-41"/>
     </defs>
     <g transform="translate(184.295079 26.892822)scale(0.06 -0.06)">
      <use xlink:href="#ArialMT-77"/>
      <use x="83.300781" xlink:href="#ArialMT-79"/>
      <use x="161.083984" xlink:href="#ArialMT-65"/>
      <use x="227.783203" xlink:href="#ArialMT-108"/>
      <use x="250" xlink:href="#ArialMT-109"/>
      <use x="333.300781" xlink:href="#ArialMT-97"/>
      <use x="388.916016" xlink:href="#ArialMT-110"/>
      <use x="444.53125" xlink:href="#ArialMT-97"/>
      <use x="500.146484" xlink:href="#ArialMT-99"/>
      <use x="550.146484" xlink:href="#ArialMT-32"/>
      <use x="577.929688" xlink:href="#ArialMT-40"/>
      <use x="611.230469" xlink:href="#ArialMT-83"/>
      <use x="677.929688" xlink:href="#ArialMT-78"/>
      <use x="750.146484" xlink:href="#ArialMT-86"/>
      <use x="816.845703" xlink:href="#ArialMT-115"/>
      <use x="866.845703" xlink:href="#ArialMT-32"/>
      <use x="894.628906" xlink:href="#ArialMT-38"/>
      <use x="961.328125" xlink:href="#ArialMT-32"/>
      <use x="989.111328" xlink:href="#ArialMT-67"/>
      <use x="1061.328125" xlink:href="#ArialMT-78"/>
      <use x="1133.544922" xlink:href="#ArialMT-65"/>
      <use x="1200.244141" xlink:href="#ArialMT-115"/>
      <use x="1250.244141" xlink:href="#ArialMT-41"/>
     </g>
    </g>
    <g id="patch_5">
     <path d="M 273.306954 26.892822 
L 285.306954 26.892822 
L 285.306954 22.692822 
L 273.306954 22.692822 
z
" style="fill:#e15759;stroke:#e15759;stroke-linejoin:miter;"/>
    </g>
    <g id="text_3">
     <!-- MOAlmanac (All) -->
     <g transform="translate(290.106954 26.892822)scale(0.06 -0.06)">
      <use xlink:href="#ArialMT-77"/>
      <use x="83.300781" xlink:href="#ArialMT-79"/>
      <use x="161.083984" xlink:href="#ArialMT-65"/>
      <use x="227.783203" xlink:href="#ArialMT-108"/>
      <use x="250" xlink:href="#ArialMT-109"/>
      <use x="333.300781" xlink:href="#ArialMT-97"/>
      <use x="388.916016" xlink:href="#ArialMT-110"/>
      <use x="444.53125" xlink:href="#ArialMT-97"/>
      <use x="500.146484" xlink:href="#ArialMT-99"/>
      <use x="550.146484" xlink:href="#ArialMT-32"/>
      <use x="577.929688" xlink:href="#ArialMT-40"/>
      <use x="611.230469" xlink:href="#ArialMT-65"/>
      <use x="677.929688" xlink:href="#ArialMT-108"/>
      <use x="700.146484" xlink:href="#ArialMT-108"/>
      <use x="722.363281" xlink:href="#ArialMT-41"/>
     </g>
    </g>
   </g>
  </g>
  <g id="axes_2">
   <g id="patch_6">
    <path d="M 104.605006 75.742965 
C 104.605006 70.047608 103.493408 64.406621 101.332687 59.13705 
C 99.171967 53.867479 96.003379 49.069934 92.00501 45.014058 
C 88.006642 40.958181 83.254832 37.721409 78.016652 35.485663 
C 72.778473 33.249916 67.153934 32.057881 61.459158 31.976554 
C 55.764382 31.895228 50.108096 32.926163 44.808209 35.011416 
C 39.508322 37.096669 34.66602 40.196428 30.553463 44.136473 
C 26.440905 48.076518 23.13661 52.781624 20.826293 57.987344 
C 18.515976 63.193065 17.243747 68.800009 17.08111 74.493043 
C 16.918473 80.186077 17.868534 85.856506 19.877895 91.18563 
C 21.887256 96.514753 24.917554 101.400824 28.798472 105.569224 
C 32.67939 109.737624 37.336833 113.108769 42.509032 115.493185 
C 47.681232 117.877601 53.269437 119.229765 58.959568 119.473679 
C 64.6497 119.717592 70.333118 118.848599 75.69039 116.91554 
C 81.047663 114.982481 85.976506 112.022263 90.199899 108.201263 
C 94.423292 104.380263 97.860598 99.771433 100.318628 94.633809 
C 102.776657 89.496185 104.208479 83.927858 104.53362 78.241789 
L 60.834133 75.742965 
L 104.605006 75.742965 
z
" style="fill:#e15759;"/>
   </g>
   <g id="patch_7">
    <path d="M 104.53362 78.241789 
C 104.557409 77.825764 104.575257 77.409421 104.587156 76.992886 
C 104.599055 76.576351 104.605006 76.159667 104.605006 75.742962 
L 60.834133 75.742965 
L 104.53362 78.241789 
z
" style="fill:#ffffff;"/>
   </g>
   <g id="patch_8">
    <path d="M 95.225533 75.742965 
C 95.225533 71.268042 94.352134 66.835837 92.654426 62.69546 
C 90.956717 58.555083 88.467112 54.785584 85.325537 51.598824 
C 82.183961 48.412063 78.450396 45.868886 74.334684 44.112228 
C 70.218971 42.35557 65.799691 41.41897 61.325224 41.355071 
C 56.850757 41.291171 52.406533 42.101192 48.242336 43.739605 
C 44.078138 45.378018 40.273473 47.813543 37.042178 50.909293 
C 33.810882 54.005042 31.21465 57.701911 29.399401 61.79212 
C 27.584152 65.882329 26.584544 70.287785 26.456758 74.760883 
C 26.328972 79.233981 27.075448 83.689319 28.654232 87.876487 
C 30.233015 92.063656 32.613963 95.902711 35.663256 99.177883 
C 38.712549 102.453054 42.371969 105.101811 46.43584 106.975281 
C 50.49971 108.848751 54.890443 109.911165 59.361261 110.102811 
C 63.832078 110.294458 68.297621 109.611677 72.506906 108.092845 
C 76.716192 106.574013 80.588855 104.248128 83.907235 101.245913 
C 87.225615 98.243699 89.926356 94.622475 91.857665 90.585771 
C 93.788973 86.549067 94.913977 82.173952 95.169444 77.706327 
L 60.834133 75.742965 
L 95.225533 75.742965 
z
" style="fill:#e19da7;"/>
   </g>
   <g id="patch_9">
    <path d="M 95.169444 77.706327 
C 95.188136 77.37945 95.202159 77.052323 95.211508 76.725045 
C 95.220858 76.397768 95.225533 76.070374 95.225533 75.742963 
L 60.834133 75.742965 
L 95.169444 77.706327 
z
" style="fill:#ffffff;"/>
   </g>
   <g id="patch_10">
    <path d="M 85.84606 75.742965 
C 85.84606 72.728669 85.301162 69.73905 84.237698 66.918585 
C 83.174234 64.098121 81.609616 61.492989 79.619457 59.229089 
C 77.629299 56.965188 75.246184 55.079584 72.58528 53.663403 
C 69.924377 52.247221 67.029251 51.323649 64.039816 50.937318 
C 61.05038 50.550987 58.015579 50.708224 55.082076 51.401429 
C 52.148572 52.094634 49.364395 53.312459 46.864095 54.996048 
C 44.363794 56.679638 42.188307 58.801428 40.442767 61.25888 
C 38.697228 63.716331 37.410215 66.469209 36.643926 69.384476 
C 35.877637 72.299742 35.644618 75.329666 35.95613 78.327822 
C 36.267642 81.325977 37.118586 84.243276 38.467836 86.938736 
C 39.817087 89.634195 41.642554 92.063682 43.856019 94.109787 
C 46.069485 96.155893 48.634707 97.785118 51.427718 98.918725 
C 54.220729 100.052333 57.195799 100.671764 60.209154 100.747083 
C 63.222508 100.822402 66.224809 100.352375 69.070967 99.359719 
C 71.917124 98.367063 74.560537 96.868028 76.873459 94.93506 
C 79.186382 93.002091 81.130944 90.666837 82.613172 88.04215 
L 60.834133 75.742965 
L 85.84606 75.742965 
z
" style="fill:#b07aa1;"/>
   </g>
   <g id="patch_11">
    <path d="M 82.613172 88.04215 
C 83.668412 86.173562 84.478798 84.176913 85.024341 82.101453 
C 85.569883 80.025992 85.846061 77.888925 85.84606 75.742962 
L 60.834133 75.742965 
L 82.613172 88.04215 
z
" style="fill:#ffffff;"/>
   </g>
   <g id="patch_12">
    <path clip-path="url(#pa55fcec924)" d="M 60.834133 91.375419 
C 64.979908 91.375419 68.956442 89.728285 71.887948 86.796779 
C 74.819454 83.865273 76.466588 79.88874 76.466588 75.742965 
C 76.466588 71.597189 74.819454 67.620656 71.887948 64.68915 
C 68.956442 61.757644 64.979908 60.11051 60.834133 60.11051 
C 56.688358 60.11051 52.711824 61.757644 49.780318 64.68915 
C 46.848812 67.620656 45.201678 71.597189 45.201678 75.742965 
C 45.201678 79.88874 46.848812 83.865273 49.780318 86.796779 
C 52.711824 89.728285 56.688358 91.375419 60.834133 91.375419 
z
" style="fill:#ffffff;stroke:#ffffff;stroke-linejoin:miter;"/>
   </g>
   <g id="matplotlib.axis_3"/>
   <g id="matplotlib.axis_4"/>
   <g id="text_4">
    <!-- 109 -->
    <defs>
     <path d="M 37.25 0 
L 28.46875 0 
L 28.46875 56 
Q 25.296875 52.984375 20.140625 49.953125 
Q 14.984375 46.921875 10.890625 45.40625 
L 10.890625 53.90625 
Q 18.265625 57.375 23.78125 62.296875 
Q 29.296875 67.234375 31.59375 71.875 
L 37.25 71.875 
z
" id="ArialMT-49"/>
     <path d="M 4.15625 35.296875 
Q 4.15625 48 6.765625 55.734375 
Q 9.375 63.484375 14.515625 67.671875 
Q 19.671875 71.875 27.484375 71.875 
Q 33.25 71.875 37.59375 69.546875 
Q 41.9375 67.234375 44.765625 62.859375 
Q 47.609375 58.5 49.21875 52.21875 
Q 50.828125 45.953125 50.828125 35.296875 
Q 50.828125 22.703125 48.234375 14.96875 
Q 45.65625 7.234375 40.5 3 
Q 35.359375 -1.21875 27.484375 -1.21875 
Q 17.140625 -1.21875 11.234375 6.203125 
Q 4.15625 15.140625 4.15625 35.296875 
z
M 13.1875 35.296875 
Q 13.1875 17.671875 17.3125 11.828125 
Q 21.4375 6 27.484375 6 
Q 33.546875 6 37.671875 11.859375 
Q 41.796875 17.71875 41.796875 35.296875 
Q 41.796875 52.984375 37.671875 58.78125 
Q 33.546875 64.59375 27.390625 64.59375 
Q 21.34375 64.59375 17.71875 59.46875 
Q 13.1875 52.9375 13.1875 35.296875 
z
" id="ArialMT-48"/>
     <path d="M 5.46875 16.546875 
L 13.921875 17.328125 
Q 14.984375 11.375 18.015625 8.6875 
Q 21.046875 6 25.78125 6 
Q 29.828125 6 32.875 7.859375 
Q 35.9375 9.71875 37.890625 12.8125 
Q 39.84375 15.921875 41.15625 21.1875 
Q 42.484375 26.46875 42.484375 31.9375 
Q 42.484375 32.515625 42.4375 33.6875 
Q 39.796875 29.5 35.234375 26.875 
Q 30.671875 24.265625 25.34375 24.265625 
Q 16.453125 24.265625 10.296875 30.703125 
Q 4.15625 37.15625 4.15625 47.703125 
Q 4.15625 58.59375 10.578125 65.234375 
Q 17 71.875 26.65625 71.875 
Q 33.640625 71.875 39.421875 68.109375 
Q 45.21875 64.359375 48.21875 57.390625 
Q 51.21875 50.4375 51.21875 37.25 
Q 51.21875 23.53125 48.234375 15.40625 
Q 45.265625 7.28125 39.375 3.03125 
Q 33.5 -1.21875 25.59375 -1.21875 
Q 17.1875 -1.21875 11.859375 3.4375 
Q 6.546875 8.109375 5.46875 16.546875 
z
M 41.453125 48.140625 
Q 41.453125 55.71875 37.421875 60.15625 
Q 33.40625 64.59375 27.734375 64.59375 
Q 21.875 64.59375 17.53125 59.8125 
Q 13.1875 55.03125 13.1875 47.40625 
Q 13.1875 40.578125 17.3125 36.296875 
Q 21.4375 32.03125 27.484375 32.03125 
Q 33.59375 32.03125 37.515625 36.296875 
Q 41.453125 40.578125 41.453125 48.140625 
z
" id="ArialMT-57"/>
    </defs>
    <g transform="translate(17.490308 76.035605)scale(0.05 -0.05)">
     <use xlink:href="#ArialMT-49"/>
     <use x="55.615234" xlink:href="#ArialMT-48"/>
     <use x="111.230469" xlink:href="#ArialMT-57"/>
    </g>
   </g>
   <g id="text_5">
    <!-- 109 -->
    <g transform="translate(26.709695 76.298982)scale(0.05 -0.05)">
     <use xlink:href="#ArialMT-49"/>
     <use x="55.615234" xlink:href="#ArialMT-48"/>
     <use x="111.230469" xlink:href="#ArialMT-57"/>
    </g>
   </g>
   <g id="text_6">
    <!-- 101 -->
    <g transform="translate(36.769092 72.902525)scale(0.05 -0.05)">
     <use xlink:href="#ArialMT-49"/>
     <use x="55.615234" xlink:href="#ArialMT-48"/>
     <use x="111.230469" xlink:href="#ArialMT-49"/>
    </g>
   </g>
   <g id="text_7">
    <!-- MEL -->
    <g transform="translate(54.665852 74.006808)scale(0.06 -0.06)">
     <use xlink:href="#ArialMT-77"/>
     <use x="83.300781" xlink:href="#ArialMT-69"/>
     <use x="150" xlink:href="#ArialMT-76"/>
    </g>
    <!-- (n = 110) -->
    <defs>
     <path d="M 52.828125 42.09375 
L 5.5625 42.09375 
L 5.5625 50.296875 
L 52.828125 50.296875 
z
M 52.828125 20.359375 
L 5.5625 20.359375 
L 5.5625 28.5625 
L 52.828125 28.5625 
z
" id="ArialMT-61"/>
    </defs>
    <g transform="translate(48.747414 80.440683)scale(0.06 -0.06)">
     <use xlink:href="#ArialMT-40"/>
     <use x="33.300781" xlink:href="#ArialMT-110"/>
     <use x="88.916016" xlink:href="#ArialMT-32"/>
     <use x="116.699219" xlink:href="#ArialMT-61"/>
     <use x="175.097656" xlink:href="#ArialMT-32"/>
     <use x="202.880859" xlink:href="#ArialMT-49"/>
     <use x="258.386719" xlink:href="#ArialMT-49"/>
     <use x="314.001953" xlink:href="#ArialMT-48"/>
     <use x="369.617188" xlink:href="#ArialMT-41"/>
    </g>
   </g>
  </g>
  <g id="axes_3">
   <g id="patch_13">
    <path d="M 205.762303 75.742965 
C 205.762303 70.033587 204.645225 64.378982 202.474158 59.098503 
C 200.30309 53.818024 197.119689 49.012987 193.103743 44.954764 
C 189.087798 40.896542 184.31636 37.662998 179.058905 35.436754 
C 173.801451 33.21051 168.158853 32.034279 162.449789 31.974492 
C 156.740724 31.914704 151.074731 32.972508 145.771807 35.08816 
C 140.468883 37.203812 135.630773 40.336721 131.530719 44.30995 
C 127.430665 48.283179 124.147333 53.020495 121.866156 58.254348 
C 119.584979 63.488202 118.349725 69.118172 118.230157 74.826298 
C 118.110589 80.534423 119.109001 86.211182 121.169006 91.535971 
C 123.229012 96.860759 126.311085 101.73141 130.241161 105.872846 
C 134.171238 110.014282 138.873911 113.347042 144.08359 115.682902 
C 149.293268 118.018762 154.909995 119.312904 160.616555 119.492239 
C 166.323115 119.671575 172.010019 118.732663 177.356087 116.728531 
C 182.702155 114.724399 187.604814 111.693498 191.787178 107.807006 
C 195.969542 103.920513 199.351364 99.252998 201.74165 94.068065 
C 204.131937 88.883133 205.484825 83.280266 205.723909 77.575897 
L 161.99143 75.742965 
L 205.762303 75.742965 
z
" style="fill:#e15759;"/>
   </g>
   <g id="patch_14">
    <path d="M 205.723909 77.575897 
C 205.736705 77.270584 205.746304 76.965145 205.752703 76.659631 
C 205.759103 76.354117 205.762303 76.048544 205.762303 75.742963 
L 161.99143 75.742965 
L 205.723909 77.575897 
z
" style="fill:#ffffff;"/>
   </g>
   <g id="patch_15">
    <path d="M 196.38283 75.742965 
C 196.38283 71.469006 195.586117 67.232257 194.033596 63.250246 
C 192.481075 59.268236 190.19978 55.610301 187.30684 52.464253 
C 184.4139 49.318204 180.959688 46.738821 177.121555 44.858539 
C 173.283421 42.978257 169.128199 41.829816 164.869229 41.47218 
C 160.610259 41.114544 156.321702 41.553941 152.223745 42.767811 
C 148.125789 43.981681 144.289789 45.948887 140.912699 48.568427 
C 137.535609 51.187967 134.676231 54.414227 132.481377 58.081561 
C 130.286523 61.748896 128.794409 65.793446 128.081646 70.007553 
C 127.368883 74.22166 127.447882 78.531944 128.314586 82.717103 
C 129.181291 86.902261 130.82061 90.889419 133.148374 94.473863 
C 135.476139 98.058307 138.451818 101.177622 141.92263 103.671654 
C 145.393441 106.165685 149.298951 107.991005 153.438635 109.053896 
C 157.57832 110.116786 161.880098 110.39874 166.123103 109.88528 
C 170.366107 109.37182 174.476456 108.071888 178.243111 106.052225 
C 182.009766 104.032563 185.36714 101.328338 188.142855 98.078394 
C 190.918569 94.82845 193.064292 91.089377 194.469855 87.053151 
L 161.99143 75.742965 
L 196.38283 75.742965 
z
" style="fill:#e19da7;"/>
   </g>
   <g id="patch_16">
    <path d="M 194.469855 87.053151 
C 195.101904 85.238153 195.580701 83.373364 195.901214 81.478377 
C 196.221727 79.583391 196.38283 77.664867 196.38283 75.742966 
L 161.99143 75.742965 
L 194.469855 87.053151 
z
" style="fill:#ffffff;"/>
   </g>
   <g id="patch_17">
    <path d="M 187.003358 75.742965 
C 187.003358 72.876636 186.510642 70.031521 185.546772 67.332115 
C 184.582901 64.632709 183.162143 62.118968 181.346665 59.900888 
C 179.531188 57.682808 177.347863 55.79322 174.89223 54.314808 
C 172.436596 52.836397 169.745 51.791044 166.935221 51.224493 
C 164.125442 50.657942 161.239069 50.578579 158.402403 50.989876 
C 155.565737 51.401173 152.820766 52.297042 150.287604 53.638283 
C 147.754441 54.979524 145.470582 56.746282 143.535964 58.861251 
C 141.601345 60.976219 140.044603 63.408091 138.933856 66.050453 
C 137.823109 68.692816 137.174799 71.506557 137.017293 74.368555 
C 136.859788 77.230553 137.195419 80.098444 138.009501 82.846736 
C 138.823582 85.595028 140.104063 88.183042 141.794914 90.497532 
C 143.485765 92.812022 145.561957 94.818729 147.932642 96.429844 
C 150.303326 98.04096 152.933413 99.232636 155.707814 99.952729 
C 158.482216 100.672822 161.359867 100.910672 164.214848 100.655872 
C 167.069829 100.401071 169.859881 99.657392 172.462917 98.457376 
C 175.065954 97.257359 177.443446 95.618768 179.491359 93.613303 
L 161.99143 75.742965 
L 187.003358 75.742965 
z
" style="fill:#b07aa1;"/>
   </g>
   <g id="patch_18">
    <path d="M 179.491359 93.613303 
C 181.869563 91.284394 183.759115 88.504003 185.049004 85.435476 
C 186.338894 82.36695 187.003358 79.071579 187.003358 75.742965 
L 161.99143 75.742965 
L 179.491359 93.613303 
z
" style="fill:#ffffff;"/>
   </g>
   <g id="patch_19">
    <path clip-path="url(#p074923ec4a)" d="M 161.99143 91.375419 
C 166.137206 91.375419 170.113739 89.728285 173.045245 86.796779 
C 175.976751 83.865273 177.623885 79.88874 177.623885 75.742965 
C 177.623885 71.597189 175.976751 67.620656 173.045245 64.68915 
C 170.113739 61.757644 166.137206 60.11051 161.99143 60.11051 
C 157.845655 60.11051 153.869121 61.757644 150.937615 64.68915 
C 148.00611 67.620656 146.358976 71.597189 146.358976 75.742965 
C 146.358976 79.88874 148.00611 83.865273 150.937615 86.796779 
C 153.869121 89.728285 157.845655 91.375419 161.99143 91.375419 
z
" style="fill:#ffffff;stroke:#ffffff;stroke-linejoin:miter;"/>
   </g>
   <g id="matplotlib.axis_5"/>
   <g id="matplotlib.axis_6"/>
   <g id="text_8">
    <!-- 149 -->
    <defs>
     <path d="M 32.328125 0 
L 32.328125 17.140625 
L 1.265625 17.140625 
L 1.265625 25.203125 
L 33.9375 71.578125 
L 41.109375 71.578125 
L 41.109375 25.203125 
L 50.78125 25.203125 
L 50.78125 17.140625 
L 41.109375 17.140625 
L 41.109375 0 
z
M 32.328125 25.203125 
L 32.328125 57.46875 
L 9.90625 25.203125 
z
" id="ArialMT-52"/>
    </defs>
    <g transform="translate(118.203392 76.293042)scale(0.05 -0.05)">
     <use xlink:href="#ArialMT-49"/>
     <use x="55.615234" xlink:href="#ArialMT-52"/>
     <use x="111.230469" xlink:href="#ArialMT-57"/>
    </g>
   </g>
   <g id="text_9">
    <!-- 142 -->
    <defs>
     <path d="M 50.34375 8.453125 
L 50.34375 0 
L 3.03125 0 
Q 2.9375 3.171875 4.046875 6.109375 
Q 5.859375 10.9375 9.828125 15.625 
Q 13.8125 20.3125 21.34375 26.46875 
Q 33.015625 36.03125 37.109375 41.625 
Q 41.21875 47.21875 41.21875 52.203125 
Q 41.21875 57.421875 37.46875 61 
Q 33.734375 64.59375 27.734375 64.59375 
Q 21.390625 64.59375 17.578125 60.78125 
Q 13.765625 56.984375 13.71875 50.25 
L 4.6875 51.171875 
Q 5.609375 61.28125 11.65625 66.578125 
Q 17.71875 71.875 27.9375 71.875 
Q 38.234375 71.875 44.234375 66.15625 
Q 50.25 60.453125 50.25 52 
Q 50.25 47.703125 48.484375 43.546875 
Q 46.734375 39.40625 42.65625 34.8125 
Q 38.578125 30.21875 29.109375 22.21875 
Q 21.1875 15.578125 18.9375 13.203125 
Q 16.703125 10.84375 15.234375 8.453125 
z
" id="ArialMT-50"/>
    </defs>
    <g transform="translate(127.878588 72.67663)scale(0.05 -0.05)">
     <use xlink:href="#ArialMT-49"/>
     <use x="55.615234" xlink:href="#ArialMT-52"/>
     <use x="111.230469" xlink:href="#ArialMT-50"/>
    </g>
   </g>
   <g id="text_10">
    <!-- 131 -->
    <defs>
     <path d="M 4.203125 18.890625 
L 12.984375 20.0625 
Q 14.5 12.59375 18.140625 9.296875 
Q 21.78125 6 27 6 
Q 33.203125 6 37.46875 10.296875 
Q 41.75 14.59375 41.75 20.953125 
Q 41.75 27 37.796875 30.921875 
Q 33.84375 34.859375 27.734375 34.859375 
Q 25.25 34.859375 21.53125 33.890625 
L 22.515625 41.609375 
Q 23.390625 41.5 23.921875 41.5 
Q 29.546875 41.5 34.03125 44.421875 
Q 38.53125 47.359375 38.53125 53.46875 
Q 38.53125 58.296875 35.25 61.46875 
Q 31.984375 64.65625 26.8125 64.65625 
Q 21.6875 64.65625 18.265625 61.421875 
Q 14.84375 58.203125 13.875 51.765625 
L 5.078125 53.328125 
Q 6.6875 62.15625 12.390625 67.015625 
Q 18.109375 71.875 26.609375 71.875 
Q 32.46875 71.875 37.390625 69.359375 
Q 42.328125 66.84375 44.9375 62.5 
Q 47.5625 58.15625 47.5625 53.265625 
Q 47.5625 48.640625 45.0625 44.828125 
Q 42.578125 41.015625 37.703125 38.765625 
Q 44.046875 37.3125 47.5625 32.6875 
Q 51.078125 28.078125 51.078125 21.140625 
Q 51.078125 11.765625 44.234375 5.25 
Q 37.40625 -1.265625 26.953125 -1.265625 
Q 17.53125 -1.265625 11.296875 4.34375 
Q 5.078125 9.96875 4.203125 18.890625 
z
" id="ArialMT-51"/>
    </defs>
    <g transform="translate(138.201449 70.54156)scale(0.05 -0.05)">
     <use xlink:href="#ArialMT-49"/>
     <use x="55.615234" xlink:href="#ArialMT-51"/>
     <use x="111.230469" xlink:href="#ArialMT-49"/>
    </g>
   </g>
   <g id="text_11">
    <!-- mCRPC -->
    <g transform="translate(150.991743 74.006808)scale(0.06 -0.06)">
     <use xlink:href="#ArialMT-109"/>
     <use x="83.300781" xlink:href="#ArialMT-67"/>
     <use x="155.517578" xlink:href="#ArialMT-82"/>
     <use x="227.734375" xlink:href="#ArialMT-80"/>
     <use x="294.433594" xlink:href="#ArialMT-67"/>
    </g>
    <!-- (n = 150) -->
    <defs>
     <path d="M 4.15625 18.75 
L 13.375 19.53125 
Q 14.40625 12.796875 18.140625 9.390625 
Q 21.875 6 27.15625 6 
Q 33.5 6 37.890625 10.78125 
Q 42.28125 15.578125 42.28125 23.484375 
Q 42.28125 31 38.0625 35.34375 
Q 33.84375 39.703125 27 39.703125 
Q 22.75 39.703125 19.328125 37.765625 
Q 15.921875 35.84375 13.96875 32.765625 
L 5.71875 33.84375 
L 12.640625 70.609375 
L 48.25 70.609375 
L 48.25 62.203125 
L 19.671875 62.203125 
L 15.828125 42.96875 
Q 22.265625 47.46875 29.34375 47.46875 
Q 38.71875 47.46875 45.15625 40.96875 
Q 51.609375 34.46875 51.609375 24.265625 
Q 51.609375 14.546875 45.953125 7.46875 
Q 39.0625 -1.21875 27.15625 -1.21875 
Q 17.390625 -1.21875 11.203125 4.25 
Q 5.03125 9.71875 4.15625 18.75 
z
" id="ArialMT-53"/>
    </defs>
    <g transform="translate(149.90143 80.440683)scale(0.06 -0.06)">
     <use xlink:href="#ArialMT-40"/>
     <use x="33.300781" xlink:href="#ArialMT-110"/>
     <use x="88.916016" xlink:href="#ArialMT-32"/>
     <use x="116.699219" xlink:href="#ArialMT-61"/>
     <use x="175.097656" xlink:href="#ArialMT-32"/>
     <use x="202.880859" xlink:href="#ArialMT-49"/>
     <use x="258.496094" xlink:href="#ArialMT-53"/>
     <use x="314.111328" xlink:href="#ArialMT-48"/>
     <use x="369.726562" xlink:href="#ArialMT-41"/>
    </g>
   </g>
  </g>
  <g id="axes_4">
   <g id="patch_20">
    <path d="M 306.9196 75.742965 
C 306.9196 70.861533 306.103017 66.014312 304.503713 61.402305 
C 302.904408 56.790299 300.544799 52.478152 297.522734 48.644681 
C 294.50067 44.811211 290.858507 41.510147 286.747281 38.878381 
C 282.636055 36.246614 278.113391 34.321031 273.366833 33.181484 
C 268.620276 32.041937 263.716356 31.704396 258.85843 32.182861 
C 254.000503 32.661325 249.256662 33.949087 244.823623 35.992746 
C 240.390584 38.036405 236.330484 40.807317 232.811686 44.190576 
C 229.292889 47.573834 226.364716 51.52202 224.148592 55.871407 
C 221.932469 60.220795 220.459458 64.910422 219.790642 69.745819 
C 219.121826 74.581215 219.26658 79.494606 220.2189 84.282242 
C 221.171221 89.069879 222.91776 93.664655 225.386092 97.876033 
C 227.854425 102.087412 231.009953 105.856365 234.721823 109.026601 
C 238.433693 112.196837 242.649878 114.72392 247.19554 116.503057 
C 251.741203 118.282195 256.552628 119.288449 261.430297 119.480092 
C 266.307965 119.671736 271.183508 119.046082 275.854747 117.629077 
C 280.525986 116.212071 284.927446 114.023575 288.876606 111.154341 
L 263.148727 75.742965 
L 306.9196 75.742965 
z
" style="fill:#e15759;"/>
   </g>
   <g id="patch_21">
    <path d="M 288.876606 111.154341 
C 294.464618 107.094412 299.013079 101.768846 302.148864 95.614519 
C 305.284649 89.460191 306.919602 82.650119 306.9196 75.742957 
L 263.148727 75.742965 
L 288.876606 111.154341 
z
" style="fill:#ffffff;"/>
   </g>
   <g id="patch_22">
    <path d="M 297.540128 75.742965 
C 297.540128 69.217466 295.682884 62.824791 292.186347 57.31513 
C 288.689809 51.805469 283.69632 47.403117 277.791872 44.624695 
C 271.887424 41.846273 265.312383 40.804889 258.83834 41.622751 
C 252.364296 42.440614 246.254805 45.084427 241.226821 49.243937 
C 236.198838 53.403448 232.45705 58.909323 230.440561 65.115441 
C 228.424071 71.32156 228.214971 77.975274 229.837797 84.295763 
C 231.460624 90.616251 234.849313 96.346209 239.606198 100.81322 
C 244.363083 105.280231 250.294513 108.302444 256.704428 109.5252 
L 263.148727 75.742965 
L 297.540128 75.742965 
z
" style="fill:#e19da7;"/>
   </g>
   <g id="patch_23">
    <path d="M 256.704428 109.5252 
C 261.677035 110.473775 266.798293 110.312832 271.701527 109.053894 
C 276.60476 107.794957 281.170087 105.468806 285.070636 102.24199 
C 288.971185 99.015174 292.111589 94.966588 294.266999 90.386105 
C 296.42241 85.805622 297.540128 80.805233 297.540128 75.742958 
L 263.148727 75.742965 
L 256.704428 109.5252 
z
" style="fill:#ffffff;"/>
   </g>
   <g id="patch_24">
    <path d="M 288.160655 75.742965 
C 288.160655 72.193789 287.405216 68.684927 285.94468 65.450197 
C 284.484143 62.215467 282.351687 59.328352 279.689411 56.981241 
C 277.027135 54.634129 273.895518 52.880339 270.503241 51.836739 
C 267.110964 50.793138 263.535089 50.483434 260.0139 50.928264 
L 263.148727 75.742965 
L 288.160655 75.742965 
z
" style="fill:#b07aa1;"/>
   </g>
   <g id="patch_25">
    <path d="M 260.0139 50.928264 
C 255.23924 51.531444 250.738625 53.500054 247.054654 56.596755 
C 243.370683 59.693457 240.657602 63.788594 239.242501 68.388452 
C 237.8274 72.98831 237.76953 77.900296 239.075868 82.532216 
C 240.382205 87.164137 242.998054 91.322056 246.608045 94.50469 
C 250.218037 97.687325 254.671023 99.761421 259.430147 100.476923 
C 264.189271 101.192424 269.055271 100.519374 273.441498 98.538916 
C 277.827725 96.558457 281.55053 93.353512 284.161089 89.310469 
C 286.771647 85.267427 288.160656 80.555569 288.160655 75.74296 
L 263.148727 75.742965 
L 260.0139 50.928264 
z
" style="fill:#ffffff;"/>
   </g>
   <g id="patch_26">
    <path clip-path="url(#pe01978f378)" d="M 263.148727 91.375419 
C 267.294503 91.375419 271.271036 89.728285 274.202542 86.796779 
C 277.134048 83.865273 278.781182 79.88874 278.781182 75.742965 
C 278.781182 71.597189 277.134048 67.620656 274.202542 64.68915 
C 271.271036 61.757644 267.294503 60.11051 263.148727 60.11051 
C 259.002952 60.11051 255.026419 61.757644 252.094913 64.68915 
C 249.163407 67.620656 247.516273 71.597189 247.516273 75.742965 
C 247.516273 79.88874 249.163407 83.865273 252.094913 86.796779 
C 255.026419 89.728285 259.002952 91.375419 263.148727 91.375419 
z
" style="fill:#ffffff;stroke:#ffffff;stroke-linejoin:miter;"/>
   </g>
   <g id="matplotlib.axis_7"/>
   <g id="matplotlib.axis_8"/>
   <g id="text_12">
    <!-- 85 -->
    <defs>
     <path d="M 17.671875 38.8125 
Q 12.203125 40.828125 9.5625 44.53125 
Q 6.9375 48.25 6.9375 53.421875 
Q 6.9375 61.234375 12.546875 66.546875 
Q 18.171875 71.875 27.484375 71.875 
Q 36.859375 71.875 42.578125 66.421875 
Q 48.296875 60.984375 48.296875 53.171875 
Q 48.296875 48.1875 45.671875 44.5 
Q 43.0625 40.828125 37.75 38.8125 
Q 44.34375 36.671875 47.78125 31.875 
Q 51.21875 27.09375 51.21875 20.453125 
Q 51.21875 11.28125 44.71875 5.03125 
Q 38.234375 -1.21875 27.640625 -1.21875 
Q 17.046875 -1.21875 10.546875 5.046875 
Q 4.046875 11.328125 4.046875 20.703125 
Q 4.046875 27.6875 7.59375 32.390625 
Q 11.140625 37.109375 17.671875 38.8125 
z
M 15.921875 53.71875 
Q 15.921875 48.640625 19.1875 45.40625 
Q 22.46875 42.1875 27.6875 42.1875 
Q 32.765625 42.1875 36.015625 45.375 
Q 39.265625 48.578125 39.265625 53.21875 
Q 39.265625 58.0625 35.90625 61.359375 
Q 32.5625 64.65625 27.59375 64.65625 
Q 22.5625 64.65625 19.234375 61.421875 
Q 15.921875 58.203125 15.921875 53.71875 
z
M 13.09375 20.65625 
Q 13.09375 16.890625 14.875 13.375 
Q 16.65625 9.859375 20.171875 7.921875 
Q 23.6875 6 27.734375 6 
Q 34.03125 6 38.125 10.046875 
Q 42.234375 14.109375 42.234375 20.359375 
Q 42.234375 26.703125 38.015625 30.859375 
Q 33.796875 35.015625 27.4375 35.015625 
Q 21.234375 35.015625 17.15625 30.90625 
Q 13.09375 26.8125 13.09375 20.65625 
z
" id="ArialMT-56"/>
    </defs>
    <g transform="translate(225.607679 60.740866)scale(0.05 -0.05)">
     <use xlink:href="#ArialMT-56"/>
     <use x="55.615234" xlink:href="#ArialMT-53"/>
    </g>
   </g>
   <g id="text_13">
    <!-- 72 -->
    <defs>
     <path d="M 4.734375 62.203125 
L 4.734375 70.65625 
L 51.078125 70.65625 
L 51.078125 63.8125 
Q 44.234375 56.546875 37.515625 44.484375 
Q 30.8125 32.421875 27.15625 19.671875 
Q 24.515625 10.6875 23.78125 0 
L 14.75 0 
Q 14.890625 8.453125 18.0625 20.40625 
Q 21.234375 32.375 27.171875 43.484375 
Q 33.109375 54.59375 39.796875 62.203125 
z
" id="ArialMT-55"/>
    </defs>
    <g transform="translate(240.050265 55.836321)scale(0.05 -0.05)">
     <use xlink:href="#ArialMT-55"/>
     <use x="55.615234" xlink:href="#ArialMT-50"/>
    </g>
   </g>
   <g id="text_14">
    <!-- 27 -->
    <g transform="translate(275.05802 63.527101)scale(0.05 -0.05)">
     <use xlink:href="#ArialMT-50"/>
     <use x="55.615234" xlink:href="#ArialMT-55"/>
    </g>
   </g>
   <g id="text_15">
    <!-- KIRP -->
    <defs>
     <path d="M 7.328125 0 
L 7.328125 71.578125 
L 16.796875 71.578125 
L 16.796875 36.078125 
L 52.34375 71.578125 
L 65.1875 71.578125 
L 35.15625 42.578125 
L 66.5 0 
L 54 0 
L 28.515625 36.234375 
L 16.796875 24.8125 
L 16.796875 0 
z
" id="ArialMT-75"/>
    </defs>
    <g transform="translate(256.14654 74.006808)scale(0.06 -0.06)">
     <use xlink:href="#ArialMT-75"/>
     <use x="66.699219" xlink:href="#ArialMT-73"/>
     <use x="94.482422" xlink:href="#ArialMT-82"/>
     <use x="166.699219" xlink:href="#ArialMT-80"/>
    </g>
    <!-- (n = 100) -->
    <g transform="translate(251.058727 80.440683)scale(0.06 -0.06)">
     <use xlink:href="#ArialMT-40"/>
     <use x="33.300781" xlink:href="#ArialMT-110"/>
     <use x="88.916016" xlink:href="#ArialMT-32"/>
     <use x="116.699219" xlink:href="#ArialMT-61"/>
     <use x="175.097656" xlink:href="#ArialMT-32"/>
     <use x="202.880859" xlink:href="#ArialMT-49"/>
     <use x="258.496094" xlink:href="#ArialMT-48"/>
     <use x="314.111328" xlink:href="#ArialMT-48"/>
     <use x="369.726562" xlink:href="#ArialMT-41"/>
    </g>
   </g>
  </g>
  <g id="axes_5">
   <g id="patch_27">
    <path d="M 408.076898 75.742965 
C 408.076898 70.876201 407.265214 66.043339 405.675307 61.443601 
C 404.085399 56.843863 401.739419 52.541334 398.734072 48.713373 
C 395.728726 44.885412 392.105884 41.585351 388.014888 38.949227 
C 383.923893 36.313103 379.42174 34.377643 374.69402 33.22263 
C 369.9663 32.067617 365.078879 31.709144 360.233229 32.161987 
C 355.387579 32.61483 350.651209 33.87268 346.219365 35.883687 
C 341.78752 37.894693 337.721946 40.630838 334.190234 43.979331 
C 330.658522 47.327823 327.709876 51.242012 325.465848 55.560546 
C 323.22182 59.879079 321.713673 64.541791 321.003576 69.356472 
C 320.293479 74.171153 320.391326 79.070726 321.293083 83.853217 
C 322.19484 88.635709 323.887944 93.23449 326.3026 97.459987 
C 328.717257 101.685484 331.819825 105.478828 335.48241 108.683647 
C 339.144995 111.888466 343.316568 114.460111 347.825169 116.292573 
C 352.333769 118.125034 357.116582 119.192782 361.976448 119.451801 
C 366.836315 119.710821 371.705527 119.157502 376.383363 117.814656 
C 381.0612 116.47181 385.48249 114.358144 389.464976 111.560788 
L 364.306025 75.742965 
L 408.076898 75.742965 
z
" style="fill:#e15759;"/>
   </g>
   <g id="patch_28">
    <path d="M 389.464976 111.560788 
C 395.21382 107.522718 399.906877 102.159321 403.146202 95.925382 
C 406.385527 89.691443 408.076898 82.768288 408.076898 75.742961 
L 364.306025 75.742965 
L 389.464976 111.560788 
z
" style="fill:#ffffff;"/>
   </g>
   <g id="patch_29">
    <path d="M 398.697425 75.742965 
C 398.697425 69.292146 396.882448 62.969628 393.460798 57.501047 
C 390.039149 52.032466 385.146935 47.635352 379.345635 44.814361 
C 373.544336 41.993371 367.064716 40.860719 360.650442 41.546399 
C 354.236168 42.232079 348.14239 44.708816 343.068488 48.692356 
C 337.994586 52.675895 334.142393 58.007779 331.954025 64.076066 
C 329.765657 70.144353 329.328162 76.707658 330.691754 83.01271 
C 332.055345 89.317762 335.16578 95.113758 339.666075 99.73549 
C 344.16637 104.357223 349.87751 107.620848 356.144028 109.151799 
L 364.306025 75.742965 
L 398.697425 75.742965 
z
" style="fill:#e19da7;"/>
   </g>
   <g id="patch_30">
    <path d="M 356.144028 109.151799 
C 361.205745 110.38841 366.482928 110.458663 371.57577 109.357236 
C 376.668612 108.255809 381.445168 106.011238 385.543561 102.793574 
C 389.641954 99.57591 392.956002 95.468517 395.234628 90.782576 
C 397.513254 86.096634 398.697425 80.953549 398.697425 75.742965 
L 364.306025 75.742965 
L 356.144028 109.151799 
z
" style="fill:#ffffff;"/>
   </g>
   <g id="patch_31">
    <path d="M 389.317952 75.742965 
C 389.317952 71.728492 388.351454 67.772404 386.50041 64.210153 
C 384.649367 60.647902 381.96762 57.583104 378.682566 55.275636 
C 375.397512 52.968167 371.604703 51.485145 367.625747 50.952322 
C 363.646791 50.419499 359.597424 50.852372 355.821008 52.214237 
C 352.044593 53.576102 348.650973 55.827346 345.927908 58.777077 
C 343.204844 61.726807 341.23154 65.289226 340.175321 69.16226 
C 339.119103 73.035294 339.010692 77.106289 339.859281 81.030049 
C 340.707871 84.953808 342.488777 88.616202 345.050991 91.706679 
L 364.306025 75.742965 
L 389.317952 75.742965 
z
" style="fill:#b07aa1;"/>
   </g>
   <g id="patch_32">
    <path d="M 345.050991 91.706679 
C 348.334656 95.667354 352.76174 98.520046 357.725319 99.873668 
C 362.688897 101.22729 367.951284 101.017023 372.791039 99.271693 
C 377.630794 97.526363 381.81616 94.329548 384.773352 90.119509 
C 387.730543 85.909471 389.317951 80.887812 389.317952 75.742969 
L 364.306025 75.742965 
L 345.050991 91.706679 
z
" style="fill:#ffffff;"/>
   </g>
   <g id="patch_33">
    <path clip-path="url(#p2d357720f5)" d="M 364.306025 91.375419 
C 368.4518 91.375419 372.428333 89.728285 375.359839 86.796779 
C 378.291345 83.865273 379.938479 79.88874 379.938479 75.742965 
C 379.938479 71.597189 378.291345 67.620656 375.359839 64.68915 
C 372.428333 61.757644 368.4518 60.11051 364.306025 60.11051 
C 360.160249 60.11051 356.183716 61.757644 353.25221 64.68915 
C 350.320704 67.620656 348.67357 71.597189 348.67357 75.742965 
C 348.67357 79.88874 350.320704 83.865273 353.25221 86.796779 
C 356.183716 89.728285 360.160249 91.375419 364.306025 91.375419 
z
" style="fill:#ffffff;stroke:#ffffff;stroke-linejoin:miter;"/>
   </g>
   <g id="matplotlib.axis_9"/>
   <g id="matplotlib.axis_10"/>
   <g id="text_16">
    <!-- 50 -->
    <g transform="translate(326.896143 60.485959)scale(0.05 -0.05)">
     <use xlink:href="#ArialMT-53"/>
     <use x="55.615234" xlink:href="#ArialMT-48"/>
    </g>
   </g>
   <g id="text_17">
    <!-- 42 -->
    <g transform="translate(341.755058 55.395056)scale(0.05 -0.05)">
     <use xlink:href="#ArialMT-52"/>
     <use x="55.615234" xlink:href="#ArialMT-50"/>
    </g>
   </g>
   <g id="text_18">
    <!-- 36 -->
    <defs>
     <path d="M 49.75 54.046875 
L 41.015625 53.375 
Q 39.84375 58.546875 37.703125 60.890625 
Q 34.125 64.65625 28.90625 64.65625 
Q 24.703125 64.65625 21.53125 62.3125 
Q 17.390625 59.28125 14.984375 53.46875 
Q 12.59375 47.65625 12.5 36.921875 
Q 15.671875 41.75 20.265625 44.09375 
Q 24.859375 46.4375 29.890625 46.4375 
Q 38.671875 46.4375 44.84375 39.96875 
Q 51.03125 33.5 51.03125 23.25 
Q 51.03125 16.5 48.125 10.71875 
Q 45.21875 4.9375 40.140625 1.859375 
Q 35.0625 -1.21875 28.609375 -1.21875 
Q 17.625 -1.21875 10.6875 6.859375 
Q 3.765625 14.9375 3.765625 33.5 
Q 3.765625 54.25 11.421875 63.671875 
Q 18.109375 71.875 29.4375 71.875 
Q 37.890625 71.875 43.28125 67.140625 
Q 48.6875 62.40625 49.75 54.046875 
z
M 13.875 23.1875 
Q 13.875 18.65625 15.796875 14.5 
Q 17.71875 10.359375 21.1875 8.171875 
Q 24.65625 6 28.46875 6 
Q 34.03125 6 38.03125 10.484375 
Q 42.046875 14.984375 42.046875 22.703125 
Q 42.046875 30.125 38.078125 34.390625 
Q 34.125 38.671875 28.125 38.671875 
Q 22.171875 38.671875 18.015625 34.390625 
Q 13.875 30.125 13.875 23.1875 
z
" id="ArialMT-54"/>
    </defs>
    <g transform="translate(352.296475 59.15371)scale(0.05 -0.05)">
     <use xlink:href="#ArialMT-51"/>
     <use x="55.615234" xlink:href="#ArialMT-54"/>
    </g>
   </g>
   <g id="text_19">
    <!-- OS -->
    <g transform="translate(359.971493 74.006808)scale(0.06 -0.06)">
     <use xlink:href="#ArialMT-79"/>
     <use x="77.783203" xlink:href="#ArialMT-83"/>
    </g>
    <!-- (n = 59) -->
    <g transform="translate(353.884306 80.440683)scale(0.06 -0.06)">
     <use xlink:href="#ArialMT-40"/>
     <use x="33.300781" xlink:href="#ArialMT-110"/>
     <use x="88.916016" xlink:href="#ArialMT-32"/>
     <use x="116.699219" xlink:href="#ArialMT-61"/>
     <use x="175.097656" xlink:href="#ArialMT-32"/>
     <use x="202.880859" xlink:href="#ArialMT-53"/>
     <use x="258.496094" xlink:href="#ArialMT-57"/>
     <use x="314.111328" xlink:href="#ArialMT-41"/>
    </g>
   </g>
  </g>
  <g id="axes_6">
   <g id="patch_34">
    <path d="M 14.853543 140.878192 
L 106.814723 140.878192 
L 106.814723 121.337624 
L 14.853543 121.337624 
z
" style="fill:#ffffff;"/>
   </g>
   <g id="patch_35">
    <path clip-path="url(#pf5c9f7622f)" d="M 14.853543 139.989985 
L 73.708698 139.989985 
L 73.708698 122.225832 
L 14.853543 122.225832 
z
" style="fill:#0f7f12;"/>
   </g>
   <g id="patch_36">
    <path clip-path="url(#pf5c9f7622f)" d="M 73.708698 139.989985 
L 81.065592 139.989985 
L 81.065592 122.225832 
L 73.708698 122.225832 
z
" style="fill:#339834;"/>
   </g>
   <g id="patch_37">
    <path clip-path="url(#pf5c9f7622f)" d="M 81.065592 139.989985 
L 81.985204 139.989985 
L 81.985204 122.225832 
L 81.065592 122.225832 
z
" style="fill:#5eb15f;"/>
   </g>
   <g id="patch_38">
    <path clip-path="url(#pf5c9f7622f)" d="M 81.985204 139.989985 
L 95.779381 139.989985 
L 95.779381 122.225832 
L 81.985204 122.225832 
z
" style="fill:#8bcb8b;"/>
   </g>
   <g id="patch_39">
    <path clip-path="url(#pf5c9f7622f)" d="M 95.779381 139.989985 
L 104.055887 139.989985 
L 104.055887 122.225832 
L 95.779381 122.225832 
z
" style="fill:#b8e4b8;"/>
   </g>
   <g id="patch_40">
    <path clip-path="url(#pf5c9f7622f)" d="M 104.055887 139.989985 
L 104.975499 139.989985 
L 104.975499 122.225832 
L 104.055887 122.225832 
z
" style="fill:#e6fee6;"/>
   </g>
   <g id="patch_41">
    <path clip-path="url(#pf5c9f7622f)" d="M 104.975499 139.989985 
L 107.734334 139.989985 
L 107.734334 122.225832 
L 104.975499 122.225832 
z
" style="fill:#e6e6e6;"/>
   </g>
   <g id="matplotlib.axis_11">
    <g id="xtick_7"/>
    <g id="xtick_8"/>
    <g id="xtick_9"/>
   </g>
   <g id="matplotlib.axis_12">
    <g id="ytick_3"/>
    <g id="ytick_4"/>
    <g id="ytick_5"/>
   </g>
   <g id="text_20">
    <!-- 70 -->
    <g transform="translate(42.441897 132.218168)scale(0.06 -0.06)">
     <use xlink:href="#ArialMT-55"/>
     <use x="55.615234" xlink:href="#ArialMT-48"/>
    </g>
   </g>
   <g id="text_21">
    <!-- 9 -->
    <g transform="translate(75.547922 132.218168)scale(0.06 -0.06)">
     <use xlink:href="#ArialMT-57"/>
    </g>
   </g>
   <g id="text_22">
    <!-- 16 -->
    <g transform="translate(84.74404 132.218168)scale(0.06 -0.06)">
     <use xlink:href="#ArialMT-49"/>
     <use x="55.615234" xlink:href="#ArialMT-54"/>
    </g>
   </g>
   <g id="text_23">
    <!-- 10 -->
    <g transform="translate(95.779381 132.218168)scale(0.06 -0.06)">
     <use xlink:href="#ArialMT-49"/>
     <use x="55.615234" xlink:href="#ArialMT-48"/>
    </g>
   </g>
  </g>
  <g id="axes_7">
   <g id="patch_42">
    <path d="M 116.010841 140.878192 
L 207.97202 140.878192 
L 207.97202 121.337624 
L 116.010841 121.337624 
z
" style="fill:#ffffff;"/>
   </g>
   <g id="patch_43">
    <path clip-path="url(#p2132e1d9fb)" d="M 116.010841 139.989985 
L 133.483465 139.989985 
L 133.483465 122.225832 
L 116.010841 122.225832 
z
" style="fill:#0f7f12;"/>
   </g>
   <g id="patch_44">
    <path clip-path="url(#p2132e1d9fb)" d="M 133.483465 139.989985 
L 181.303278 139.989985 
L 181.303278 122.225832 
L 133.483465 122.225832 
z
" style="fill:#339834;"/>
   </g>
   <g id="patch_45">
    <path clip-path="url(#p2132e1d9fb)" d="M 181.303278 139.989985 
L 184.062113 139.989985 
L 184.062113 122.225832 
L 181.303278 122.225832 
z
" style="fill:#5eb15f;"/>
   </g>
   <g id="patch_46">
    <path clip-path="url(#p2132e1d9fb)" d="M 184.062113 139.989985 
L 201.534737 139.989985 
L 201.534737 122.225832 
L 184.062113 122.225832 
z
" style="fill:#b8e4b8;"/>
   </g>
   <g id="patch_47">
    <path clip-path="url(#p2132e1d9fb)" d="M 201.534737 139.989985 
L 202.454349 139.989985 
L 202.454349 122.225832 
L 201.534737 122.225832 
z
" style="fill:#e6fee6;"/>
   </g>
   <g id="patch_48">
    <path clip-path="url(#p2132e1d9fb)" d="M 202.454349 139.989985 
L 207.97202 139.989985 
L 207.97202 122.225832 
L 202.454349 122.225832 
z
" style="fill:#e6e6e6;"/>
   </g>
   <g id="matplotlib.axis_13">
    <g id="xtick_10"/>
    <g id="xtick_11"/>
    <g id="xtick_12"/>
   </g>
   <g id="matplotlib.axis_14">
    <g id="ytick_6"/>
    <g id="ytick_7"/>
    <g id="ytick_8"/>
   </g>
  </g>
  <g id="axes_8">
   <g id="patch_49">
    <path d="M 217.168138 140.878192 
L 309.129317 140.878192 
L 309.129317 121.337624 
L 217.168138 121.337624 
z
" style="fill:#ffffff;"/>
   </g>
   <g id="patch_50">
    <path clip-path="url(#pd8c647572a)" d="M 217.168138 139.989985 
L 231.881926 139.989985 
L 231.881926 122.225832 
L 217.168138 122.225832 
z
" style="fill:#0f7f12;"/>
   </g>
   <g id="patch_51">
    <path clip-path="url(#pd8c647572a)" d="M 231.881926 139.989985 
L 250.274162 139.989985 
L 250.274162 122.225832 
L 231.881926 122.225832 
z
" style="fill:#339834;"/>
   </g>
   <g id="patch_52">
    <path clip-path="url(#pd8c647572a)" d="M 250.274162 139.989985 
L 253.952609 139.989985 
L 253.952609 122.225832 
L 250.274162 122.225832 
z
" style="fill:#5eb15f;"/>
   </g>
   <g id="patch_53">
    <path clip-path="url(#pd8c647572a)" d="M 253.952609 139.989985 
L 262.229116 139.989985 
L 262.229116 122.225832 
L 253.952609 122.225832 
z
" style="fill:#8bcb8b;"/>
   </g>
   <g id="patch_54">
    <path clip-path="url(#pd8c647572a)" d="M 262.229116 139.989985 
L 276.942904 139.989985 
L 276.942904 122.225832 
L 262.229116 122.225832 
z
" style="fill:#b8e4b8;"/>
   </g>
   <g id="patch_55">
    <path clip-path="url(#pd8c647572a)" d="M 276.942904 139.989985 
L 293.495916 139.989985 
L 293.495916 122.225832 
L 276.942904 122.225832 
z
" style="fill:#e6fee6;"/>
   </g>
   <g id="patch_56">
    <path clip-path="url(#pd8c647572a)" d="M 293.495916 139.989985 
L 309.129317 139.989985 
L 309.129317 122.225832 
L 293.495916 122.225832 
z
" style="fill:#e6e6e6;"/>
   </g>
   <g id="matplotlib.axis_15">
    <g id="xtick_13"/>
    <g id="xtick_14"/>
    <g id="xtick_15"/>
   </g>
   <g id="matplotlib.axis_16">
    <g id="ytick_9"/>
    <g id="ytick_10"/>
    <g id="ytick_11"/>
   </g>
   <g id="text_24">
    <!-- 16 -->
    <g transform="translate(298.093975 132.218168)scale(0.06 -0.06)">
     <use xlink:href="#ArialMT-49"/>
     <use x="55.615234" xlink:href="#ArialMT-54"/>
    </g>
   </g>
   <g id="text_25">
    <!-- 16 -->
    <g transform="translate(298.093975 132.218168)scale(0.06 -0.06)">
     <use xlink:href="#ArialMT-49"/>
     <use x="55.615234" xlink:href="#ArialMT-54"/>
    </g>
   </g>
   <g id="text_26">
    <!-- 18 -->
    <g transform="translate(281.540963 132.218168)scale(0.06 -0.06)">
     <use xlink:href="#ArialMT-49"/>
     <use x="55.615234" xlink:href="#ArialMT-56"/>
    </g>
   </g>
   <g id="text_27">
    <!-- 16 -->
    <g transform="translate(298.093975 132.218168)scale(0.06 -0.06)">
     <use xlink:href="#ArialMT-49"/>
     <use x="55.615234" xlink:href="#ArialMT-54"/>
    </g>
   </g>
  </g>
  <g id="axes_9">
   <g id="patch_57">
    <path d="M 318.325435 140.878192 
L 410.286614 140.878192 
L 410.286614 121.337624 
L 318.325435 121.337624 
z
" style="fill:#ffffff;"/>
   </g>
   <g id="patch_58">
    <path clip-path="url(#p08b394554e)" d="M 318.325435 139.989985 
L 326.601941 139.989985 
L 326.601941 122.225832 
L 318.325435 122.225832 
z
" style="fill:#0f7f12;"/>
   </g>
   <g id="patch_59">
    <path clip-path="url(#p08b394554e)" d="M 326.601941 139.989985 
L 333.039224 139.989985 
L 333.039224 122.225832 
L 326.601941 122.225832 
z
" style="fill:#339834;"/>
   </g>
   <g id="patch_60">
    <path clip-path="url(#p08b394554e)" d="M 333.039224 139.989985 
L 335.798059 139.989985 
L 335.798059 122.225832 
L 333.039224 122.225832 
z
" style="fill:#5eb15f;"/>
   </g>
   <g id="patch_61">
    <path clip-path="url(#p08b394554e)" d="M 335.798059 139.989985 
L 337.637283 139.989985 
L 337.637283 122.225832 
L 335.798059 122.225832 
z
" style="fill:#8bcb8b;"/>
   </g>
   <g id="patch_62">
    <path clip-path="url(#p08b394554e)" d="M 337.637283 139.989985 
L 363.386413 139.989985 
L 363.386413 122.225832 
L 337.637283 122.225832 
z
" style="fill:#b8e4b8;"/>
   </g>
   <g id="patch_63">
    <path clip-path="url(#p08b394554e)" d="M 363.386413 139.989985 
L 378.100201 139.989985 
L 378.100201 122.225832 
L 363.386413 122.225832 
z
" style="fill:#e6fee6;"/>
   </g>
   <g id="patch_64">
    <path clip-path="url(#p08b394554e)" d="M 378.100201 139.989985 
L 409.367002 139.989985 
L 409.367002 122.225832 
L 378.100201 122.225832 
z
" style="fill:#e6e6e6;"/>
   </g>
   <g id="matplotlib.axis_17">
    <g id="xtick_16"/>
    <g id="xtick_17"/>
    <g id="xtick_18"/>
   </g>
   <g id="matplotlib.axis_18">
    <g id="ytick_12"/>
    <g id="ytick_13"/>
    <g id="ytick_14"/>
   </g>
   <g id="text_28">
    <!-- 17 -->
    <g transform="translate(346.8334 132.218168)scale(0.06 -0.06)">
     <use xlink:href="#ArialMT-49"/>
     <use x="55.615234" xlink:href="#ArialMT-55"/>
    </g>
   </g>
   <g id="text_29">
    <!-- 9 -->
    <g transform="translate(368.904084 132.218168)scale(0.06 -0.06)">
     <use xlink:href="#ArialMT-57"/>
    </g>
   </g>
   <g id="text_30">
    <!-- 20 -->
    <g transform="translate(389.135543 132.218168)scale(0.06 -0.06)">
     <use xlink:href="#ArialMT-50"/>
     <use x="55.615234" xlink:href="#ArialMT-48"/>
    </g>
   </g>
  </g>
  <g id="axes_10">
   <g id="patch_65">
    <path d="M 14.853543 153.905238 
L 410.286614 153.905238 
L 410.286614 140.878192 
L 14.853543 140.878192 
z
" style="fill:#ffffff;"/>
   </g>
   <g id="matplotlib.axis_19">
    <g id="xtick_19"/>
    <g id="xtick_20"/>
    <g id="xtick_21"/>
    <g id="xtick_22"/>
    <g id="xtick_23"/>
    <g id="xtick_24"/>
   </g>
   <g id="matplotlib.axis_20">
    <g id="ytick_15"/>
    <g id="ytick_16"/>
   </g>
   <g id="text_31">
    <!-- Counts of profiles with at least 1 observed molecular feature related to therapeutic sensitivity, by evidence -->
    <defs>
     <path d="M 3.328125 25.921875 
Q 3.328125 40.328125 11.328125 47.265625 
Q 18.015625 53.03125 27.640625 53.03125 
Q 38.328125 53.03125 45.109375 46.015625 
Q 51.90625 39.015625 51.90625 26.65625 
Q 51.90625 16.65625 48.90625 10.90625 
Q 45.90625 5.171875 40.15625 2 
Q 34.421875 -1.171875 27.640625 -1.171875 
Q 16.75 -1.171875 10.03125 5.8125 
Q 3.328125 12.796875 3.328125 25.921875 
z
M 12.359375 25.921875 
Q 12.359375 15.96875 16.703125 11.015625 
Q 21.046875 6.0625 27.640625 6.0625 
Q 34.1875 6.0625 38.53125 11.03125 
Q 42.875 16.015625 42.875 26.21875 
Q 42.875 35.84375 38.5 40.796875 
Q 34.125 45.75 27.640625 45.75 
Q 21.046875 45.75 16.703125 40.8125 
Q 12.359375 35.890625 12.359375 25.921875 
z
" id="ArialMT-111"/>
     <path d="M 40.578125 0 
L 40.578125 7.625 
Q 34.515625 -1.171875 24.125 -1.171875 
Q 19.53125 -1.171875 15.546875 0.578125 
Q 11.578125 2.34375 9.640625 5 
Q 7.71875 7.671875 6.9375 11.53125 
Q 6.390625 14.109375 6.390625 19.734375 
L 6.390625 51.859375 
L 15.1875 51.859375 
L 15.1875 23.09375 
Q 15.1875 16.21875 15.71875 13.8125 
Q 16.546875 10.359375 19.234375 8.375 
Q 21.921875 6.390625 25.875 6.390625 
Q 29.828125 6.390625 33.296875 8.421875 
Q 36.765625 10.453125 38.203125 13.9375 
Q 39.65625 17.4375 39.65625 24.078125 
L 39.65625 51.859375 
L 48.4375 51.859375 
L 48.4375 0 
z
" id="ArialMT-117"/>
     <path d="M 25.78125 7.859375 
L 27.046875 0.09375 
Q 23.34375 -0.6875 20.40625 -0.6875 
Q 15.625 -0.6875 12.984375 0.828125 
Q 10.359375 2.34375 9.28125 4.8125 
Q 8.203125 7.28125 8.203125 15.1875 
L 8.203125 45.015625 
L 1.765625 45.015625 
L 1.765625 51.859375 
L 8.203125 51.859375 
L 8.203125 64.703125 
L 16.9375 69.96875 
L 16.9375 51.859375 
L 25.78125 51.859375 
L 25.78125 45.015625 
L 16.9375 45.015625 
L 16.9375 14.703125 
Q 16.9375 10.9375 17.40625 9.859375 
Q 17.875 8.796875 18.921875 8.15625 
Q 19.96875 7.515625 21.921875 7.515625 
Q 23.390625 7.515625 25.78125 7.859375 
z
" id="ArialMT-116"/>
     <path d="M 8.6875 0 
L 8.6875 45.015625 
L 0.921875 45.015625 
L 0.921875 51.859375 
L 8.6875 51.859375 
L 8.6875 57.375 
Q 8.6875 62.59375 9.625 65.140625 
Q 10.890625 68.5625 14.078125 70.671875 
Q 17.28125 72.796875 23.046875 72.796875 
Q 26.765625 72.796875 31.25 71.921875 
L 29.9375 64.265625 
Q 27.203125 64.75 24.75 64.75 
Q 20.75 64.75 19.09375 63.03125 
Q 17.4375 61.328125 17.4375 56.640625 
L 17.4375 51.859375 
L 27.546875 51.859375 
L 27.546875 45.015625 
L 17.4375 45.015625 
L 17.4375 0 
z
" id="ArialMT-102"/>
     <path d="M 6.59375 -19.875 
L 6.59375 51.859375 
L 14.59375 51.859375 
L 14.59375 45.125 
Q 17.4375 49.078125 21 51.046875 
Q 24.5625 53.03125 29.640625 53.03125 
Q 36.28125 53.03125 41.359375 49.609375 
Q 46.4375 46.1875 49.015625 39.953125 
Q 51.609375 33.734375 51.609375 26.3125 
Q 51.609375 18.359375 48.75 11.984375 
Q 45.90625 5.609375 40.453125 2.21875 
Q 35.015625 -1.171875 29 -1.171875 
Q 24.609375 -1.171875 21.109375 0.6875 
Q 17.625 2.546875 15.375 5.375 
L 15.375 -19.875 
z
M 14.546875 25.640625 
Q 14.546875 15.625 18.59375 10.84375 
Q 22.65625 6.0625 28.421875 6.0625 
Q 34.28125 6.0625 38.453125 11.015625 
Q 42.625 15.96875 42.625 26.375 
Q 42.625 36.28125 38.546875 41.203125 
Q 34.46875 46.140625 28.8125 46.140625 
Q 23.1875 46.140625 18.859375 40.890625 
Q 14.546875 35.640625 14.546875 25.640625 
z
" id="ArialMT-112"/>
     <path d="M 6.5 0 
L 6.5 51.859375 
L 14.40625 51.859375 
L 14.40625 44 
Q 17.4375 49.515625 20 51.265625 
Q 22.5625 53.03125 25.640625 53.03125 
Q 30.078125 53.03125 34.671875 50.203125 
L 31.640625 42.046875 
Q 28.421875 43.953125 25.203125 43.953125 
Q 22.3125 43.953125 20.015625 42.21875 
Q 17.71875 40.484375 16.75 37.40625 
Q 15.28125 32.71875 15.28125 27.15625 
L 15.28125 0 
z
" id="ArialMT-114"/>
     <path d="M 6.640625 61.46875 
L 6.640625 71.578125 
L 15.4375 71.578125 
L 15.4375 61.46875 
z
M 6.640625 0 
L 6.640625 51.859375 
L 15.4375 51.859375 
L 15.4375 0 
z
" id="ArialMT-105"/>
     <path d="M 42.09375 16.703125 
L 51.171875 15.578125 
Q 49.03125 7.625 43.21875 3.21875 
Q 37.40625 -1.171875 28.375 -1.171875 
Q 17 -1.171875 10.328125 5.828125 
Q 3.65625 12.84375 3.65625 25.484375 
Q 3.65625 38.578125 10.390625 45.796875 
Q 17.140625 53.03125 27.875 53.03125 
Q 38.28125 53.03125 44.875 45.953125 
Q 51.46875 38.875 51.46875 26.03125 
Q 51.46875 25.25 51.421875 23.6875 
L 12.75 23.6875 
Q 13.234375 15.140625 17.578125 10.59375 
Q 21.921875 6.0625 28.421875 6.0625 
Q 33.25 6.0625 36.671875 8.59375 
Q 40.09375 11.140625 42.09375 16.703125 
z
M 13.234375 30.90625 
L 42.1875 30.90625 
Q 41.609375 37.453125 38.875 40.71875 
Q 34.671875 45.796875 27.984375 45.796875 
Q 21.921875 45.796875 17.796875 41.75 
Q 13.671875 37.703125 13.234375 30.90625 
z
" id="ArialMT-101"/>
     <path d="M 16.15625 0 
L 0.296875 51.859375 
L 9.375 51.859375 
L 17.625 21.921875 
L 20.703125 10.796875 
Q 20.90625 11.625 23.390625 21.484375 
L 31.640625 51.859375 
L 40.671875 51.859375 
L 48.4375 21.78125 
L 51.03125 11.859375 
L 54 21.875 
L 62.890625 51.859375 
L 71.4375 51.859375 
L 55.21875 0 
L 46.09375 0 
L 37.84375 31.0625 
L 35.84375 39.890625 
L 25.34375 0 
z
" id="ArialMT-119"/>
     <path d="M 6.59375 0 
L 6.59375 71.578125 
L 15.375 71.578125 
L 15.375 45.90625 
Q 21.53125 53.03125 30.90625 53.03125 
Q 36.671875 53.03125 40.921875 50.75 
Q 45.171875 48.484375 47 44.484375 
Q 48.828125 40.484375 48.828125 32.859375 
L 48.828125 0 
L 40.046875 0 
L 40.046875 32.859375 
Q 40.046875 39.453125 37.1875 42.453125 
Q 34.328125 45.453125 29.109375 45.453125 
Q 25.203125 45.453125 21.75 43.421875 
Q 18.3125 41.40625 16.84375 37.9375 
Q 15.375 34.46875 15.375 28.375 
L 15.375 0 
z
" id="ArialMT-104"/>
     <path d="M 14.703125 0 
L 6.546875 0 
L 6.546875 71.578125 
L 15.328125 71.578125 
L 15.328125 46.046875 
Q 20.90625 53.03125 29.546875 53.03125 
Q 34.328125 53.03125 38.59375 51.09375 
Q 42.875 49.171875 45.625 45.671875 
Q 48.390625 42.1875 49.953125 37.25 
Q 51.515625 32.328125 51.515625 26.703125 
Q 51.515625 13.375 44.921875 6.09375 
Q 38.328125 -1.171875 29.109375 -1.171875 
Q 19.921875 -1.171875 14.703125 6.5 
z
M 14.59375 26.3125 
Q 14.59375 17 17.140625 12.84375 
Q 21.296875 6.0625 28.375 6.0625 
Q 34.125 6.0625 38.328125 11.0625 
Q 42.53125 16.0625 42.53125 25.984375 
Q 42.53125 36.140625 38.5 40.96875 
Q 34.46875 45.796875 28.765625 45.796875 
Q 23 45.796875 18.796875 40.796875 
Q 14.59375 35.796875 14.59375 26.3125 
z
" id="ArialMT-98"/>
     <path d="M 21 0 
L 1.265625 51.859375 
L 10.546875 51.859375 
L 21.6875 20.796875 
Q 23.484375 15.765625 25 10.359375 
Q 26.171875 14.453125 28.265625 20.21875 
L 39.796875 51.859375 
L 48.828125 51.859375 
L 29.203125 0 
z
" id="ArialMT-118"/>
     <path d="M 40.234375 0 
L 40.234375 6.546875 
Q 35.296875 -1.171875 25.734375 -1.171875 
Q 19.53125 -1.171875 14.328125 2.25 
Q 9.125 5.671875 6.265625 11.796875 
Q 3.421875 17.921875 3.421875 25.875 
Q 3.421875 33.640625 6 39.96875 
Q 8.59375 46.296875 13.765625 49.65625 
Q 18.953125 53.03125 25.34375 53.03125 
Q 30.03125 53.03125 33.6875 51.046875 
Q 37.359375 49.078125 39.65625 45.90625 
L 39.65625 71.578125 
L 48.390625 71.578125 
L 48.390625 0 
z
M 12.453125 25.875 
Q 12.453125 15.921875 16.640625 10.984375 
Q 20.84375 6.0625 26.5625 6.0625 
Q 32.328125 6.0625 36.34375 10.765625 
Q 40.375 15.484375 40.375 25.140625 
Q 40.375 35.796875 36.265625 40.765625 
Q 32.171875 45.75 26.171875 45.75 
Q 20.3125 45.75 16.375 40.96875 
Q 12.453125 36.1875 12.453125 25.875 
z
" id="ArialMT-100"/>
     <path d="M 6.203125 -19.96875 
L 5.21875 -11.71875 
Q 8.109375 -12.5 10.25 -12.5 
Q 13.1875 -12.5 14.9375 -11.515625 
Q 16.703125 -10.546875 17.828125 -8.796875 
Q 18.65625 -7.46875 20.515625 -2.25 
Q 20.75 -1.515625 21.296875 -0.09375 
L 1.609375 51.859375 
L 11.078125 51.859375 
L 21.875 21.828125 
Q 23.96875 16.109375 25.640625 9.8125 
Q 27.15625 15.875 29.25 21.625 
L 40.328125 51.859375 
L 49.125 51.859375 
L 29.390625 -0.875 
Q 26.21875 -9.421875 24.46875 -12.640625 
Q 22.125 -17 19.09375 -19.015625 
Q 16.0625 -21.046875 11.859375 -21.046875 
Q 9.328125 -21.046875 6.203125 -19.96875 
z
" id="ArialMT-121"/>
     <path d="M 8.890625 0 
L 8.890625 10.015625 
L 18.890625 10.015625 
L 18.890625 0 
Q 18.890625 -5.515625 16.9375 -8.90625 
Q 14.984375 -12.3125 10.75 -14.15625 
L 8.296875 -10.40625 
Q 11.078125 -9.1875 12.390625 -6.8125 
Q 13.71875 -4.4375 13.875 0 
z
" id="ArialMT-44"/>
    </defs>
    <g transform="translate(48.970235 149.854317)scale(0.07 -0.07)">
     <use xlink:href="#ArialMT-67"/>
     <use x="72.216797" xlink:href="#ArialMT-111"/>
     <use x="127.832031" xlink:href="#ArialMT-117"/>
     <use x="183.447266" xlink:href="#ArialMT-110"/>
     <use x="239.0625" xlink:href="#ArialMT-116"/>
     <use x="266.845703" xlink:href="#ArialMT-115"/>
     <use x="316.845703" xlink:href="#ArialMT-32"/>
     <use x="344.628906" xlink:href="#ArialMT-111"/>
     <use x="400.244141" xlink:href="#ArialMT-102"/>
     <use x="428.027344" xlink:href="#ArialMT-32"/>
     <use x="455.810547" xlink:href="#ArialMT-112"/>
     <use x="511.425781" xlink:href="#ArialMT-114"/>
     <use x="544.726562" xlink:href="#ArialMT-111"/>
     <use x="600.341797" xlink:href="#ArialMT-102"/>
     <use x="628.125" xlink:href="#ArialMT-105"/>
     <use x="650.341797" xlink:href="#ArialMT-108"/>
     <use x="672.558594" xlink:href="#ArialMT-101"/>
     <use x="728.173828" xlink:href="#ArialMT-115"/>
     <use x="778.173828" xlink:href="#ArialMT-32"/>
     <use x="805.957031" xlink:href="#ArialMT-119"/>
     <use x="878.173828" xlink:href="#ArialMT-105"/>
     <use x="900.390625" xlink:href="#ArialMT-116"/>
     <use x="928.173828" xlink:href="#ArialMT-104"/>
     <use x="983.789062" xlink:href="#ArialMT-32"/>
     <use x="1011.572266" xlink:href="#ArialMT-97"/>
     <use x="1067.1875" xlink:href="#ArialMT-116"/>
     <use x="1094.970703" xlink:href="#ArialMT-32"/>
     <use x="1122.753906" xlink:href="#ArialMT-108"/>
     <use x="1144.970703" xlink:href="#ArialMT-101"/>
     <use x="1200.585938" xlink:href="#ArialMT-97"/>
     <use x="1256.201172" xlink:href="#ArialMT-115"/>
     <use x="1306.201172" xlink:href="#ArialMT-116"/>
     <use x="1333.984375" xlink:href="#ArialMT-32"/>
     <use x="1361.767578" xlink:href="#ArialMT-49"/>
     <use x="1417.382812" xlink:href="#ArialMT-32"/>
     <use x="1445.166016" xlink:href="#ArialMT-111"/>
     <use x="1500.78125" xlink:href="#ArialMT-98"/>
     <use x="1556.396484" xlink:href="#ArialMT-115"/>
     <use x="1606.396484" xlink:href="#ArialMT-101"/>
     <use x="1662.011719" xlink:href="#ArialMT-114"/>
     <use x="1695.3125" xlink:href="#ArialMT-118"/>
     <use x="1745.3125" xlink:href="#ArialMT-101"/>
     <use x="1800.927734" xlink:href="#ArialMT-100"/>
     <use x="1856.542969" xlink:href="#ArialMT-32"/>
     <use x="1884.326172" xlink:href="#ArialMT-109"/>
     <use x="1967.626953" xlink:href="#ArialMT-111"/>
     <use x="2023.242188" xlink:href="#ArialMT-108"/>
     <use x="2045.458984" xlink:href="#ArialMT-101"/>
     <use x="2101.074219" xlink:href="#ArialMT-99"/>
     <use x="2151.074219" xlink:href="#ArialMT-117"/>
     <use x="2206.689453" xlink:href="#ArialMT-108"/>
     <use x="2228.90625" xlink:href="#ArialMT-97"/>
     <use x="2284.521484" xlink:href="#ArialMT-114"/>
     <use x="2317.822266" xlink:href="#ArialMT-32"/>
     <use x="2345.605469" xlink:href="#ArialMT-102"/>
     <use x="2373.388672" xlink:href="#ArialMT-101"/>
     <use x="2429.003906" xlink:href="#ArialMT-97"/>
     <use x="2484.619141" xlink:href="#ArialMT-116"/>
     <use x="2512.402344" xlink:href="#ArialMT-117"/>
     <use x="2568.017578" xlink:href="#ArialMT-114"/>
     <use x="2601.318359" xlink:href="#ArialMT-101"/>
     <use x="2656.933594" xlink:href="#ArialMT-32"/>
     <use x="2684.716797" xlink:href="#ArialMT-114"/>
     <use x="2718.017578" xlink:href="#ArialMT-101"/>
     <use x="2773.632812" xlink:href="#ArialMT-108"/>
     <use x="2795.849609" xlink:href="#ArialMT-97"/>
     <use x="2851.464844" xlink:href="#ArialMT-116"/>
     <use x="2879.248047" xlink:href="#ArialMT-101"/>
     <use x="2934.863281" xlink:href="#ArialMT-100"/>
     <use x="2990.478516" xlink:href="#ArialMT-32"/>
     <use x="3018.261719" xlink:href="#ArialMT-116"/>
     <use x="3046.044922" xlink:href="#ArialMT-111"/>
     <use x="3101.660156" xlink:href="#ArialMT-32"/>
     <use x="3129.443359" xlink:href="#ArialMT-116"/>
     <use x="3157.226562" xlink:href="#ArialMT-104"/>
     <use x="3212.841797" xlink:href="#ArialMT-101"/>
     <use x="3268.457031" xlink:href="#ArialMT-114"/>
     <use x="3301.757812" xlink:href="#ArialMT-97"/>
     <use x="3357.373047" xlink:href="#ArialMT-112"/>
     <use x="3412.988281" xlink:href="#ArialMT-101"/>
     <use x="3468.603516" xlink:href="#ArialMT-117"/>
     <use x="3524.21875" xlink:href="#ArialMT-116"/>
     <use x="3552.001953" xlink:href="#ArialMT-105"/>
     <use x="3574.21875" xlink:href="#ArialMT-99"/>
     <use x="3624.21875" xlink:href="#ArialMT-32"/>
     <use x="3652.001953" xlink:href="#ArialMT-115"/>
     <use x="3702.001953" xlink:href="#ArialMT-101"/>
     <use x="3757.617188" xlink:href="#ArialMT-110"/>
     <use x="3813.232422" xlink:href="#ArialMT-115"/>
     <use x="3863.232422" xlink:href="#ArialMT-105"/>
     <use x="3885.449219" xlink:href="#ArialMT-116"/>
     <use x="3913.232422" xlink:href="#ArialMT-105"/>
     <use x="3935.449219" xlink:href="#ArialMT-118"/>
     <use x="3985.449219" xlink:href="#ArialMT-105"/>
     <use x="4007.666016" xlink:href="#ArialMT-116"/>
     <use x="4035.449219" xlink:href="#ArialMT-121"/>
     <use x="4085.339844" xlink:href="#ArialMT-44"/>
     <use x="4113.123047" xlink:href="#ArialMT-32"/>
     <use x="4140.90625" xlink:href="#ArialMT-98"/>
     <use x="4196.521484" xlink:href="#ArialMT-121"/>
     <use x="4246.521484" xlink:href="#ArialMT-32"/>
     <use x="4274.304688" xlink:href="#ArialMT-101"/>
     <use x="4329.919922" xlink:href="#ArialMT-118"/>
     <use x="4379.919922" xlink:href="#ArialMT-105"/>
     <use x="4402.136719" xlink:href="#ArialMT-100"/>
     <use x="4457.751953" xlink:href="#ArialMT-101"/>
     <use x="4513.367188" xlink:href="#ArialMT-110"/>
     <use x="4568.982422" xlink:href="#ArialMT-99"/>
     <use x="4618.982422" xlink:href="#ArialMT-101"/>
    </g>
   </g>
  </g>
  <g id="axes_11">
   <g id="patch_66">
    <path d="M 14.853543 166.932283 
L 410.286614 166.932283 
L 410.286614 153.905238 
L 14.853543 153.905238 
z
" style="fill:#ffffff;"/>
   </g>
   <g id="matplotlib.axis_21">
    <g id="xtick_25"/>
    <g id="xtick_26"/>
    <g id="xtick_27"/>
    <g id="xtick_28"/>
    <g id="xtick_29"/>
    <g id="xtick_30"/>
   </g>
   <g id="matplotlib.axis_22">
    <g id="ytick_17"/>
    <g id="ytick_18"/>
   </g>
   <g id="legend_2">
    <g id="patch_67">
     <path d="M 27.231954 161.969854 
L 39.231954 161.969854 
L 39.231954 157.769854 
L 27.231954 157.769854 
z
" style="fill:#0f7f12;stroke:#0f7f12;stroke-linejoin:miter;"/>
    </g>
    <g id="text_32">
     <!-- FDA -->
     <defs>
      <path d="M 8.203125 0 
L 8.203125 71.578125 
L 56.5 71.578125 
L 56.5 63.140625 
L 17.671875 63.140625 
L 17.671875 40.96875 
L 51.265625 40.96875 
L 51.265625 32.515625 
L 17.671875 32.515625 
L 17.671875 0 
z
" id="ArialMT-70"/>
      <path d="M 7.71875 0 
L 7.71875 71.578125 
L 32.375 71.578125 
Q 40.71875 71.578125 45.125 70.5625 
Q 51.265625 69.140625 55.609375 65.4375 
Q 61.28125 60.640625 64.078125 53.1875 
Q 66.890625 45.75 66.890625 36.1875 
Q 66.890625 28.03125 64.984375 21.734375 
Q 63.09375 15.4375 60.109375 11.296875 
Q 57.125 7.171875 53.578125 4.796875 
Q 50.046875 2.4375 45.046875 1.21875 
Q 40.046875 0 33.546875 0 
z
M 17.1875 8.453125 
L 32.46875 8.453125 
Q 39.546875 8.453125 43.578125 9.765625 
Q 47.609375 11.078125 50 13.484375 
Q 53.375 16.84375 55.25 22.53125 
Q 57.125 28.21875 57.125 36.328125 
Q 57.125 47.5625 53.4375 53.59375 
Q 49.75 59.625 44.484375 61.671875 
Q 40.671875 63.140625 32.234375 63.140625 
L 17.1875 63.140625 
z
" id="ArialMT-68"/>
     </defs>
     <g transform="translate(44.031954 161.969854)scale(0.06 -0.06)">
      <use xlink:href="#ArialMT-70"/>
      <use x="61.083984" xlink:href="#ArialMT-68"/>
      <use x="133.300781" xlink:href="#ArialMT-65"/>
     </g>
    </g>
    <g id="patch_68">
     <path d="M 68.031954 161.969854 
L 80.031954 161.969854 
L 80.031954 157.769854 
L 68.031954 157.769854 
z
" style="fill:#339834;stroke:#339834;stroke-linejoin:miter;"/>
    </g>
    <g id="text_33">
     <!-- Guideline -->
     <g transform="translate(84.831954 161.969854)scale(0.06 -0.06)">
      <use xlink:href="#ArialMT-71"/>
      <use x="77.783203" xlink:href="#ArialMT-117"/>
      <use x="133.398438" xlink:href="#ArialMT-105"/>
      <use x="155.615234" xlink:href="#ArialMT-100"/>
      <use x="211.230469" xlink:href="#ArialMT-101"/>
      <use x="266.845703" xlink:href="#ArialMT-108"/>
      <use x="289.0625" xlink:href="#ArialMT-105"/>
      <use x="311.279297" xlink:href="#ArialMT-110"/>
      <use x="366.894531" xlink:href="#ArialMT-101"/>
     </g>
    </g>
    <g id="patch_69">
     <path d="M 122.181016 161.969854 
L 134.181016 161.969854 
L 134.181016 157.769854 
L 122.181016 157.769854 
z
" style="fill:#5eb15f;stroke:#5eb15f;stroke-linejoin:miter;"/>
    </g>
    <g id="text_34">
     <!-- Clinical trial -->
     <g transform="translate(138.981016 161.969854)scale(0.06 -0.06)">
      <use xlink:href="#ArialMT-67"/>
      <use x="72.216797" xlink:href="#ArialMT-108"/>
      <use x="94.433594" xlink:href="#ArialMT-105"/>
      <use x="116.650391" xlink:href="#ArialMT-110"/>
      <use x="172.265625" xlink:href="#ArialMT-105"/>
      <use x="194.482422" xlink:href="#ArialMT-99"/>
      <use x="244.482422" xlink:href="#ArialMT-97"/>
      <use x="300.097656" xlink:href="#ArialMT-108"/>
      <use x="322.314453" xlink:href="#ArialMT-32"/>
      <use x="350.097656" xlink:href="#ArialMT-116"/>
      <use x="377.880859" xlink:href="#ArialMT-114"/>
      <use x="411.181641" xlink:href="#ArialMT-105"/>
      <use x="433.398438" xlink:href="#ArialMT-97"/>
      <use x="489.013672" xlink:href="#ArialMT-108"/>
     </g>
    </g>
    <g id="patch_70">
     <path d="M 181.654141 161.969854 
L 193.654141 161.969854 
L 193.654141 157.769854 
L 181.654141 157.769854 
z
" style="fill:#8bcb8b;stroke:#8bcb8b;stroke-linejoin:miter;"/>
    </g>
    <g id="text_35">
     <!-- Clinical evidence -->
     <g transform="translate(198.454141 161.969854)scale(0.06 -0.06)">
      <use xlink:href="#ArialMT-67"/>
      <use x="72.216797" xlink:href="#ArialMT-108"/>
      <use x="94.433594" xlink:href="#ArialMT-105"/>
      <use x="116.650391" xlink:href="#ArialMT-110"/>
      <use x="172.265625" xlink:href="#ArialMT-105"/>
      <use x="194.482422" xlink:href="#ArialMT-99"/>
      <use x="244.482422" xlink:href="#ArialMT-97"/>
      <use x="300.097656" xlink:href="#ArialMT-108"/>
      <use x="322.314453" xlink:href="#ArialMT-32"/>
      <use x="350.097656" xlink:href="#ArialMT-101"/>
      <use x="405.712891" xlink:href="#ArialMT-118"/>
      <use x="455.712891" xlink:href="#ArialMT-105"/>
      <use x="477.929688" xlink:href="#ArialMT-100"/>
      <use x="533.544922" xlink:href="#ArialMT-101"/>
      <use x="589.160156" xlink:href="#ArialMT-110"/>
      <use x="644.775391" xlink:href="#ArialMT-99"/>
      <use x="694.775391" xlink:href="#ArialMT-101"/>
     </g>
    </g>
    <g id="patch_71">
     <path d="M 255.475704 161.969854 
L 267.475704 161.969854 
L 267.475704 157.769854 
L 255.475704 157.769854 
z
" style="fill:#b8e4b8;stroke:#b8e4b8;stroke-linejoin:miter;"/>
    </g>
    <g id="text_36">
     <!-- Preclinical -->
     <g transform="translate(272.275704 161.969854)scale(0.06 -0.06)">
      <use xlink:href="#ArialMT-80"/>
      <use x="66.699219" xlink:href="#ArialMT-114"/>
      <use x="100" xlink:href="#ArialMT-101"/>
      <use x="155.615234" xlink:href="#ArialMT-99"/>
      <use x="205.615234" xlink:href="#ArialMT-108"/>
      <use x="227.832031" xlink:href="#ArialMT-105"/>
      <use x="250.048828" xlink:href="#ArialMT-110"/>
      <use x="305.664062" xlink:href="#ArialMT-105"/>
      <use x="327.880859" xlink:href="#ArialMT-99"/>
      <use x="377.880859" xlink:href="#ArialMT-97"/>
      <use x="433.496094" xlink:href="#ArialMT-108"/>
     </g>
    </g>
    <g id="patch_72">
     <path d="M 311.617891 161.969854 
L 323.617891 161.969854 
L 323.617891 157.769854 
L 311.617891 157.769854 
z
" style="fill:#e6fee6;stroke:#e6fee6;stroke-linejoin:miter;"/>
    </g>
    <g id="text_37">
     <!-- Inferential -->
     <g transform="translate(328.417891 161.969854)scale(0.06 -0.06)">
      <use xlink:href="#ArialMT-73"/>
      <use x="27.783203" xlink:href="#ArialMT-110"/>
      <use x="83.398438" xlink:href="#ArialMT-102"/>
      <use x="111.181641" xlink:href="#ArialMT-101"/>
      <use x="166.796875" xlink:href="#ArialMT-114"/>
      <use x="200.097656" xlink:href="#ArialMT-101"/>
      <use x="255.712891" xlink:href="#ArialMT-110"/>
      <use x="311.328125" xlink:href="#ArialMT-116"/>
      <use x="339.111328" xlink:href="#ArialMT-105"/>
      <use x="361.328125" xlink:href="#ArialMT-97"/>
      <use x="416.943359" xlink:href="#ArialMT-108"/>
     </g>
    </g>
    <g id="patch_73">
     <path d="M 366.765391 161.969854 
L 378.765391 161.969854 
L 378.765391 157.769854 
L 366.765391 157.769854 
z
" style="fill:#e6e6e6;stroke:#e6e6e6;stroke-linejoin:miter;"/>
    </g>
    <g id="text_38">
     <!-- None -->
     <g transform="translate(383.565391 161.969854)scale(0.06 -0.06)">
      <use xlink:href="#ArialMT-78"/>
      <use x="72.216797" xlink:href="#ArialMT-111"/>
      <use x="127.832031" xlink:href="#ArialMT-110"/>
      <use x="183.447266" xlink:href="#ArialMT-101"/>
     </g>
    </g>
   </g>
  </g>
  <g id="text_39">
   <!-- Number of patient profiles harboring an observed clinically relevant molecular feature -->
   <defs>
    <path d="M 4.984375 -4.296875 
L 13.53125 -5.5625 
Q 14.0625 -9.515625 16.5 -11.328125 
Q 19.78125 -13.765625 25.4375 -13.765625 
Q 31.546875 -13.765625 34.859375 -11.328125 
Q 38.1875 -8.890625 39.359375 -4.5 
Q 40.046875 -1.8125 39.984375 6.78125 
Q 34.234375 0 25.640625 0 
Q 14.9375 0 9.078125 7.71875 
Q 3.21875 15.4375 3.21875 26.21875 
Q 3.21875 33.640625 5.90625 39.90625 
Q 8.59375 46.1875 13.6875 49.609375 
Q 18.796875 53.03125 25.6875 53.03125 
Q 34.859375 53.03125 40.828125 45.609375 
L 40.828125 51.859375 
L 48.921875 51.859375 
L 48.921875 7.03125 
Q 48.921875 -5.078125 46.453125 -10.125 
Q 44 -15.1875 38.640625 -18.109375 
Q 33.296875 -21.046875 25.484375 -21.046875 
Q 16.21875 -21.046875 10.5 -16.875 
Q 4.78125 -12.703125 4.984375 -4.296875 
z
M 12.25 26.859375 
Q 12.25 16.65625 16.296875 11.96875 
Q 20.359375 7.28125 26.46875 7.28125 
Q 32.515625 7.28125 36.609375 11.9375 
Q 40.71875 16.609375 40.71875 26.5625 
Q 40.71875 36.078125 36.5 40.90625 
Q 32.28125 45.75 26.3125 45.75 
Q 20.453125 45.75 16.34375 40.984375 
Q 12.25 36.234375 12.25 26.859375 
z
" id="ArialMT-103"/>
   </defs>
   <g transform="translate(74.688376 12.295781)scale(0.07 -0.07)">
    <use xlink:href="#ArialMT-78"/>
    <use x="72.216797" xlink:href="#ArialMT-117"/>
    <use x="127.832031" xlink:href="#ArialMT-109"/>
    <use x="211.132812" xlink:href="#ArialMT-98"/>
    <use x="266.748047" xlink:href="#ArialMT-101"/>
    <use x="322.363281" xlink:href="#ArialMT-114"/>
    <use x="355.664062" xlink:href="#ArialMT-32"/>
    <use x="383.447266" xlink:href="#ArialMT-111"/>
    <use x="439.0625" xlink:href="#ArialMT-102"/>
    <use x="466.845703" xlink:href="#ArialMT-32"/>
    <use x="494.628906" xlink:href="#ArialMT-112"/>
    <use x="550.244141" xlink:href="#ArialMT-97"/>
    <use x="605.859375" xlink:href="#ArialMT-116"/>
    <use x="633.642578" xlink:href="#ArialMT-105"/>
    <use x="655.859375" xlink:href="#ArialMT-101"/>
    <use x="711.474609" xlink:href="#ArialMT-110"/>
    <use x="767.089844" xlink:href="#ArialMT-116"/>
    <use x="794.873047" xlink:href="#ArialMT-32"/>
    <use x="822.65625" xlink:href="#ArialMT-112"/>
    <use x="878.271484" xlink:href="#ArialMT-114"/>
    <use x="911.572266" xlink:href="#ArialMT-111"/>
    <use x="967.1875" xlink:href="#ArialMT-102"/>
    <use x="994.970703" xlink:href="#ArialMT-105"/>
    <use x="1017.1875" xlink:href="#ArialMT-108"/>
    <use x="1039.404297" xlink:href="#ArialMT-101"/>
    <use x="1095.019531" xlink:href="#ArialMT-115"/>
    <use x="1145.019531" xlink:href="#ArialMT-32"/>
    <use x="1172.802734" xlink:href="#ArialMT-104"/>
    <use x="1228.417969" xlink:href="#ArialMT-97"/>
    <use x="1284.033203" xlink:href="#ArialMT-114"/>
    <use x="1317.333984" xlink:href="#ArialMT-98"/>
    <use x="1372.949219" xlink:href="#ArialMT-111"/>
    <use x="1428.564453" xlink:href="#ArialMT-114"/>
    <use x="1461.865234" xlink:href="#ArialMT-105"/>
    <use x="1484.082031" xlink:href="#ArialMT-110"/>
    <use x="1539.697266" xlink:href="#ArialMT-103"/>
    <use x="1595.3125" xlink:href="#ArialMT-32"/>
    <use x="1623.095703" xlink:href="#ArialMT-97"/>
    <use x="1678.710938" xlink:href="#ArialMT-110"/>
    <use x="1734.326172" xlink:href="#ArialMT-32"/>
    <use x="1762.109375" xlink:href="#ArialMT-111"/>
    <use x="1817.724609" xlink:href="#ArialMT-98"/>
    <use x="1873.339844" xlink:href="#ArialMT-115"/>
    <use x="1923.339844" xlink:href="#ArialMT-101"/>
    <use x="1978.955078" xlink:href="#ArialMT-114"/>
    <use x="2012.255859" xlink:href="#ArialMT-118"/>
    <use x="2062.255859" xlink:href="#ArialMT-101"/>
    <use x="2117.871094" xlink:href="#ArialMT-100"/>
    <use x="2173.486328" xlink:href="#ArialMT-32"/>
    <use x="2201.269531" xlink:href="#ArialMT-99"/>
    <use x="2251.269531" xlink:href="#ArialMT-108"/>
    <use x="2273.486328" xlink:href="#ArialMT-105"/>
    <use x="2295.703125" xlink:href="#ArialMT-110"/>
    <use x="2351.318359" xlink:href="#ArialMT-105"/>
    <use x="2373.535156" xlink:href="#ArialMT-99"/>
    <use x="2423.535156" xlink:href="#ArialMT-97"/>
    <use x="2479.150391" xlink:href="#ArialMT-108"/>
    <use x="2501.367188" xlink:href="#ArialMT-108"/>
    <use x="2523.583984" xlink:href="#ArialMT-121"/>
    <use x="2573.583984" xlink:href="#ArialMT-32"/>
    <use x="2601.367188" xlink:href="#ArialMT-114"/>
    <use x="2634.667969" xlink:href="#ArialMT-101"/>
    <use x="2690.283203" xlink:href="#ArialMT-108"/>
    <use x="2712.5" xlink:href="#ArialMT-101"/>
    <use x="2768.115234" xlink:href="#ArialMT-118"/>
    <use x="2818.115234" xlink:href="#ArialMT-97"/>
    <use x="2873.730469" xlink:href="#ArialMT-110"/>
    <use x="2929.345703" xlink:href="#ArialMT-116"/>
    <use x="2957.128906" xlink:href="#ArialMT-32"/>
    <use x="2984.912109" xlink:href="#ArialMT-109"/>
    <use x="3068.212891" xlink:href="#ArialMT-111"/>
    <use x="3123.828125" xlink:href="#ArialMT-108"/>
    <use x="3146.044922" xlink:href="#ArialMT-101"/>
    <use x="3201.660156" xlink:href="#ArialMT-99"/>
    <use x="3251.660156" xlink:href="#ArialMT-117"/>
    <use x="3307.275391" xlink:href="#ArialMT-108"/>
    <use x="3329.492188" xlink:href="#ArialMT-97"/>
    <use x="3385.107422" xlink:href="#ArialMT-114"/>
    <use x="3418.408203" xlink:href="#ArialMT-32"/>
    <use x="3446.191406" xlink:href="#ArialMT-102"/>
    <use x="3473.974609" xlink:href="#ArialMT-101"/>
    <use x="3529.589844" xlink:href="#ArialMT-97"/>
    <use x="3585.205078" xlink:href="#ArialMT-116"/>
    <use x="3612.988281" xlink:href="#ArialMT-117"/>
    <use x="3668.603516" xlink:href="#ArialMT-114"/>
    <use x="3701.904297" xlink:href="#ArialMT-101"/>
   </g>
  </g>
  <g id="text_40">
   <!-- a -->
   <g transform="translate(7.2 27.04252)scale(0.07 -0.07)">
    <use xlink:href="#ArialMT-97"/>
   </g>
  </g>
  <g id="text_41">
   <!-- b -->
   <g transform="translate(7.2 116.333858)scale(0.07 -0.07)">
    <use xlink:href="#ArialMT-98"/>
   </g>
  </g>
 </g>
 <defs>
  <clipPath id="pa55fcec924">
   <rect height="39.081137" width="39.081137" x="41.293565" y="56.202396"/>
  </clipPath>
  <clipPath id="p074923ec4a">
   <rect height="39.081137" width="39.081137" x="142.450862" y="56.202396"/>
  </clipPath>
  <clipPath id="pe01978f378">
   <rect height="39.081137" width="39.081137" x="243.608159" y="56.202396"/>
  </clipPath>
  <clipPath id="p2d357720f5">
   <rect height="39.081137" width="39.081137" x="344.765456" y="56.202396"/>
  </clipPath>
  <clipPath id="pf5c9f7622f">
   <rect height="19.540568" width="91.961179" x="14.853543" y="121.337624"/>
  </clipPath>
  <clipPath id="p2132e1d9fb">
   <rect height="19.540568" width="91.961179" x="116.010841" y="121.337624"/>
  </clipPath>
  <clipPath id="pd8c647572a">
   <rect height="19.540568" width="91.961179" x="217.168138" y="121.337624"/>
  </clipPath>
  <clipPath id="p08b394554e">
   <rect height="19.540568" width="91.961179" x="318.325435" y="121.337624"/>
  </clipPath>
 </defs>
</svg>
