<?xml version="1.0" encoding="utf-8" standalone="no"?>
<!DOCTYPE svg PUBLIC "-//W3C//DTD SVG 1.1//EN"
  "http://www.w3.org/Graphics/SVG/1.1/DTD/svg11.dtd">
<!-- Created with matplotlib (https://matplotlib.org/) -->
<svg height="432pt" version="1.1" viewBox="0 0 720 432" width="720pt" xmlns="http://www.w3.org/2000/svg" xmlns:xlink="http://www.w3.org/1999/xlink">
 <defs>
  <style type="text/css">
*{stroke-linecap:butt;stroke-linejoin:round;}
  </style>
 </defs>
 <g id="figure_1">
  <g id="patch_1">
   <path d="M 0 432 
L 720 432 
L 720 0 
L 0 0 
z
" style="fill:#ffffff;"/>
  </g>
  <g id="axes_1">
   <g id="patch_2">
    <path d="M 67.473834 379.681341 
L 713.49976 379.681341 
L 713.49976 44.745678 
L 67.473834 44.745678 
z
" style="fill:#ffffff;"/>
   </g>
   <g id="patch_3">
    <path clip-path="url(#p81ff16d1ee)" d="M 96.838649 379.681341 
L 160.675203 379.681341 
L 160.675203 318.309544 
L 96.838649 318.309544 
z
" style="fill:#4e79a7;"/>
   </g>
   <g id="patch_4">
    <path clip-path="url(#p81ff16d1ee)" d="M 164.930973 379.681341 
L 228.767527 379.681341 
L 228.767527 339.991796 
L 164.930973 339.991796 
z
" style="fill:#4e79a7;"/>
   </g>
   <g id="patch_5">
    <path clip-path="url(#p81ff16d1ee)" d="M 233.023297 379.681341 
L 296.859851 379.681341 
L 296.859851 372.698921 
L 233.023297 372.698921 
z
" style="fill:#4e79a7;"/>
   </g>
   <g id="patch_6">
    <path clip-path="url(#p81ff16d1ee)" d="M 301.115621 379.681341 
L 364.952175 379.681341 
L 364.952175 373.801408 
L 301.115621 373.801408 
z
" style="fill:#4e79a7;"/>
   </g>
   <g id="patch_7">
    <path clip-path="url(#p81ff16d1ee)" d="M 416.021418 379.681341 
L 479.857972 379.681341 
L 479.857972 158.816371 
L 416.021418 158.816371 
z
" style="fill:#4e79a7;"/>
   </g>
   <g id="patch_8">
    <path clip-path="url(#p81ff16d1ee)" d="M 484.113743 379.681341 
L 547.950297 379.681341 
L 547.950297 293.31983 
L 484.113743 293.31983 
z
" style="fill:#4e79a7;"/>
   </g>
   <g id="patch_9">
    <path clip-path="url(#p81ff16d1ee)" d="M 552.206067 379.681341 
L 616.042621 379.681341 
L 616.042621 353.221644 
L 552.206067 353.221644 
z
" style="fill:#4e79a7;"/>
   </g>
   <g id="patch_10">
    <path clip-path="url(#p81ff16d1ee)" d="M 620.298391 379.681341 
L 684.134945 379.681341 
L 684.134945 369.758955 
L 620.298391 369.758955 
z
" style="fill:#4e79a7;"/>
   </g>
   <g id="patch_11">
    <path clip-path="url(#p81ff16d1ee)" d="M 96.838649 318.309544 
L 160.675203 318.309544 
L 160.675203 271.637579 
L 96.838649 271.637579 
z
" style="fill:#59a14f;"/>
   </g>
   <g id="patch_12">
    <path clip-path="url(#p81ff16d1ee)" d="M 164.930973 339.991796 
L 228.767527 339.991796 
L 228.767527 259.877713 
L 164.930973 259.877713 
z
" style="fill:#59a14f;"/>
   </g>
   <g id="patch_13">
    <path clip-path="url(#p81ff16d1ee)" d="M 233.023297 372.698921 
L 296.859851 372.698921 
L 296.859851 364.614013 
L 233.023297 364.614013 
z
" style="fill:#59a14f;"/>
   </g>
   <g id="patch_14">
    <path clip-path="url(#p81ff16d1ee)" d="M 301.115621 373.801408 
L 364.952175 373.801408 
L 364.952175 351.384165 
L 301.115621 351.384165 
z
" style="fill:#59a14f;"/>
   </g>
   <g id="patch_15">
    <path clip-path="url(#p81ff16d1ee)" d="M 416.021418 158.816371 
L 479.857972 158.816371 
L 479.857972 108.469448 
L 416.021418 108.469448 
z
" style="fill:#59a14f;"/>
   </g>
   <g id="patch_16">
    <path clip-path="url(#p81ff16d1ee)" d="M 484.113743 293.31983 
L 547.950297 293.31983 
L 547.950297 209.898286 
L 484.113743 209.898286 
z
" style="fill:#59a14f;"/>
   </g>
   <g id="patch_17">
    <path clip-path="url(#p81ff16d1ee)" d="M 552.206067 353.221644 
L 616.042621 353.221644 
L 616.042621 321.24951 
L 552.206067 321.24951 
z
" style="fill:#59a14f;"/>
   </g>
   <g id="patch_18">
    <path clip-path="url(#p81ff16d1ee)" d="M 620.298391 369.758955 
L 684.134945 369.758955 
L 684.134945 348.076703 
L 620.298391 348.076703 
z
" style="fill:#59a14f;"/>
   </g>
   <g id="patch_19">
    <path clip-path="url(#p81ff16d1ee)" d="M 96.838649 271.637579 
L 160.675203 271.637579 
L 160.675203 271.637579 
L 96.838649 271.637579 
z
" style="fill:#b07aa1;"/>
   </g>
   <g id="patch_20">
    <path clip-path="url(#p81ff16d1ee)" d="M 164.930973 259.877713 
L 228.767527 259.877713 
L 228.767527 259.877713 
L 164.930973 259.877713 
z
" style="fill:#b07aa1;"/>
   </g>
   <g id="patch_21">
    <path clip-path="url(#p81ff16d1ee)" d="M 233.023297 364.614013 
L 296.859851 364.614013 
L 296.859851 364.614013 
L 233.023297 364.614013 
z
" style="fill:#b07aa1;"/>
   </g>
   <g id="patch_22">
    <path clip-path="url(#p81ff16d1ee)" d="M 301.115621 351.384165 
L 364.952175 351.384165 
L 364.952175 351.384165 
L 301.115621 351.384165 
z
" style="fill:#b07aa1;"/>
   </g>
   <g id="patch_23">
    <path clip-path="url(#p81ff16d1ee)" d="M 416.021418 108.469448 
L 479.857972 108.469448 
L 479.857972 101.487028 
L 416.021418 101.487028 
z
" style="fill:#b07aa1;"/>
   </g>
   <g id="patch_24">
    <path clip-path="url(#p81ff16d1ee)" d="M 484.113743 209.898286 
L 547.950297 209.898286 
L 547.950297 170.208741 
L 484.113743 170.208741 
z
" style="fill:#b07aa1;"/>
   </g>
   <g id="patch_25">
    <path clip-path="url(#p81ff16d1ee)" d="M 552.206067 321.24951 
L 616.042621 321.24951 
L 616.042621 319.779527 
L 552.206067 319.779527 
z
" style="fill:#b07aa1;"/>
   </g>
   <g id="patch_26">
    <path clip-path="url(#p81ff16d1ee)" d="M 620.298391 348.076703 
L 684.134945 348.076703 
L 684.134945 345.871728 
L 620.298391 345.871728 
z
" style="fill:#b07aa1;"/>
   </g>
   <g id="patch_27">
    <path clip-path="url(#p81ff16d1ee)" d="M 96.838649 271.637579 
L 160.675203 271.637579 
L 160.675203 271.637579 
L 96.838649 271.637579 
z
" style="fill:#f28e2b;"/>
   </g>
   <g id="patch_28">
    <path clip-path="url(#p81ff16d1ee)" d="M 164.930973 259.877713 
L 228.767527 259.877713 
L 228.767527 259.877713 
L 164.930973 259.877713 
z
" style="fill:#f28e2b;"/>
   </g>
   <g id="patch_29">
    <path clip-path="url(#p81ff16d1ee)" d="M 233.023297 364.614013 
L 296.859851 364.614013 
L 296.859851 364.614013 
L 233.023297 364.614013 
z
" style="fill:#f28e2b;"/>
   </g>
   <g id="patch_30">
    <path clip-path="url(#p81ff16d1ee)" d="M 301.115621 351.384165 
L 364.952175 351.384165 
L 364.952175 351.384165 
L 301.115621 351.384165 
z
" style="fill:#f28e2b;"/>
   </g>
   <g id="patch_31">
    <path clip-path="url(#p81ff16d1ee)" d="M 416.021418 101.487028 
L 479.857972 101.487028 
L 479.857972 101.487028 
L 416.021418 101.487028 
z
" style="fill:#f28e2b;"/>
   </g>
   <g id="patch_32">
    <path clip-path="url(#p81ff16d1ee)" d="M 484.113743 170.208741 
L 547.950297 170.208741 
L 547.950297 170.208741 
L 484.113743 170.208741 
z
" style="fill:#f28e2b;"/>
   </g>
   <g id="patch_33">
    <path clip-path="url(#p81ff16d1ee)" d="M 552.206067 319.779527 
L 616.042621 319.779527 
L 616.042621 319.779527 
L 552.206067 319.779527 
z
" style="fill:#f28e2b;"/>
   </g>
   <g id="patch_34">
    <path clip-path="url(#p81ff16d1ee)" d="M 620.298391 345.871728 
L 684.134945 345.871728 
L 684.134945 345.871728 
L 620.298391 345.871728 
z
" style="fill:#f28e2b;"/>
   </g>
   <g id="patch_35">
    <path clip-path="url(#p81ff16d1ee)" d="M 96.838649 271.637579 
L 160.675203 271.637579 
L 160.675203 271.637579 
L 96.838649 271.637579 
z
" style="fill:#e15759;"/>
   </g>
   <g id="patch_36">
    <path clip-path="url(#p81ff16d1ee)" d="M 164.930973 259.877713 
L 228.767527 259.877713 
L 228.767527 259.877713 
L 164.930973 259.877713 
z
" style="fill:#e15759;"/>
   </g>
   <g id="patch_37">
    <path clip-path="url(#p81ff16d1ee)" d="M 233.023297 364.614013 
L 296.859851 364.614013 
L 296.859851 364.614013 
L 233.023297 364.614013 
z
" style="fill:#e15759;"/>
   </g>
   <g id="patch_38">
    <path clip-path="url(#p81ff16d1ee)" d="M 301.115621 351.384165 
L 364.952175 351.384165 
L 364.952175 351.384165 
L 301.115621 351.384165 
z
" style="fill:#e15759;"/>
   </g>
   <g id="patch_39">
    <path clip-path="url(#p81ff16d1ee)" d="M 416.021418 101.487028 
L 479.857972 101.487028 
L 479.857972 85.317213 
L 416.021418 85.317213 
z
" style="fill:#e15759;"/>
   </g>
   <g id="patch_40">
    <path clip-path="url(#p81ff16d1ee)" d="M 484.113743 170.208741 
L 547.950297 170.208741 
L 547.950297 168.738758 
L 484.113743 168.738758 
z
" style="fill:#e15759;"/>
   </g>
   <g id="patch_41">
    <path clip-path="url(#p81ff16d1ee)" d="M 552.206067 319.779527 
L 616.042621 319.779527 
L 616.042621 319.779527 
L 552.206067 319.779527 
z
" style="fill:#e15759;"/>
   </g>
   <g id="patch_42">
    <path clip-path="url(#p81ff16d1ee)" d="M 620.298391 345.871728 
L 684.134945 345.871728 
L 684.134945 345.871728 
L 620.298391 345.871728 
z
" style="fill:#e15759;"/>
   </g>
   <g id="patch_43">
    <path clip-path="url(#p81ff16d1ee)" d="M 96.838649 271.637579 
L 160.675203 271.637579 
L 160.675203 271.637579 
L 96.838649 271.637579 
z
" style="fill:#edc948;"/>
   </g>
   <g id="patch_44">
    <path clip-path="url(#p81ff16d1ee)" d="M 164.930973 259.877713 
L 228.767527 259.877713 
L 228.767527 259.877713 
L 164.930973 259.877713 
z
" style="fill:#edc948;"/>
   </g>
   <g id="patch_45">
    <path clip-path="url(#p81ff16d1ee)" d="M 233.023297 364.614013 
L 296.859851 364.614013 
L 296.859851 364.614013 
L 233.023297 364.614013 
z
" style="fill:#edc948;"/>
   </g>
   <g id="patch_46">
    <path clip-path="url(#p81ff16d1ee)" d="M 301.115621 351.384165 
L 364.952175 351.384165 
L 364.952175 351.384165 
L 301.115621 351.384165 
z
" style="fill:#edc948;"/>
   </g>
   <g id="patch_47">
    <path clip-path="url(#p81ff16d1ee)" d="M 416.021418 85.317213 
L 479.857972 85.317213 
L 479.857972 83.479734 
L 416.021418 83.479734 
z
" style="fill:#edc948;"/>
   </g>
   <g id="patch_48">
    <path clip-path="url(#p81ff16d1ee)" d="M 484.113743 168.738758 
L 547.950297 168.738758 
L 547.950297 155.876405 
L 484.113743 155.876405 
z
" style="fill:#edc948;"/>
   </g>
   <g id="patch_49">
    <path clip-path="url(#p81ff16d1ee)" d="M 552.206067 319.779527 
L 616.042621 319.779527 
L 616.042621 298.832267 
L 552.206067 298.832267 
z
" style="fill:#edc948;"/>
   </g>
   <g id="patch_50">
    <path clip-path="url(#p81ff16d1ee)" d="M 620.298391 345.871728 
L 684.134945 345.871728 
L 684.134945 338.154317 
L 620.298391 338.154317 
z
" style="fill:#edc948;"/>
   </g>
   <g id="patch_51">
    <path clip-path="url(#p81ff16d1ee)" d="M 96.838649 271.637579 
L 160.675203 271.637579 
L 160.675203 271.637579 
L 96.838649 271.637579 
z
" style="fill:#e19da7;"/>
   </g>
   <g id="patch_52">
    <path clip-path="url(#p81ff16d1ee)" d="M 164.930973 259.877713 
L 228.767527 259.877713 
L 228.767527 259.877713 
L 164.930973 259.877713 
z
" style="fill:#e19da7;"/>
   </g>
   <g id="patch_53">
    <path clip-path="url(#p81ff16d1ee)" d="M 233.023297 364.614013 
L 296.859851 364.614013 
L 296.859851 364.614013 
L 233.023297 364.614013 
z
" style="fill:#e19da7;"/>
   </g>
   <g id="patch_54">
    <path clip-path="url(#p81ff16d1ee)" d="M 301.115621 351.384165 
L 364.952175 351.384165 
L 364.952175 351.384165 
L 301.115621 351.384165 
z
" style="fill:#e19da7;"/>
   </g>
   <g id="patch_55">
    <path clip-path="url(#p81ff16d1ee)" d="M 416.021418 83.479734 
L 479.857972 83.479734 
L 479.857972 60.694995 
L 416.021418 60.694995 
z
" style="fill:#e19da7;"/>
   </g>
   <g id="patch_56">
    <path clip-path="url(#p81ff16d1ee)" d="M 484.113743 155.876405 
L 547.950297 155.876405 
L 547.950297 128.314221 
L 484.113743 128.314221 
z
" style="fill:#e19da7;"/>
   </g>
   <g id="patch_57">
    <path clip-path="url(#p81ff16d1ee)" d="M 552.206067 298.832267 
L 616.042621 298.832267 
L 616.042621 295.157309 
L 552.206067 295.157309 
z
" style="fill:#e19da7;"/>
   </g>
   <g id="patch_58">
    <path clip-path="url(#p81ff16d1ee)" d="M 620.298391 338.154317 
L 684.134945 338.154317 
L 684.134945 326.026956 
L 620.298391 326.026956 
z
" style="fill:#e19da7;"/>
   </g>
   <g id="matplotlib.axis_1">
    <g id="xtick_1">
     <g id="text_1">
      <!-- Melanoma -->
      <defs>
       <path d="M 7.421875 0 
L 7.421875 71.578125 
L 21.6875 71.578125 
L 38.625 20.90625 
Q 40.96875 13.8125 42.046875 10.296875 
Q 43.265625 14.203125 45.84375 21.78125 
L 62.984375 71.578125 
L 75.734375 71.578125 
L 75.734375 0 
L 66.609375 0 
L 66.609375 59.90625 
L 45.796875 0 
L 37.25 0 
L 16.546875 60.9375 
L 16.546875 0 
z
" id="ArialMT-77"/>
       <path d="M 42.09375 16.703125 
L 51.171875 15.578125 
Q 49.03125 7.625 43.21875 3.21875 
Q 37.40625 -1.171875 28.375 -1.171875 
Q 17 -1.171875 10.328125 5.828125 
Q 3.65625 12.84375 3.65625 25.484375 
Q 3.65625 38.578125 10.390625 45.796875 
Q 17.140625 53.03125 27.875 53.03125 
Q 38.28125 53.03125 44.875 45.953125 
Q 51.46875 38.875 51.46875 26.03125 
Q 51.46875 25.25 51.421875 23.6875 
L 12.75 23.6875 
Q 13.234375 15.140625 17.578125 10.59375 
Q 21.921875 6.0625 28.421875 6.0625 
Q 33.25 6.0625 36.671875 8.59375 
Q 40.09375 11.140625 42.09375 16.703125 
z
M 13.234375 30.90625 
L 42.1875 30.90625 
Q 41.609375 37.453125 38.875 40.71875 
Q 34.671875 45.796875 27.984375 45.796875 
Q 21.921875 45.796875 17.796875 41.75 
Q 13.671875 37.703125 13.234375 30.90625 
z
" id="ArialMT-101"/>
       <path d="M 6.390625 0 
L 6.390625 71.578125 
L 15.1875 71.578125 
L 15.1875 0 
z
" id="ArialMT-108"/>
       <path d="M 40.4375 6.390625 
Q 35.546875 2.25 31.03125 0.53125 
Q 26.515625 -1.171875 21.34375 -1.171875 
Q 12.796875 -1.171875 8.203125 3 
Q 3.609375 7.171875 3.609375 13.671875 
Q 3.609375 17.484375 5.34375 20.625 
Q 7.078125 23.78125 9.890625 25.6875 
Q 12.703125 27.59375 16.21875 28.5625 
Q 18.796875 29.25 24.03125 29.890625 
Q 34.671875 31.15625 39.703125 32.90625 
Q 39.75 34.71875 39.75 35.203125 
Q 39.75 40.578125 37.25 42.78125 
Q 33.890625 45.75 27.25 45.75 
Q 21.046875 45.75 18.09375 43.578125 
Q 15.140625 41.40625 13.71875 35.890625 
L 5.125 37.0625 
Q 6.296875 42.578125 8.984375 45.96875 
Q 11.671875 49.359375 16.75 51.1875 
Q 21.828125 53.03125 28.515625 53.03125 
Q 35.15625 53.03125 39.296875 51.46875 
Q 43.453125 49.90625 45.40625 47.53125 
Q 47.359375 45.171875 48.140625 41.546875 
Q 48.578125 39.3125 48.578125 33.453125 
L 48.578125 21.734375 
Q 48.578125 9.46875 49.140625 6.21875 
Q 49.703125 2.984375 51.375 0 
L 42.1875 0 
Q 40.828125 2.734375 40.4375 6.390625 
z
M 39.703125 26.03125 
Q 34.90625 24.078125 25.34375 22.703125 
Q 19.921875 21.921875 17.671875 20.9375 
Q 15.4375 19.96875 14.203125 18.09375 
Q 12.984375 16.21875 12.984375 13.921875 
Q 12.984375 10.40625 15.640625 8.0625 
Q 18.3125 5.71875 23.4375 5.71875 
Q 28.515625 5.71875 32.46875 7.9375 
Q 36.421875 10.15625 38.28125 14.015625 
Q 39.703125 17 39.703125 22.796875 
z
" id="ArialMT-97"/>
       <path d="M 6.59375 0 
L 6.59375 51.859375 
L 14.5 51.859375 
L 14.5 44.484375 
Q 20.21875 53.03125 31 53.03125 
Q 35.6875 53.03125 39.625 51.34375 
Q 43.5625 49.65625 45.515625 46.921875 
Q 47.46875 44.1875 48.25 40.4375 
Q 48.734375 37.984375 48.734375 31.890625 
L 48.734375 0 
L 39.9375 0 
L 39.9375 31.546875 
Q 39.9375 36.921875 38.90625 39.578125 
Q 37.890625 42.234375 35.28125 43.8125 
Q 32.671875 45.40625 29.15625 45.40625 
Q 23.53125 45.40625 19.453125 41.84375 
Q 15.375 38.28125 15.375 28.328125 
L 15.375 0 
z
" id="ArialMT-110"/>
       <path d="M 3.328125 25.921875 
Q 3.328125 40.328125 11.328125 47.265625 
Q 18.015625 53.03125 27.640625 53.03125 
Q 38.328125 53.03125 45.109375 46.015625 
Q 51.90625 39.015625 51.90625 26.65625 
Q 51.90625 16.65625 48.90625 10.90625 
Q 45.90625 5.171875 40.15625 2 
Q 34.421875 -1.171875 27.640625 -1.171875 
Q 16.75 -1.171875 10.03125 5.8125 
Q 3.328125 12.796875 3.328125 25.921875 
z
M 12.359375 25.921875 
Q 12.359375 15.96875 16.703125 11.015625 
Q 21.046875 6.0625 27.640625 6.0625 
Q 34.1875 6.0625 38.53125 11.03125 
Q 42.875 16.015625 42.875 26.21875 
Q 42.875 35.84375 38.5 40.796875 
Q 34.125 45.75 27.640625 45.75 
Q 21.046875 45.75 16.703125 40.8125 
Q 12.359375 35.890625 12.359375 25.921875 
z
" id="ArialMT-111"/>
       <path d="M 6.59375 0 
L 6.59375 51.859375 
L 14.453125 51.859375 
L 14.453125 44.578125 
Q 16.890625 48.390625 20.9375 50.703125 
Q 25 53.03125 30.171875 53.03125 
Q 35.9375 53.03125 39.625 50.640625 
Q 43.3125 48.25 44.828125 43.953125 
Q 50.984375 53.03125 60.84375 53.03125 
Q 68.5625 53.03125 72.703125 48.75 
Q 76.859375 44.484375 76.859375 35.59375 
L 76.859375 0 
L 68.109375 0 
L 68.109375 32.671875 
Q 68.109375 37.9375 67.25 40.25 
Q 66.40625 42.578125 64.15625 43.984375 
Q 61.921875 45.40625 58.890625 45.40625 
Q 53.421875 45.40625 49.796875 41.765625 
Q 46.1875 38.140625 46.1875 30.125 
L 46.1875 0 
L 37.40625 0 
L 37.40625 33.6875 
Q 37.40625 39.546875 35.25 42.46875 
Q 33.109375 45.40625 28.21875 45.40625 
Q 24.515625 45.40625 21.359375 43.453125 
Q 18.21875 41.5 16.796875 37.734375 
Q 15.375 33.984375 15.375 26.90625 
L 15.375 0 
z
" id="ArialMT-109"/>
      </defs>
      <g transform="translate(96.076769 396.702278)scale(0.14 -0.14)">
       <use xlink:href="#ArialMT-77"/>
       <use x="83.300781" xlink:href="#ArialMT-101"/>
       <use x="138.916016" xlink:href="#ArialMT-108"/>
       <use x="161.132812" xlink:href="#ArialMT-97"/>
       <use x="216.748047" xlink:href="#ArialMT-110"/>
       <use x="272.363281" xlink:href="#ArialMT-111"/>
       <use x="327.978516" xlink:href="#ArialMT-109"/>
       <use x="411.279297" xlink:href="#ArialMT-97"/>
      </g>
     </g>
    </g>
    <g id="xtick_2">
     <g id="text_2">
      <!-- Prostate -->
      <defs>
       <path d="M 7.71875 0 
L 7.71875 71.578125 
L 34.71875 71.578125 
Q 41.84375 71.578125 45.609375 70.90625 
Q 50.875 70.015625 54.4375 67.546875 
Q 58.015625 65.09375 60.1875 60.640625 
Q 62.359375 56.203125 62.359375 50.875 
Q 62.359375 41.75 56.546875 35.421875 
Q 50.734375 29.109375 35.546875 29.109375 
L 17.1875 29.109375 
L 17.1875 0 
z
M 17.1875 37.546875 
L 35.6875 37.546875 
Q 44.875 37.546875 48.734375 40.96875 
Q 52.59375 44.390625 52.59375 50.59375 
Q 52.59375 55.078125 50.3125 58.265625 
Q 48.046875 61.46875 44.34375 62.5 
Q 41.9375 63.140625 35.5 63.140625 
L 17.1875 63.140625 
z
" id="ArialMT-80"/>
       <path d="M 6.5 0 
L 6.5 51.859375 
L 14.40625 51.859375 
L 14.40625 44 
Q 17.4375 49.515625 20 51.265625 
Q 22.5625 53.03125 25.640625 53.03125 
Q 30.078125 53.03125 34.671875 50.203125 
L 31.640625 42.046875 
Q 28.421875 43.953125 25.203125 43.953125 
Q 22.3125 43.953125 20.015625 42.21875 
Q 17.71875 40.484375 16.75 37.40625 
Q 15.28125 32.71875 15.28125 27.15625 
L 15.28125 0 
z
" id="ArialMT-114"/>
       <path d="M 3.078125 15.484375 
L 11.765625 16.84375 
Q 12.5 11.625 15.84375 8.84375 
Q 19.1875 6.0625 25.203125 6.0625 
Q 31.25 6.0625 34.171875 8.515625 
Q 37.109375 10.984375 37.109375 14.3125 
Q 37.109375 17.28125 34.515625 19 
Q 32.71875 20.171875 25.53125 21.96875 
Q 15.875 24.421875 12.140625 26.203125 
Q 8.40625 27.984375 6.46875 31.125 
Q 4.546875 34.28125 4.546875 38.09375 
Q 4.546875 41.546875 6.125 44.5 
Q 7.71875 47.46875 10.453125 49.421875 
Q 12.5 50.921875 16.03125 51.96875 
Q 19.578125 53.03125 23.640625 53.03125 
Q 29.734375 53.03125 34.34375 51.265625 
Q 38.96875 49.515625 41.15625 46.5 
Q 43.359375 43.5 44.1875 38.484375 
L 35.59375 37.3125 
Q 35.015625 41.3125 32.203125 43.546875 
Q 29.390625 45.796875 24.265625 45.796875 
Q 18.21875 45.796875 15.625 43.796875 
Q 13.03125 41.796875 13.03125 39.109375 
Q 13.03125 37.40625 14.109375 36.03125 
Q 15.1875 34.625 17.484375 33.6875 
Q 18.796875 33.203125 25.25 31.453125 
Q 34.578125 28.953125 38.25 27.359375 
Q 41.9375 25.78125 44.03125 22.75 
Q 46.140625 19.734375 46.140625 15.234375 
Q 46.140625 10.84375 43.578125 6.953125 
Q 41.015625 3.078125 36.171875 0.953125 
Q 31.34375 -1.171875 25.25 -1.171875 
Q 15.140625 -1.171875 9.84375 3.03125 
Q 4.546875 7.234375 3.078125 15.484375 
z
" id="ArialMT-115"/>
       <path d="M 25.78125 7.859375 
L 27.046875 0.09375 
Q 23.34375 -0.6875 20.40625 -0.6875 
Q 15.625 -0.6875 12.984375 0.828125 
Q 10.359375 2.34375 9.28125 4.8125 
Q 8.203125 7.28125 8.203125 15.1875 
L 8.203125 45.015625 
L 1.765625 45.015625 
L 1.765625 51.859375 
L 8.203125 51.859375 
L 8.203125 64.703125 
L 16.9375 69.96875 
L 16.9375 51.859375 
L 25.78125 51.859375 
L 25.78125 45.015625 
L 16.9375 45.015625 
L 16.9375 14.703125 
Q 16.9375 10.9375 17.40625 9.859375 
Q 17.875 8.796875 18.921875 8.15625 
Q 19.96875 7.515625 21.921875 7.515625 
Q 23.390625 7.515625 25.78125 7.859375 
z
" id="ArialMT-116"/>
      </defs>
      <g transform="translate(170.781906 396.702278)scale(0.14 -0.14)">
       <use xlink:href="#ArialMT-80"/>
       <use x="66.699219" xlink:href="#ArialMT-114"/>
       <use x="100" xlink:href="#ArialMT-111"/>
       <use x="155.615234" xlink:href="#ArialMT-115"/>
       <use x="205.615234" xlink:href="#ArialMT-116"/>
       <use x="233.398438" xlink:href="#ArialMT-97"/>
       <use x="289.013672" xlink:href="#ArialMT-116"/>
       <use x="316.796875" xlink:href="#ArialMT-101"/>
      </g>
     </g>
    </g>
    <g id="xtick_3">
     <g id="text_3">
      <!-- Kidney -->
      <defs>
       <path d="M 7.328125 0 
L 7.328125 71.578125 
L 16.796875 71.578125 
L 16.796875 36.078125 
L 52.34375 71.578125 
L 65.1875 71.578125 
L 35.15625 42.578125 
L 66.5 0 
L 54 0 
L 28.515625 36.234375 
L 16.796875 24.8125 
L 16.796875 0 
z
" id="ArialMT-75"/>
       <path d="M 6.640625 61.46875 
L 6.640625 71.578125 
L 15.4375 71.578125 
L 15.4375 61.46875 
z
M 6.640625 0 
L 6.640625 51.859375 
L 15.4375 51.859375 
L 15.4375 0 
z
" id="ArialMT-105"/>
       <path d="M 40.234375 0 
L 40.234375 6.546875 
Q 35.296875 -1.171875 25.734375 -1.171875 
Q 19.53125 -1.171875 14.328125 2.25 
Q 9.125 5.671875 6.265625 11.796875 
Q 3.421875 17.921875 3.421875 25.875 
Q 3.421875 33.640625 6 39.96875 
Q 8.59375 46.296875 13.765625 49.65625 
Q 18.953125 53.03125 25.34375 53.03125 
Q 30.03125 53.03125 33.6875 51.046875 
Q 37.359375 49.078125 39.65625 45.90625 
L 39.65625 71.578125 
L 48.390625 71.578125 
L 48.390625 0 
z
M 12.453125 25.875 
Q 12.453125 15.921875 16.640625 10.984375 
Q 20.84375 6.0625 26.5625 6.0625 
Q 32.328125 6.0625 36.34375 10.765625 
Q 40.375 15.484375 40.375 25.140625 
Q 40.375 35.796875 36.265625 40.765625 
Q 32.171875 45.75 26.171875 45.75 
Q 20.3125 45.75 16.375 40.96875 
Q 12.453125 36.1875 12.453125 25.875 
z
" id="ArialMT-100"/>
       <path d="M 6.203125 -19.96875 
L 5.21875 -11.71875 
Q 8.109375 -12.5 10.25 -12.5 
Q 13.1875 -12.5 14.9375 -11.515625 
Q 16.703125 -10.546875 17.828125 -8.796875 
Q 18.65625 -7.46875 20.515625 -2.25 
Q 20.75 -1.515625 21.296875 -0.09375 
L 1.609375 51.859375 
L 11.078125 51.859375 
L 21.875 21.828125 
Q 23.96875 16.109375 25.640625 9.8125 
Q 27.15625 15.875 29.25 21.625 
L 40.328125 51.859375 
L 49.125 51.859375 
L 29.390625 -0.875 
Q 26.21875 -9.421875 24.46875 -12.640625 
Q 22.125 -17 19.09375 -19.015625 
Q 16.0625 -21.046875 11.859375 -21.046875 
Q 9.328125 -21.046875 6.203125 -19.96875 
z
" id="ArialMT-121"/>
      </defs>
      <g transform="translate(243.539074 396.702278)scale(0.14 -0.14)">
       <use xlink:href="#ArialMT-75"/>
       <use x="66.699219" xlink:href="#ArialMT-105"/>
       <use x="88.916016" xlink:href="#ArialMT-100"/>
       <use x="144.53125" xlink:href="#ArialMT-110"/>
       <use x="200.146484" xlink:href="#ArialMT-101"/>
       <use x="255.761719" xlink:href="#ArialMT-121"/>
      </g>
     </g>
    </g>
    <g id="xtick_4">
     <g id="text_4">
      <!-- OS -->
      <defs>
       <path d="M 4.828125 34.859375 
Q 4.828125 52.6875 14.390625 62.765625 
Q 23.96875 72.859375 39.109375 72.859375 
Q 49.03125 72.859375 56.984375 68.109375 
Q 64.9375 63.375 69.109375 54.90625 
Q 73.296875 46.4375 73.296875 35.6875 
Q 73.296875 24.8125 68.890625 16.21875 
Q 64.5 7.625 56.4375 3.203125 
Q 48.390625 -1.21875 39.0625 -1.21875 
Q 28.953125 -1.21875 20.984375 3.65625 
Q 13.03125 8.546875 8.921875 16.984375 
Q 4.828125 25.4375 4.828125 34.859375 
z
M 14.59375 34.71875 
Q 14.59375 21.78125 21.546875 14.328125 
Q 28.515625 6.890625 39.015625 6.890625 
Q 49.703125 6.890625 56.609375 14.40625 
Q 63.53125 21.921875 63.53125 35.75 
Q 63.53125 44.484375 60.578125 51 
Q 57.625 57.515625 51.921875 61.109375 
Q 46.234375 64.703125 39.15625 64.703125 
Q 29.109375 64.703125 21.84375 57.78125 
Q 14.59375 50.875 14.59375 34.71875 
z
" id="ArialMT-79"/>
       <path d="M 4.5 23 
L 13.421875 23.78125 
Q 14.0625 18.40625 16.375 14.96875 
Q 18.703125 11.53125 23.578125 9.40625 
Q 28.46875 7.28125 34.578125 7.28125 
Q 39.984375 7.28125 44.140625 8.890625 
Q 48.296875 10.5 50.3125 13.296875 
Q 52.34375 16.109375 52.34375 19.4375 
Q 52.34375 22.796875 50.390625 25.3125 
Q 48.4375 27.828125 43.953125 29.546875 
Q 41.0625 30.671875 31.203125 33.03125 
Q 21.34375 35.40625 17.390625 37.5 
Q 12.25 40.1875 9.734375 44.15625 
Q 7.234375 48.140625 7.234375 53.078125 
Q 7.234375 58.5 10.296875 63.203125 
Q 13.375 67.921875 19.28125 70.359375 
Q 25.203125 72.796875 32.421875 72.796875 
Q 40.375 72.796875 46.453125 70.234375 
Q 52.546875 67.671875 55.8125 62.6875 
Q 59.078125 57.71875 59.328125 51.421875 
L 50.25 50.734375 
Q 49.515625 57.515625 45.28125 60.984375 
Q 41.0625 64.453125 32.8125 64.453125 
Q 24.21875 64.453125 20.28125 61.296875 
Q 16.359375 58.15625 16.359375 53.71875 
Q 16.359375 49.859375 19.140625 47.359375 
Q 21.875 44.875 33.421875 42.265625 
Q 44.96875 39.65625 49.265625 37.703125 
Q 55.515625 34.8125 58.484375 30.390625 
Q 61.46875 25.984375 61.46875 20.21875 
Q 61.46875 14.5 58.203125 9.4375 
Q 54.9375 4.390625 48.796875 1.578125 
Q 42.671875 -1.21875 35.015625 -1.21875 
Q 25.296875 -1.21875 18.71875 1.609375 
Q 12.15625 4.4375 8.421875 10.125 
Q 4.6875 15.828125 4.5 23 
z
" id="ArialMT-83"/>
      </defs>
      <g transform="translate(322.919992 396.702278)scale(0.14 -0.14)">
       <use xlink:href="#ArialMT-79"/>
       <use x="77.783203" xlink:href="#ArialMT-83"/>
      </g>
     </g>
    </g>
    <g id="xtick_5">
     <g id="text_5">
      <!-- Melanoma -->
      <g transform="translate(415.259539 396.702278)scale(0.14 -0.14)">
       <use xlink:href="#ArialMT-77"/>
       <use x="83.300781" xlink:href="#ArialMT-101"/>
       <use x="138.916016" xlink:href="#ArialMT-108"/>
       <use x="161.132812" xlink:href="#ArialMT-97"/>
       <use x="216.748047" xlink:href="#ArialMT-110"/>
       <use x="272.363281" xlink:href="#ArialMT-111"/>
       <use x="327.978516" xlink:href="#ArialMT-109"/>
       <use x="411.279297" xlink:href="#ArialMT-97"/>
      </g>
     </g>
    </g>
    <g id="xtick_6">
     <g id="text_6">
      <!-- Prostate -->
      <g transform="translate(489.964676 396.702278)scale(0.14 -0.14)">
       <use xlink:href="#ArialMT-80"/>
       <use x="66.699219" xlink:href="#ArialMT-114"/>
       <use x="100" xlink:href="#ArialMT-111"/>
       <use x="155.615234" xlink:href="#ArialMT-115"/>
       <use x="205.615234" xlink:href="#ArialMT-116"/>
       <use x="233.398438" xlink:href="#ArialMT-97"/>
       <use x="289.013672" xlink:href="#ArialMT-116"/>
       <use x="316.796875" xlink:href="#ArialMT-101"/>
      </g>
     </g>
    </g>
    <g id="xtick_7">
     <g id="text_7">
      <!-- Kidney -->
      <g transform="translate(562.721844 396.702278)scale(0.14 -0.14)">
       <use xlink:href="#ArialMT-75"/>
       <use x="66.699219" xlink:href="#ArialMT-105"/>
       <use x="88.916016" xlink:href="#ArialMT-100"/>
       <use x="144.53125" xlink:href="#ArialMT-110"/>
       <use x="200.146484" xlink:href="#ArialMT-101"/>
       <use x="255.761719" xlink:href="#ArialMT-121"/>
      </g>
     </g>
    </g>
    <g id="xtick_8">
     <g id="text_8">
      <!-- OS -->
      <g transform="translate(642.102762 396.702278)scale(0.14 -0.14)">
       <use xlink:href="#ArialMT-79"/>
       <use x="77.783203" xlink:href="#ArialMT-83"/>
      </g>
     </g>
    </g>
   </g>
   <g id="matplotlib.axis_2">
    <g id="ytick_1">
     <g id="text_9">
      <!-- 0 -->
      <defs>
       <path d="M 4.15625 35.296875 
Q 4.15625 48 6.765625 55.734375 
Q 9.375 63.484375 14.515625 67.671875 
Q 19.671875 71.875 27.484375 71.875 
Q 33.25 71.875 37.59375 69.546875 
Q 41.9375 67.234375 44.765625 62.859375 
Q 47.609375 58.5 49.21875 52.21875 
Q 50.828125 45.953125 50.828125 35.296875 
Q 50.828125 22.703125 48.234375 14.96875 
Q 45.65625 7.234375 40.5 3 
Q 35.359375 -1.21875 27.484375 -1.21875 
Q 17.140625 -1.21875 11.234375 6.203125 
Q 4.15625 15.140625 4.15625 35.296875 
z
M 13.1875 35.296875 
Q 13.1875 17.671875 17.3125 11.828125 
Q 21.4375 6 27.484375 6 
Q 33.546875 6 37.671875 11.859375 
Q 41.796875 17.71875 41.796875 35.296875 
Q 41.796875 52.984375 37.671875 58.78125 
Q 33.546875 64.59375 27.390625 64.59375 
Q 21.34375 64.59375 17.71875 59.46875 
Q 13.1875 52.9375 13.1875 35.296875 
z
" id="ArialMT-48"/>
      </defs>
      <g transform="translate(52.688521 384.69181)scale(0.14 -0.14)">
       <use xlink:href="#ArialMT-48"/>
      </g>
     </g>
    </g>
    <g id="ytick_2">
     <g id="text_10">
      <!-- 200 -->
      <defs>
       <path d="M 50.34375 8.453125 
L 50.34375 0 
L 3.03125 0 
Q 2.9375 3.171875 4.046875 6.109375 
Q 5.859375 10.9375 9.828125 15.625 
Q 13.8125 20.3125 21.34375 26.46875 
Q 33.015625 36.03125 37.109375 41.625 
Q 41.21875 47.21875 41.21875 52.203125 
Q 41.21875 57.421875 37.46875 61 
Q 33.734375 64.59375 27.734375 64.59375 
Q 21.390625 64.59375 17.578125 60.78125 
Q 13.765625 56.984375 13.71875 50.25 
L 4.6875 51.171875 
Q 5.609375 61.28125 11.65625 66.578125 
Q 17.71875 71.875 27.9375 71.875 
Q 38.234375 71.875 44.234375 66.15625 
Q 50.25 60.453125 50.25 52 
Q 50.25 47.703125 48.484375 43.546875 
Q 46.734375 39.40625 42.65625 34.8125 
Q 38.578125 30.21875 29.109375 22.21875 
Q 21.1875 15.578125 18.9375 13.203125 
Q 16.703125 10.84375 15.234375 8.453125 
z
" id="ArialMT-50"/>
      </defs>
      <g transform="translate(37.117896 311.192652)scale(0.14 -0.14)">
       <use xlink:href="#ArialMT-50"/>
       <use x="55.615234" xlink:href="#ArialMT-48"/>
       <use x="111.230469" xlink:href="#ArialMT-48"/>
      </g>
     </g>
    </g>
    <g id="ytick_3">
     <g id="text_11">
      <!-- 400 -->
      <defs>
       <path d="M 32.328125 0 
L 32.328125 17.140625 
L 1.265625 17.140625 
L 1.265625 25.203125 
L 33.9375 71.578125 
L 41.109375 71.578125 
L 41.109375 25.203125 
L 50.78125 25.203125 
L 50.78125 17.140625 
L 41.109375 17.140625 
L 41.109375 0 
z
M 32.328125 25.203125 
L 32.328125 57.46875 
L 9.90625 25.203125 
z
" id="ArialMT-52"/>
      </defs>
      <g transform="translate(37.117896 237.693494)scale(0.14 -0.14)">
       <use xlink:href="#ArialMT-52"/>
       <use x="55.615234" xlink:href="#ArialMT-48"/>
       <use x="111.230469" xlink:href="#ArialMT-48"/>
      </g>
     </g>
    </g>
    <g id="ytick_4">
     <g id="text_12">
      <!-- 600 -->
      <defs>
       <path d="M 49.75 54.046875 
L 41.015625 53.375 
Q 39.84375 58.546875 37.703125 60.890625 
Q 34.125 64.65625 28.90625 64.65625 
Q 24.703125 64.65625 21.53125 62.3125 
Q 17.390625 59.28125 14.984375 53.46875 
Q 12.59375 47.65625 12.5 36.921875 
Q 15.671875 41.75 20.265625 44.09375 
Q 24.859375 46.4375 29.890625 46.4375 
Q 38.671875 46.4375 44.84375 39.96875 
Q 51.03125 33.5 51.03125 23.25 
Q 51.03125 16.5 48.125 10.71875 
Q 45.21875 4.9375 40.140625 1.859375 
Q 35.0625 -1.21875 28.609375 -1.21875 
Q 17.625 -1.21875 10.6875 6.859375 
Q 3.765625 14.9375 3.765625 33.5 
Q 3.765625 54.25 11.421875 63.671875 
Q 18.109375 71.875 29.4375 71.875 
Q 37.890625 71.875 43.28125 67.140625 
Q 48.6875 62.40625 49.75 54.046875 
z
M 13.875 23.1875 
Q 13.875 18.65625 15.796875 14.5 
Q 17.71875 10.359375 21.1875 8.171875 
Q 24.65625 6 28.46875 6 
Q 34.03125 6 38.03125 10.484375 
Q 42.046875 14.984375 42.046875 22.703125 
Q 42.046875 30.125 38.078125 34.390625 
Q 34.125 38.671875 28.125 38.671875 
Q 22.171875 38.671875 18.015625 34.390625 
Q 13.875 30.125 13.875 23.1875 
z
" id="ArialMT-54"/>
      </defs>
      <g transform="translate(37.117896 164.194336)scale(0.14 -0.14)">
       <use xlink:href="#ArialMT-54"/>
       <use x="55.615234" xlink:href="#ArialMT-48"/>
       <use x="111.230469" xlink:href="#ArialMT-48"/>
      </g>
     </g>
    </g>
    <g id="ytick_5">
     <g id="text_13">
      <!-- 800 -->
      <defs>
       <path d="M 17.671875 38.8125 
Q 12.203125 40.828125 9.5625 44.53125 
Q 6.9375 48.25 6.9375 53.421875 
Q 6.9375 61.234375 12.546875 66.546875 
Q 18.171875 71.875 27.484375 71.875 
Q 36.859375 71.875 42.578125 66.421875 
Q 48.296875 60.984375 48.296875 53.171875 
Q 48.296875 48.1875 45.671875 44.5 
Q 43.0625 40.828125 37.75 38.8125 
Q 44.34375 36.671875 47.78125 31.875 
Q 51.21875 27.09375 51.21875 20.453125 
Q 51.21875 11.28125 44.71875 5.03125 
Q 38.234375 -1.21875 27.640625 -1.21875 
Q 17.046875 -1.21875 10.546875 5.046875 
Q 4.046875 11.328125 4.046875 20.703125 
Q 4.046875 27.6875 7.59375 32.390625 
Q 11.140625 37.109375 17.671875 38.8125 
z
M 15.921875 53.71875 
Q 15.921875 48.640625 19.1875 45.40625 
Q 22.46875 42.1875 27.6875 42.1875 
Q 32.765625 42.1875 36.015625 45.375 
Q 39.265625 48.578125 39.265625 53.21875 
Q 39.265625 58.0625 35.90625 61.359375 
Q 32.5625 64.65625 27.59375 64.65625 
Q 22.5625 64.65625 19.234375 61.421875 
Q 15.921875 58.203125 15.921875 53.71875 
z
M 13.09375 20.65625 
Q 13.09375 16.890625 14.875 13.375 
Q 16.65625 9.859375 20.171875 7.921875 
Q 23.6875 6 27.734375 6 
Q 34.03125 6 38.125 10.046875 
Q 42.234375 14.109375 42.234375 20.359375 
Q 42.234375 26.703125 38.015625 30.859375 
Q 33.796875 35.015625 27.4375 35.015625 
Q 21.234375 35.015625 17.15625 30.90625 
Q 13.09375 26.8125 13.09375 20.65625 
z
" id="ArialMT-56"/>
      </defs>
      <g transform="translate(37.117896 90.695178)scale(0.14 -0.14)">
       <use xlink:href="#ArialMT-56"/>
       <use x="55.615234" xlink:href="#ArialMT-48"/>
       <use x="111.230469" xlink:href="#ArialMT-48"/>
      </g>
     </g>
    </g>
    <g id="text_14">
     <!-- # of putatively actionable or -->
     <defs>
      <path d="M 5.03125 -1.21875 
L 9.28125 19.578125 
L 1.03125 19.578125 
L 1.03125 26.859375 
L 10.75 26.859375 
L 14.359375 44.578125 
L 1.03125 44.578125 
L 1.03125 51.859375 
L 15.828125 51.859375 
L 20.0625 72.796875 
L 27.390625 72.796875 
L 23.140625 51.859375 
L 38.53125 51.859375 
L 42.78125 72.796875 
L 50.140625 72.796875 
L 45.90625 51.859375 
L 54.34375 51.859375 
L 54.34375 44.578125 
L 44.4375 44.578125 
L 40.765625 26.859375 
L 54.34375 26.859375 
L 54.34375 19.578125 
L 39.3125 19.578125 
L 35.0625 -1.21875 
L 27.734375 -1.21875 
L 31.9375 19.578125 
L 16.609375 19.578125 
L 12.359375 -1.21875 
z
M 18.0625 26.859375 
L 33.40625 26.859375 
L 37.0625 44.578125 
L 21.6875 44.578125 
z
" id="ArialMT-35"/>
      <path id="ArialMT-32"/>
      <path d="M 8.6875 0 
L 8.6875 45.015625 
L 0.921875 45.015625 
L 0.921875 51.859375 
L 8.6875 51.859375 
L 8.6875 57.375 
Q 8.6875 62.59375 9.625 65.140625 
Q 10.890625 68.5625 14.078125 70.671875 
Q 17.28125 72.796875 23.046875 72.796875 
Q 26.765625 72.796875 31.25 71.921875 
L 29.9375 64.265625 
Q 27.203125 64.75 24.75 64.75 
Q 20.75 64.75 19.09375 63.03125 
Q 17.4375 61.328125 17.4375 56.640625 
L 17.4375 51.859375 
L 27.546875 51.859375 
L 27.546875 45.015625 
L 17.4375 45.015625 
L 17.4375 0 
z
" id="ArialMT-102"/>
      <path d="M 6.59375 -19.875 
L 6.59375 51.859375 
L 14.59375 51.859375 
L 14.59375 45.125 
Q 17.4375 49.078125 21 51.046875 
Q 24.5625 53.03125 29.640625 53.03125 
Q 36.28125 53.03125 41.359375 49.609375 
Q 46.4375 46.1875 49.015625 39.953125 
Q 51.609375 33.734375 51.609375 26.3125 
Q 51.609375 18.359375 48.75 11.984375 
Q 45.90625 5.609375 40.453125 2.21875 
Q 35.015625 -1.171875 29 -1.171875 
Q 24.609375 -1.171875 21.109375 0.6875 
Q 17.625 2.546875 15.375 5.375 
L 15.375 -19.875 
z
M 14.546875 25.640625 
Q 14.546875 15.625 18.59375 10.84375 
Q 22.65625 6.0625 28.421875 6.0625 
Q 34.28125 6.0625 38.453125 11.015625 
Q 42.625 15.96875 42.625 26.375 
Q 42.625 36.28125 38.546875 41.203125 
Q 34.46875 46.140625 28.8125 46.140625 
Q 23.1875 46.140625 18.859375 40.890625 
Q 14.546875 35.640625 14.546875 25.640625 
z
" id="ArialMT-112"/>
      <path d="M 40.578125 0 
L 40.578125 7.625 
Q 34.515625 -1.171875 24.125 -1.171875 
Q 19.53125 -1.171875 15.546875 0.578125 
Q 11.578125 2.34375 9.640625 5 
Q 7.71875 7.671875 6.9375 11.53125 
Q 6.390625 14.109375 6.390625 19.734375 
L 6.390625 51.859375 
L 15.1875 51.859375 
L 15.1875 23.09375 
Q 15.1875 16.21875 15.71875 13.8125 
Q 16.546875 10.359375 19.234375 8.375 
Q 21.921875 6.390625 25.875 6.390625 
Q 29.828125 6.390625 33.296875 8.421875 
Q 36.765625 10.453125 38.203125 13.9375 
Q 39.65625 17.4375 39.65625 24.078125 
L 39.65625 51.859375 
L 48.4375 51.859375 
L 48.4375 0 
z
" id="ArialMT-117"/>
      <path d="M 21 0 
L 1.265625 51.859375 
L 10.546875 51.859375 
L 21.6875 20.796875 
Q 23.484375 15.765625 25 10.359375 
Q 26.171875 14.453125 28.265625 20.21875 
L 39.796875 51.859375 
L 48.828125 51.859375 
L 29.203125 0 
z
" id="ArialMT-118"/>
      <path d="M 40.4375 19 
L 49.078125 17.875 
Q 47.65625 8.9375 41.8125 3.875 
Q 35.984375 -1.171875 27.484375 -1.171875 
Q 16.84375 -1.171875 10.375 5.78125 
Q 3.90625 12.75 3.90625 25.734375 
Q 3.90625 34.125 6.6875 40.421875 
Q 9.46875 46.734375 15.15625 49.875 
Q 20.84375 53.03125 27.546875 53.03125 
Q 35.984375 53.03125 41.359375 48.75 
Q 46.734375 44.484375 48.25 36.625 
L 39.703125 35.296875 
Q 38.484375 40.53125 35.375 43.15625 
Q 32.28125 45.796875 27.875 45.796875 
Q 21.234375 45.796875 17.078125 41.03125 
Q 12.9375 36.28125 12.9375 25.984375 
Q 12.9375 15.53125 16.9375 10.796875 
Q 20.953125 6.0625 27.390625 6.0625 
Q 32.5625 6.0625 36.03125 9.234375 
Q 39.5 12.40625 40.4375 19 
z
" id="ArialMT-99"/>
      <path d="M 14.703125 0 
L 6.546875 0 
L 6.546875 71.578125 
L 15.328125 71.578125 
L 15.328125 46.046875 
Q 20.90625 53.03125 29.546875 53.03125 
Q 34.328125 53.03125 38.59375 51.09375 
Q 42.875 49.171875 45.625 45.671875 
Q 48.390625 42.1875 49.953125 37.25 
Q 51.515625 32.328125 51.515625 26.703125 
Q 51.515625 13.375 44.921875 6.09375 
Q 38.328125 -1.171875 29.109375 -1.171875 
Q 19.921875 -1.171875 14.703125 6.5 
z
M 14.59375 26.3125 
Q 14.59375 17 17.140625 12.84375 
Q 21.296875 6.0625 28.375 6.0625 
Q 34.125 6.0625 38.328125 11.0625 
Q 42.53125 16.0625 42.53125 25.984375 
Q 42.53125 36.140625 38.5 40.96875 
Q 34.46875 45.796875 28.765625 45.796875 
Q 23 45.796875 18.796875 40.796875 
Q 14.59375 35.796875 14.59375 26.3125 
z
" id="ArialMT-98"/>
     </defs>
     <g transform="translate(13.919771 303.514291)rotate(-90)scale(0.15 -0.15)">
      <use xlink:href="#ArialMT-35"/>
      <use x="55.615234" xlink:href="#ArialMT-32"/>
      <use x="83.398438" xlink:href="#ArialMT-111"/>
      <use x="139.013672" xlink:href="#ArialMT-102"/>
      <use x="166.796875" xlink:href="#ArialMT-32"/>
      <use x="194.580078" xlink:href="#ArialMT-112"/>
      <use x="250.195312" xlink:href="#ArialMT-117"/>
      <use x="305.810547" xlink:href="#ArialMT-116"/>
      <use x="333.59375" xlink:href="#ArialMT-97"/>
      <use x="389.208984" xlink:href="#ArialMT-116"/>
      <use x="416.992188" xlink:href="#ArialMT-105"/>
      <use x="439.208984" xlink:href="#ArialMT-118"/>
      <use x="489.208984" xlink:href="#ArialMT-101"/>
      <use x="544.824219" xlink:href="#ArialMT-108"/>
      <use x="567.041016" xlink:href="#ArialMT-121"/>
      <use x="617.041016" xlink:href="#ArialMT-32"/>
      <use x="644.824219" xlink:href="#ArialMT-97"/>
      <use x="700.439453" xlink:href="#ArialMT-99"/>
      <use x="750.439453" xlink:href="#ArialMT-116"/>
      <use x="778.222656" xlink:href="#ArialMT-105"/>
      <use x="800.439453" xlink:href="#ArialMT-111"/>
      <use x="856.054688" xlink:href="#ArialMT-110"/>
      <use x="911.669922" xlink:href="#ArialMT-97"/>
      <use x="967.285156" xlink:href="#ArialMT-98"/>
      <use x="1022.900391" xlink:href="#ArialMT-108"/>
      <use x="1045.117188" xlink:href="#ArialMT-101"/>
      <use x="1100.732422" xlink:href="#ArialMT-32"/>
      <use x="1128.515625" xlink:href="#ArialMT-111"/>
      <use x="1184.130859" xlink:href="#ArialMT-114"/>
     </g>
     <!-- investigate actionability events -->
     <defs>
      <path d="M 4.984375 -4.296875 
L 13.53125 -5.5625 
Q 14.0625 -9.515625 16.5 -11.328125 
Q 19.78125 -13.765625 25.4375 -13.765625 
Q 31.546875 -13.765625 34.859375 -11.328125 
Q 38.1875 -8.890625 39.359375 -4.5 
Q 40.046875 -1.8125 39.984375 6.78125 
Q 34.234375 0 25.640625 0 
Q 14.9375 0 9.078125 7.71875 
Q 3.21875 15.4375 3.21875 26.21875 
Q 3.21875 33.640625 5.90625 39.90625 
Q 8.59375 46.1875 13.6875 49.609375 
Q 18.796875 53.03125 25.6875 53.03125 
Q 34.859375 53.03125 40.828125 45.609375 
L 40.828125 51.859375 
L 48.921875 51.859375 
L 48.921875 7.03125 
Q 48.921875 -5.078125 46.453125 -10.125 
Q 44 -15.1875 38.640625 -18.109375 
Q 33.296875 -21.046875 25.484375 -21.046875 
Q 16.21875 -21.046875 10.5 -16.875 
Q 4.78125 -12.703125 4.984375 -4.296875 
z
M 12.25 26.859375 
Q 12.25 16.65625 16.296875 11.96875 
Q 20.359375 7.28125 26.46875 7.28125 
Q 32.515625 7.28125 36.609375 11.9375 
Q 40.71875 16.609375 40.71875 26.5625 
Q 40.71875 36.078125 36.5 40.90625 
Q 32.28125 45.75 26.3125 45.75 
Q 20.453125 45.75 16.34375 40.984375 
Q 12.25 36.234375 12.25 26.859375 
z
" id="ArialMT-103"/>
     </defs>
     <g transform="translate(29.960865 313.516244)rotate(-90)scale(0.15 -0.15)">
      <use xlink:href="#ArialMT-105"/>
      <use x="22.216797" xlink:href="#ArialMT-110"/>
      <use x="77.832031" xlink:href="#ArialMT-118"/>
      <use x="127.832031" xlink:href="#ArialMT-101"/>
      <use x="183.447266" xlink:href="#ArialMT-115"/>
      <use x="233.447266" xlink:href="#ArialMT-116"/>
      <use x="261.230469" xlink:href="#ArialMT-105"/>
      <use x="283.447266" xlink:href="#ArialMT-103"/>
      <use x="339.0625" xlink:href="#ArialMT-97"/>
      <use x="394.677734" xlink:href="#ArialMT-116"/>
      <use x="422.460938" xlink:href="#ArialMT-101"/>
      <use x="478.076172" xlink:href="#ArialMT-32"/>
      <use x="505.859375" xlink:href="#ArialMT-97"/>
      <use x="561.474609" xlink:href="#ArialMT-99"/>
      <use x="611.474609" xlink:href="#ArialMT-116"/>
      <use x="639.257812" xlink:href="#ArialMT-105"/>
      <use x="661.474609" xlink:href="#ArialMT-111"/>
      <use x="717.089844" xlink:href="#ArialMT-110"/>
      <use x="772.705078" xlink:href="#ArialMT-97"/>
      <use x="828.320312" xlink:href="#ArialMT-98"/>
      <use x="883.935547" xlink:href="#ArialMT-105"/>
      <use x="906.152344" xlink:href="#ArialMT-108"/>
      <use x="928.369141" xlink:href="#ArialMT-105"/>
      <use x="950.585938" xlink:href="#ArialMT-116"/>
      <use x="978.369141" xlink:href="#ArialMT-121"/>
      <use x="1028.369141" xlink:href="#ArialMT-32"/>
      <use x="1056.152344" xlink:href="#ArialMT-101"/>
      <use x="1111.767578" xlink:href="#ArialMT-118"/>
      <use x="1161.767578" xlink:href="#ArialMT-101"/>
      <use x="1217.382812" xlink:href="#ArialMT-110"/>
      <use x="1272.998047" xlink:href="#ArialMT-116"/>
      <use x="1300.78125" xlink:href="#ArialMT-115"/>
     </g>
    </g>
   </g>
   <g id="text_15">
    <!-- PHIAL &amp; TARGET -->
    <defs>
     <path d="M 8.015625 0 
L 8.015625 71.578125 
L 17.484375 71.578125 
L 17.484375 42.1875 
L 54.6875 42.1875 
L 54.6875 71.578125 
L 64.15625 71.578125 
L 64.15625 0 
L 54.6875 0 
L 54.6875 33.734375 
L 17.484375 33.734375 
L 17.484375 0 
z
" id="ArialMT-72"/>
     <path d="M 9.328125 0 
L 9.328125 71.578125 
L 18.796875 71.578125 
L 18.796875 0 
z
" id="ArialMT-73"/>
     <path d="M -0.140625 0 
L 27.34375 71.578125 
L 37.546875 71.578125 
L 66.84375 0 
L 56.0625 0 
L 47.703125 21.6875 
L 17.78125 21.6875 
L 9.90625 0 
z
M 20.515625 29.390625 
L 44.78125 29.390625 
L 37.3125 49.21875 
Q 33.890625 58.25 32.234375 64.0625 
Q 30.859375 57.171875 28.375 50.390625 
z
" id="ArialMT-65"/>
     <path d="M 7.328125 0 
L 7.328125 71.578125 
L 16.796875 71.578125 
L 16.796875 8.453125 
L 52.046875 8.453125 
L 52.046875 0 
z
" id="ArialMT-76"/>
     <path d="M 47.515625 8.453125 
Q 43.171875 3.609375 38.03125 1.1875 
Q 32.90625 -1.21875 26.953125 -1.21875 
Q 15.96875 -1.21875 9.515625 6.203125 
Q 4.296875 12.25 4.296875 19.734375 
Q 4.296875 26.375 8.5625 31.71875 
Q 12.84375 37.0625 21.34375 41.109375 
Q 16.5 46.6875 14.890625 50.140625 
Q 13.28125 53.609375 13.28125 56.84375 
Q 13.28125 63.28125 18.328125 68.03125 
Q 23.390625 72.796875 31.0625 72.796875 
Q 38.375 72.796875 43.03125 68.296875 
Q 47.703125 63.8125 47.703125 57.515625 
Q 47.703125 47.3125 34.1875 40.09375 
L 47.015625 23.734375 
Q 49.21875 28.03125 50.4375 33.6875 
L 59.578125 31.734375 
Q 57.234375 22.359375 53.21875 16.3125 
Q 58.15625 9.765625 64.40625 5.328125 
L 58.5 -1.65625 
Q 53.171875 1.765625 47.515625 8.453125 
z
M 29.640625 45.75 
Q 35.359375 49.125 37.03125 51.65625 
Q 38.71875 54.203125 38.71875 57.28125 
Q 38.71875 60.9375 36.390625 63.25 
Q 34.078125 65.578125 30.609375 65.578125 
Q 27.046875 65.578125 24.671875 63.28125 
Q 22.3125 60.984375 22.3125 57.671875 
Q 22.3125 56 23.171875 54.171875 
Q 24.03125 52.34375 25.734375 50.296875 
z
M 42 15.375 
L 25.875 35.359375 
Q 18.75 31.109375 16.25 27.46875 
Q 13.765625 23.828125 13.765625 20.265625 
Q 13.765625 15.921875 17.234375 11.234375 
Q 20.703125 6.546875 27.046875 6.546875 
Q 31 6.546875 35.21875 9 
Q 39.453125 11.46875 42 15.375 
z
" id="ArialMT-38"/>
     <path d="M 25.921875 0 
L 25.921875 63.140625 
L 2.34375 63.140625 
L 2.34375 71.578125 
L 59.078125 71.578125 
L 59.078125 63.140625 
L 35.40625 63.140625 
L 35.40625 0 
z
" id="ArialMT-84"/>
     <path d="M 7.859375 0 
L 7.859375 71.578125 
L 39.59375 71.578125 
Q 49.171875 71.578125 54.140625 69.640625 
Q 59.125 67.71875 62.109375 62.828125 
Q 65.09375 57.953125 65.09375 52.046875 
Q 65.09375 44.4375 60.15625 39.203125 
Q 55.21875 33.984375 44.921875 32.5625 
Q 48.6875 30.765625 50.640625 29 
Q 54.78125 25.203125 58.5 19.484375 
L 70.953125 0 
L 59.03125 0 
L 49.5625 14.890625 
Q 45.40625 21.34375 42.71875 24.75 
Q 40.046875 28.171875 37.921875 29.53125 
Q 35.796875 30.90625 33.59375 31.453125 
Q 31.984375 31.78125 28.328125 31.78125 
L 17.328125 31.78125 
L 17.328125 0 
z
M 17.328125 39.984375 
L 37.703125 39.984375 
Q 44.1875 39.984375 47.84375 41.328125 
Q 51.515625 42.671875 53.421875 45.625 
Q 55.328125 48.578125 55.328125 52.046875 
Q 55.328125 57.125 51.640625 60.390625 
Q 47.953125 63.671875 39.984375 63.671875 
L 17.328125 63.671875 
z
" id="ArialMT-82"/>
     <path d="M 41.21875 28.078125 
L 41.21875 36.46875 
L 71.53125 36.53125 
L 71.53125 9.96875 
Q 64.546875 4.390625 57.125 1.578125 
Q 49.703125 -1.21875 41.890625 -1.21875 
Q 31.34375 -1.21875 22.71875 3.296875 
Q 14.109375 7.8125 9.71875 16.359375 
Q 5.328125 24.90625 5.328125 35.453125 
Q 5.328125 45.90625 9.6875 54.953125 
Q 14.0625 64.015625 22.265625 68.40625 
Q 30.46875 72.796875 41.15625 72.796875 
Q 48.921875 72.796875 55.1875 70.28125 
Q 61.46875 67.78125 65.03125 63.28125 
Q 68.609375 58.796875 70.453125 51.5625 
L 61.921875 49.21875 
Q 60.296875 54.6875 57.90625 57.8125 
Q 55.515625 60.9375 51.0625 62.8125 
Q 46.625 64.703125 41.21875 64.703125 
Q 34.71875 64.703125 29.984375 62.71875 
Q 25.25 60.75 22.34375 57.515625 
Q 19.4375 54.296875 17.828125 50.4375 
Q 15.09375 43.796875 15.09375 36.03125 
Q 15.09375 26.46875 18.390625 20.015625 
Q 21.6875 13.578125 27.984375 10.453125 
Q 34.28125 7.328125 41.359375 7.328125 
Q 47.515625 7.328125 53.375 9.6875 
Q 59.234375 12.0625 62.25 14.75 
L 62.25 28.078125 
z
" id="ArialMT-71"/>
     <path d="M 7.90625 0 
L 7.90625 71.578125 
L 59.671875 71.578125 
L 59.671875 63.140625 
L 17.390625 63.140625 
L 17.390625 41.21875 
L 56.984375 41.21875 
L 56.984375 32.8125 
L 17.390625 32.8125 
L 17.390625 8.453125 
L 61.328125 8.453125 
L 61.328125 0 
z
" id="ArialMT-69"/>
    </defs>
    <g transform="translate(177.698284 425.618315)scale(0.15 -0.15)">
     <use xlink:href="#ArialMT-80"/>
     <use x="66.699219" xlink:href="#ArialMT-72"/>
     <use x="138.916016" xlink:href="#ArialMT-73"/>
     <use x="166.699219" xlink:href="#ArialMT-65"/>
     <use x="233.398438" xlink:href="#ArialMT-76"/>
     <use x="288.966797" xlink:href="#ArialMT-32"/>
     <use x="316.75" xlink:href="#ArialMT-38"/>
     <use x="383.449219" xlink:href="#ArialMT-32"/>
     <use x="411.216797" xlink:href="#ArialMT-84"/>
     <use x="472.191406" xlink:href="#ArialMT-65"/>
     <use x="538.890625" xlink:href="#ArialMT-82"/>
     <use x="611.107422" xlink:href="#ArialMT-71"/>
     <use x="688.890625" xlink:href="#ArialMT-69"/>
     <use x="755.589844" xlink:href="#ArialMT-84"/>
    </g>
   </g>
   <g id="text_16">
    <!-- Molecular Oncology Almanac -->
    <g transform="translate(454.323351 425.618315)scale(0.15 -0.15)">
     <use xlink:href="#ArialMT-77"/>
     <use x="83.300781" xlink:href="#ArialMT-111"/>
     <use x="138.916016" xlink:href="#ArialMT-108"/>
     <use x="161.132812" xlink:href="#ArialMT-101"/>
     <use x="216.748047" xlink:href="#ArialMT-99"/>
     <use x="266.748047" xlink:href="#ArialMT-117"/>
     <use x="322.363281" xlink:href="#ArialMT-108"/>
     <use x="344.580078" xlink:href="#ArialMT-97"/>
     <use x="400.195312" xlink:href="#ArialMT-114"/>
     <use x="433.496094" xlink:href="#ArialMT-32"/>
     <use x="461.279297" xlink:href="#ArialMT-79"/>
     <use x="539.0625" xlink:href="#ArialMT-110"/>
     <use x="594.677734" xlink:href="#ArialMT-99"/>
     <use x="644.677734" xlink:href="#ArialMT-111"/>
     <use x="700.292969" xlink:href="#ArialMT-108"/>
     <use x="722.509766" xlink:href="#ArialMT-111"/>
     <use x="778.125" xlink:href="#ArialMT-103"/>
     <use x="833.740234" xlink:href="#ArialMT-121"/>
     <use x="883.740234" xlink:href="#ArialMT-32"/>
     <use x="911.445312" xlink:href="#ArialMT-65"/>
     <use x="978.144531" xlink:href="#ArialMT-108"/>
     <use x="1000.361328" xlink:href="#ArialMT-109"/>
     <use x="1083.662109" xlink:href="#ArialMT-97"/>
     <use x="1139.277344" xlink:href="#ArialMT-110"/>
     <use x="1194.892578" xlink:href="#ArialMT-97"/>
     <use x="1250.507812" xlink:href="#ArialMT-99"/>
    </g>
   </g>
   <g id="text_17">
    <!-- PHIAL &amp; TARGET and Molecular Oncology Almanac comparison -->
    <g transform="translate(159.756797 14.690465)scale(0.16 -0.16)">
     <use xlink:href="#ArialMT-80"/>
     <use x="66.699219" xlink:href="#ArialMT-72"/>
     <use x="138.916016" xlink:href="#ArialMT-73"/>
     <use x="166.699219" xlink:href="#ArialMT-65"/>
     <use x="233.398438" xlink:href="#ArialMT-76"/>
     <use x="288.966797" xlink:href="#ArialMT-32"/>
     <use x="316.75" xlink:href="#ArialMT-38"/>
     <use x="383.449219" xlink:href="#ArialMT-32"/>
     <use x="411.216797" xlink:href="#ArialMT-84"/>
     <use x="472.191406" xlink:href="#ArialMT-65"/>
     <use x="538.890625" xlink:href="#ArialMT-82"/>
     <use x="611.107422" xlink:href="#ArialMT-71"/>
     <use x="688.890625" xlink:href="#ArialMT-69"/>
     <use x="755.589844" xlink:href="#ArialMT-84"/>
     <use x="816.658203" xlink:href="#ArialMT-32"/>
     <use x="844.441406" xlink:href="#ArialMT-97"/>
     <use x="900.056641" xlink:href="#ArialMT-110"/>
     <use x="955.671875" xlink:href="#ArialMT-100"/>
     <use x="1011.287109" xlink:href="#ArialMT-32"/>
     <use x="1039.070312" xlink:href="#ArialMT-77"/>
     <use x="1122.371094" xlink:href="#ArialMT-111"/>
     <use x="1177.986328" xlink:href="#ArialMT-108"/>
     <use x="1200.203125" xlink:href="#ArialMT-101"/>
     <use x="1255.818359" xlink:href="#ArialMT-99"/>
     <use x="1305.818359" xlink:href="#ArialMT-117"/>
     <use x="1361.433594" xlink:href="#ArialMT-108"/>
     <use x="1383.650391" xlink:href="#ArialMT-97"/>
     <use x="1439.265625" xlink:href="#ArialMT-114"/>
     <use x="1472.566406" xlink:href="#ArialMT-32"/>
     <use x="1500.349609" xlink:href="#ArialMT-79"/>
     <use x="1578.132812" xlink:href="#ArialMT-110"/>
     <use x="1633.748047" xlink:href="#ArialMT-99"/>
     <use x="1683.748047" xlink:href="#ArialMT-111"/>
     <use x="1739.363281" xlink:href="#ArialMT-108"/>
     <use x="1761.580078" xlink:href="#ArialMT-111"/>
     <use x="1817.195312" xlink:href="#ArialMT-103"/>
     <use x="1872.810547" xlink:href="#ArialMT-121"/>
     <use x="1922.810547" xlink:href="#ArialMT-32"/>
     <use x="1950.515625" xlink:href="#ArialMT-65"/>
     <use x="2017.214844" xlink:href="#ArialMT-108"/>
     <use x="2039.431641" xlink:href="#ArialMT-109"/>
     <use x="2122.732422" xlink:href="#ArialMT-97"/>
     <use x="2178.347656" xlink:href="#ArialMT-110"/>
     <use x="2233.962891" xlink:href="#ArialMT-97"/>
     <use x="2289.578125" xlink:href="#ArialMT-99"/>
     <use x="2339.578125" xlink:href="#ArialMT-32"/>
     <use x="2367.361328" xlink:href="#ArialMT-99"/>
     <use x="2417.361328" xlink:href="#ArialMT-111"/>
     <use x="2472.976562" xlink:href="#ArialMT-109"/>
     <use x="2556.277344" xlink:href="#ArialMT-112"/>
     <use x="2611.892578" xlink:href="#ArialMT-97"/>
     <use x="2667.507812" xlink:href="#ArialMT-114"/>
     <use x="2700.808594" xlink:href="#ArialMT-105"/>
     <use x="2723.025391" xlink:href="#ArialMT-115"/>
     <use x="2773.025391" xlink:href="#ArialMT-111"/>
     <use x="2828.640625" xlink:href="#ArialMT-110"/>
    </g>
    <!--      Metastatic melanoma (n = 110), mCRPC (n = 150), KIRP (n = 100), and OS (n = 59) -->
    <defs>
     <path d="M 23.390625 -21.046875 
Q 16.109375 -11.859375 11.078125 0.4375 
Q 6.0625 12.75 6.0625 25.921875 
Q 6.0625 37.546875 9.8125 48.1875 
Q 14.203125 60.546875 23.390625 72.796875 
L 29.6875 72.796875 
Q 23.78125 62.640625 21.875 58.296875 
Q 18.890625 51.5625 17.1875 44.234375 
Q 15.09375 35.109375 15.09375 25.875 
Q 15.09375 2.390625 29.6875 -21.046875 
z
" id="ArialMT-40"/>
     <path d="M 52.828125 42.09375 
L 5.5625 42.09375 
L 5.5625 50.296875 
L 52.828125 50.296875 
z
M 52.828125 20.359375 
L 5.5625 20.359375 
L 5.5625 28.5625 
L 52.828125 28.5625 
z
" id="ArialMT-61"/>
     <path d="M 37.25 0 
L 28.46875 0 
L 28.46875 56 
Q 25.296875 52.984375 20.140625 49.953125 
Q 14.984375 46.921875 10.890625 45.40625 
L 10.890625 53.90625 
Q 18.265625 57.375 23.78125 62.296875 
Q 29.296875 67.234375 31.59375 71.875 
L 37.25 71.875 
z
" id="ArialMT-49"/>
     <path d="M 12.359375 -21.046875 
L 6.0625 -21.046875 
Q 20.65625 2.390625 20.65625 25.875 
Q 20.65625 35.0625 18.5625 44.09375 
Q 16.890625 51.421875 13.921875 58.15625 
Q 12.015625 62.546875 6.0625 72.796875 
L 12.359375 72.796875 
Q 21.53125 60.546875 25.921875 48.1875 
Q 29.6875 37.546875 29.6875 25.921875 
Q 29.6875 12.75 24.625 0.4375 
Q 19.578125 -11.859375 12.359375 -21.046875 
z
" id="ArialMT-41"/>
     <path d="M 8.890625 0 
L 8.890625 10.015625 
L 18.890625 10.015625 
L 18.890625 0 
Q 18.890625 -5.515625 16.9375 -8.90625 
Q 14.984375 -12.3125 10.75 -14.15625 
L 8.296875 -10.40625 
Q 11.078125 -9.1875 12.390625 -6.8125 
Q 13.71875 -4.4375 13.875 0 
z
" id="ArialMT-44"/>
     <path d="M 58.796875 25.09375 
L 68.265625 22.703125 
Q 65.28125 11.03125 57.546875 4.90625 
Q 49.8125 -1.21875 38.625 -1.21875 
Q 27.046875 -1.21875 19.796875 3.484375 
Q 12.546875 8.203125 8.765625 17.140625 
Q 4.984375 26.078125 4.984375 36.328125 
Q 4.984375 47.515625 9.25 55.828125 
Q 13.53125 64.15625 21.40625 68.46875 
Q 29.296875 72.796875 38.765625 72.796875 
Q 49.515625 72.796875 56.828125 67.328125 
Q 64.15625 61.859375 67.046875 51.953125 
L 57.71875 49.75 
Q 55.21875 57.5625 50.484375 61.125 
Q 45.75 64.703125 38.578125 64.703125 
Q 30.328125 64.703125 24.78125 60.734375 
Q 19.234375 56.78125 16.984375 50.109375 
Q 14.75 43.453125 14.75 36.375 
Q 14.75 27.25 17.40625 20.4375 
Q 20.0625 13.625 25.671875 10.25 
Q 31.296875 6.890625 37.84375 6.890625 
Q 45.796875 6.890625 51.3125 11.46875 
Q 56.84375 16.0625 58.796875 25.09375 
z
" id="ArialMT-67"/>
     <path d="M 4.15625 18.75 
L 13.375 19.53125 
Q 14.40625 12.796875 18.140625 9.390625 
Q 21.875 6 27.15625 6 
Q 33.5 6 37.890625 10.78125 
Q 42.28125 15.578125 42.28125 23.484375 
Q 42.28125 31 38.0625 35.34375 
Q 33.84375 39.703125 27 39.703125 
Q 22.75 39.703125 19.328125 37.765625 
Q 15.921875 35.84375 13.96875 32.765625 
L 5.71875 33.84375 
L 12.640625 70.609375 
L 48.25 70.609375 
L 48.25 62.203125 
L 19.671875 62.203125 
L 15.828125 42.96875 
Q 22.265625 47.46875 29.34375 47.46875 
Q 38.71875 47.46875 45.15625 40.96875 
Q 51.609375 34.46875 51.609375 24.265625 
Q 51.609375 14.546875 45.953125 7.46875 
Q 39.0625 -1.21875 27.15625 -1.21875 
Q 17.390625 -1.21875 11.203125 4.25 
Q 5.03125 9.71875 4.15625 18.75 
z
" id="ArialMT-53"/>
     <path d="M 5.46875 16.546875 
L 13.921875 17.328125 
Q 14.984375 11.375 18.015625 8.6875 
Q 21.046875 6 25.78125 6 
Q 29.828125 6 32.875 7.859375 
Q 35.9375 9.71875 37.890625 12.8125 
Q 39.84375 15.921875 41.15625 21.1875 
Q 42.484375 26.46875 42.484375 31.9375 
Q 42.484375 32.515625 42.4375 33.6875 
Q 39.796875 29.5 35.234375 26.875 
Q 30.671875 24.265625 25.34375 24.265625 
Q 16.453125 24.265625 10.296875 30.703125 
Q 4.15625 37.15625 4.15625 47.703125 
Q 4.15625 58.59375 10.578125 65.234375 
Q 17 71.875 26.65625 71.875 
Q 33.640625 71.875 39.421875 68.109375 
Q 45.21875 64.359375 48.21875 57.390625 
Q 51.21875 50.4375 51.21875 37.25 
Q 51.21875 23.53125 48.234375 15.40625 
Q 45.265625 7.28125 39.375 3.03125 
Q 33.5 -1.21875 25.59375 -1.21875 
Q 17.1875 -1.21875 11.859375 3.4375 
Q 6.546875 8.109375 5.46875 16.546875 
z
M 41.453125 48.140625 
Q 41.453125 55.71875 37.421875 60.15625 
Q 33.40625 64.59375 27.734375 64.59375 
Q 21.875 64.59375 17.53125 59.8125 
Q 13.1875 55.03125 13.1875 47.40625 
Q 13.1875 40.578125 17.3125 36.296875 
Q 21.4375 32.03125 27.484375 32.03125 
Q 33.59375 32.03125 37.515625 36.296875 
Q 41.453125 40.578125 41.453125 48.140625 
z
" id="ArialMT-57"/>
    </defs>
    <g transform="translate(81.489297 32.046965)scale(0.16 -0.16)">
     <use xlink:href="#ArialMT-32"/>
     <use x="27.783203" xlink:href="#ArialMT-32"/>
     <use x="55.566406" xlink:href="#ArialMT-32"/>
     <use x="83.349609" xlink:href="#ArialMT-32"/>
     <use x="111.132812" xlink:href="#ArialMT-32"/>
     <use x="138.916016" xlink:href="#ArialMT-77"/>
     <use x="222.216797" xlink:href="#ArialMT-101"/>
     <use x="277.832031" xlink:href="#ArialMT-116"/>
     <use x="305.615234" xlink:href="#ArialMT-97"/>
     <use x="361.230469" xlink:href="#ArialMT-115"/>
     <use x="411.230469" xlink:href="#ArialMT-116"/>
     <use x="439.013672" xlink:href="#ArialMT-97"/>
     <use x="494.628906" xlink:href="#ArialMT-116"/>
     <use x="522.412109" xlink:href="#ArialMT-105"/>
     <use x="544.628906" xlink:href="#ArialMT-99"/>
     <use x="594.628906" xlink:href="#ArialMT-32"/>
     <use x="622.412109" xlink:href="#ArialMT-109"/>
     <use x="705.712891" xlink:href="#ArialMT-101"/>
     <use x="761.328125" xlink:href="#ArialMT-108"/>
     <use x="783.544922" xlink:href="#ArialMT-97"/>
     <use x="839.160156" xlink:href="#ArialMT-110"/>
     <use x="894.775391" xlink:href="#ArialMT-111"/>
     <use x="950.390625" xlink:href="#ArialMT-109"/>
     <use x="1033.691406" xlink:href="#ArialMT-97"/>
     <use x="1089.306641" xlink:href="#ArialMT-32"/>
     <use x="1117.089844" xlink:href="#ArialMT-40"/>
     <use x="1150.390625" xlink:href="#ArialMT-110"/>
     <use x="1206.005859" xlink:href="#ArialMT-32"/>
     <use x="1233.789062" xlink:href="#ArialMT-61"/>
     <use x="1292.1875" xlink:href="#ArialMT-32"/>
     <use x="1319.970703" xlink:href="#ArialMT-49"/>
     <use x="1375.476562" xlink:href="#ArialMT-49"/>
     <use x="1431.091797" xlink:href="#ArialMT-48"/>
     <use x="1486.707031" xlink:href="#ArialMT-41"/>
     <use x="1520.007812" xlink:href="#ArialMT-44"/>
     <use x="1547.791016" xlink:href="#ArialMT-32"/>
     <use x="1575.574219" xlink:href="#ArialMT-109"/>
     <use x="1658.875" xlink:href="#ArialMT-67"/>
     <use x="1731.091797" xlink:href="#ArialMT-82"/>
     <use x="1803.308594" xlink:href="#ArialMT-80"/>
     <use x="1870.007812" xlink:href="#ArialMT-67"/>
     <use x="1942.224609" xlink:href="#ArialMT-32"/>
     <use x="1970.007812" xlink:href="#ArialMT-40"/>
     <use x="2003.308594" xlink:href="#ArialMT-110"/>
     <use x="2058.923828" xlink:href="#ArialMT-32"/>
     <use x="2086.707031" xlink:href="#ArialMT-61"/>
     <use x="2145.105469" xlink:href="#ArialMT-32"/>
     <use x="2172.888672" xlink:href="#ArialMT-49"/>
     <use x="2228.503906" xlink:href="#ArialMT-53"/>
     <use x="2284.119141" xlink:href="#ArialMT-48"/>
     <use x="2339.734375" xlink:href="#ArialMT-41"/>
     <use x="2373.035156" xlink:href="#ArialMT-44"/>
     <use x="2400.818359" xlink:href="#ArialMT-32"/>
     <use x="2428.601562" xlink:href="#ArialMT-75"/>
     <use x="2495.300781" xlink:href="#ArialMT-73"/>
     <use x="2523.083984" xlink:href="#ArialMT-82"/>
     <use x="2595.300781" xlink:href="#ArialMT-80"/>
     <use x="2661.984375" xlink:href="#ArialMT-32"/>
     <use x="2689.767578" xlink:href="#ArialMT-40"/>
     <use x="2723.068359" xlink:href="#ArialMT-110"/>
     <use x="2778.683594" xlink:href="#ArialMT-32"/>
     <use x="2806.466797" xlink:href="#ArialMT-61"/>
     <use x="2864.865234" xlink:href="#ArialMT-32"/>
     <use x="2892.648438" xlink:href="#ArialMT-49"/>
     <use x="2948.263672" xlink:href="#ArialMT-48"/>
     <use x="3003.878906" xlink:href="#ArialMT-48"/>
     <use x="3059.494141" xlink:href="#ArialMT-41"/>
     <use x="3092.794922" xlink:href="#ArialMT-44"/>
     <use x="3120.578125" xlink:href="#ArialMT-32"/>
     <use x="3148.361328" xlink:href="#ArialMT-97"/>
     <use x="3203.976562" xlink:href="#ArialMT-110"/>
     <use x="3259.591797" xlink:href="#ArialMT-100"/>
     <use x="3315.207031" xlink:href="#ArialMT-32"/>
     <use x="3342.990234" xlink:href="#ArialMT-79"/>
     <use x="3420.773438" xlink:href="#ArialMT-83"/>
     <use x="3487.472656" xlink:href="#ArialMT-32"/>
     <use x="3515.255859" xlink:href="#ArialMT-40"/>
     <use x="3548.556641" xlink:href="#ArialMT-110"/>
     <use x="3604.171875" xlink:href="#ArialMT-32"/>
     <use x="3631.955078" xlink:href="#ArialMT-61"/>
     <use x="3690.353516" xlink:href="#ArialMT-32"/>
     <use x="3718.136719" xlink:href="#ArialMT-53"/>
     <use x="3773.751953" xlink:href="#ArialMT-57"/>
     <use x="3829.367188" xlink:href="#ArialMT-41"/>
    </g>
   </g>
   <g id="legend_1">
    <g id="patch_59">
     <path d="M 79.173834 65.750834 
L 105.173834 65.750834 
L 105.173834 56.650834 
L 79.173834 56.650834 
z
" style="fill:#4e79a7;"/>
    </g>
    <g id="text_18">
     <!-- Somatic variant -->
     <g transform="translate(115.573834 65.750834)scale(0.13 -0.13)">
      <use xlink:href="#ArialMT-83"/>
      <use x="66.699219" xlink:href="#ArialMT-111"/>
      <use x="122.314453" xlink:href="#ArialMT-109"/>
      <use x="205.615234" xlink:href="#ArialMT-97"/>
      <use x="261.230469" xlink:href="#ArialMT-116"/>
      <use x="289.013672" xlink:href="#ArialMT-105"/>
      <use x="311.230469" xlink:href="#ArialMT-99"/>
      <use x="361.230469" xlink:href="#ArialMT-32"/>
      <use x="389.013672" xlink:href="#ArialMT-118"/>
      <use x="439.013672" xlink:href="#ArialMT-97"/>
      <use x="494.628906" xlink:href="#ArialMT-114"/>
      <use x="527.929688" xlink:href="#ArialMT-105"/>
      <use x="550.146484" xlink:href="#ArialMT-97"/>
      <use x="605.761719" xlink:href="#ArialMT-110"/>
      <use x="661.376953" xlink:href="#ArialMT-116"/>
     </g>
    </g>
    <g id="patch_60">
     <path d="M 79.173834 84.298178 
L 105.173834 84.298178 
L 105.173834 75.198178 
L 79.173834 75.198178 
z
" style="fill:#59a14f;"/>
    </g>
    <g id="text_19">
     <!-- Somatic copy number -->
     <g transform="translate(115.573834 84.298178)scale(0.13 -0.13)">
      <use xlink:href="#ArialMT-83"/>
      <use x="66.699219" xlink:href="#ArialMT-111"/>
      <use x="122.314453" xlink:href="#ArialMT-109"/>
      <use x="205.615234" xlink:href="#ArialMT-97"/>
      <use x="261.230469" xlink:href="#ArialMT-116"/>
      <use x="289.013672" xlink:href="#ArialMT-105"/>
      <use x="311.230469" xlink:href="#ArialMT-99"/>
      <use x="361.230469" xlink:href="#ArialMT-32"/>
      <use x="389.013672" xlink:href="#ArialMT-99"/>
      <use x="439.013672" xlink:href="#ArialMT-111"/>
      <use x="494.628906" xlink:href="#ArialMT-112"/>
      <use x="550.244141" xlink:href="#ArialMT-121"/>
      <use x="600.244141" xlink:href="#ArialMT-32"/>
      <use x="628.027344" xlink:href="#ArialMT-110"/>
      <use x="683.642578" xlink:href="#ArialMT-117"/>
      <use x="739.257812" xlink:href="#ArialMT-109"/>
      <use x="822.558594" xlink:href="#ArialMT-98"/>
      <use x="878.173828" xlink:href="#ArialMT-101"/>
      <use x="933.789062" xlink:href="#ArialMT-114"/>
     </g>
    </g>
    <g id="patch_61">
     <path d="M 79.173834 102.839428 
L 105.173834 102.839428 
L 105.173834 93.739428 
L 79.173834 93.739428 
z
" style="fill:#b07aa1;"/>
    </g>
    <g id="text_20">
     <!-- Rearrangement -->
     <g transform="translate(115.573834 102.839428)scale(0.13 -0.13)">
      <use xlink:href="#ArialMT-82"/>
      <use x="72.216797" xlink:href="#ArialMT-101"/>
      <use x="127.832031" xlink:href="#ArialMT-97"/>
      <use x="183.447266" xlink:href="#ArialMT-114"/>
      <use x="216.748047" xlink:href="#ArialMT-114"/>
      <use x="250.048828" xlink:href="#ArialMT-97"/>
      <use x="305.664062" xlink:href="#ArialMT-110"/>
      <use x="361.279297" xlink:href="#ArialMT-103"/>
      <use x="416.894531" xlink:href="#ArialMT-101"/>
      <use x="472.509766" xlink:href="#ArialMT-109"/>
      <use x="555.810547" xlink:href="#ArialMT-101"/>
      <use x="611.425781" xlink:href="#ArialMT-110"/>
      <use x="667.041016" xlink:href="#ArialMT-116"/>
     </g>
    </g>
    <g id="patch_62">
     <path d="M 79.173834 121.380678 
L 105.173834 121.380678 
L 105.173834 112.280678 
L 79.173834 112.280678 
z
" style="fill:#f28e2b;"/>
    </g>
    <g id="text_21">
     <!-- Germline variant -->
     <g transform="translate(115.573834 121.380678)scale(0.13 -0.13)">
      <use xlink:href="#ArialMT-71"/>
      <use x="77.783203" xlink:href="#ArialMT-101"/>
      <use x="133.398438" xlink:href="#ArialMT-114"/>
      <use x="166.699219" xlink:href="#ArialMT-109"/>
      <use x="250" xlink:href="#ArialMT-108"/>
      <use x="272.216797" xlink:href="#ArialMT-105"/>
      <use x="294.433594" xlink:href="#ArialMT-110"/>
      <use x="350.048828" xlink:href="#ArialMT-101"/>
      <use x="405.664062" xlink:href="#ArialMT-32"/>
      <use x="433.447266" xlink:href="#ArialMT-118"/>
      <use x="483.447266" xlink:href="#ArialMT-97"/>
      <use x="539.0625" xlink:href="#ArialMT-114"/>
      <use x="572.363281" xlink:href="#ArialMT-105"/>
      <use x="594.580078" xlink:href="#ArialMT-97"/>
      <use x="650.195312" xlink:href="#ArialMT-110"/>
      <use x="705.810547" xlink:href="#ArialMT-116"/>
     </g>
    </g>
    <g id="patch_63">
     <path d="M 79.173834 139.769584 
L 105.173834 139.769584 
L 105.173834 130.669584 
L 79.173834 130.669584 
z
" style="fill:#e15759;"/>
    </g>
    <g id="text_22">
     <!-- Tumor mutational burden -->
     <g transform="translate(115.573834 139.769584)scale(0.13 -0.13)">
      <use xlink:href="#ArialMT-84"/>
      <use x="61.037109" xlink:href="#ArialMT-117"/>
      <use x="116.652344" xlink:href="#ArialMT-109"/>
      <use x="199.953125" xlink:href="#ArialMT-111"/>
      <use x="255.568359" xlink:href="#ArialMT-114"/>
      <use x="288.869141" xlink:href="#ArialMT-32"/>
      <use x="316.652344" xlink:href="#ArialMT-109"/>
      <use x="399.953125" xlink:href="#ArialMT-117"/>
      <use x="455.568359" xlink:href="#ArialMT-116"/>
      <use x="483.351562" xlink:href="#ArialMT-97"/>
      <use x="538.966797" xlink:href="#ArialMT-116"/>
      <use x="566.75" xlink:href="#ArialMT-105"/>
      <use x="588.966797" xlink:href="#ArialMT-111"/>
      <use x="644.582031" xlink:href="#ArialMT-110"/>
      <use x="700.197266" xlink:href="#ArialMT-97"/>
      <use x="755.8125" xlink:href="#ArialMT-108"/>
      <use x="778.029297" xlink:href="#ArialMT-32"/>
      <use x="805.8125" xlink:href="#ArialMT-98"/>
      <use x="861.427734" xlink:href="#ArialMT-117"/>
      <use x="917.042969" xlink:href="#ArialMT-114"/>
      <use x="950.34375" xlink:href="#ArialMT-100"/>
      <use x="1005.958984" xlink:href="#ArialMT-101"/>
      <use x="1061.574219" xlink:href="#ArialMT-110"/>
     </g>
    </g>
    <g id="patch_64">
     <path d="M 79.173834 158.158491 
L 105.173834 158.158491 
L 105.173834 149.058491 
L 79.173834 149.058491 
z
" style="fill:#edc948;"/>
    </g>
    <g id="text_23">
     <!-- Mutational signature -->
     <g transform="translate(115.573834 158.158491)scale(0.13 -0.13)">
      <use xlink:href="#ArialMT-77"/>
      <use x="83.300781" xlink:href="#ArialMT-117"/>
      <use x="138.916016" xlink:href="#ArialMT-116"/>
      <use x="166.699219" xlink:href="#ArialMT-97"/>
      <use x="222.314453" xlink:href="#ArialMT-116"/>
      <use x="250.097656" xlink:href="#ArialMT-105"/>
      <use x="272.314453" xlink:href="#ArialMT-111"/>
      <use x="327.929688" xlink:href="#ArialMT-110"/>
      <use x="383.544922" xlink:href="#ArialMT-97"/>
      <use x="439.160156" xlink:href="#ArialMT-108"/>
      <use x="461.376953" xlink:href="#ArialMT-32"/>
      <use x="489.160156" xlink:href="#ArialMT-115"/>
      <use x="539.160156" xlink:href="#ArialMT-105"/>
      <use x="561.376953" xlink:href="#ArialMT-103"/>
      <use x="616.992188" xlink:href="#ArialMT-110"/>
      <use x="672.607422" xlink:href="#ArialMT-97"/>
      <use x="728.222656" xlink:href="#ArialMT-116"/>
      <use x="756.005859" xlink:href="#ArialMT-117"/>
      <use x="811.621094" xlink:href="#ArialMT-114"/>
      <use x="844.921875" xlink:href="#ArialMT-101"/>
     </g>
    </g>
    <g id="patch_65">
     <path d="M 79.173834 176.699741 
L 105.173834 176.699741 
L 105.173834 167.599741 
L 79.173834 167.599741 
z
" style="fill:#e19da7;"/>
    </g>
    <g id="text_24">
     <!-- Aneuploidy -->
     <g transform="translate(115.573834 176.699741)scale(0.13 -0.13)">
      <use xlink:href="#ArialMT-65"/>
      <use x="66.699219" xlink:href="#ArialMT-110"/>
      <use x="122.314453" xlink:href="#ArialMT-101"/>
      <use x="177.929688" xlink:href="#ArialMT-117"/>
      <use x="233.544922" xlink:href="#ArialMT-112"/>
      <use x="289.160156" xlink:href="#ArialMT-108"/>
      <use x="311.376953" xlink:href="#ArialMT-111"/>
      <use x="366.992188" xlink:href="#ArialMT-105"/>
      <use x="389.208984" xlink:href="#ArialMT-100"/>
      <use x="444.824219" xlink:href="#ArialMT-121"/>
     </g>
    </g>
   </g>
  </g>
 </g>
 <defs>
  <clipPath id="p81ff16d1ee">
   <rect height="334.935663" width="646.025926" x="67.473834" y="44.745678"/>
  </clipPath>
 </defs>
</svg>
