<?xml version="1.0" encoding="utf-8" standalone="no"?>
<!DOCTYPE svg PUBLIC "-//W3C//DTD SVG 1.1//EN"
  "http://www.w3.org/Graphics/SVG/1.1/DTD/svg11.dtd">
<!-- Created with matplotlib (https://matplotlib.org/) -->
<svg height="540pt" version="1.1" viewBox="0 0 720 540" width="720pt" xmlns="http://www.w3.org/2000/svg" xmlns:xlink="http://www.w3.org/1999/xlink">
 <defs>
  <style type="text/css">
*{stroke-linecap:butt;stroke-linejoin:round;}
  </style>
 </defs>
 <g id="figure_1">
  <g id="patch_1">
   <path d="M 0 540 
L 720 540 
L 720 0 
L 0 0 
z
" style="fill:#ffffff;"/>
  </g>
  <g id="axes_1">
   <g id="patch_2">
    <path d="M 20.009927 464.273301 
L 713.49976 464.273301 
L 713.49976 45.24024 
L 20.009927 45.24024 
z
" style="fill:#ffffff;"/>
   </g>
   <g id="patch_3">
    <path clip-path="url(#p1f0d1ee086)" d="M 65.237525 464.273301 
L 95.389257 464.273301 
L 95.389257 65.194195 
L 65.237525 65.194195 
z
" style="fill:#f28e2b;"/>
   </g>
   <g id="patch_4">
    <path clip-path="url(#p1f0d1ee086)" d="M 125.540989 464.273301 
L 155.692721 464.273301 
L 155.692721 122.205496 
L 125.540989 122.205496 
z
" style="fill:#f28e2b;"/>
   </g>
   <g id="patch_5">
    <path clip-path="url(#p1f0d1ee086)" d="M 185.844453 464.273301 
L 215.996185 464.273301 
L 215.996185 179.216797 
L 185.844453 179.216797 
z
" style="fill:#f28e2b;"/>
   </g>
   <g id="patch_6">
    <path clip-path="url(#p1f0d1ee086)" d="M 246.147916 464.273301 
L 276.299648 464.273301 
L 276.299648 179.216797 
L 246.147916 179.216797 
z
" style="fill:#f28e2b;"/>
   </g>
   <g id="patch_7">
    <path clip-path="url(#p1f0d1ee086)" d="M 306.45138 464.273301 
L 336.603112 464.273301 
L 336.603112 236.228098 
L 306.45138 236.228098 
z
" style="fill:#f28e2b;"/>
   </g>
   <g id="patch_8">
    <path clip-path="url(#p1f0d1ee086)" d="M 366.754844 464.273301 
L 396.906576 464.273301 
L 396.906576 236.228098 
L 366.754844 236.228098 
z
" style="fill:#f28e2b;"/>
   </g>
   <g id="patch_9">
    <path clip-path="url(#p1f0d1ee086)" d="M 427.058307 464.273301 
L 457.210039 464.273301 
L 457.210039 236.228098 
L 427.058307 236.228098 
z
" style="fill:#f28e2b;"/>
   </g>
   <g id="patch_10">
    <path clip-path="url(#p1f0d1ee086)" d="M 487.361771 464.273301 
L 517.513503 464.273301 
L 517.513503 236.228098 
L 487.361771 236.228098 
z
" style="fill:#f28e2b;"/>
   </g>
   <g id="patch_11">
    <path clip-path="url(#p1f0d1ee086)" d="M 547.665235 464.273301 
L 577.816967 464.273301 
L 577.816967 236.228098 
L 547.665235 236.228098 
z
" style="fill:#f28e2b;"/>
   </g>
   <g id="patch_12">
    <path clip-path="url(#p1f0d1ee086)" d="M 607.968699 464.273301 
L 638.12043 464.273301 
L 638.12043 236.228098 
L 607.968699 236.228098 
z
" style="fill:#f28e2b;"/>
   </g>
   <g id="patch_13">
    <path clip-path="url(#p1f0d1ee086)" d="M 668.272162 464.273301 
L 698.423894 464.273301 
L 698.423894 236.228098 
L 668.272162 236.228098 
z
" style="fill:#f28e2b;"/>
   </g>
   <g id="patch_14">
    <path clip-path="url(#p1f0d1ee086)" d="M 728.575626 464.273301 
L 758.727358 464.273301 
L 758.727358 236.228098 
L 728.575626 236.228098 
z
" style="fill:#f28e2b;"/>
   </g>
   <g id="patch_15">
    <path clip-path="url(#p1f0d1ee086)" d="M 788.87909 464.273301 
L 819.030821 464.273301 
L 819.030821 236.228098 
L 788.87909 236.228098 
z
" style="fill:#f28e2b;"/>
   </g>
   <g id="patch_16">
    <path clip-path="url(#p1f0d1ee086)" d="M 849.182553 464.273301 
L 879.334285 464.273301 
L 879.334285 293.239398 
L 849.182553 293.239398 
z
" style="fill:#f28e2b;"/>
   </g>
   <g id="patch_17">
    <path clip-path="url(#p1f0d1ee086)" d="M 909.486017 464.273301 
L 939.637749 464.273301 
L 939.637749 293.239398 
L 909.486017 293.239398 
z
" style="fill:#f28e2b;"/>
   </g>
   <g id="patch_18">
    <path clip-path="url(#p1f0d1ee086)" d="M 969.789481 464.273301 
L 999.941213 464.273301 
L 999.941213 293.239398 
L 969.789481 293.239398 
z
" style="fill:#f28e2b;"/>
   </g>
   <g id="patch_19">
    <path clip-path="url(#p1f0d1ee086)" d="M 1030.092944 464.273301 
L 1060.244676 464.273301 
L 1060.244676 293.239398 
L 1030.092944 293.239398 
z
" style="fill:#f28e2b;"/>
   </g>
   <g id="patch_20">
    <path clip-path="url(#p1f0d1ee086)" d="M 1090.396408 464.273301 
L 1120.54814 464.273301 
L 1120.54814 293.239398 
L 1090.396408 293.239398 
z
" style="fill:#f28e2b;"/>
   </g>
   <g id="patch_21">
    <path clip-path="url(#p1f0d1ee086)" d="M 1150.699872 464.273301 
L 1180.851604 464.273301 
L 1180.851604 293.239398 
L 1150.699872 293.239398 
z
" style="fill:#f28e2b;"/>
   </g>
   <g id="patch_22">
    <path clip-path="url(#p1f0d1ee086)" d="M 1211.003335 464.273301 
L 1241.155067 464.273301 
L 1241.155067 293.239398 
L 1211.003335 293.239398 
z
" style="fill:#f28e2b;"/>
   </g>
   <g id="patch_23">
    <path clip-path="url(#p1f0d1ee086)" d="M 1271.306799 464.273301 
L 1301.458531 464.273301 
L 1301.458531 293.239398 
L 1271.306799 293.239398 
z
" style="fill:#f28e2b;"/>
   </g>
   <g id="patch_24">
    <path clip-path="url(#p1f0d1ee086)" d="M 1331.610263 464.273301 
L 1361.761995 464.273301 
L 1361.761995 293.239398 
L 1331.610263 293.239398 
z
" style="fill:#f28e2b;"/>
   </g>
   <g id="patch_25">
    <path clip-path="url(#p1f0d1ee086)" d="M 1391.913727 464.273301 
L 1422.065458 464.273301 
L 1422.065458 293.239398 
L 1391.913727 293.239398 
z
" style="fill:#f28e2b;"/>
   </g>
   <g id="patch_26">
    <path clip-path="url(#p1f0d1ee086)" d="M 1452.21719 464.273301 
L 1482.368922 464.273301 
L 1482.368922 293.239398 
L 1452.21719 293.239398 
z
" style="fill:#f28e2b;"/>
   </g>
   <g id="patch_27">
    <path clip-path="url(#p1f0d1ee086)" d="M 1512.520654 464.273301 
L 1542.672386 464.273301 
L 1542.672386 293.239398 
L 1512.520654 293.239398 
z
" style="fill:#f28e2b;"/>
   </g>
   <g id="patch_28">
    <path clip-path="url(#p1f0d1ee086)" d="M 1572.824118 464.273301 
L 1602.97585 464.273301 
L 1602.97585 293.239398 
L 1572.824118 293.239398 
z
" style="fill:#f28e2b;"/>
   </g>
   <g id="patch_29">
    <path clip-path="url(#p1f0d1ee086)" d="M 1633.127581 464.273301 
L 1663.279313 464.273301 
L 1663.279313 293.239398 
L 1633.127581 293.239398 
z
" style="fill:#f28e2b;"/>
   </g>
   <g id="patch_30">
    <path clip-path="url(#p1f0d1ee086)" d="M 1693.431045 464.273301 
L 1723.582777 464.273301 
L 1723.582777 293.239398 
L 1693.431045 293.239398 
z
" style="fill:#f28e2b;"/>
   </g>
   <g id="patch_31">
    <path clip-path="url(#p1f0d1ee086)" d="M 1753.734509 464.273301 
L 1783.886241 464.273301 
L 1783.886241 293.239398 
L 1753.734509 293.239398 
z
" style="fill:#f28e2b;"/>
   </g>
   <g id="patch_32">
    <path clip-path="url(#p1f0d1ee086)" d="M 1814.037972 464.273301 
L 1844.189704 464.273301 
L 1844.189704 293.239398 
L 1814.037972 293.239398 
z
" style="fill:#f28e2b;"/>
   </g>
   <g id="patch_33">
    <path clip-path="url(#p1f0d1ee086)" d="M 1874.341436 464.273301 
L 1904.493168 464.273301 
L 1904.493168 293.239398 
L 1874.341436 293.239398 
z
" style="fill:#f28e2b;"/>
   </g>
   <g id="patch_34">
    <path clip-path="url(#p1f0d1ee086)" d="M 1934.6449 464.273301 
L 1964.796632 464.273301 
L 1964.796632 293.239398 
L 1934.6449 293.239398 
z
" style="fill:#f28e2b;"/>
   </g>
   <g id="patch_35">
    <path clip-path="url(#p1f0d1ee086)" d="M 1994.948364 464.273301 
L 2025.100095 464.273301 
L 2025.100095 293.239398 
L 1994.948364 293.239398 
z
" style="fill:#f28e2b;"/>
   </g>
   <g id="patch_36">
    <path clip-path="url(#p1f0d1ee086)" d="M 2055.251827 464.273301 
L 2085.403559 464.273301 
L 2085.403559 293.239398 
L 2055.251827 293.239398 
z
" style="fill:#f28e2b;"/>
   </g>
   <g id="patch_37">
    <path clip-path="url(#p1f0d1ee086)" d="M 2115.555291 464.273301 
L 2145.707023 464.273301 
L 2145.707023 293.239398 
L 2115.555291 293.239398 
z
" style="fill:#f28e2b;"/>
   </g>
   <g id="patch_38">
    <path clip-path="url(#p1f0d1ee086)" d="M 2175.858755 464.273301 
L 2206.010486 464.273301 
L 2206.010486 293.239398 
L 2175.858755 293.239398 
z
" style="fill:#f28e2b;"/>
   </g>
   <g id="patch_39">
    <path clip-path="url(#p1f0d1ee086)" d="M 2236.162218 464.273301 
L 2266.31395 464.273301 
L 2266.31395 293.239398 
L 2236.162218 293.239398 
z
" style="fill:#f28e2b;"/>
   </g>
   <g id="patch_40">
    <path clip-path="url(#p1f0d1ee086)" d="M 2296.465682 464.273301 
L 2326.617414 464.273301 
L 2326.617414 293.239398 
L 2296.465682 293.239398 
z
" style="fill:#f28e2b;"/>
   </g>
   <g id="patch_41">
    <path clip-path="url(#p1f0d1ee086)" d="M 2356.769146 464.273301 
L 2386.920878 464.273301 
L 2386.920878 350.250699 
L 2356.769146 350.250699 
z
" style="fill:#f28e2b;"/>
   </g>
   <g id="patch_42">
    <path clip-path="url(#p1f0d1ee086)" d="M 2417.072609 464.273301 
L 2447.224341 464.273301 
L 2447.224341 350.250699 
L 2417.072609 350.250699 
z
" style="fill:#f28e2b;"/>
   </g>
   <g id="patch_43">
    <path clip-path="url(#p1f0d1ee086)" d="M 2477.376073 464.273301 
L 2507.527805 464.273301 
L 2507.527805 350.250699 
L 2477.376073 350.250699 
z
" style="fill:#f28e2b;"/>
   </g>
   <g id="patch_44">
    <path clip-path="url(#p1f0d1ee086)" d="M 2537.679537 464.273301 
L 2567.831269 464.273301 
L 2567.831269 350.250699 
L 2537.679537 350.250699 
z
" style="fill:#f28e2b;"/>
   </g>
   <g id="patch_45">
    <path clip-path="url(#p1f0d1ee086)" d="M 2597.983 464.273301 
L 2628.134732 464.273301 
L 2628.134732 350.250699 
L 2597.983 350.250699 
z
" style="fill:#f28e2b;"/>
   </g>
   <g id="patch_46">
    <path clip-path="url(#p1f0d1ee086)" d="M 2658.286464 464.273301 
L 2688.438196 464.273301 
L 2688.438196 350.250699 
L 2658.286464 350.250699 
z
" style="fill:#f28e2b;"/>
   </g>
   <g id="patch_47">
    <path clip-path="url(#p1f0d1ee086)" d="M 2718.589928 464.273301 
L 2748.74166 464.273301 
L 2748.74166 350.250699 
L 2718.589928 350.250699 
z
" style="fill:#f28e2b;"/>
   </g>
   <g id="patch_48">
    <path clip-path="url(#p1f0d1ee086)" d="M 2778.893392 464.273301 
L 2809.045123 464.273301 
L 2809.045123 350.250699 
L 2778.893392 350.250699 
z
" style="fill:#f28e2b;"/>
   </g>
   <g id="patch_49">
    <path clip-path="url(#p1f0d1ee086)" d="M 2839.196855 464.273301 
L 2869.348587 464.273301 
L 2869.348587 350.250699 
L 2839.196855 350.250699 
z
" style="fill:#f28e2b;"/>
   </g>
   <g id="patch_50">
    <path clip-path="url(#p1f0d1ee086)" d="M 2899.500319 464.273301 
L 2929.652051 464.273301 
L 2929.652051 350.250699 
L 2899.500319 350.250699 
z
" style="fill:#f28e2b;"/>
   </g>
   <g id="patch_51">
    <path clip-path="url(#p1f0d1ee086)" d="M 2959.803783 464.273301 
L 2989.955515 464.273301 
L 2989.955515 350.250699 
L 2959.803783 350.250699 
z
" style="fill:#f28e2b;"/>
   </g>
   <g id="patch_52">
    <path clip-path="url(#p1f0d1ee086)" d="M 3020.107246 464.273301 
L 3050.258978 464.273301 
L 3050.258978 350.250699 
L 3020.107246 350.250699 
z
" style="fill:#f28e2b;"/>
   </g>
   <g id="patch_53">
    <path clip-path="url(#p1f0d1ee086)" d="M 3080.41071 464.273301 
L 3110.562442 464.273301 
L 3110.562442 350.250699 
L 3080.41071 350.250699 
z
" style="fill:#f28e2b;"/>
   </g>
   <g id="patch_54">
    <path clip-path="url(#p1f0d1ee086)" d="M 3140.714174 464.273301 
L 3170.865906 464.273301 
L 3170.865906 350.250699 
L 3140.714174 350.250699 
z
" style="fill:#f28e2b;"/>
   </g>
   <g id="patch_55">
    <path clip-path="url(#p1f0d1ee086)" d="M 3201.017637 464.273301 
L 3231.169369 464.273301 
L 3231.169369 350.250699 
L 3201.017637 350.250699 
z
" style="fill:#f28e2b;"/>
   </g>
   <g id="patch_56">
    <path clip-path="url(#p1f0d1ee086)" d="M 3261.321101 464.273301 
L 3291.472833 464.273301 
L 3291.472833 350.250699 
L 3261.321101 350.250699 
z
" style="fill:#f28e2b;"/>
   </g>
   <g id="patch_57">
    <path clip-path="url(#p1f0d1ee086)" d="M 3321.624565 464.273301 
L 3351.776297 464.273301 
L 3351.776297 350.250699 
L 3321.624565 350.250699 
z
" style="fill:#f28e2b;"/>
   </g>
   <g id="patch_58">
    <path clip-path="url(#p1f0d1ee086)" d="M 3381.928029 464.273301 
L 3412.07976 464.273301 
L 3412.07976 350.250699 
L 3381.928029 350.250699 
z
" style="fill:#f28e2b;"/>
   </g>
   <g id="patch_59">
    <path clip-path="url(#p1f0d1ee086)" d="M 3442.231492 464.273301 
L 3472.383224 464.273301 
L 3472.383224 350.250699 
L 3442.231492 350.250699 
z
" style="fill:#f28e2b;"/>
   </g>
   <g id="patch_60">
    <path clip-path="url(#p1f0d1ee086)" d="M 3502.534956 464.273301 
L 3532.686688 464.273301 
L 3532.686688 350.250699 
L 3502.534956 350.250699 
z
" style="fill:#f28e2b;"/>
   </g>
   <g id="patch_61">
    <path clip-path="url(#p1f0d1ee086)" d="M 3562.83842 464.273301 
L 3592.990151 464.273301 
L 3592.990151 350.250699 
L 3562.83842 350.250699 
z
" style="fill:#f28e2b;"/>
   </g>
   <g id="patch_62">
    <path clip-path="url(#p1f0d1ee086)" d="M 3623.141883 464.273301 
L 3653.293615 464.273301 
L 3653.293615 350.250699 
L 3623.141883 350.250699 
z
" style="fill:#f28e2b;"/>
   </g>
   <g id="patch_63">
    <path clip-path="url(#p1f0d1ee086)" d="M 3683.445347 464.273301 
L 3713.597079 464.273301 
L 3713.597079 350.250699 
L 3683.445347 350.250699 
z
" style="fill:#f28e2b;"/>
   </g>
   <g id="patch_64">
    <path clip-path="url(#p1f0d1ee086)" d="M 3743.748811 464.273301 
L 3773.900543 464.273301 
L 3773.900543 350.250699 
L 3743.748811 350.250699 
z
" style="fill:#f28e2b;"/>
   </g>
   <g id="patch_65">
    <path clip-path="url(#p1f0d1ee086)" d="M 3804.052274 464.273301 
L 3834.204006 464.273301 
L 3834.204006 350.250699 
L 3804.052274 350.250699 
z
" style="fill:#f28e2b;"/>
   </g>
   <g id="patch_66">
    <path clip-path="url(#p1f0d1ee086)" d="M 3864.355738 464.273301 
L 3894.50747 464.273301 
L 3894.50747 350.250699 
L 3864.355738 350.250699 
z
" style="fill:#f28e2b;"/>
   </g>
   <g id="patch_67">
    <path clip-path="url(#p1f0d1ee086)" d="M 3924.659202 464.273301 
L 3954.810934 464.273301 
L 3954.810934 350.250699 
L 3924.659202 350.250699 
z
" style="fill:#f28e2b;"/>
   </g>
   <g id="patch_68">
    <path clip-path="url(#p1f0d1ee086)" d="M 3984.962665 464.273301 
L 4015.114397 464.273301 
L 4015.114397 350.250699 
L 3984.962665 350.250699 
z
" style="fill:#f28e2b;"/>
   </g>
   <g id="patch_69">
    <path clip-path="url(#p1f0d1ee086)" d="M 4045.266129 464.273301 
L 4075.417861 464.273301 
L 4075.417861 350.250699 
L 4045.266129 350.250699 
z
" style="fill:#f28e2b;"/>
   </g>
   <g id="patch_70">
    <path clip-path="url(#p1f0d1ee086)" d="M 4105.569593 464.273301 
L 4135.721325 464.273301 
L 4135.721325 350.250699 
L 4105.569593 350.250699 
z
" style="fill:#f28e2b;"/>
   </g>
   <g id="patch_71">
    <path clip-path="url(#p1f0d1ee086)" d="M 4165.873057 464.273301 
L 4196.024788 464.273301 
L 4196.024788 350.250699 
L 4165.873057 350.250699 
z
" style="fill:#f28e2b;"/>
   </g>
   <g id="patch_72">
    <path clip-path="url(#p1f0d1ee086)" d="M 4226.17652 464.273301 
L 4256.328252 464.273301 
L 4256.328252 350.250699 
L 4226.17652 350.250699 
z
" style="fill:#f28e2b;"/>
   </g>
   <g id="patch_73">
    <path clip-path="url(#p1f0d1ee086)" d="M 4286.479984 464.273301 
L 4316.631716 464.273301 
L 4316.631716 350.250699 
L 4286.479984 350.250699 
z
" style="fill:#f28e2b;"/>
   </g>
   <g id="patch_74">
    <path clip-path="url(#p1f0d1ee086)" d="M 4346.783448 464.273301 
L 4376.93518 464.273301 
L 4376.93518 350.250699 
L 4346.783448 350.250699 
z
" style="fill:#f28e2b;"/>
   </g>
   <g id="patch_75">
    <path clip-path="url(#p1f0d1ee086)" d="M 4407.086911 464.273301 
L 4437.238643 464.273301 
L 4437.238643 350.250699 
L 4407.086911 350.250699 
z
" style="fill:#f28e2b;"/>
   </g>
   <g id="patch_76">
    <path clip-path="url(#p1f0d1ee086)" d="M 4467.390375 464.273301 
L 4497.542107 464.273301 
L 4497.542107 350.250699 
L 4467.390375 350.250699 
z
" style="fill:#f28e2b;"/>
   </g>
   <g id="patch_77">
    <path clip-path="url(#p1f0d1ee086)" d="M 4527.693839 464.273301 
L 4557.845571 464.273301 
L 4557.845571 350.250699 
L 4527.693839 350.250699 
z
" style="fill:#f28e2b;"/>
   </g>
   <g id="patch_78">
    <path clip-path="url(#p1f0d1ee086)" d="M 4587.997302 464.273301 
L 4618.149034 464.273301 
L 4618.149034 350.250699 
L 4587.997302 350.250699 
z
" style="fill:#f28e2b;"/>
   </g>
   <g id="patch_79">
    <path clip-path="url(#p1f0d1ee086)" d="M 4648.300766 464.273301 
L 4678.452498 464.273301 
L 4678.452498 350.250699 
L 4648.300766 350.250699 
z
" style="fill:#f28e2b;"/>
   </g>
   <g id="patch_80">
    <path clip-path="url(#p1f0d1ee086)" d="M 4708.60423 464.273301 
L 4738.755962 464.273301 
L 4738.755962 350.250699 
L 4708.60423 350.250699 
z
" style="fill:#f28e2b;"/>
   </g>
   <g id="patch_81">
    <path clip-path="url(#p1f0d1ee086)" d="M 4768.907694 464.273301 
L 4799.059425 464.273301 
L 4799.059425 350.250699 
L 4768.907694 350.250699 
z
" style="fill:#f28e2b;"/>
   </g>
   <g id="patch_82">
    <path clip-path="url(#p1f0d1ee086)" d="M 4829.211157 464.273301 
L 4859.362889 464.273301 
L 4859.362889 350.250699 
L 4829.211157 350.250699 
z
" style="fill:#f28e2b;"/>
   </g>
   <g id="patch_83">
    <path clip-path="url(#p1f0d1ee086)" d="M 4889.514621 464.273301 
L 4919.666353 464.273301 
L 4919.666353 350.250699 
L 4889.514621 350.250699 
z
" style="fill:#f28e2b;"/>
   </g>
   <g id="patch_84">
    <path clip-path="url(#p1f0d1ee086)" d="M 4949.818085 464.273301 
L 4979.969816 464.273301 
L 4979.969816 350.250699 
L 4949.818085 350.250699 
z
" style="fill:#f28e2b;"/>
   </g>
   <g id="patch_85">
    <path clip-path="url(#p1f0d1ee086)" d="M 5010.121548 464.273301 
L 5040.27328 464.273301 
L 5040.27328 350.250699 
L 5010.121548 350.250699 
z
" style="fill:#f28e2b;"/>
   </g>
   <g id="patch_86">
    <path clip-path="url(#p1f0d1ee086)" d="M 5070.425012 464.273301 
L 5100.576744 464.273301 
L 5100.576744 350.250699 
L 5070.425012 350.250699 
z
" style="fill:#f28e2b;"/>
   </g>
   <g id="patch_87">
    <path clip-path="url(#p1f0d1ee086)" d="M 5130.728476 464.273301 
L 5160.880208 464.273301 
L 5160.880208 350.250699 
L 5130.728476 350.250699 
z
" style="fill:#f28e2b;"/>
   </g>
   <g id="patch_88">
    <path clip-path="url(#p1f0d1ee086)" d="M 5191.031939 464.273301 
L 5221.183671 464.273301 
L 5221.183671 407.262 
L 5191.031939 407.262 
z
" style="fill:#f28e2b;"/>
   </g>
   <g id="patch_89">
    <path clip-path="url(#p1f0d1ee086)" d="M 5251.335403 464.273301 
L 5281.487135 464.273301 
L 5281.487135 407.262 
L 5251.335403 407.262 
z
" style="fill:#f28e2b;"/>
   </g>
   <g id="patch_90">
    <path clip-path="url(#p1f0d1ee086)" d="M 5311.638867 464.273301 
L 5341.790599 464.273301 
L 5341.790599 407.262 
L 5311.638867 407.262 
z
" style="fill:#f28e2b;"/>
   </g>
   <g id="patch_91">
    <path clip-path="url(#p1f0d1ee086)" d="M 5371.94233 464.273301 
L 5402.094062 464.273301 
L 5402.094062 407.262 
L 5371.94233 407.262 
z
" style="fill:#f28e2b;"/>
   </g>
   <g id="patch_92">
    <path clip-path="url(#p1f0d1ee086)" d="M 5432.245794 464.273301 
L 5462.397526 464.273301 
L 5462.397526 407.262 
L 5432.245794 407.262 
z
" style="fill:#f28e2b;"/>
   </g>
   <g id="patch_93">
    <path clip-path="url(#p1f0d1ee086)" d="M 5492.549258 464.273301 
L 5522.70099 464.273301 
L 5522.70099 407.262 
L 5492.549258 407.262 
z
" style="fill:#f28e2b;"/>
   </g>
   <g id="patch_94">
    <path clip-path="url(#p1f0d1ee086)" d="M 5552.852722 464.273301 
L 5583.004453 464.273301 
L 5583.004453 407.262 
L 5552.852722 407.262 
z
" style="fill:#f28e2b;"/>
   </g>
   <g id="patch_95">
    <path clip-path="url(#p1f0d1ee086)" d="M 5613.156185 464.273301 
L 5643.307917 464.273301 
L 5643.307917 407.262 
L 5613.156185 407.262 
z
" style="fill:#f28e2b;"/>
   </g>
   <g id="patch_96">
    <path clip-path="url(#p1f0d1ee086)" d="M 5673.459649 464.273301 
L 5703.611381 464.273301 
L 5703.611381 407.262 
L 5673.459649 407.262 
z
" style="fill:#f28e2b;"/>
   </g>
   <g id="patch_97">
    <path clip-path="url(#p1f0d1ee086)" d="M 5733.763113 464.273301 
L 5763.914845 464.273301 
L 5763.914845 407.262 
L 5733.763113 407.262 
z
" style="fill:#f28e2b;"/>
   </g>
   <g id="patch_98">
    <path clip-path="url(#p1f0d1ee086)" d="M 5794.066576 464.273301 
L 5824.218308 464.273301 
L 5824.218308 407.262 
L 5794.066576 407.262 
z
" style="fill:#f28e2b;"/>
   </g>
   <g id="patch_99">
    <path clip-path="url(#p1f0d1ee086)" d="M 5854.37004 464.273301 
L 5884.521772 464.273301 
L 5884.521772 407.262 
L 5854.37004 407.262 
z
" style="fill:#f28e2b;"/>
   </g>
   <g id="patch_100">
    <path clip-path="url(#p1f0d1ee086)" d="M 5914.673504 464.273301 
L 5944.825236 464.273301 
L 5944.825236 407.262 
L 5914.673504 407.262 
z
" style="fill:#f28e2b;"/>
   </g>
   <g id="patch_101">
    <path clip-path="url(#p1f0d1ee086)" d="M 5974.976967 464.273301 
L 6005.128699 464.273301 
L 6005.128699 407.262 
L 5974.976967 407.262 
z
" style="fill:#f28e2b;"/>
   </g>
   <g id="patch_102">
    <path clip-path="url(#p1f0d1ee086)" d="M 6035.280431 464.273301 
L 6065.432163 464.273301 
L 6065.432163 407.262 
L 6035.280431 407.262 
z
" style="fill:#f28e2b;"/>
   </g>
   <g id="patch_103">
    <path clip-path="url(#p1f0d1ee086)" d="M 6095.583895 464.273301 
L 6125.735627 464.273301 
L 6125.735627 407.262 
L 6095.583895 407.262 
z
" style="fill:#f28e2b;"/>
   </g>
   <g id="patch_104">
    <path clip-path="url(#p1f0d1ee086)" d="M 6155.887359 464.273301 
L 6186.03909 464.273301 
L 6186.03909 407.262 
L 6155.887359 407.262 
z
" style="fill:#f28e2b;"/>
   </g>
   <g id="patch_105">
    <path clip-path="url(#p1f0d1ee086)" d="M 6216.190822 464.273301 
L 6246.342554 464.273301 
L 6246.342554 407.262 
L 6216.190822 407.262 
z
" style="fill:#f28e2b;"/>
   </g>
   <g id="patch_106">
    <path clip-path="url(#p1f0d1ee086)" d="M 6276.494286 464.273301 
L 6306.646018 464.273301 
L 6306.646018 407.262 
L 6276.494286 407.262 
z
" style="fill:#f28e2b;"/>
   </g>
   <g id="patch_107">
    <path clip-path="url(#p1f0d1ee086)" d="M 6336.79775 464.273301 
L 6366.949481 464.273301 
L 6366.949481 407.262 
L 6336.79775 407.262 
z
" style="fill:#f28e2b;"/>
   </g>
   <g id="patch_108">
    <path clip-path="url(#p1f0d1ee086)" d="M 6397.101213 464.273301 
L 6427.252945 464.273301 
L 6427.252945 407.262 
L 6397.101213 407.262 
z
" style="fill:#f28e2b;"/>
   </g>
   <g id="patch_109">
    <path clip-path="url(#p1f0d1ee086)" d="M 6457.404677 464.273301 
L 6487.556409 464.273301 
L 6487.556409 407.262 
L 6457.404677 407.262 
z
" style="fill:#f28e2b;"/>
   </g>
   <g id="patch_110">
    <path clip-path="url(#p1f0d1ee086)" d="M 6517.708141 464.273301 
L 6547.859873 464.273301 
L 6547.859873 407.262 
L 6517.708141 407.262 
z
" style="fill:#f28e2b;"/>
   </g>
   <g id="patch_111">
    <path clip-path="url(#p1f0d1ee086)" d="M 6578.011604 464.273301 
L 6608.163336 464.273301 
L 6608.163336 407.262 
L 6578.011604 407.262 
z
" style="fill:#f28e2b;"/>
   </g>
   <g id="patch_112">
    <path clip-path="url(#p1f0d1ee086)" d="M 6638.315068 464.273301 
L 6668.4668 464.273301 
L 6668.4668 407.262 
L 6638.315068 407.262 
z
" style="fill:#f28e2b;"/>
   </g>
   <g id="patch_113">
    <path clip-path="url(#p1f0d1ee086)" d="M 6698.618532 464.273301 
L 6728.770264 464.273301 
L 6728.770264 407.262 
L 6698.618532 407.262 
z
" style="fill:#f28e2b;"/>
   </g>
   <g id="patch_114">
    <path clip-path="url(#p1f0d1ee086)" d="M 6758.921995 464.273301 
L 6789.073727 464.273301 
L 6789.073727 407.262 
L 6758.921995 407.262 
z
" style="fill:#f28e2b;"/>
   </g>
   <g id="patch_115">
    <path clip-path="url(#p1f0d1ee086)" d="M 6819.225459 464.273301 
L 6849.377191 464.273301 
L 6849.377191 407.262 
L 6819.225459 407.262 
z
" style="fill:#f28e2b;"/>
   </g>
   <g id="patch_116">
    <path clip-path="url(#p1f0d1ee086)" d="M 6879.528923 464.273301 
L 6909.680655 464.273301 
L 6909.680655 407.262 
L 6879.528923 407.262 
z
" style="fill:#f28e2b;"/>
   </g>
   <g id="patch_117">
    <path clip-path="url(#p1f0d1ee086)" d="M 6939.832387 464.273301 
L 6969.984118 464.273301 
L 6969.984118 407.262 
L 6939.832387 407.262 
z
" style="fill:#f28e2b;"/>
   </g>
   <g id="patch_118">
    <path clip-path="url(#p1f0d1ee086)" d="M 7000.13585 464.273301 
L 7030.287582 464.273301 
L 7030.287582 407.262 
L 7000.13585 407.262 
z
" style="fill:#f28e2b;"/>
   </g>
   <g id="patch_119">
    <path clip-path="url(#p1f0d1ee086)" d="M 7060.439314 464.273301 
L 7090.591046 464.273301 
L 7090.591046 407.262 
L 7060.439314 407.262 
z
" style="fill:#f28e2b;"/>
   </g>
   <g id="patch_120">
    <path clip-path="url(#p1f0d1ee086)" d="M 7120.742778 464.273301 
L 7150.89451 464.273301 
L 7150.89451 407.262 
L 7120.742778 407.262 
z
" style="fill:#f28e2b;"/>
   </g>
   <g id="patch_121">
    <path clip-path="url(#p1f0d1ee086)" d="M 7181.046241 464.273301 
L 7211.197973 464.273301 
L 7211.197973 407.262 
L 7181.046241 407.262 
z
" style="fill:#f28e2b;"/>
   </g>
   <g id="patch_122">
    <path clip-path="url(#p1f0d1ee086)" d="M 7241.349705 464.273301 
L 7271.501437 464.273301 
L 7271.501437 407.262 
L 7241.349705 407.262 
z
" style="fill:#f28e2b;"/>
   </g>
   <g id="patch_123">
    <path clip-path="url(#p1f0d1ee086)" d="M 7301.653169 464.273301 
L 7331.804901 464.273301 
L 7331.804901 407.262 
L 7301.653169 407.262 
z
" style="fill:#f28e2b;"/>
   </g>
   <g id="patch_124">
    <path clip-path="url(#p1f0d1ee086)" d="M 7361.956632 464.273301 
L 7392.108364 464.273301 
L 7392.108364 407.262 
L 7361.956632 407.262 
z
" style="fill:#f28e2b;"/>
   </g>
   <g id="patch_125">
    <path clip-path="url(#p1f0d1ee086)" d="M 7422.260096 464.273301 
L 7452.411828 464.273301 
L 7452.411828 407.262 
L 7422.260096 407.262 
z
" style="fill:#f28e2b;"/>
   </g>
   <g id="patch_126">
    <path clip-path="url(#p1f0d1ee086)" d="M 7482.56356 464.273301 
L 7512.715292 464.273301 
L 7512.715292 407.262 
L 7482.56356 407.262 
z
" style="fill:#f28e2b;"/>
   </g>
   <g id="patch_127">
    <path clip-path="url(#p1f0d1ee086)" d="M 7542.867024 464.273301 
L 7573.018755 464.273301 
L 7573.018755 407.262 
L 7542.867024 407.262 
z
" style="fill:#f28e2b;"/>
   </g>
   <g id="patch_128">
    <path clip-path="url(#p1f0d1ee086)" d="M 7603.170487 464.273301 
L 7633.322219 464.273301 
L 7633.322219 407.262 
L 7603.170487 407.262 
z
" style="fill:#f28e2b;"/>
   </g>
   <g id="patch_129">
    <path clip-path="url(#p1f0d1ee086)" d="M 7663.473951 464.273301 
L 7693.625683 464.273301 
L 7693.625683 407.262 
L 7663.473951 407.262 
z
" style="fill:#f28e2b;"/>
   </g>
   <g id="patch_130">
    <path clip-path="url(#p1f0d1ee086)" d="M 7723.777415 464.273301 
L 7753.929146 464.273301 
L 7753.929146 407.262 
L 7723.777415 407.262 
z
" style="fill:#f28e2b;"/>
   </g>
   <g id="patch_131">
    <path clip-path="url(#p1f0d1ee086)" d="M 7784.080878 464.273301 
L 7814.23261 464.273301 
L 7814.23261 407.262 
L 7784.080878 407.262 
z
" style="fill:#f28e2b;"/>
   </g>
   <g id="patch_132">
    <path clip-path="url(#p1f0d1ee086)" d="M 7844.384342 464.273301 
L 7874.536074 464.273301 
L 7874.536074 407.262 
L 7844.384342 407.262 
z
" style="fill:#f28e2b;"/>
   </g>
   <g id="patch_133">
    <path clip-path="url(#p1f0d1ee086)" d="M 7904.687806 464.273301 
L 7934.839538 464.273301 
L 7934.839538 407.262 
L 7904.687806 407.262 
z
" style="fill:#f28e2b;"/>
   </g>
   <g id="patch_134">
    <path clip-path="url(#p1f0d1ee086)" d="M 7964.991269 464.273301 
L 7995.143001 464.273301 
L 7995.143001 407.262 
L 7964.991269 407.262 
z
" style="fill:#f28e2b;"/>
   </g>
   <g id="patch_135">
    <path clip-path="url(#p1f0d1ee086)" d="M 8025.294733 464.273301 
L 8055.446465 464.273301 
L 8055.446465 407.262 
L 8025.294733 407.262 
z
" style="fill:#f28e2b;"/>
   </g>
   <g id="patch_136">
    <path clip-path="url(#p1f0d1ee086)" d="M 8085.598197 464.273301 
L 8115.749929 464.273301 
L 8115.749929 407.262 
L 8085.598197 407.262 
z
" style="fill:#f28e2b;"/>
   </g>
   <g id="patch_137">
    <path clip-path="url(#p1f0d1ee086)" d="M 8145.90166 464.273301 
L 8176.053392 464.273301 
L 8176.053392 407.262 
L 8145.90166 407.262 
z
" style="fill:#f28e2b;"/>
   </g>
   <g id="patch_138">
    <path clip-path="url(#p1f0d1ee086)" d="M 8206.205124 464.273301 
L 8236.356856 464.273301 
L 8236.356856 407.262 
L 8206.205124 407.262 
z
" style="fill:#f28e2b;"/>
   </g>
   <g id="patch_139">
    <path clip-path="url(#p1f0d1ee086)" d="M 8266.508588 464.273301 
L 8296.66032 464.273301 
L 8296.66032 407.262 
L 8266.508588 407.262 
z
" style="fill:#f28e2b;"/>
   </g>
   <g id="patch_140">
    <path clip-path="url(#p1f0d1ee086)" d="M 8326.812052 464.273301 
L 8356.963783 464.273301 
L 8356.963783 407.262 
L 8326.812052 407.262 
z
" style="fill:#f28e2b;"/>
   </g>
   <g id="patch_141">
    <path clip-path="url(#p1f0d1ee086)" d="M 8387.115515 464.273301 
L 8417.267247 464.273301 
L 8417.267247 407.262 
L 8387.115515 407.262 
z
" style="fill:#f28e2b;"/>
   </g>
   <g id="patch_142">
    <path clip-path="url(#p1f0d1ee086)" d="M 8447.418979 464.273301 
L 8477.570711 464.273301 
L 8477.570711 407.262 
L 8447.418979 407.262 
z
" style="fill:#f28e2b;"/>
   </g>
   <g id="patch_143">
    <path clip-path="url(#p1f0d1ee086)" d="M 8507.722443 464.273301 
L 8537.874175 464.273301 
L 8537.874175 407.262 
L 8507.722443 407.262 
z
" style="fill:#f28e2b;"/>
   </g>
   <g id="patch_144">
    <path clip-path="url(#p1f0d1ee086)" d="M 8568.025906 464.273301 
L 8598.177638 464.273301 
L 8598.177638 407.262 
L 8568.025906 407.262 
z
" style="fill:#f28e2b;"/>
   </g>
   <g id="patch_145">
    <path clip-path="url(#p1f0d1ee086)" d="M 8628.32937 464.273301 
L 8658.481102 464.273301 
L 8658.481102 407.262 
L 8628.32937 407.262 
z
" style="fill:#f28e2b;"/>
   </g>
   <g id="patch_146">
    <path clip-path="url(#p1f0d1ee086)" d="M 8688.632834 464.273301 
L 8718.784566 464.273301 
L 8718.784566 407.262 
L 8688.632834 407.262 
z
" style="fill:#f28e2b;"/>
   </g>
   <g id="patch_147">
    <path clip-path="url(#p1f0d1ee086)" d="M 8748.936297 464.273301 
L 8779.088029 464.273301 
L 8779.088029 407.262 
L 8748.936297 407.262 
z
" style="fill:#f28e2b;"/>
   </g>
   <g id="patch_148">
    <path clip-path="url(#p1f0d1ee086)" d="M 8809.239761 464.273301 
L 8839.391493 464.273301 
L 8839.391493 407.262 
L 8809.239761 407.262 
z
" style="fill:#f28e2b;"/>
   </g>
   <g id="patch_149">
    <path clip-path="url(#p1f0d1ee086)" d="M 8869.543225 464.273301 
L 8899.694957 464.273301 
L 8899.694957 407.262 
L 8869.543225 407.262 
z
" style="fill:#f28e2b;"/>
   </g>
   <g id="patch_150">
    <path clip-path="url(#p1f0d1ee086)" d="M 8929.846689 464.273301 
L 8959.99842 464.273301 
L 8959.99842 407.262 
L 8929.846689 407.262 
z
" style="fill:#f28e2b;"/>
   </g>
   <g id="patch_151">
    <path clip-path="url(#p1f0d1ee086)" d="M 8990.150152 464.273301 
L 9020.301884 464.273301 
L 9020.301884 407.262 
L 8990.150152 407.262 
z
" style="fill:#f28e2b;"/>
   </g>
   <g id="patch_152">
    <path clip-path="url(#p1f0d1ee086)" d="M 9050.453616 464.273301 
L 9080.605348 464.273301 
L 9080.605348 407.262 
L 9050.453616 407.262 
z
" style="fill:#f28e2b;"/>
   </g>
   <g id="patch_153">
    <path clip-path="url(#p1f0d1ee086)" d="M 9110.75708 464.273301 
L 9140.908811 464.273301 
L 9140.908811 407.262 
L 9110.75708 407.262 
z
" style="fill:#f28e2b;"/>
   </g>
   <g id="patch_154">
    <path clip-path="url(#p1f0d1ee086)" d="M 9171.060543 464.273301 
L 9201.212275 464.273301 
L 9201.212275 407.262 
L 9171.060543 407.262 
z
" style="fill:#f28e2b;"/>
   </g>
   <g id="patch_155">
    <path clip-path="url(#p1f0d1ee086)" d="M 9231.364007 464.273301 
L 9261.515739 464.273301 
L 9261.515739 407.262 
L 9231.364007 407.262 
z
" style="fill:#f28e2b;"/>
   </g>
   <g id="patch_156">
    <path clip-path="url(#p1f0d1ee086)" d="M 9291.667471 464.273301 
L 9321.819203 464.273301 
L 9321.819203 407.262 
L 9291.667471 407.262 
z
" style="fill:#f28e2b;"/>
   </g>
   <g id="patch_157">
    <path clip-path="url(#p1f0d1ee086)" d="M 9351.970934 464.273301 
L 9382.122666 464.273301 
L 9382.122666 407.262 
L 9351.970934 407.262 
z
" style="fill:#f28e2b;"/>
   </g>
   <g id="patch_158">
    <path clip-path="url(#p1f0d1ee086)" d="M 9412.274398 464.273301 
L 9442.42613 464.273301 
L 9442.42613 407.262 
L 9412.274398 407.262 
z
" style="fill:#f28e2b;"/>
   </g>
   <g id="patch_159">
    <path clip-path="url(#p1f0d1ee086)" d="M 9472.577862 464.273301 
L 9502.729594 464.273301 
L 9502.729594 407.262 
L 9472.577862 407.262 
z
" style="fill:#f28e2b;"/>
   </g>
   <g id="patch_160">
    <path clip-path="url(#p1f0d1ee086)" d="M 9532.881325 464.273301 
L 9563.033057 464.273301 
L 9563.033057 407.262 
L 9532.881325 407.262 
z
" style="fill:#f28e2b;"/>
   </g>
   <g id="patch_161">
    <path clip-path="url(#p1f0d1ee086)" d="M 9593.184789 464.273301 
L 9623.336521 464.273301 
L 9623.336521 407.262 
L 9593.184789 407.262 
z
" style="fill:#f28e2b;"/>
   </g>
   <g id="patch_162">
    <path clip-path="url(#p1f0d1ee086)" d="M 9653.488253 464.273301 
L 9683.639985 464.273301 
L 9683.639985 407.262 
L 9653.488253 407.262 
z
" style="fill:#f28e2b;"/>
   </g>
   <g id="patch_163">
    <path clip-path="url(#p1f0d1ee086)" d="M 9713.791717 464.273301 
L 9743.943448 464.273301 
L 9743.943448 407.262 
L 9713.791717 407.262 
z
" style="fill:#f28e2b;"/>
   </g>
   <g id="patch_164">
    <path clip-path="url(#p1f0d1ee086)" d="M 9774.09518 464.273301 
L 9804.246912 464.273301 
L 9804.246912 407.262 
L 9774.09518 407.262 
z
" style="fill:#f28e2b;"/>
   </g>
   <g id="patch_165">
    <path clip-path="url(#p1f0d1ee086)" d="M 9834.398644 464.273301 
L 9864.550376 464.273301 
L 9864.550376 407.262 
L 9834.398644 407.262 
z
" style="fill:#f28e2b;"/>
   </g>
   <g id="patch_166">
    <path clip-path="url(#p1f0d1ee086)" d="M 9894.702108 464.273301 
L 9924.85384 464.273301 
L 9924.85384 407.262 
L 9894.702108 407.262 
z
" style="fill:#f28e2b;"/>
   </g>
   <g id="patch_167">
    <path clip-path="url(#p1f0d1ee086)" d="M 9955.005571 464.273301 
L 9985.157303 464.273301 
L 9985.157303 407.262 
L 9955.005571 407.262 
z
" style="fill:#f28e2b;"/>
   </g>
   <g id="patch_168">
    <path clip-path="url(#p1f0d1ee086)" d="M 10015.309035 464.273301 
L 10045.460767 464.273301 
L 10045.460767 407.262 
L 10015.309035 407.262 
z
" style="fill:#f28e2b;"/>
   </g>
   <g id="patch_169">
    <path clip-path="url(#p1f0d1ee086)" d="M 10075.612499 464.273301 
L 10105.764231 464.273301 
L 10105.764231 407.262 
L 10075.612499 407.262 
z
" style="fill:#f28e2b;"/>
   </g>
   <g id="patch_170">
    <path clip-path="url(#p1f0d1ee086)" d="M 10135.915962 464.273301 
L 10166.067694 464.273301 
L 10166.067694 407.262 
L 10135.915962 407.262 
z
" style="fill:#f28e2b;"/>
   </g>
   <g id="patch_171">
    <path clip-path="url(#p1f0d1ee086)" d="M 10196.219426 464.273301 
L 10226.371158 464.273301 
L 10226.371158 407.262 
L 10196.219426 407.262 
z
" style="fill:#f28e2b;"/>
   </g>
   <g id="patch_172">
    <path clip-path="url(#p1f0d1ee086)" d="M 10256.52289 464.273301 
L 10286.674622 464.273301 
L 10286.674622 407.262 
L 10256.52289 407.262 
z
" style="fill:#f28e2b;"/>
   </g>
   <g id="patch_173">
    <path clip-path="url(#p1f0d1ee086)" d="M 10316.826354 464.273301 
L 10346.978085 464.273301 
L 10346.978085 407.262 
L 10316.826354 407.262 
z
" style="fill:#f28e2b;"/>
   </g>
   <g id="patch_174">
    <path clip-path="url(#p1f0d1ee086)" d="M 10377.129817 464.273301 
L 10407.281549 464.273301 
L 10407.281549 407.262 
L 10377.129817 407.262 
z
" style="fill:#f28e2b;"/>
   </g>
   <g id="patch_175">
    <path clip-path="url(#p1f0d1ee086)" d="M 10437.433281 464.273301 
L 10467.585013 464.273301 
L 10467.585013 407.262 
L 10437.433281 407.262 
z
" style="fill:#f28e2b;"/>
   </g>
   <g id="patch_176">
    <path clip-path="url(#p1f0d1ee086)" d="M 10497.736745 464.273301 
L 10527.888476 464.273301 
L 10527.888476 407.262 
L 10497.736745 407.262 
z
" style="fill:#f28e2b;"/>
   </g>
   <g id="patch_177">
    <path clip-path="url(#p1f0d1ee086)" d="M 10558.040208 464.273301 
L 10588.19194 464.273301 
L 10588.19194 407.262 
L 10558.040208 407.262 
z
" style="fill:#f28e2b;"/>
   </g>
   <g id="patch_178">
    <path clip-path="url(#p1f0d1ee086)" d="M 10618.343672 464.273301 
L 10648.495404 464.273301 
L 10648.495404 407.262 
L 10618.343672 407.262 
z
" style="fill:#f28e2b;"/>
   </g>
   <g id="patch_179">
    <path clip-path="url(#p1f0d1ee086)" d="M 10678.647136 464.273301 
L 10708.798868 464.273301 
L 10708.798868 407.262 
L 10678.647136 407.262 
z
" style="fill:#f28e2b;"/>
   </g>
   <g id="patch_180">
    <path clip-path="url(#p1f0d1ee086)" d="M 10738.950599 464.273301 
L 10769.102331 464.273301 
L 10769.102331 407.262 
L 10738.950599 407.262 
z
" style="fill:#f28e2b;"/>
   </g>
   <g id="patch_181">
    <path clip-path="url(#p1f0d1ee086)" d="M 10799.254063 464.273301 
L 10829.405795 464.273301 
L 10829.405795 407.262 
L 10799.254063 407.262 
z
" style="fill:#f28e2b;"/>
   </g>
   <g id="patch_182">
    <path clip-path="url(#p1f0d1ee086)" d="M 10859.557527 464.273301 
L 10889.709259 464.273301 
L 10889.709259 407.262 
L 10859.557527 407.262 
z
" style="fill:#f28e2b;"/>
   </g>
   <g id="patch_183">
    <path clip-path="url(#p1f0d1ee086)" d="M 10919.86099 464.273301 
L 10950.012722 464.273301 
L 10950.012722 407.262 
L 10919.86099 407.262 
z
" style="fill:#f28e2b;"/>
   </g>
   <g id="patch_184">
    <path clip-path="url(#p1f0d1ee086)" d="M 10980.164454 464.273301 
L 11010.316186 464.273301 
L 11010.316186 407.262 
L 10980.164454 407.262 
z
" style="fill:#f28e2b;"/>
   </g>
   <g id="patch_185">
    <path clip-path="url(#p1f0d1ee086)" d="M 11040.467918 464.273301 
L 11070.61965 464.273301 
L 11070.61965 407.262 
L 11040.467918 407.262 
z
" style="fill:#f28e2b;"/>
   </g>
   <g id="patch_186">
    <path clip-path="url(#p1f0d1ee086)" d="M 11100.771382 464.273301 
L 11130.923113 464.273301 
L 11130.923113 407.262 
L 11100.771382 407.262 
z
" style="fill:#f28e2b;"/>
   </g>
   <g id="patch_187">
    <path clip-path="url(#p1f0d1ee086)" d="M 11161.074845 464.273301 
L 11191.226577 464.273301 
L 11191.226577 407.262 
L 11161.074845 407.262 
z
" style="fill:#f28e2b;"/>
   </g>
   <g id="patch_188">
    <path clip-path="url(#p1f0d1ee086)" d="M 11221.378309 464.273301 
L 11251.530041 464.273301 
L 11251.530041 407.262 
L 11221.378309 407.262 
z
" style="fill:#f28e2b;"/>
   </g>
   <g id="patch_189">
    <path clip-path="url(#p1f0d1ee086)" d="M 11281.681773 464.273301 
L 11311.833505 464.273301 
L 11311.833505 407.262 
L 11281.681773 407.262 
z
" style="fill:#f28e2b;"/>
   </g>
   <g id="patch_190">
    <path clip-path="url(#p1f0d1ee086)" d="M 11341.985236 464.273301 
L 11372.136968 464.273301 
L 11372.136968 407.262 
L 11341.985236 407.262 
z
" style="fill:#f28e2b;"/>
   </g>
   <g id="patch_191">
    <path clip-path="url(#p1f0d1ee086)" d="M 11402.2887 464.273301 
L 11432.440432 464.273301 
L 11432.440432 407.262 
L 11402.2887 407.262 
z
" style="fill:#f28e2b;"/>
   </g>
   <g id="patch_192">
    <path clip-path="url(#p1f0d1ee086)" d="M 11462.592164 464.273301 
L 11492.743896 464.273301 
L 11492.743896 407.262 
L 11462.592164 407.262 
z
" style="fill:#f28e2b;"/>
   </g>
   <g id="patch_193">
    <path clip-path="url(#p1f0d1ee086)" d="M 11522.895627 464.273301 
L 11553.047359 464.273301 
L 11553.047359 407.262 
L 11522.895627 407.262 
z
" style="fill:#f28e2b;"/>
   </g>
   <g id="patch_194">
    <path clip-path="url(#p1f0d1ee086)" d="M 11583.199091 464.273301 
L 11613.350823 464.273301 
L 11613.350823 407.262 
L 11583.199091 407.262 
z
" style="fill:#f28e2b;"/>
   </g>
   <g id="patch_195">
    <path clip-path="url(#p1f0d1ee086)" d="M 11643.502555 464.273301 
L 11673.654287 464.273301 
L 11673.654287 407.262 
L 11643.502555 407.262 
z
" style="fill:#f28e2b;"/>
   </g>
   <g id="patch_196">
    <path clip-path="url(#p1f0d1ee086)" d="M 11703.806019 464.273301 
L 11733.95775 464.273301 
L 11733.95775 407.262 
L 11703.806019 407.262 
z
" style="fill:#f28e2b;"/>
   </g>
   <g id="matplotlib.axis_1">
    <g id="xtick_1">
     <g id="line2d_1">
      <defs>
       <path d="M 0 0 
L 0 3.5 
" id="me86a778868" style="stroke:#000000;stroke-width:0.8;"/>
      </defs>
      <g>
       <use style="stroke:#000000;stroke-width:0.8;" x="80.313391" xlink:href="#me86a778868" y="464.273301"/>
      </g>
     </g>
     <g id="text_1">
      <!-- CHIR-99021 -->
      <defs>
       <path d="M 58.796875 25.09375 
L 68.265625 22.703125 
Q 65.28125 11.03125 57.546875 4.90625 
Q 49.8125 -1.21875 38.625 -1.21875 
Q 27.046875 -1.21875 19.796875 3.484375 
Q 12.546875 8.203125 8.765625 17.140625 
Q 4.984375 26.078125 4.984375 36.328125 
Q 4.984375 47.515625 9.25 55.828125 
Q 13.53125 64.15625 21.40625 68.46875 
Q 29.296875 72.796875 38.765625 72.796875 
Q 49.515625 72.796875 56.828125 67.328125 
Q 64.15625 61.859375 67.046875 51.953125 
L 57.71875 49.75 
Q 55.21875 57.5625 50.484375 61.125 
Q 45.75 64.703125 38.578125 64.703125 
Q 30.328125 64.703125 24.78125 60.734375 
Q 19.234375 56.78125 16.984375 50.109375 
Q 14.75 43.453125 14.75 36.375 
Q 14.75 27.25 17.40625 20.4375 
Q 20.0625 13.625 25.671875 10.25 
Q 31.296875 6.890625 37.84375 6.890625 
Q 45.796875 6.890625 51.3125 11.46875 
Q 56.84375 16.0625 58.796875 25.09375 
z
" id="ArialMT-67"/>
       <path d="M 8.015625 0 
L 8.015625 71.578125 
L 17.484375 71.578125 
L 17.484375 42.1875 
L 54.6875 42.1875 
L 54.6875 71.578125 
L 64.15625 71.578125 
L 64.15625 0 
L 54.6875 0 
L 54.6875 33.734375 
L 17.484375 33.734375 
L 17.484375 0 
z
" id="ArialMT-72"/>
       <path d="M 9.328125 0 
L 9.328125 71.578125 
L 18.796875 71.578125 
L 18.796875 0 
z
" id="ArialMT-73"/>
       <path d="M 7.859375 0 
L 7.859375 71.578125 
L 39.59375 71.578125 
Q 49.171875 71.578125 54.140625 69.640625 
Q 59.125 67.71875 62.109375 62.828125 
Q 65.09375 57.953125 65.09375 52.046875 
Q 65.09375 44.4375 60.15625 39.203125 
Q 55.21875 33.984375 44.921875 32.5625 
Q 48.6875 30.765625 50.640625 29 
Q 54.78125 25.203125 58.5 19.484375 
L 70.953125 0 
L 59.03125 0 
L 49.5625 14.890625 
Q 45.40625 21.34375 42.71875 24.75 
Q 40.046875 28.171875 37.921875 29.53125 
Q 35.796875 30.90625 33.59375 31.453125 
Q 31.984375 31.78125 28.328125 31.78125 
L 17.328125 31.78125 
L 17.328125 0 
z
M 17.328125 39.984375 
L 37.703125 39.984375 
Q 44.1875 39.984375 47.84375 41.328125 
Q 51.515625 42.671875 53.421875 45.625 
Q 55.328125 48.578125 55.328125 52.046875 
Q 55.328125 57.125 51.640625 60.390625 
Q 47.953125 63.671875 39.984375 63.671875 
L 17.328125 63.671875 
z
" id="ArialMT-82"/>
       <path d="M 3.171875 21.484375 
L 3.171875 30.328125 
L 30.171875 30.328125 
L 30.171875 21.484375 
z
" id="ArialMT-45"/>
       <path d="M 5.46875 16.546875 
L 13.921875 17.328125 
Q 14.984375 11.375 18.015625 8.6875 
Q 21.046875 6 25.78125 6 
Q 29.828125 6 32.875 7.859375 
Q 35.9375 9.71875 37.890625 12.8125 
Q 39.84375 15.921875 41.15625 21.1875 
Q 42.484375 26.46875 42.484375 31.9375 
Q 42.484375 32.515625 42.4375 33.6875 
Q 39.796875 29.5 35.234375 26.875 
Q 30.671875 24.265625 25.34375 24.265625 
Q 16.453125 24.265625 10.296875 30.703125 
Q 4.15625 37.15625 4.15625 47.703125 
Q 4.15625 58.59375 10.578125 65.234375 
Q 17 71.875 26.65625 71.875 
Q 33.640625 71.875 39.421875 68.109375 
Q 45.21875 64.359375 48.21875 57.390625 
Q 51.21875 50.4375 51.21875 37.25 
Q 51.21875 23.53125 48.234375 15.40625 
Q 45.265625 7.28125 39.375 3.03125 
Q 33.5 -1.21875 25.59375 -1.21875 
Q 17.1875 -1.21875 11.859375 3.4375 
Q 6.546875 8.109375 5.46875 16.546875 
z
M 41.453125 48.140625 
Q 41.453125 55.71875 37.421875 60.15625 
Q 33.40625 64.59375 27.734375 64.59375 
Q 21.875 64.59375 17.53125 59.8125 
Q 13.1875 55.03125 13.1875 47.40625 
Q 13.1875 40.578125 17.3125 36.296875 
Q 21.4375 32.03125 27.484375 32.03125 
Q 33.59375 32.03125 37.515625 36.296875 
Q 41.453125 40.578125 41.453125 48.140625 
z
" id="ArialMT-57"/>
       <path d="M 4.15625 35.296875 
Q 4.15625 48 6.765625 55.734375 
Q 9.375 63.484375 14.515625 67.671875 
Q 19.671875 71.875 27.484375 71.875 
Q 33.25 71.875 37.59375 69.546875 
Q 41.9375 67.234375 44.765625 62.859375 
Q 47.609375 58.5 49.21875 52.21875 
Q 50.828125 45.953125 50.828125 35.296875 
Q 50.828125 22.703125 48.234375 14.96875 
Q 45.65625 7.234375 40.5 3 
Q 35.359375 -1.21875 27.484375 -1.21875 
Q 17.140625 -1.21875 11.234375 6.203125 
Q 4.15625 15.140625 4.15625 35.296875 
z
M 13.1875 35.296875 
Q 13.1875 17.671875 17.3125 11.828125 
Q 21.4375 6 27.484375 6 
Q 33.546875 6 37.671875 11.859375 
Q 41.796875 17.71875 41.796875 35.296875 
Q 41.796875 52.984375 37.671875 58.78125 
Q 33.546875 64.59375 27.390625 64.59375 
Q 21.34375 64.59375 17.71875 59.46875 
Q 13.1875 52.9375 13.1875 35.296875 
z
" id="ArialMT-48"/>
       <path d="M 50.34375 8.453125 
L 50.34375 0 
L 3.03125 0 
Q 2.9375 3.171875 4.046875 6.109375 
Q 5.859375 10.9375 9.828125 15.625 
Q 13.8125 20.3125 21.34375 26.46875 
Q 33.015625 36.03125 37.109375 41.625 
Q 41.21875 47.21875 41.21875 52.203125 
Q 41.21875 57.421875 37.46875 61 
Q 33.734375 64.59375 27.734375 64.59375 
Q 21.390625 64.59375 17.578125 60.78125 
Q 13.765625 56.984375 13.71875 50.25 
L 4.6875 51.171875 
Q 5.609375 61.28125 11.65625 66.578125 
Q 17.71875 71.875 27.9375 71.875 
Q 38.234375 71.875 44.234375 66.15625 
Q 50.25 60.453125 50.25 52 
Q 50.25 47.703125 48.484375 43.546875 
Q 46.734375 39.40625 42.65625 34.8125 
Q 38.578125 30.21875 29.109375 22.21875 
Q 21.1875 15.578125 18.9375 13.203125 
Q 16.703125 10.84375 15.234375 8.453125 
z
" id="ArialMT-50"/>
       <path d="M 37.25 0 
L 28.46875 0 
L 28.46875 56 
Q 25.296875 52.984375 20.140625 49.953125 
Q 14.984375 46.921875 10.890625 45.40625 
L 10.890625 53.90625 
Q 18.265625 57.375 23.78125 62.296875 
Q 29.296875 67.234375 31.59375 71.875 
L 37.25 71.875 
z
" id="ArialMT-49"/>
      </defs>
      <g transform="translate(23.32633 533.37871)rotate(-45)scale(0.14 -0.14)">
       <use xlink:href="#ArialMT-67"/>
       <use x="72.216797" xlink:href="#ArialMT-72"/>
       <use x="144.433594" xlink:href="#ArialMT-73"/>
       <use x="172.216797" xlink:href="#ArialMT-82"/>
       <use x="244.433594" xlink:href="#ArialMT-45"/>
       <use x="277.734375" xlink:href="#ArialMT-57"/>
       <use x="333.349609" xlink:href="#ArialMT-57"/>
       <use x="388.964844" xlink:href="#ArialMT-48"/>
       <use x="444.580078" xlink:href="#ArialMT-50"/>
       <use x="500.195312" xlink:href="#ArialMT-49"/>
      </g>
     </g>
    </g>
    <g id="xtick_2">
     <g id="line2d_2">
      <g>
       <use style="stroke:#000000;stroke-width:0.8;" x="140.616855" xlink:href="#me86a778868" y="464.273301"/>
      </g>
     </g>
     <g id="text_2">
      <!-- IAP_7638 -->
      <defs>
       <path d="M -0.140625 0 
L 27.34375 71.578125 
L 37.546875 71.578125 
L 66.84375 0 
L 56.0625 0 
L 47.703125 21.6875 
L 17.78125 21.6875 
L 9.90625 0 
z
M 20.515625 29.390625 
L 44.78125 29.390625 
L 37.3125 49.21875 
Q 33.890625 58.25 32.234375 64.0625 
Q 30.859375 57.171875 28.375 50.390625 
z
" id="ArialMT-65"/>
       <path d="M 7.71875 0 
L 7.71875 71.578125 
L 34.71875 71.578125 
Q 41.84375 71.578125 45.609375 70.90625 
Q 50.875 70.015625 54.4375 67.546875 
Q 58.015625 65.09375 60.1875 60.640625 
Q 62.359375 56.203125 62.359375 50.875 
Q 62.359375 41.75 56.546875 35.421875 
Q 50.734375 29.109375 35.546875 29.109375 
L 17.1875 29.109375 
L 17.1875 0 
z
M 17.1875 37.546875 
L 35.6875 37.546875 
Q 44.875 37.546875 48.734375 40.96875 
Q 52.59375 44.390625 52.59375 50.59375 
Q 52.59375 55.078125 50.3125 58.265625 
Q 48.046875 61.46875 44.34375 62.5 
Q 41.9375 63.140625 35.5 63.140625 
L 17.1875 63.140625 
z
" id="ArialMT-80"/>
       <path d="M -1.515625 -19.875 
L -1.515625 -13.53125 
L 56.734375 -13.53125 
L 56.734375 -19.875 
z
" id="ArialMT-95"/>
       <path d="M 4.734375 62.203125 
L 4.734375 70.65625 
L 51.078125 70.65625 
L 51.078125 63.8125 
Q 44.234375 56.546875 37.515625 44.484375 
Q 30.8125 32.421875 27.15625 19.671875 
Q 24.515625 10.6875 23.78125 0 
L 14.75 0 
Q 14.890625 8.453125 18.0625 20.40625 
Q 21.234375 32.375 27.171875 43.484375 
Q 33.109375 54.59375 39.796875 62.203125 
z
" id="ArialMT-55"/>
       <path d="M 49.75 54.046875 
L 41.015625 53.375 
Q 39.84375 58.546875 37.703125 60.890625 
Q 34.125 64.65625 28.90625 64.65625 
Q 24.703125 64.65625 21.53125 62.3125 
Q 17.390625 59.28125 14.984375 53.46875 
Q 12.59375 47.65625 12.5 36.921875 
Q 15.671875 41.75 20.265625 44.09375 
Q 24.859375 46.4375 29.890625 46.4375 
Q 38.671875 46.4375 44.84375 39.96875 
Q 51.03125 33.5 51.03125 23.25 
Q 51.03125 16.5 48.125 10.71875 
Q 45.21875 4.9375 40.140625 1.859375 
Q 35.0625 -1.21875 28.609375 -1.21875 
Q 17.625 -1.21875 10.6875 6.859375 
Q 3.765625 14.9375 3.765625 33.5 
Q 3.765625 54.25 11.421875 63.671875 
Q 18.109375 71.875 29.4375 71.875 
Q 37.890625 71.875 43.28125 67.140625 
Q 48.6875 62.40625 49.75 54.046875 
z
M 13.875 23.1875 
Q 13.875 18.65625 15.796875 14.5 
Q 17.71875 10.359375 21.1875 8.171875 
Q 24.65625 6 28.46875 6 
Q 34.03125 6 38.03125 10.484375 
Q 42.046875 14.984375 42.046875 22.703125 
Q 42.046875 30.125 38.078125 34.390625 
Q 34.125 38.671875 28.125 38.671875 
Q 22.171875 38.671875 18.015625 34.390625 
Q 13.875 30.125 13.875 23.1875 
z
" id="ArialMT-54"/>
       <path d="M 4.203125 18.890625 
L 12.984375 20.0625 
Q 14.5 12.59375 18.140625 9.296875 
Q 21.78125 6 27 6 
Q 33.203125 6 37.46875 10.296875 
Q 41.75 14.59375 41.75 20.953125 
Q 41.75 27 37.796875 30.921875 
Q 33.84375 34.859375 27.734375 34.859375 
Q 25.25 34.859375 21.53125 33.890625 
L 22.515625 41.609375 
Q 23.390625 41.5 23.921875 41.5 
Q 29.546875 41.5 34.03125 44.421875 
Q 38.53125 47.359375 38.53125 53.46875 
Q 38.53125 58.296875 35.25 61.46875 
Q 31.984375 64.65625 26.8125 64.65625 
Q 21.6875 64.65625 18.265625 61.421875 
Q 14.84375 58.203125 13.875 51.765625 
L 5.078125 53.328125 
Q 6.6875 62.15625 12.390625 67.015625 
Q 18.109375 71.875 26.609375 71.875 
Q 32.46875 71.875 37.390625 69.359375 
Q 42.328125 66.84375 44.9375 62.5 
Q 47.5625 58.15625 47.5625 53.265625 
Q 47.5625 48.640625 45.0625 44.828125 
Q 42.578125 41.015625 37.703125 38.765625 
Q 44.046875 37.3125 47.5625 32.6875 
Q 51.078125 28.078125 51.078125 21.140625 
Q 51.078125 11.765625 44.234375 5.25 
Q 37.40625 -1.265625 26.953125 -1.265625 
Q 17.53125 -1.265625 11.296875 4.34375 
Q 5.078125 9.96875 4.203125 18.890625 
z
" id="ArialMT-51"/>
       <path d="M 17.671875 38.8125 
Q 12.203125 40.828125 9.5625 44.53125 
Q 6.9375 48.25 6.9375 53.421875 
Q 6.9375 61.234375 12.546875 66.546875 
Q 18.171875 71.875 27.484375 71.875 
Q 36.859375 71.875 42.578125 66.421875 
Q 48.296875 60.984375 48.296875 53.171875 
Q 48.296875 48.1875 45.671875 44.5 
Q 43.0625 40.828125 37.75 38.8125 
Q 44.34375 36.671875 47.78125 31.875 
Q 51.21875 27.09375 51.21875 20.453125 
Q 51.21875 11.28125 44.71875 5.03125 
Q 38.234375 -1.21875 27.640625 -1.21875 
Q 17.046875 -1.21875 10.546875 5.046875 
Q 4.046875 11.328125 4.046875 20.703125 
Q 4.046875 27.6875 7.59375 32.390625 
Q 11.140625 37.109375 17.671875 38.8125 
z
M 15.921875 53.71875 
Q 15.921875 48.640625 19.1875 45.40625 
Q 22.46875 42.1875 27.6875 42.1875 
Q 32.765625 42.1875 36.015625 45.375 
Q 39.265625 48.578125 39.265625 53.21875 
Q 39.265625 58.0625 35.90625 61.359375 
Q 32.5625 64.65625 27.59375 64.65625 
Q 22.5625 64.65625 19.234375 61.421875 
Q 15.921875 58.203125 15.921875 53.71875 
z
M 13.09375 20.65625 
Q 13.09375 16.890625 14.875 13.375 
Q 16.65625 9.859375 20.171875 7.921875 
Q 23.6875 6 27.734375 6 
Q 34.03125 6 38.125 10.046875 
Q 42.234375 14.109375 42.234375 20.359375 
Q 42.234375 26.703125 38.015625 30.859375 
Q 33.796875 35.015625 27.4375 35.015625 
Q 21.234375 35.015625 17.15625 30.90625 
Q 13.09375 26.8125 13.09375 20.65625 
z
" id="ArialMT-56"/>
      </defs>
      <g transform="translate(95.167346 521.870548)rotate(-45)scale(0.14 -0.14)">
       <use xlink:href="#ArialMT-73"/>
       <use x="27.783203" xlink:href="#ArialMT-65"/>
       <use x="94.482422" xlink:href="#ArialMT-80"/>
       <use x="161.181641" xlink:href="#ArialMT-95"/>
       <use x="216.796875" xlink:href="#ArialMT-55"/>
       <use x="272.412109" xlink:href="#ArialMT-54"/>
       <use x="328.027344" xlink:href="#ArialMT-51"/>
       <use x="383.642578" xlink:href="#ArialMT-56"/>
      </g>
     </g>
    </g>
    <g id="xtick_3">
     <g id="line2d_3">
      <g>
       <use style="stroke:#000000;stroke-width:0.8;" x="200.920319" xlink:href="#me86a778868" y="464.273301"/>
      </g>
     </g>
     <g id="text_3">
      <!-- MCT4_1422 -->
      <defs>
       <path d="M 7.421875 0 
L 7.421875 71.578125 
L 21.6875 71.578125 
L 38.625 20.90625 
Q 40.96875 13.8125 42.046875 10.296875 
Q 43.265625 14.203125 45.84375 21.78125 
L 62.984375 71.578125 
L 75.734375 71.578125 
L 75.734375 0 
L 66.609375 0 
L 66.609375 59.90625 
L 45.796875 0 
L 37.25 0 
L 16.546875 60.9375 
L 16.546875 0 
z
" id="ArialMT-77"/>
       <path d="M 25.921875 0 
L 25.921875 63.140625 
L 2.34375 63.140625 
L 2.34375 71.578125 
L 59.078125 71.578125 
L 59.078125 63.140625 
L 35.40625 63.140625 
L 35.40625 0 
z
" id="ArialMT-84"/>
       <path d="M 32.328125 0 
L 32.328125 17.140625 
L 1.265625 17.140625 
L 1.265625 25.203125 
L 33.9375 71.578125 
L 41.109375 71.578125 
L 41.109375 25.203125 
L 50.78125 25.203125 
L 50.78125 17.140625 
L 41.109375 17.140625 
L 41.109375 0 
z
M 32.328125 25.203125 
L 32.328125 57.46875 
L 9.90625 25.203125 
z
" id="ArialMT-52"/>
      </defs>
      <g transform="translate(144.480823 532.951795)rotate(-45)scale(0.14 -0.14)">
       <use xlink:href="#ArialMT-77"/>
       <use x="83.300781" xlink:href="#ArialMT-67"/>
       <use x="155.517578" xlink:href="#ArialMT-84"/>
       <use x="216.601562" xlink:href="#ArialMT-52"/>
       <use x="272.216797" xlink:href="#ArialMT-95"/>
       <use x="327.832031" xlink:href="#ArialMT-49"/>
       <use x="383.447266" xlink:href="#ArialMT-52"/>
       <use x="439.0625" xlink:href="#ArialMT-50"/>
       <use x="494.677734" xlink:href="#ArialMT-50"/>
      </g>
     </g>
    </g>
    <g id="xtick_4">
     <g id="line2d_4">
      <g>
       <use style="stroke:#000000;stroke-width:0.8;" x="261.223782" xlink:href="#me86a778868" y="464.273301"/>
      </g>
     </g>
     <g id="text_4">
      <!-- rTRAIL -->
      <defs>
       <path d="M 6.5 0 
L 6.5 51.859375 
L 14.40625 51.859375 
L 14.40625 44 
Q 17.4375 49.515625 20 51.265625 
Q 22.5625 53.03125 25.640625 53.03125 
Q 30.078125 53.03125 34.671875 50.203125 
L 31.640625 42.046875 
Q 28.421875 43.953125 25.203125 43.953125 
Q 22.3125 43.953125 20.015625 42.21875 
Q 17.71875 40.484375 16.75 37.40625 
Q 15.28125 32.71875 15.28125 27.15625 
L 15.28125 0 
z
" id="ArialMT-114"/>
       <path d="M 7.328125 0 
L 7.328125 71.578125 
L 16.796875 71.578125 
L 16.796875 8.453125 
L 52.046875 8.453125 
L 52.046875 0 
z
" id="ArialMT-76"/>
      </defs>
      <g transform="translate(227.905795 509.709637)rotate(-45)scale(0.14 -0.14)">
       <use xlink:href="#ArialMT-114"/>
       <use x="33.300781" xlink:href="#ArialMT-84"/>
       <use x="94.384766" xlink:href="#ArialMT-82"/>
       <use x="166.601562" xlink:href="#ArialMT-65"/>
       <use x="233.300781" xlink:href="#ArialMT-73"/>
       <use x="261.083984" xlink:href="#ArialMT-76"/>
      </g>
     </g>
    </g>
    <g id="xtick_5">
     <g id="line2d_5">
      <g>
       <use style="stroke:#000000;stroke-width:0.8;" x="321.527246" xlink:href="#me86a778868" y="464.273301"/>
      </g>
     </g>
     <g id="text_5">
      <!-- AST-1306 -->
      <defs>
       <path d="M 4.5 23 
L 13.421875 23.78125 
Q 14.0625 18.40625 16.375 14.96875 
Q 18.703125 11.53125 23.578125 9.40625 
Q 28.46875 7.28125 34.578125 7.28125 
Q 39.984375 7.28125 44.140625 8.890625 
Q 48.296875 10.5 50.3125 13.296875 
Q 52.34375 16.109375 52.34375 19.4375 
Q 52.34375 22.796875 50.390625 25.3125 
Q 48.4375 27.828125 43.953125 29.546875 
Q 41.0625 30.671875 31.203125 33.03125 
Q 21.34375 35.40625 17.390625 37.5 
Q 12.25 40.1875 9.734375 44.15625 
Q 7.234375 48.140625 7.234375 53.078125 
Q 7.234375 58.5 10.296875 63.203125 
Q 13.375 67.921875 19.28125 70.359375 
Q 25.203125 72.796875 32.421875 72.796875 
Q 40.375 72.796875 46.453125 70.234375 
Q 52.546875 67.671875 55.8125 62.6875 
Q 59.078125 57.71875 59.328125 51.421875 
L 50.25 50.734375 
Q 49.515625 57.515625 45.28125 60.984375 
Q 41.0625 64.453125 32.8125 64.453125 
Q 24.21875 64.453125 20.28125 61.296875 
Q 16.359375 58.15625 16.359375 53.71875 
Q 16.359375 49.859375 19.140625 47.359375 
Q 21.875 44.875 33.421875 42.265625 
Q 44.96875 39.65625 49.265625 37.703125 
Q 55.515625 34.8125 58.484375 30.390625 
Q 61.46875 25.984375 61.46875 20.21875 
Q 61.46875 14.5 58.203125 9.4375 
Q 54.9375 4.390625 48.796875 1.578125 
Q 42.671875 -1.21875 35.015625 -1.21875 
Q 25.296875 -1.21875 18.71875 1.609375 
Q 12.15625 4.4375 8.421875 10.125 
Q 4.6875 15.828125 4.5 23 
z
" id="ArialMT-83"/>
      </defs>
      <g transform="translate(274.998073 522.920822)rotate(-45)scale(0.14 -0.14)">
       <use xlink:href="#ArialMT-65"/>
       <use x="66.699219" xlink:href="#ArialMT-83"/>
       <use x="133.398438" xlink:href="#ArialMT-84"/>
       <use x="194.404297" xlink:href="#ArialMT-45"/>
       <use x="227.705078" xlink:href="#ArialMT-49"/>
       <use x="283.320312" xlink:href="#ArialMT-51"/>
       <use x="338.935547" xlink:href="#ArialMT-48"/>
       <use x="394.550781" xlink:href="#ArialMT-54"/>
      </g>
     </g>
    </g>
    <g id="xtick_6">
     <g id="line2d_6">
      <g>
       <use style="stroke:#000000;stroke-width:0.8;" x="381.83071" xlink:href="#me86a778868" y="464.273301"/>
      </g>
     </g>
     <g id="text_6">
      <!-- SB590885 -->
      <defs>
       <path d="M 7.328125 0 
L 7.328125 71.578125 
L 34.1875 71.578125 
Q 42.390625 71.578125 47.34375 69.40625 
Q 52.296875 67.234375 55.09375 62.71875 
Q 57.90625 58.203125 57.90625 53.265625 
Q 57.90625 48.6875 55.421875 44.625 
Q 52.9375 40.578125 47.90625 38.09375 
Q 54.390625 36.1875 57.875 31.59375 
Q 61.375 27 61.375 20.75 
Q 61.375 15.71875 59.25 11.390625 
Q 57.125 7.078125 54 4.734375 
Q 50.875 2.390625 46.15625 1.1875 
Q 41.453125 0 34.625 0 
z
M 16.796875 41.5 
L 32.28125 41.5 
Q 38.578125 41.5 41.3125 42.328125 
Q 44.921875 43.40625 46.75 45.890625 
Q 48.578125 48.390625 48.578125 52.15625 
Q 48.578125 55.71875 46.875 58.421875 
Q 45.171875 61.140625 41.984375 62.140625 
Q 38.8125 63.140625 31.109375 63.140625 
L 16.796875 63.140625 
z
M 16.796875 8.453125 
L 34.625 8.453125 
Q 39.203125 8.453125 41.0625 8.796875 
Q 44.34375 9.375 46.53125 10.734375 
Q 48.734375 12.109375 50.140625 14.71875 
Q 51.5625 17.328125 51.5625 20.75 
Q 51.5625 24.75 49.515625 27.703125 
Q 47.46875 30.671875 43.828125 31.859375 
Q 40.1875 33.0625 33.34375 33.0625 
L 16.796875 33.0625 
z
" id="ArialMT-66"/>
       <path d="M 4.15625 18.75 
L 13.375 19.53125 
Q 14.40625 12.796875 18.140625 9.390625 
Q 21.875 6 27.15625 6 
Q 33.5 6 37.890625 10.78125 
Q 42.28125 15.578125 42.28125 23.484375 
Q 42.28125 31 38.0625 35.34375 
Q 33.84375 39.703125 27 39.703125 
Q 22.75 39.703125 19.328125 37.765625 
Q 15.921875 35.84375 13.96875 32.765625 
L 5.71875 33.84375 
L 12.640625 70.609375 
L 48.25 70.609375 
L 48.25 62.203125 
L 19.671875 62.203125 
L 15.828125 42.96875 
Q 22.265625 47.46875 29.34375 47.46875 
Q 38.71875 47.46875 45.15625 40.96875 
Q 51.609375 34.46875 51.609375 24.265625 
Q 51.609375 14.546875 45.953125 7.46875 
Q 39.0625 -1.21875 27.15625 -1.21875 
Q 17.390625 -1.21875 11.203125 4.25 
Q 5.03125 9.71875 4.15625 18.75 
z
" id="ArialMT-53"/>
      </defs>
      <g transform="translate(333.626357 524.596002)rotate(-45)scale(0.14 -0.14)">
       <use xlink:href="#ArialMT-83"/>
       <use x="66.699219" xlink:href="#ArialMT-66"/>
       <use x="133.398438" xlink:href="#ArialMT-53"/>
       <use x="189.013672" xlink:href="#ArialMT-57"/>
       <use x="244.628906" xlink:href="#ArialMT-48"/>
       <use x="300.244141" xlink:href="#ArialMT-56"/>
       <use x="355.859375" xlink:href="#ArialMT-56"/>
       <use x="411.474609" xlink:href="#ArialMT-53"/>
      </g>
     </g>
    </g>
    <g id="xtick_7">
     <g id="line2d_7">
      <g>
       <use style="stroke:#000000;stroke-width:0.8;" x="442.134173" xlink:href="#me86a778868" y="464.273301"/>
      </g>
     </g>
     <g id="text_7">
      <!-- Bicalutamide -->
      <defs>
       <path d="M 6.640625 61.46875 
L 6.640625 71.578125 
L 15.4375 71.578125 
L 15.4375 61.46875 
z
M 6.640625 0 
L 6.640625 51.859375 
L 15.4375 51.859375 
L 15.4375 0 
z
" id="ArialMT-105"/>
       <path d="M 40.4375 19 
L 49.078125 17.875 
Q 47.65625 8.9375 41.8125 3.875 
Q 35.984375 -1.171875 27.484375 -1.171875 
Q 16.84375 -1.171875 10.375 5.78125 
Q 3.90625 12.75 3.90625 25.734375 
Q 3.90625 34.125 6.6875 40.421875 
Q 9.46875 46.734375 15.15625 49.875 
Q 20.84375 53.03125 27.546875 53.03125 
Q 35.984375 53.03125 41.359375 48.75 
Q 46.734375 44.484375 48.25 36.625 
L 39.703125 35.296875 
Q 38.484375 40.53125 35.375 43.15625 
Q 32.28125 45.796875 27.875 45.796875 
Q 21.234375 45.796875 17.078125 41.03125 
Q 12.9375 36.28125 12.9375 25.984375 
Q 12.9375 15.53125 16.9375 10.796875 
Q 20.953125 6.0625 27.390625 6.0625 
Q 32.5625 6.0625 36.03125 9.234375 
Q 39.5 12.40625 40.4375 19 
z
" id="ArialMT-99"/>
       <path d="M 40.4375 6.390625 
Q 35.546875 2.25 31.03125 0.53125 
Q 26.515625 -1.171875 21.34375 -1.171875 
Q 12.796875 -1.171875 8.203125 3 
Q 3.609375 7.171875 3.609375 13.671875 
Q 3.609375 17.484375 5.34375 20.625 
Q 7.078125 23.78125 9.890625 25.6875 
Q 12.703125 27.59375 16.21875 28.5625 
Q 18.796875 29.25 24.03125 29.890625 
Q 34.671875 31.15625 39.703125 32.90625 
Q 39.75 34.71875 39.75 35.203125 
Q 39.75 40.578125 37.25 42.78125 
Q 33.890625 45.75 27.25 45.75 
Q 21.046875 45.75 18.09375 43.578125 
Q 15.140625 41.40625 13.71875 35.890625 
L 5.125 37.0625 
Q 6.296875 42.578125 8.984375 45.96875 
Q 11.671875 49.359375 16.75 51.1875 
Q 21.828125 53.03125 28.515625 53.03125 
Q 35.15625 53.03125 39.296875 51.46875 
Q 43.453125 49.90625 45.40625 47.53125 
Q 47.359375 45.171875 48.140625 41.546875 
Q 48.578125 39.3125 48.578125 33.453125 
L 48.578125 21.734375 
Q 48.578125 9.46875 49.140625 6.21875 
Q 49.703125 2.984375 51.375 0 
L 42.1875 0 
Q 40.828125 2.734375 40.4375 6.390625 
z
M 39.703125 26.03125 
Q 34.90625 24.078125 25.34375 22.703125 
Q 19.921875 21.921875 17.671875 20.9375 
Q 15.4375 19.96875 14.203125 18.09375 
Q 12.984375 16.21875 12.984375 13.921875 
Q 12.984375 10.40625 15.640625 8.0625 
Q 18.3125 5.71875 23.4375 5.71875 
Q 28.515625 5.71875 32.46875 7.9375 
Q 36.421875 10.15625 38.28125 14.015625 
Q 39.703125 17 39.703125 22.796875 
z
" id="ArialMT-97"/>
       <path d="M 6.390625 0 
L 6.390625 71.578125 
L 15.1875 71.578125 
L 15.1875 0 
z
" id="ArialMT-108"/>
       <path d="M 40.578125 0 
L 40.578125 7.625 
Q 34.515625 -1.171875 24.125 -1.171875 
Q 19.53125 -1.171875 15.546875 0.578125 
Q 11.578125 2.34375 9.640625 5 
Q 7.71875 7.671875 6.9375 11.53125 
Q 6.390625 14.109375 6.390625 19.734375 
L 6.390625 51.859375 
L 15.1875 51.859375 
L 15.1875 23.09375 
Q 15.1875 16.21875 15.71875 13.8125 
Q 16.546875 10.359375 19.234375 8.375 
Q 21.921875 6.390625 25.875 6.390625 
Q 29.828125 6.390625 33.296875 8.421875 
Q 36.765625 10.453125 38.203125 13.9375 
Q 39.65625 17.4375 39.65625 24.078125 
L 39.65625 51.859375 
L 48.4375 51.859375 
L 48.4375 0 
z
" id="ArialMT-117"/>
       <path d="M 25.78125 7.859375 
L 27.046875 0.09375 
Q 23.34375 -0.6875 20.40625 -0.6875 
Q 15.625 -0.6875 12.984375 0.828125 
Q 10.359375 2.34375 9.28125 4.8125 
Q 8.203125 7.28125 8.203125 15.1875 
L 8.203125 45.015625 
L 1.765625 45.015625 
L 1.765625 51.859375 
L 8.203125 51.859375 
L 8.203125 64.703125 
L 16.9375 69.96875 
L 16.9375 51.859375 
L 25.78125 51.859375 
L 25.78125 45.015625 
L 16.9375 45.015625 
L 16.9375 14.703125 
Q 16.9375 10.9375 17.40625 9.859375 
Q 17.875 8.796875 18.921875 8.15625 
Q 19.96875 7.515625 21.921875 7.515625 
Q 23.390625 7.515625 25.78125 7.859375 
z
" id="ArialMT-116"/>
       <path d="M 6.59375 0 
L 6.59375 51.859375 
L 14.453125 51.859375 
L 14.453125 44.578125 
Q 16.890625 48.390625 20.9375 50.703125 
Q 25 53.03125 30.171875 53.03125 
Q 35.9375 53.03125 39.625 50.640625 
Q 43.3125 48.25 44.828125 43.953125 
Q 50.984375 53.03125 60.84375 53.03125 
Q 68.5625 53.03125 72.703125 48.75 
Q 76.859375 44.484375 76.859375 35.59375 
L 76.859375 0 
L 68.109375 0 
L 68.109375 32.671875 
Q 68.109375 37.9375 67.25 40.25 
Q 66.40625 42.578125 64.15625 43.984375 
Q 61.921875 45.40625 58.890625 45.40625 
Q 53.421875 45.40625 49.796875 41.765625 
Q 46.1875 38.140625 46.1875 30.125 
L 46.1875 0 
L 37.40625 0 
L 37.40625 33.6875 
Q 37.40625 39.546875 35.25 42.46875 
Q 33.109375 45.40625 28.21875 45.40625 
Q 24.515625 45.40625 21.359375 43.453125 
Q 18.21875 41.5 16.796875 37.734375 
Q 15.375 33.984375 15.375 26.90625 
L 15.375 0 
z
" id="ArialMT-109"/>
       <path d="M 40.234375 0 
L 40.234375 6.546875 
Q 35.296875 -1.171875 25.734375 -1.171875 
Q 19.53125 -1.171875 14.328125 2.25 
Q 9.125 5.671875 6.265625 11.796875 
Q 3.421875 17.921875 3.421875 25.875 
Q 3.421875 33.640625 6 39.96875 
Q 8.59375 46.296875 13.765625 49.65625 
Q 18.953125 53.03125 25.34375 53.03125 
Q 30.03125 53.03125 33.6875 51.046875 
Q 37.359375 49.078125 39.65625 45.90625 
L 39.65625 71.578125 
L 48.390625 71.578125 
L 48.390625 0 
z
M 12.453125 25.875 
Q 12.453125 15.921875 16.640625 10.984375 
Q 20.84375 6.0625 26.5625 6.0625 
Q 32.328125 6.0625 36.34375 10.765625 
Q 40.375 15.484375 40.375 25.140625 
Q 40.375 35.796875 36.265625 40.765625 
Q 32.171875 45.75 26.171875 45.75 
Q 20.3125 45.75 16.375 40.96875 
Q 12.453125 36.1875 12.453125 25.875 
z
" id="ArialMT-100"/>
       <path d="M 42.09375 16.703125 
L 51.171875 15.578125 
Q 49.03125 7.625 43.21875 3.21875 
Q 37.40625 -1.171875 28.375 -1.171875 
Q 17 -1.171875 10.328125 5.828125 
Q 3.65625 12.84375 3.65625 25.484375 
Q 3.65625 38.578125 10.390625 45.796875 
Q 17.140625 53.03125 27.875 53.03125 
Q 38.28125 53.03125 44.875 45.953125 
Q 51.46875 38.875 51.46875 26.03125 
Q 51.46875 25.25 51.421875 23.6875 
L 12.75 23.6875 
Q 13.234375 15.140625 17.578125 10.59375 
Q 21.921875 6.0625 28.421875 6.0625 
Q 33.25 6.0625 36.671875 8.59375 
Q 40.09375 11.140625 42.09375 16.703125 
z
M 13.234375 30.90625 
L 42.1875 30.90625 
Q 41.609375 37.453125 38.875 40.71875 
Q 34.671875 45.796875 27.984375 45.796875 
Q 21.921875 45.796875 17.796875 41.75 
Q 13.671875 37.703125 13.234375 30.90625 
z
" id="ArialMT-101"/>
      </defs>
      <g transform="translate(383.493587 535.032235)rotate(-45)scale(0.14 -0.14)">
       <use xlink:href="#ArialMT-66"/>
       <use x="66.699219" xlink:href="#ArialMT-105"/>
       <use x="88.916016" xlink:href="#ArialMT-99"/>
       <use x="138.916016" xlink:href="#ArialMT-97"/>
       <use x="194.53125" xlink:href="#ArialMT-108"/>
       <use x="216.748047" xlink:href="#ArialMT-117"/>
       <use x="272.363281" xlink:href="#ArialMT-116"/>
       <use x="300.146484" xlink:href="#ArialMT-97"/>
       <use x="355.761719" xlink:href="#ArialMT-109"/>
       <use x="439.0625" xlink:href="#ArialMT-105"/>
       <use x="461.279297" xlink:href="#ArialMT-100"/>
       <use x="516.894531" xlink:href="#ArialMT-101"/>
      </g>
     </g>
    </g>
    <g id="xtick_8">
     <g id="line2d_8">
      <g>
       <use style="stroke:#000000;stroke-width:0.8;" x="502.437637" xlink:href="#me86a778868" y="464.273301"/>
      </g>
     </g>
     <g id="text_8">
      <!-- AZD8186 -->
      <defs>
       <path d="M 2 0 
L 2 8.796875 
L 38.671875 54.640625 
Q 42.578125 59.515625 46.09375 63.140625 
L 6.15625 63.140625 
L 6.15625 71.578125 
L 57.421875 71.578125 
L 57.421875 63.140625 
L 17.234375 13.484375 
L 12.890625 8.453125 
L 58.59375 8.453125 
L 58.59375 0 
z
" id="ArialMT-90"/>
       <path d="M 7.71875 0 
L 7.71875 71.578125 
L 32.375 71.578125 
Q 40.71875 71.578125 45.125 70.5625 
Q 51.265625 69.140625 55.609375 65.4375 
Q 61.28125 60.640625 64.078125 53.1875 
Q 66.890625 45.75 66.890625 36.1875 
Q 66.890625 28.03125 64.984375 21.734375 
Q 63.09375 15.4375 60.109375 11.296875 
Q 57.125 7.171875 53.578125 4.796875 
Q 50.046875 2.4375 45.046875 1.21875 
Q 40.046875 0 33.546875 0 
z
M 17.1875 8.453125 
L 32.46875 8.453125 
Q 39.546875 8.453125 43.578125 9.765625 
Q 47.609375 11.078125 50 13.484375 
Q 53.375 16.84375 55.25 22.53125 
Q 57.125 28.21875 57.125 36.328125 
Q 57.125 47.5625 53.4375 53.59375 
Q 49.75 59.625 44.484375 61.671875 
Q 40.671875 63.140625 32.234375 63.140625 
L 17.1875 63.140625 
z
" id="ArialMT-68"/>
      </defs>
      <g transform="translate(458.650934 520.178353)rotate(-45)scale(0.14 -0.14)">
       <use xlink:href="#ArialMT-65"/>
       <use x="66.699219" xlink:href="#ArialMT-90"/>
       <use x="127.783203" xlink:href="#ArialMT-68"/>
       <use x="200" xlink:href="#ArialMT-56"/>
       <use x="255.615234" xlink:href="#ArialMT-49"/>
       <use x="311.230469" xlink:href="#ArialMT-56"/>
       <use x="366.845703" xlink:href="#ArialMT-54"/>
      </g>
     </g>
    </g>
    <g id="xtick_9">
     <g id="line2d_9">
      <g>
       <use style="stroke:#000000;stroke-width:0.8;" x="562.741101" xlink:href="#me86a778868" y="464.273301"/>
      </g>
     </g>
     <g id="text_9">
      <!-- Avagacestat -->
      <defs>
       <path d="M 21 0 
L 1.265625 51.859375 
L 10.546875 51.859375 
L 21.6875 20.796875 
Q 23.484375 15.765625 25 10.359375 
Q 26.171875 14.453125 28.265625 20.21875 
L 39.796875 51.859375 
L 48.828125 51.859375 
L 29.203125 0 
z
" id="ArialMT-118"/>
       <path d="M 4.984375 -4.296875 
L 13.53125 -5.5625 
Q 14.0625 -9.515625 16.5 -11.328125 
Q 19.78125 -13.765625 25.4375 -13.765625 
Q 31.546875 -13.765625 34.859375 -11.328125 
Q 38.1875 -8.890625 39.359375 -4.5 
Q 40.046875 -1.8125 39.984375 6.78125 
Q 34.234375 0 25.640625 0 
Q 14.9375 0 9.078125 7.71875 
Q 3.21875 15.4375 3.21875 26.21875 
Q 3.21875 33.640625 5.90625 39.90625 
Q 8.59375 46.1875 13.6875 49.609375 
Q 18.796875 53.03125 25.6875 53.03125 
Q 34.859375 53.03125 40.828125 45.609375 
L 40.828125 51.859375 
L 48.921875 51.859375 
L 48.921875 7.03125 
Q 48.921875 -5.078125 46.453125 -10.125 
Q 44 -15.1875 38.640625 -18.109375 
Q 33.296875 -21.046875 25.484375 -21.046875 
Q 16.21875 -21.046875 10.5 -16.875 
Q 4.78125 -12.703125 4.984375 -4.296875 
z
M 12.25 26.859375 
Q 12.25 16.65625 16.296875 11.96875 
Q 20.359375 7.28125 26.46875 7.28125 
Q 32.515625 7.28125 36.609375 11.9375 
Q 40.71875 16.609375 40.71875 26.5625 
Q 40.71875 36.078125 36.5 40.90625 
Q 32.28125 45.75 26.3125 45.75 
Q 20.453125 45.75 16.34375 40.984375 
Q 12.25 36.234375 12.25 26.859375 
z
" id="ArialMT-103"/>
       <path d="M 3.078125 15.484375 
L 11.765625 16.84375 
Q 12.5 11.625 15.84375 8.84375 
Q 19.1875 6.0625 25.203125 6.0625 
Q 31.25 6.0625 34.171875 8.515625 
Q 37.109375 10.984375 37.109375 14.3125 
Q 37.109375 17.28125 34.515625 19 
Q 32.71875 20.171875 25.53125 21.96875 
Q 15.875 24.421875 12.140625 26.203125 
Q 8.40625 27.984375 6.46875 31.125 
Q 4.546875 34.28125 4.546875 38.09375 
Q 4.546875 41.546875 6.125 44.5 
Q 7.71875 47.46875 10.453125 49.421875 
Q 12.5 50.921875 16.03125 51.96875 
Q 19.578125 53.03125 23.640625 53.03125 
Q 29.734375 53.03125 34.34375 51.265625 
Q 38.96875 49.515625 41.15625 46.5 
Q 43.359375 43.5 44.1875 38.484375 
L 35.59375 37.3125 
Q 35.015625 41.3125 32.203125 43.546875 
Q 29.390625 45.796875 24.265625 45.796875 
Q 18.21875 45.796875 15.625 43.796875 
Q 13.03125 41.796875 13.03125 39.109375 
Q 13.03125 37.40625 14.109375 36.03125 
Q 15.1875 34.625 17.484375 33.6875 
Q 18.796875 33.203125 25.25 31.453125 
Q 34.578125 28.953125 38.25 27.359375 
Q 41.9375 25.78125 44.03125 22.75 
Q 46.140625 19.734375 46.140625 15.234375 
Q 46.140625 10.84375 43.578125 6.953125 
Q 41.015625 3.078125 36.171875 0.953125 
Q 31.34375 -1.171875 25.25 -1.171875 
Q 15.140625 -1.171875 9.84375 3.03125 
Q 4.546875 7.234375 3.078125 15.484375 
z
" id="ArialMT-115"/>
      </defs>
      <g transform="translate(506.180955 532.835785)rotate(-45)scale(0.14 -0.14)">
       <use xlink:href="#ArialMT-65"/>
       <use x="66.683594" xlink:href="#ArialMT-118"/>
       <use x="116.683594" xlink:href="#ArialMT-97"/>
       <use x="172.298828" xlink:href="#ArialMT-103"/>
       <use x="227.914062" xlink:href="#ArialMT-97"/>
       <use x="283.529297" xlink:href="#ArialMT-99"/>
       <use x="333.529297" xlink:href="#ArialMT-101"/>
       <use x="389.144531" xlink:href="#ArialMT-115"/>
       <use x="439.144531" xlink:href="#ArialMT-116"/>
       <use x="466.927734" xlink:href="#ArialMT-97"/>
       <use x="522.542969" xlink:href="#ArialMT-116"/>
      </g>
     </g>
    </g>
    <g id="xtick_10">
     <g id="line2d_10">
      <g>
       <use style="stroke:#000000;stroke-width:0.8;" x="623.044564" xlink:href="#me86a778868" y="464.273301"/>
      </g>
     </g>
     <g id="text_10">
      <!-- Acetalax -->
      <defs>
       <path d="M 0.734375 0 
L 19.671875 26.953125 
L 2.15625 51.859375 
L 13.140625 51.859375 
L 21.09375 39.703125 
Q 23.34375 36.234375 24.703125 33.890625 
Q 26.859375 37.109375 28.65625 39.59375 
L 37.40625 51.859375 
L 47.90625 51.859375 
L 29.984375 27.4375 
L 49.265625 0 
L 38.484375 0 
L 27.828125 16.109375 
L 25 20.453125 
L 11.375 0 
z
" id="ArialMT-120"/>
      </defs>
      <g transform="translate(583.109383 516.32683)rotate(-45)scale(0.14 -0.14)">
       <use xlink:href="#ArialMT-65"/>
       <use x="66.699219" xlink:href="#ArialMT-99"/>
       <use x="116.699219" xlink:href="#ArialMT-101"/>
       <use x="172.314453" xlink:href="#ArialMT-116"/>
       <use x="200.097656" xlink:href="#ArialMT-97"/>
       <use x="255.712891" xlink:href="#ArialMT-108"/>
       <use x="277.929688" xlink:href="#ArialMT-97"/>
       <use x="333.544922" xlink:href="#ArialMT-120"/>
      </g>
     </g>
    </g>
    <g id="xtick_11">
     <g id="line2d_11">
      <g>
       <use style="stroke:#000000;stroke-width:0.8;" x="683.348028" xlink:href="#me86a778868" y="464.273301"/>
      </g>
     </g>
     <g id="text_11">
      <!-- AZD6094 -->
      <g transform="translate(639.561325 520.178353)rotate(-45)scale(0.14 -0.14)">
       <use xlink:href="#ArialMT-65"/>
       <use x="66.699219" xlink:href="#ArialMT-90"/>
       <use x="127.783203" xlink:href="#ArialMT-68"/>
       <use x="200" xlink:href="#ArialMT-54"/>
       <use x="255.615234" xlink:href="#ArialMT-48"/>
       <use x="311.230469" xlink:href="#ArialMT-57"/>
       <use x="366.845703" xlink:href="#ArialMT-52"/>
      </g>
     </g>
    </g>
   </g>
   <g id="matplotlib.axis_2">
    <g id="ytick_1">
     <g id="line2d_12">
      <defs>
       <path d="M 0 0 
L -3.5 0 
" id="m1e9aa795a3" style="stroke:#000000;stroke-width:0.8;"/>
      </defs>
      <g>
       <use style="stroke:#000000;stroke-width:0.8;" x="20.009927" xlink:href="#m1e9aa795a3" y="464.273301"/>
      </g>
     </g>
     <g id="text_12">
      <!-- 0 -->
      <g transform="translate(3.00024 470.715332)scale(0.18 -0.18)">
       <use xlink:href="#ArialMT-48"/>
      </g>
     </g>
    </g>
    <g id="ytick_2">
     <g id="line2d_13">
      <g>
       <use style="stroke:#000000;stroke-width:0.8;" x="20.009927" xlink:href="#m1e9aa795a3" y="407.262"/>
      </g>
     </g>
     <g id="text_13">
      <!-- 1 -->
      <g transform="translate(3.00024 413.704031)scale(0.18 -0.18)">
       <use xlink:href="#ArialMT-49"/>
      </g>
     </g>
    </g>
    <g id="ytick_3">
     <g id="line2d_14">
      <g>
       <use style="stroke:#000000;stroke-width:0.8;" x="20.009927" xlink:href="#m1e9aa795a3" y="350.250699"/>
      </g>
     </g>
     <g id="text_14">
      <!-- 2 -->
      <g transform="translate(3.00024 356.69273)scale(0.18 -0.18)">
       <use xlink:href="#ArialMT-50"/>
      </g>
     </g>
    </g>
    <g id="ytick_4">
     <g id="line2d_15">
      <g>
       <use style="stroke:#000000;stroke-width:0.8;" x="20.009927" xlink:href="#m1e9aa795a3" y="293.239398"/>
      </g>
     </g>
     <g id="text_15">
      <!-- 3 -->
      <g transform="translate(3.00024 299.68143)scale(0.18 -0.18)">
       <use xlink:href="#ArialMT-51"/>
      </g>
     </g>
    </g>
    <g id="ytick_5">
     <g id="line2d_16">
      <g>
       <use style="stroke:#000000;stroke-width:0.8;" x="20.009927" xlink:href="#m1e9aa795a3" y="236.228098"/>
      </g>
     </g>
     <g id="text_16">
      <!-- 4 -->
      <g transform="translate(3.00024 242.670129)scale(0.18 -0.18)">
       <use xlink:href="#ArialMT-52"/>
      </g>
     </g>
    </g>
    <g id="ytick_6">
     <g id="line2d_17">
      <g>
       <use style="stroke:#000000;stroke-width:0.8;" x="20.009927" xlink:href="#m1e9aa795a3" y="179.216797"/>
      </g>
     </g>
     <g id="text_17">
      <!-- 5 -->
      <g transform="translate(3.00024 185.658828)scale(0.18 -0.18)">
       <use xlink:href="#ArialMT-53"/>
      </g>
     </g>
    </g>
    <g id="ytick_7">
     <g id="line2d_18">
      <g>
       <use style="stroke:#000000;stroke-width:0.8;" x="20.009927" xlink:href="#m1e9aa795a3" y="122.205496"/>
      </g>
     </g>
     <g id="text_18">
      <!-- 6 -->
      <g transform="translate(3.00024 128.647527)scale(0.18 -0.18)">
       <use xlink:href="#ArialMT-54"/>
      </g>
     </g>
    </g>
    <g id="ytick_8">
     <g id="line2d_19">
      <g>
       <use style="stroke:#000000;stroke-width:0.8;" x="20.009927" xlink:href="#m1e9aa795a3" y="65.194195"/>
      </g>
     </g>
     <g id="text_19">
      <!-- 7 -->
      <g transform="translate(3.00024 71.636227)scale(0.18 -0.18)">
       <use xlink:href="#ArialMT-55"/>
      </g>
     </g>
    </g>
   </g>
   <g id="text_20">
    <!-- Recurrent therapeutic sensitivities for nearest neighbor -->
    <defs>
     <path d="M 6.59375 0 
L 6.59375 51.859375 
L 14.5 51.859375 
L 14.5 44.484375 
Q 20.21875 53.03125 31 53.03125 
Q 35.6875 53.03125 39.625 51.34375 
Q 43.5625 49.65625 45.515625 46.921875 
Q 47.46875 44.1875 48.25 40.4375 
Q 48.734375 37.984375 48.734375 31.890625 
L 48.734375 0 
L 39.9375 0 
L 39.9375 31.546875 
Q 39.9375 36.921875 38.90625 39.578125 
Q 37.890625 42.234375 35.28125 43.8125 
Q 32.671875 45.40625 29.15625 45.40625 
Q 23.53125 45.40625 19.453125 41.84375 
Q 15.375 38.28125 15.375 28.328125 
L 15.375 0 
z
" id="ArialMT-110"/>
     <path id="ArialMT-32"/>
     <path d="M 6.59375 0 
L 6.59375 71.578125 
L 15.375 71.578125 
L 15.375 45.90625 
Q 21.53125 53.03125 30.90625 53.03125 
Q 36.671875 53.03125 40.921875 50.75 
Q 45.171875 48.484375 47 44.484375 
Q 48.828125 40.484375 48.828125 32.859375 
L 48.828125 0 
L 40.046875 0 
L 40.046875 32.859375 
Q 40.046875 39.453125 37.1875 42.453125 
Q 34.328125 45.453125 29.109375 45.453125 
Q 25.203125 45.453125 21.75 43.421875 
Q 18.3125 41.40625 16.84375 37.9375 
Q 15.375 34.46875 15.375 28.375 
L 15.375 0 
z
" id="ArialMT-104"/>
     <path d="M 6.59375 -19.875 
L 6.59375 51.859375 
L 14.59375 51.859375 
L 14.59375 45.125 
Q 17.4375 49.078125 21 51.046875 
Q 24.5625 53.03125 29.640625 53.03125 
Q 36.28125 53.03125 41.359375 49.609375 
Q 46.4375 46.1875 49.015625 39.953125 
Q 51.609375 33.734375 51.609375 26.3125 
Q 51.609375 18.359375 48.75 11.984375 
Q 45.90625 5.609375 40.453125 2.21875 
Q 35.015625 -1.171875 29 -1.171875 
Q 24.609375 -1.171875 21.109375 0.6875 
Q 17.625 2.546875 15.375 5.375 
L 15.375 -19.875 
z
M 14.546875 25.640625 
Q 14.546875 15.625 18.59375 10.84375 
Q 22.65625 6.0625 28.421875 6.0625 
Q 34.28125 6.0625 38.453125 11.015625 
Q 42.625 15.96875 42.625 26.375 
Q 42.625 36.28125 38.546875 41.203125 
Q 34.46875 46.140625 28.8125 46.140625 
Q 23.1875 46.140625 18.859375 40.890625 
Q 14.546875 35.640625 14.546875 25.640625 
z
" id="ArialMT-112"/>
     <path d="M 8.6875 0 
L 8.6875 45.015625 
L 0.921875 45.015625 
L 0.921875 51.859375 
L 8.6875 51.859375 
L 8.6875 57.375 
Q 8.6875 62.59375 9.625 65.140625 
Q 10.890625 68.5625 14.078125 70.671875 
Q 17.28125 72.796875 23.046875 72.796875 
Q 26.765625 72.796875 31.25 71.921875 
L 29.9375 64.265625 
Q 27.203125 64.75 24.75 64.75 
Q 20.75 64.75 19.09375 63.03125 
Q 17.4375 61.328125 17.4375 56.640625 
L 17.4375 51.859375 
L 27.546875 51.859375 
L 27.546875 45.015625 
L 17.4375 45.015625 
L 17.4375 0 
z
" id="ArialMT-102"/>
     <path d="M 3.328125 25.921875 
Q 3.328125 40.328125 11.328125 47.265625 
Q 18.015625 53.03125 27.640625 53.03125 
Q 38.328125 53.03125 45.109375 46.015625 
Q 51.90625 39.015625 51.90625 26.65625 
Q 51.90625 16.65625 48.90625 10.90625 
Q 45.90625 5.171875 40.15625 2 
Q 34.421875 -1.171875 27.640625 -1.171875 
Q 16.75 -1.171875 10.03125 5.8125 
Q 3.328125 12.796875 3.328125 25.921875 
z
M 12.359375 25.921875 
Q 12.359375 15.96875 16.703125 11.015625 
Q 21.046875 6.0625 27.640625 6.0625 
Q 34.1875 6.0625 38.53125 11.03125 
Q 42.875 16.015625 42.875 26.21875 
Q 42.875 35.84375 38.5 40.796875 
Q 34.125 45.75 27.640625 45.75 
Q 21.046875 45.75 16.703125 40.8125 
Q 12.359375 35.890625 12.359375 25.921875 
z
" id="ArialMT-111"/>
     <path d="M 14.703125 0 
L 6.546875 0 
L 6.546875 71.578125 
L 15.328125 71.578125 
L 15.328125 46.046875 
Q 20.90625 53.03125 29.546875 53.03125 
Q 34.328125 53.03125 38.59375 51.09375 
Q 42.875 49.171875 45.625 45.671875 
Q 48.390625 42.1875 49.953125 37.25 
Q 51.515625 32.328125 51.515625 26.703125 
Q 51.515625 13.375 44.921875 6.09375 
Q 38.328125 -1.171875 29.109375 -1.171875 
Q 19.921875 -1.171875 14.703125 6.5 
z
M 14.59375 26.3125 
Q 14.59375 17 17.140625 12.84375 
Q 21.296875 6.0625 28.375 6.0625 
Q 34.125 6.0625 38.328125 11.0625 
Q 42.53125 16.0625 42.53125 25.984375 
Q 42.53125 36.140625 38.5 40.96875 
Q 34.46875 45.796875 28.765625 45.796875 
Q 23 45.796875 18.796875 40.796875 
Q 14.59375 35.796875 14.59375 26.3125 
z
" id="ArialMT-98"/>
    </defs>
    <g transform="translate(124.423594 17.559615)scale(0.2 -0.2)">
     <use xlink:href="#ArialMT-82"/>
     <use x="72.216797" xlink:href="#ArialMT-101"/>
     <use x="127.832031" xlink:href="#ArialMT-99"/>
     <use x="177.832031" xlink:href="#ArialMT-117"/>
     <use x="233.447266" xlink:href="#ArialMT-114"/>
     <use x="266.748047" xlink:href="#ArialMT-114"/>
     <use x="300.048828" xlink:href="#ArialMT-101"/>
     <use x="355.664062" xlink:href="#ArialMT-110"/>
     <use x="411.279297" xlink:href="#ArialMT-116"/>
     <use x="439.0625" xlink:href="#ArialMT-32"/>
     <use x="466.845703" xlink:href="#ArialMT-116"/>
     <use x="494.628906" xlink:href="#ArialMT-104"/>
     <use x="550.244141" xlink:href="#ArialMT-101"/>
     <use x="605.859375" xlink:href="#ArialMT-114"/>
     <use x="639.160156" xlink:href="#ArialMT-97"/>
     <use x="694.775391" xlink:href="#ArialMT-112"/>
     <use x="750.390625" xlink:href="#ArialMT-101"/>
     <use x="806.005859" xlink:href="#ArialMT-117"/>
     <use x="861.621094" xlink:href="#ArialMT-116"/>
     <use x="889.404297" xlink:href="#ArialMT-105"/>
     <use x="911.621094" xlink:href="#ArialMT-99"/>
     <use x="961.621094" xlink:href="#ArialMT-32"/>
     <use x="989.404297" xlink:href="#ArialMT-115"/>
     <use x="1039.404297" xlink:href="#ArialMT-101"/>
     <use x="1095.019531" xlink:href="#ArialMT-110"/>
     <use x="1150.634766" xlink:href="#ArialMT-115"/>
     <use x="1200.634766" xlink:href="#ArialMT-105"/>
     <use x="1222.851562" xlink:href="#ArialMT-116"/>
     <use x="1250.634766" xlink:href="#ArialMT-105"/>
     <use x="1272.851562" xlink:href="#ArialMT-118"/>
     <use x="1322.851562" xlink:href="#ArialMT-105"/>
     <use x="1345.068359" xlink:href="#ArialMT-116"/>
     <use x="1372.851562" xlink:href="#ArialMT-105"/>
     <use x="1395.068359" xlink:href="#ArialMT-101"/>
     <use x="1450.683594" xlink:href="#ArialMT-115"/>
     <use x="1500.683594" xlink:href="#ArialMT-32"/>
     <use x="1528.466797" xlink:href="#ArialMT-102"/>
     <use x="1556.25" xlink:href="#ArialMT-111"/>
     <use x="1611.865234" xlink:href="#ArialMT-114"/>
     <use x="1645.166016" xlink:href="#ArialMT-32"/>
     <use x="1672.949219" xlink:href="#ArialMT-110"/>
     <use x="1728.564453" xlink:href="#ArialMT-101"/>
     <use x="1784.179688" xlink:href="#ArialMT-97"/>
     <use x="1839.794922" xlink:href="#ArialMT-114"/>
     <use x="1873.095703" xlink:href="#ArialMT-101"/>
     <use x="1928.710938" xlink:href="#ArialMT-115"/>
     <use x="1978.710938" xlink:href="#ArialMT-116"/>
     <use x="2006.494141" xlink:href="#ArialMT-32"/>
     <use x="2034.277344" xlink:href="#ArialMT-110"/>
     <use x="2089.892578" xlink:href="#ArialMT-101"/>
     <use x="2145.507812" xlink:href="#ArialMT-105"/>
     <use x="2167.724609" xlink:href="#ArialMT-103"/>
     <use x="2223.339844" xlink:href="#ArialMT-104"/>
     <use x="2278.955078" xlink:href="#ArialMT-98"/>
     <use x="2334.570312" xlink:href="#ArialMT-111"/>
     <use x="2390.185547" xlink:href="#ArialMT-114"/>
    </g>
    <!-- cell line to mCRPC profiles (n=150) -->
    <defs>
     <path d="M 23.390625 -21.046875 
Q 16.109375 -11.859375 11.078125 0.4375 
Q 6.0625 12.75 6.0625 25.921875 
Q 6.0625 37.546875 9.8125 48.1875 
Q 14.203125 60.546875 23.390625 72.796875 
L 29.6875 72.796875 
Q 23.78125 62.640625 21.875 58.296875 
Q 18.890625 51.5625 17.1875 44.234375 
Q 15.09375 35.109375 15.09375 25.875 
Q 15.09375 2.390625 29.6875 -21.046875 
z
" id="ArialMT-40"/>
     <path d="M 52.828125 42.09375 
L 5.5625 42.09375 
L 5.5625 50.296875 
L 52.828125 50.296875 
z
M 52.828125 20.359375 
L 5.5625 20.359375 
L 5.5625 28.5625 
L 52.828125 28.5625 
z
" id="ArialMT-61"/>
     <path d="M 12.359375 -21.046875 
L 6.0625 -21.046875 
Q 20.65625 2.390625 20.65625 25.875 
Q 20.65625 35.0625 18.5625 44.09375 
Q 16.890625 51.421875 13.921875 58.15625 
Q 12.015625 62.546875 6.0625 72.796875 
L 12.359375 72.796875 
Q 21.53125 60.546875 25.921875 48.1875 
Q 29.6875 37.546875 29.6875 25.921875 
Q 29.6875 12.75 24.625 0.4375 
Q 19.578125 -11.859375 12.359375 -21.046875 
z
" id="ArialMT-41"/>
    </defs>
    <g transform="translate(210.311094 39.24024)scale(0.2 -0.2)">
     <use xlink:href="#ArialMT-99"/>
     <use x="50" xlink:href="#ArialMT-101"/>
     <use x="105.615234" xlink:href="#ArialMT-108"/>
     <use x="127.832031" xlink:href="#ArialMT-108"/>
     <use x="150.048828" xlink:href="#ArialMT-32"/>
     <use x="177.832031" xlink:href="#ArialMT-108"/>
     <use x="200.048828" xlink:href="#ArialMT-105"/>
     <use x="222.265625" xlink:href="#ArialMT-110"/>
     <use x="277.880859" xlink:href="#ArialMT-101"/>
     <use x="333.496094" xlink:href="#ArialMT-32"/>
     <use x="361.279297" xlink:href="#ArialMT-116"/>
     <use x="389.0625" xlink:href="#ArialMT-111"/>
     <use x="444.677734" xlink:href="#ArialMT-32"/>
     <use x="472.460938" xlink:href="#ArialMT-109"/>
     <use x="555.761719" xlink:href="#ArialMT-67"/>
     <use x="627.978516" xlink:href="#ArialMT-82"/>
     <use x="700.195312" xlink:href="#ArialMT-80"/>
     <use x="766.894531" xlink:href="#ArialMT-67"/>
     <use x="839.111328" xlink:href="#ArialMT-32"/>
     <use x="866.894531" xlink:href="#ArialMT-112"/>
     <use x="922.509766" xlink:href="#ArialMT-114"/>
     <use x="955.810547" xlink:href="#ArialMT-111"/>
     <use x="1011.425781" xlink:href="#ArialMT-102"/>
     <use x="1039.208984" xlink:href="#ArialMT-105"/>
     <use x="1061.425781" xlink:href="#ArialMT-108"/>
     <use x="1083.642578" xlink:href="#ArialMT-101"/>
     <use x="1139.257812" xlink:href="#ArialMT-115"/>
     <use x="1189.257812" xlink:href="#ArialMT-32"/>
     <use x="1217.041016" xlink:href="#ArialMT-40"/>
     <use x="1250.341797" xlink:href="#ArialMT-110"/>
     <use x="1305.957031" xlink:href="#ArialMT-61"/>
     <use x="1364.355469" xlink:href="#ArialMT-49"/>
     <use x="1419.970703" xlink:href="#ArialMT-53"/>
     <use x="1475.585938" xlink:href="#ArialMT-48"/>
     <use x="1531.201172" xlink:href="#ArialMT-41"/>
    </g>
   </g>
  </g>
 </g>
 <defs>
  <clipPath id="p1f0d1ee086">
   <rect height="419.033061" width="693.489832" x="20.009927" y="45.24024"/>
  </clipPath>
 </defs>
</svg>
