<?xml version="1.0" encoding="utf-8" standalone="no"?>
<!DOCTYPE svg PUBLIC "-//W3C//DTD SVG 1.1//EN"
  "http://www.w3.org/Graphics/SVG/1.1/DTD/svg11.dtd">
<!-- Created with matplotlib (https://matplotlib.org/) -->
<svg height="540pt" version="1.1" viewBox="0 0 540 540" width="540pt" xmlns="http://www.w3.org/2000/svg" xmlns:xlink="http://www.w3.org/1999/xlink">
 <defs>
  <style type="text/css">
*{stroke-linecap:butt;stroke-linejoin:round;}
  </style>
 </defs>
 <g id="figure_1">
  <g id="patch_1">
   <path d="M 0 540 
L 540 540 
L 540 0 
L 0 0 
z
" style="fill:#ffffff;"/>
  </g>
  <g id="axes_1">
   <g id="patch_2">
    <path d="M 77.419078 330.3981 
L 533.49976 330.3981 
L 533.49976 44.94774 
L 77.419078 44.94774 
z
" style="fill:#ffffff;"/>
   </g>
   <g id="patch_3">
    <path clip-path="url(#pa4b1d8b06a)" d="M 107.16347 330.3981 
L 126.993065 330.3981 
L 126.993065 58.540614 
L 107.16347 58.540614 
z
" style="fill:#4e79a7;"/>
   </g>
   <g id="patch_4">
    <path clip-path="url(#pa4b1d8b06a)" d="M 146.82266 330.3981 
L 166.652255 330.3981 
L 166.652255 221.655106 
L 146.82266 221.655106 
z
" style="fill:#4e79a7;"/>
   </g>
   <g id="patch_5">
    <path clip-path="url(#pa4b1d8b06a)" d="M 186.48185 330.3981 
L 206.311445 330.3981 
L 206.311445 243.403704 
L 186.48185 243.403704 
z
" style="fill:#4e79a7;"/>
   </g>
   <g id="patch_6">
    <path clip-path="url(#pa4b1d8b06a)" d="M 226.14104 330.3981 
L 245.970634 330.3981 
L 245.970634 265.152303 
L 226.14104 265.152303 
z
" style="fill:#4e79a7;"/>
   </g>
   <g id="patch_7">
    <path clip-path="url(#pa4b1d8b06a)" d="M 265.800229 330.3981 
L 285.629824 330.3981 
L 285.629824 286.900902 
L 265.800229 286.900902 
z
" style="fill:#4e79a7;"/>
   </g>
   <g id="patch_8">
    <path clip-path="url(#pa4b1d8b06a)" d="M 305.459419 330.3981 
L 325.289014 330.3981 
L 325.289014 286.900902 
L 305.459419 286.900902 
z
" style="fill:#4e79a7;"/>
   </g>
   <g id="patch_9">
    <path clip-path="url(#pa4b1d8b06a)" d="M 345.118609 330.3981 
L 364.948204 330.3981 
L 364.948204 297.775201 
L 345.118609 297.775201 
z
" style="fill:#4e79a7;"/>
   </g>
   <g id="patch_10">
    <path clip-path="url(#pa4b1d8b06a)" d="M 384.777799 330.3981 
L 404.607393 330.3981 
L 404.607393 297.775201 
L 384.777799 297.775201 
z
" style="fill:#4e79a7;"/>
   </g>
   <g id="patch_11">
    <path clip-path="url(#pa4b1d8b06a)" d="M 424.436988 330.3981 
L 444.266583 330.3981 
L 444.266583 297.775201 
L 424.436988 297.775201 
z
" style="fill:#4e79a7;"/>
   </g>
   <g id="patch_12">
    <path clip-path="url(#pa4b1d8b06a)" d="M 464.096178 330.3981 
L 483.925773 330.3981 
L 483.925773 297.775201 
L 464.096178 297.775201 
z
" style="fill:#4e79a7;"/>
   </g>
   <g id="patch_13">
    <path clip-path="url(#pa4b1d8b06a)" d="M 503.755368 330.3981 
L 523.584963 330.3981 
L 523.584963 297.775201 
L 503.755368 297.775201 
z
" style="fill:#4e79a7;"/>
   </g>
   <g id="patch_14">
    <path clip-path="url(#pa4b1d8b06a)" d="M 543.414557 330.3981 
L 563.244152 330.3981 
L 563.244152 297.775201 
L 543.414557 297.775201 
z
" style="fill:#4e79a7;"/>
   </g>
   <g id="patch_15">
    <path clip-path="url(#pa4b1d8b06a)" d="M 583.073747 330.3981 
L 602.903342 330.3981 
L 602.903342 297.775201 
L 583.073747 297.775201 
z
" style="fill:#4e79a7;"/>
   </g>
   <g id="patch_16">
    <path clip-path="url(#pa4b1d8b06a)" d="M 622.732937 330.3981 
L 642.562532 330.3981 
L 642.562532 308.649501 
L 622.732937 308.649501 
z
" style="fill:#4e79a7;"/>
   </g>
   <g id="patch_17">
    <path clip-path="url(#pa4b1d8b06a)" d="M 662.392127 330.3981 
L 682.221721 330.3981 
L 682.221721 308.649501 
L 662.392127 308.649501 
z
" style="fill:#4e79a7;"/>
   </g>
   <g id="patch_18">
    <path clip-path="url(#pa4b1d8b06a)" d="M 702.051316 330.3981 
L 721.880911 330.3981 
L 721.880911 308.649501 
L 702.051316 308.649501 
z
" style="fill:#4e79a7;"/>
   </g>
   <g id="patch_19">
    <path clip-path="url(#pa4b1d8b06a)" d="M 741.710506 330.3981 
L 761.540101 330.3981 
L 761.540101 308.649501 
L 741.710506 308.649501 
z
" style="fill:#4e79a7;"/>
   </g>
   <g id="patch_20">
    <path clip-path="url(#pa4b1d8b06a)" d="M 781.369696 330.3981 
L 801.199291 330.3981 
L 801.199291 308.649501 
L 781.369696 308.649501 
z
" style="fill:#4e79a7;"/>
   </g>
   <g id="patch_21">
    <path clip-path="url(#pa4b1d8b06a)" d="M 821.028886 330.3981 
L 840.85848 330.3981 
L 840.85848 308.649501 
L 821.028886 308.649501 
z
" style="fill:#4e79a7;"/>
   </g>
   <g id="patch_22">
    <path clip-path="url(#pa4b1d8b06a)" d="M 860.688075 330.3981 
L 880.51767 330.3981 
L 880.51767 308.649501 
L 860.688075 308.649501 
z
" style="fill:#4e79a7;"/>
   </g>
   <g id="patch_23">
    <path clip-path="url(#pa4b1d8b06a)" d="M 900.347265 330.3981 
L 920.17686 330.3981 
L 920.17686 308.649501 
L 900.347265 308.649501 
z
" style="fill:#4e79a7;"/>
   </g>
   <g id="patch_24">
    <path clip-path="url(#pa4b1d8b06a)" d="M 940.006455 330.3981 
L 959.83605 330.3981 
L 959.83605 308.649501 
L 940.006455 308.649501 
z
" style="fill:#4e79a7;"/>
   </g>
   <g id="patch_25">
    <path clip-path="url(#pa4b1d8b06a)" d="M 979.665644 330.3981 
L 999.495239 330.3981 
L 999.495239 308.649501 
L 979.665644 308.649501 
z
" style="fill:#4e79a7;"/>
   </g>
   <g id="patch_26">
    <path clip-path="url(#pa4b1d8b06a)" d="M 1019.324834 330.3981 
L 1039.154429 330.3981 
L 1039.154429 308.649501 
L 1019.324834 308.649501 
z
" style="fill:#4e79a7;"/>
   </g>
   <g id="patch_27">
    <path clip-path="url(#pa4b1d8b06a)" d="M 1058.984024 330.3981 
L 1078.813619 330.3981 
L 1078.813619 308.649501 
L 1058.984024 308.649501 
z
" style="fill:#4e79a7;"/>
   </g>
   <g id="patch_28">
    <path clip-path="url(#pa4b1d8b06a)" d="M 1098.643214 330.3981 
L 1118.472808 330.3981 
L 1118.472808 319.5238 
L 1098.643214 319.5238 
z
" style="fill:#4e79a7;"/>
   </g>
   <g id="patch_29">
    <path clip-path="url(#pa4b1d8b06a)" d="M 1138.302403 330.3981 
L 1158.131998 330.3981 
L 1158.131998 319.5238 
L 1138.302403 319.5238 
z
" style="fill:#4e79a7;"/>
   </g>
   <g id="patch_30">
    <path clip-path="url(#pa4b1d8b06a)" d="M 1177.961593 330.3981 
L 1197.791188 330.3981 
L 1197.791188 319.5238 
L 1177.961593 319.5238 
z
" style="fill:#4e79a7;"/>
   </g>
   <g id="patch_31">
    <path clip-path="url(#pa4b1d8b06a)" d="M 1217.620783 330.3981 
L 1237.450378 330.3981 
L 1237.450378 319.5238 
L 1217.620783 319.5238 
z
" style="fill:#4e79a7;"/>
   </g>
   <g id="patch_32">
    <path clip-path="url(#pa4b1d8b06a)" d="M 1257.279972 330.3981 
L 1277.109567 330.3981 
L 1277.109567 319.5238 
L 1257.279972 319.5238 
z
" style="fill:#4e79a7;"/>
   </g>
   <g id="patch_33">
    <path clip-path="url(#pa4b1d8b06a)" d="M 1296.939162 330.3981 
L 1316.768757 330.3981 
L 1316.768757 319.5238 
L 1296.939162 319.5238 
z
" style="fill:#4e79a7;"/>
   </g>
   <g id="patch_34">
    <path clip-path="url(#pa4b1d8b06a)" d="M 1336.598352 330.3981 
L 1356.427947 330.3981 
L 1356.427947 319.5238 
L 1336.598352 319.5238 
z
" style="fill:#4e79a7;"/>
   </g>
   <g id="patch_35">
    <path clip-path="url(#pa4b1d8b06a)" d="M 1376.257542 330.3981 
L 1396.087137 330.3981 
L 1396.087137 319.5238 
L 1376.257542 319.5238 
z
" style="fill:#4e79a7;"/>
   </g>
   <g id="patch_36">
    <path clip-path="url(#pa4b1d8b06a)" d="M 1415.916731 330.3981 
L 1435.746326 330.3981 
L 1435.746326 319.5238 
L 1415.916731 319.5238 
z
" style="fill:#4e79a7;"/>
   </g>
   <g id="patch_37">
    <path clip-path="url(#pa4b1d8b06a)" d="M 1455.575921 330.3981 
L 1475.405516 330.3981 
L 1475.405516 319.5238 
L 1455.575921 319.5238 
z
" style="fill:#4e79a7;"/>
   </g>
   <g id="patch_38">
    <path clip-path="url(#pa4b1d8b06a)" d="M 1495.235111 330.3981 
L 1515.064706 330.3981 
L 1515.064706 319.5238 
L 1495.235111 319.5238 
z
" style="fill:#4e79a7;"/>
   </g>
   <g id="patch_39">
    <path clip-path="url(#pa4b1d8b06a)" d="M 1534.894301 330.3981 
L 1554.723895 330.3981 
L 1554.723895 319.5238 
L 1534.894301 319.5238 
z
" style="fill:#4e79a7;"/>
   </g>
   <g id="patch_40">
    <path clip-path="url(#pa4b1d8b06a)" d="M 1574.55349 330.3981 
L 1594.383085 330.3981 
L 1594.383085 319.5238 
L 1574.55349 319.5238 
z
" style="fill:#4e79a7;"/>
   </g>
   <g id="patch_41">
    <path clip-path="url(#pa4b1d8b06a)" d="M 1614.21268 330.3981 
L 1634.042275 330.3981 
L 1634.042275 319.5238 
L 1614.21268 319.5238 
z
" style="fill:#4e79a7;"/>
   </g>
   <g id="patch_42">
    <path clip-path="url(#pa4b1d8b06a)" d="M 1653.87187 330.3981 
L 1673.701465 330.3981 
L 1673.701465 319.5238 
L 1653.87187 319.5238 
z
" style="fill:#4e79a7;"/>
   </g>
   <g id="patch_43">
    <path clip-path="url(#pa4b1d8b06a)" d="M 1693.531059 330.3981 
L 1713.360654 330.3981 
L 1713.360654 319.5238 
L 1693.531059 319.5238 
z
" style="fill:#4e79a7;"/>
   </g>
   <g id="patch_44">
    <path clip-path="url(#pa4b1d8b06a)" d="M 1733.190249 330.3981 
L 1753.019844 330.3981 
L 1753.019844 319.5238 
L 1733.190249 319.5238 
z
" style="fill:#4e79a7;"/>
   </g>
   <g id="patch_45">
    <path clip-path="url(#pa4b1d8b06a)" d="M 1772.849439 330.3981 
L 1792.679034 330.3981 
L 1792.679034 319.5238 
L 1772.849439 319.5238 
z
" style="fill:#4e79a7;"/>
   </g>
   <g id="patch_46">
    <path clip-path="url(#pa4b1d8b06a)" d="M 1812.508629 330.3981 
L 1832.338223 330.3981 
L 1832.338223 319.5238 
L 1812.508629 319.5238 
z
" style="fill:#4e79a7;"/>
   </g>
   <g id="patch_47">
    <path clip-path="url(#pa4b1d8b06a)" d="M 1852.167818 330.3981 
L 1871.997413 330.3981 
L 1871.997413 319.5238 
L 1852.167818 319.5238 
z
" style="fill:#4e79a7;"/>
   </g>
   <g id="patch_48">
    <path clip-path="url(#pa4b1d8b06a)" d="M 1891.827008 330.3981 
L 1911.656603 330.3981 
L 1911.656603 319.5238 
L 1891.827008 319.5238 
z
" style="fill:#4e79a7;"/>
   </g>
   <g id="patch_49">
    <path clip-path="url(#pa4b1d8b06a)" d="M 1931.486198 330.3981 
L 1951.315793 330.3981 
L 1951.315793 319.5238 
L 1931.486198 319.5238 
z
" style="fill:#4e79a7;"/>
   </g>
   <g id="patch_50">
    <path clip-path="url(#pa4b1d8b06a)" d="M 1971.145388 330.3981 
L 1990.974982 330.3981 
L 1990.974982 319.5238 
L 1971.145388 319.5238 
z
" style="fill:#4e79a7;"/>
   </g>
   <g id="patch_51">
    <path clip-path="url(#pa4b1d8b06a)" d="M 2010.804577 330.3981 
L 2030.634172 330.3981 
L 2030.634172 319.5238 
L 2010.804577 319.5238 
z
" style="fill:#4e79a7;"/>
   </g>
   <g id="patch_52">
    <path clip-path="url(#pa4b1d8b06a)" d="M 2050.463767 330.3981 
L 2070.293362 330.3981 
L 2070.293362 319.5238 
L 2050.463767 319.5238 
z
" style="fill:#4e79a7;"/>
   </g>
   <g id="patch_53">
    <path clip-path="url(#pa4b1d8b06a)" d="M 2090.122957 330.3981 
L 2109.952552 330.3981 
L 2109.952552 319.5238 
L 2090.122957 319.5238 
z
" style="fill:#4e79a7;"/>
   </g>
   <g id="patch_54">
    <path clip-path="url(#pa4b1d8b06a)" d="M 2129.782146 330.3981 
L 2149.611741 330.3981 
L 2149.611741 319.5238 
L 2129.782146 319.5238 
z
" style="fill:#4e79a7;"/>
   </g>
   <g id="patch_55">
    <path clip-path="url(#pa4b1d8b06a)" d="M 2169.441336 330.3981 
L 2189.270931 330.3981 
L 2189.270931 319.5238 
L 2169.441336 319.5238 
z
" style="fill:#4e79a7;"/>
   </g>
   <g id="patch_56">
    <path clip-path="url(#pa4b1d8b06a)" d="M 2209.100526 330.3981 
L 2228.930121 330.3981 
L 2228.930121 319.5238 
L 2209.100526 319.5238 
z
" style="fill:#4e79a7;"/>
   </g>
   <g id="patch_57">
    <path clip-path="url(#pa4b1d8b06a)" d="M 2248.759716 330.3981 
L 2268.58931 330.3981 
L 2268.58931 319.5238 
L 2248.759716 319.5238 
z
" style="fill:#4e79a7;"/>
   </g>
   <g id="patch_58">
    <path clip-path="url(#pa4b1d8b06a)" d="M 2288.418905 330.3981 
L 2308.2485 330.3981 
L 2308.2485 319.5238 
L 2288.418905 319.5238 
z
" style="fill:#4e79a7;"/>
   </g>
   <g id="patch_59">
    <path clip-path="url(#pa4b1d8b06a)" d="M 2328.078095 330.3981 
L 2347.90769 330.3981 
L 2347.90769 319.5238 
L 2328.078095 319.5238 
z
" style="fill:#4e79a7;"/>
   </g>
   <g id="patch_60">
    <path clip-path="url(#pa4b1d8b06a)" d="M 2367.737285 330.3981 
L 2387.56688 330.3981 
L 2387.56688 319.5238 
L 2367.737285 319.5238 
z
" style="fill:#4e79a7;"/>
   </g>
   <g id="patch_61">
    <path clip-path="url(#pa4b1d8b06a)" d="M 2407.396474 330.3981 
L 2427.226069 330.3981 
L 2427.226069 319.5238 
L 2407.396474 319.5238 
z
" style="fill:#4e79a7;"/>
   </g>
   <g id="patch_62">
    <path clip-path="url(#pa4b1d8b06a)" d="M 2447.055664 330.3981 
L 2466.885259 330.3981 
L 2466.885259 319.5238 
L 2447.055664 319.5238 
z
" style="fill:#4e79a7;"/>
   </g>
   <g id="patch_63">
    <path clip-path="url(#pa4b1d8b06a)" d="M 2486.714854 330.3981 
L 2506.544449 330.3981 
L 2506.544449 319.5238 
L 2486.714854 319.5238 
z
" style="fill:#4e79a7;"/>
   </g>
   <g id="patch_64">
    <path clip-path="url(#pa4b1d8b06a)" d="M 2526.374044 330.3981 
L 2546.203639 330.3981 
L 2546.203639 319.5238 
L 2526.374044 319.5238 
z
" style="fill:#4e79a7;"/>
   </g>
   <g id="patch_65">
    <path clip-path="url(#pa4b1d8b06a)" d="M 2566.033233 330.3981 
L 2585.862828 330.3981 
L 2585.862828 319.5238 
L 2566.033233 319.5238 
z
" style="fill:#4e79a7;"/>
   </g>
   <g id="patch_66">
    <path clip-path="url(#pa4b1d8b06a)" d="M 2605.692423 330.3981 
L 2625.522018 330.3981 
L 2625.522018 319.5238 
L 2605.692423 319.5238 
z
" style="fill:#4e79a7;"/>
   </g>
   <g id="patch_67">
    <path clip-path="url(#pa4b1d8b06a)" d="M 2645.351613 330.3981 
L 2665.181208 330.3981 
L 2665.181208 319.5238 
L 2645.351613 319.5238 
z
" style="fill:#4e79a7;"/>
   </g>
   <g id="patch_68">
    <path clip-path="url(#pa4b1d8b06a)" d="M 2685.010803 330.3981 
L 2704.840397 330.3981 
L 2704.840397 319.5238 
L 2685.010803 319.5238 
z
" style="fill:#4e79a7;"/>
   </g>
   <g id="patch_69">
    <path clip-path="url(#pa4b1d8b06a)" d="M 2724.669992 330.3981 
L 2744.499587 330.3981 
L 2744.499587 319.5238 
L 2724.669992 319.5238 
z
" style="fill:#4e79a7;"/>
   </g>
   <g id="patch_70">
    <path clip-path="url(#pa4b1d8b06a)" d="M 2764.329182 330.3981 
L 2784.158777 330.3981 
L 2784.158777 319.5238 
L 2764.329182 319.5238 
z
" style="fill:#4e79a7;"/>
   </g>
   <g id="patch_71">
    <path clip-path="url(#pa4b1d8b06a)" d="M 2803.988372 330.3981 
L 2823.817967 330.3981 
L 2823.817967 319.5238 
L 2803.988372 319.5238 
z
" style="fill:#4e79a7;"/>
   </g>
   <g id="patch_72">
    <path clip-path="url(#pa4b1d8b06a)" d="M 2843.647561 330.3981 
L 2863.477156 330.3981 
L 2863.477156 319.5238 
L 2843.647561 319.5238 
z
" style="fill:#4e79a7;"/>
   </g>
   <g id="patch_73">
    <path clip-path="url(#pa4b1d8b06a)" d="M 2883.306751 330.3981 
L 2903.136346 330.3981 
L 2903.136346 319.5238 
L 2883.306751 319.5238 
z
" style="fill:#4e79a7;"/>
   </g>
   <g id="patch_74">
    <path clip-path="url(#pa4b1d8b06a)" d="M 2922.965941 330.3981 
L 2942.795536 330.3981 
L 2942.795536 319.5238 
L 2922.965941 319.5238 
z
" style="fill:#4e79a7;"/>
   </g>
   <g id="patch_75">
    <path clip-path="url(#pa4b1d8b06a)" d="M 2962.625131 330.3981 
L 2982.454725 330.3981 
L 2982.454725 319.5238 
L 2962.625131 319.5238 
z
" style="fill:#4e79a7;"/>
   </g>
   <g id="matplotlib.axis_1">
    <g id="xtick_1">
     <g id="line2d_1">
      <defs>
       <path d="M 0 0 
L 0 3.5 
" id="maf784c49e1" style="stroke:#000000;stroke-width:0.8;"/>
      </defs>
      <g>
       <use style="stroke:#000000;stroke-width:0.8;" x="117.078268" xlink:href="#maf784c49e1" y="330.3981"/>
      </g>
     </g>
     <g id="text_1">
      <!-- VCAP (PROSTATE) -->
      <defs>
       <path d="M 28.171875 0 
L 0.4375 71.578125 
L 10.6875 71.578125 
L 29.296875 19.578125 
Q 31.546875 13.328125 33.0625 7.859375 
Q 34.71875 13.71875 36.921875 19.578125 
L 56.25 71.578125 
L 65.921875 71.578125 
L 37.890625 0 
z
" id="ArialMT-86"/>
       <path d="M 58.796875 25.09375 
L 68.265625 22.703125 
Q 65.28125 11.03125 57.546875 4.90625 
Q 49.8125 -1.21875 38.625 -1.21875 
Q 27.046875 -1.21875 19.796875 3.484375 
Q 12.546875 8.203125 8.765625 17.140625 
Q 4.984375 26.078125 4.984375 36.328125 
Q 4.984375 47.515625 9.25 55.828125 
Q 13.53125 64.15625 21.40625 68.46875 
Q 29.296875 72.796875 38.765625 72.796875 
Q 49.515625 72.796875 56.828125 67.328125 
Q 64.15625 61.859375 67.046875 51.953125 
L 57.71875 49.75 
Q 55.21875 57.5625 50.484375 61.125 
Q 45.75 64.703125 38.578125 64.703125 
Q 30.328125 64.703125 24.78125 60.734375 
Q 19.234375 56.78125 16.984375 50.109375 
Q 14.75 43.453125 14.75 36.375 
Q 14.75 27.25 17.40625 20.4375 
Q 20.0625 13.625 25.671875 10.25 
Q 31.296875 6.890625 37.84375 6.890625 
Q 45.796875 6.890625 51.3125 11.46875 
Q 56.84375 16.0625 58.796875 25.09375 
z
" id="ArialMT-67"/>
       <path d="M -0.140625 0 
L 27.34375 71.578125 
L 37.546875 71.578125 
L 66.84375 0 
L 56.0625 0 
L 47.703125 21.6875 
L 17.78125 21.6875 
L 9.90625 0 
z
M 20.515625 29.390625 
L 44.78125 29.390625 
L 37.3125 49.21875 
Q 33.890625 58.25 32.234375 64.0625 
Q 30.859375 57.171875 28.375 50.390625 
z
" id="ArialMT-65"/>
       <path d="M 7.71875 0 
L 7.71875 71.578125 
L 34.71875 71.578125 
Q 41.84375 71.578125 45.609375 70.90625 
Q 50.875 70.015625 54.4375 67.546875 
Q 58.015625 65.09375 60.1875 60.640625 
Q 62.359375 56.203125 62.359375 50.875 
Q 62.359375 41.75 56.546875 35.421875 
Q 50.734375 29.109375 35.546875 29.109375 
L 17.1875 29.109375 
L 17.1875 0 
z
M 17.1875 37.546875 
L 35.6875 37.546875 
Q 44.875 37.546875 48.734375 40.96875 
Q 52.59375 44.390625 52.59375 50.59375 
Q 52.59375 55.078125 50.3125 58.265625 
Q 48.046875 61.46875 44.34375 62.5 
Q 41.9375 63.140625 35.5 63.140625 
L 17.1875 63.140625 
z
" id="ArialMT-80"/>
       <path id="ArialMT-32"/>
       <path d="M 23.390625 -21.046875 
Q 16.109375 -11.859375 11.078125 0.4375 
Q 6.0625 12.75 6.0625 25.921875 
Q 6.0625 37.546875 9.8125 48.1875 
Q 14.203125 60.546875 23.390625 72.796875 
L 29.6875 72.796875 
Q 23.78125 62.640625 21.875 58.296875 
Q 18.890625 51.5625 17.1875 44.234375 
Q 15.09375 35.109375 15.09375 25.875 
Q 15.09375 2.390625 29.6875 -21.046875 
z
" id="ArialMT-40"/>
       <path d="M 7.859375 0 
L 7.859375 71.578125 
L 39.59375 71.578125 
Q 49.171875 71.578125 54.140625 69.640625 
Q 59.125 67.71875 62.109375 62.828125 
Q 65.09375 57.953125 65.09375 52.046875 
Q 65.09375 44.4375 60.15625 39.203125 
Q 55.21875 33.984375 44.921875 32.5625 
Q 48.6875 30.765625 50.640625 29 
Q 54.78125 25.203125 58.5 19.484375 
L 70.953125 0 
L 59.03125 0 
L 49.5625 14.890625 
Q 45.40625 21.34375 42.71875 24.75 
Q 40.046875 28.171875 37.921875 29.53125 
Q 35.796875 30.90625 33.59375 31.453125 
Q 31.984375 31.78125 28.328125 31.78125 
L 17.328125 31.78125 
L 17.328125 0 
z
M 17.328125 39.984375 
L 37.703125 39.984375 
Q 44.1875 39.984375 47.84375 41.328125 
Q 51.515625 42.671875 53.421875 45.625 
Q 55.328125 48.578125 55.328125 52.046875 
Q 55.328125 57.125 51.640625 60.390625 
Q 47.953125 63.671875 39.984375 63.671875 
L 17.328125 63.671875 
z
" id="ArialMT-82"/>
       <path d="M 4.828125 34.859375 
Q 4.828125 52.6875 14.390625 62.765625 
Q 23.96875 72.859375 39.109375 72.859375 
Q 49.03125 72.859375 56.984375 68.109375 
Q 64.9375 63.375 69.109375 54.90625 
Q 73.296875 46.4375 73.296875 35.6875 
Q 73.296875 24.8125 68.890625 16.21875 
Q 64.5 7.625 56.4375 3.203125 
Q 48.390625 -1.21875 39.0625 -1.21875 
Q 28.953125 -1.21875 20.984375 3.65625 
Q 13.03125 8.546875 8.921875 16.984375 
Q 4.828125 25.4375 4.828125 34.859375 
z
M 14.59375 34.71875 
Q 14.59375 21.78125 21.546875 14.328125 
Q 28.515625 6.890625 39.015625 6.890625 
Q 49.703125 6.890625 56.609375 14.40625 
Q 63.53125 21.921875 63.53125 35.75 
Q 63.53125 44.484375 60.578125 51 
Q 57.625 57.515625 51.921875 61.109375 
Q 46.234375 64.703125 39.15625 64.703125 
Q 29.109375 64.703125 21.84375 57.78125 
Q 14.59375 50.875 14.59375 34.71875 
z
" id="ArialMT-79"/>
       <path d="M 4.5 23 
L 13.421875 23.78125 
Q 14.0625 18.40625 16.375 14.96875 
Q 18.703125 11.53125 23.578125 9.40625 
Q 28.46875 7.28125 34.578125 7.28125 
Q 39.984375 7.28125 44.140625 8.890625 
Q 48.296875 10.5 50.3125 13.296875 
Q 52.34375 16.109375 52.34375 19.4375 
Q 52.34375 22.796875 50.390625 25.3125 
Q 48.4375 27.828125 43.953125 29.546875 
Q 41.0625 30.671875 31.203125 33.03125 
Q 21.34375 35.40625 17.390625 37.5 
Q 12.25 40.1875 9.734375 44.15625 
Q 7.234375 48.140625 7.234375 53.078125 
Q 7.234375 58.5 10.296875 63.203125 
Q 13.375 67.921875 19.28125 70.359375 
Q 25.203125 72.796875 32.421875 72.796875 
Q 40.375 72.796875 46.453125 70.234375 
Q 52.546875 67.671875 55.8125 62.6875 
Q 59.078125 57.71875 59.328125 51.421875 
L 50.25 50.734375 
Q 49.515625 57.515625 45.28125 60.984375 
Q 41.0625 64.453125 32.8125 64.453125 
Q 24.21875 64.453125 20.28125 61.296875 
Q 16.359375 58.15625 16.359375 53.71875 
Q 16.359375 49.859375 19.140625 47.359375 
Q 21.875 44.875 33.421875 42.265625 
Q 44.96875 39.65625 49.265625 37.703125 
Q 55.515625 34.8125 58.484375 30.390625 
Q 61.46875 25.984375 61.46875 20.21875 
Q 61.46875 14.5 58.203125 9.4375 
Q 54.9375 4.390625 48.796875 1.578125 
Q 42.671875 -1.21875 35.015625 -1.21875 
Q 25.296875 -1.21875 18.71875 1.609375 
Q 12.15625 4.4375 8.421875 10.125 
Q 4.6875 15.828125 4.5 23 
z
" id="ArialMT-83"/>
       <path d="M 25.921875 0 
L 25.921875 63.140625 
L 2.34375 63.140625 
L 2.34375 71.578125 
L 59.078125 71.578125 
L 59.078125 63.140625 
L 35.40625 63.140625 
L 35.40625 0 
z
" id="ArialMT-84"/>
       <path d="M 7.90625 0 
L 7.90625 71.578125 
L 59.671875 71.578125 
L 59.671875 63.140625 
L 17.390625 63.140625 
L 17.390625 41.21875 
L 56.984375 41.21875 
L 56.984375 32.8125 
L 17.390625 32.8125 
L 17.390625 8.453125 
L 61.328125 8.453125 
L 61.328125 0 
z
" id="ArialMT-69"/>
       <path d="M 12.359375 -21.046875 
L 6.0625 -21.046875 
Q 20.65625 2.390625 20.65625 25.875 
Q 20.65625 35.0625 18.5625 44.09375 
Q 16.890625 51.421875 13.921875 58.15625 
Q 12.015625 62.546875 6.0625 72.796875 
L 12.359375 72.796875 
Q 21.53125 60.546875 25.921875 48.1875 
Q 29.6875 37.546875 29.6875 25.921875 
Q 29.6875 12.75 24.625 0.4375 
Q 19.578125 -11.859375 12.359375 -21.046875 
z
" id="ArialMT-41"/>
      </defs>
      <g transform="translate(25.360994 434.244549)rotate(-45)scale(0.14 -0.14)">
       <use xlink:href="#ArialMT-86"/>
       <use x="66.699219" xlink:href="#ArialMT-67"/>
       <use x="138.916016" xlink:href="#ArialMT-65"/>
       <use x="205.615234" xlink:href="#ArialMT-80"/>
       <use x="272.298828" xlink:href="#ArialMT-32"/>
       <use x="300.082031" xlink:href="#ArialMT-40"/>
       <use x="333.382812" xlink:href="#ArialMT-80"/>
       <use x="400.082031" xlink:href="#ArialMT-82"/>
       <use x="472.298828" xlink:href="#ArialMT-79"/>
       <use x="550.082031" xlink:href="#ArialMT-83"/>
       <use x="616.78125" xlink:href="#ArialMT-84"/>
       <use x="677.755859" xlink:href="#ArialMT-65"/>
       <use x="744.345703" xlink:href="#ArialMT-84"/>
       <use x="805.429688" xlink:href="#ArialMT-69"/>
       <use x="872.128906" xlink:href="#ArialMT-41"/>
      </g>
     </g>
    </g>
    <g id="xtick_2">
     <g id="line2d_2">
      <g>
       <use style="stroke:#000000;stroke-width:0.8;" x="156.737458" xlink:href="#maf784c49e1" y="330.3981"/>
      </g>
     </g>
     <g id="text_2">
      <!-- A498 (KIDNEY) -->
      <defs>
       <path d="M 32.328125 0 
L 32.328125 17.140625 
L 1.265625 17.140625 
L 1.265625 25.203125 
L 33.9375 71.578125 
L 41.109375 71.578125 
L 41.109375 25.203125 
L 50.78125 25.203125 
L 50.78125 17.140625 
L 41.109375 17.140625 
L 41.109375 0 
z
M 32.328125 25.203125 
L 32.328125 57.46875 
L 9.90625 25.203125 
z
" id="ArialMT-52"/>
       <path d="M 5.46875 16.546875 
L 13.921875 17.328125 
Q 14.984375 11.375 18.015625 8.6875 
Q 21.046875 6 25.78125 6 
Q 29.828125 6 32.875 7.859375 
Q 35.9375 9.71875 37.890625 12.8125 
Q 39.84375 15.921875 41.15625 21.1875 
Q 42.484375 26.46875 42.484375 31.9375 
Q 42.484375 32.515625 42.4375 33.6875 
Q 39.796875 29.5 35.234375 26.875 
Q 30.671875 24.265625 25.34375 24.265625 
Q 16.453125 24.265625 10.296875 30.703125 
Q 4.15625 37.15625 4.15625 47.703125 
Q 4.15625 58.59375 10.578125 65.234375 
Q 17 71.875 26.65625 71.875 
Q 33.640625 71.875 39.421875 68.109375 
Q 45.21875 64.359375 48.21875 57.390625 
Q 51.21875 50.4375 51.21875 37.25 
Q 51.21875 23.53125 48.234375 15.40625 
Q 45.265625 7.28125 39.375 3.03125 
Q 33.5 -1.21875 25.59375 -1.21875 
Q 17.1875 -1.21875 11.859375 3.4375 
Q 6.546875 8.109375 5.46875 16.546875 
z
M 41.453125 48.140625 
Q 41.453125 55.71875 37.421875 60.15625 
Q 33.40625 64.59375 27.734375 64.59375 
Q 21.875 64.59375 17.53125 59.8125 
Q 13.1875 55.03125 13.1875 47.40625 
Q 13.1875 40.578125 17.3125 36.296875 
Q 21.4375 32.03125 27.484375 32.03125 
Q 33.59375 32.03125 37.515625 36.296875 
Q 41.453125 40.578125 41.453125 48.140625 
z
" id="ArialMT-57"/>
       <path d="M 17.671875 38.8125 
Q 12.203125 40.828125 9.5625 44.53125 
Q 6.9375 48.25 6.9375 53.421875 
Q 6.9375 61.234375 12.546875 66.546875 
Q 18.171875 71.875 27.484375 71.875 
Q 36.859375 71.875 42.578125 66.421875 
Q 48.296875 60.984375 48.296875 53.171875 
Q 48.296875 48.1875 45.671875 44.5 
Q 43.0625 40.828125 37.75 38.8125 
Q 44.34375 36.671875 47.78125 31.875 
Q 51.21875 27.09375 51.21875 20.453125 
Q 51.21875 11.28125 44.71875 5.03125 
Q 38.234375 -1.21875 27.640625 -1.21875 
Q 17.046875 -1.21875 10.546875 5.046875 
Q 4.046875 11.328125 4.046875 20.703125 
Q 4.046875 27.6875 7.59375 32.390625 
Q 11.140625 37.109375 17.671875 38.8125 
z
M 15.921875 53.71875 
Q 15.921875 48.640625 19.1875 45.40625 
Q 22.46875 42.1875 27.6875 42.1875 
Q 32.765625 42.1875 36.015625 45.375 
Q 39.265625 48.578125 39.265625 53.21875 
Q 39.265625 58.0625 35.90625 61.359375 
Q 32.5625 64.65625 27.59375 64.65625 
Q 22.5625 64.65625 19.234375 61.421875 
Q 15.921875 58.203125 15.921875 53.71875 
z
M 13.09375 20.65625 
Q 13.09375 16.890625 14.875 13.375 
Q 16.65625 9.859375 20.171875 7.921875 
Q 23.6875 6 27.734375 6 
Q 34.03125 6 38.125 10.046875 
Q 42.234375 14.109375 42.234375 20.359375 
Q 42.234375 26.703125 38.015625 30.859375 
Q 33.796875 35.015625 27.4375 35.015625 
Q 21.234375 35.015625 17.15625 30.90625 
Q 13.09375 26.8125 13.09375 20.65625 
z
" id="ArialMT-56"/>
       <path d="M 7.328125 0 
L 7.328125 71.578125 
L 16.796875 71.578125 
L 16.796875 36.078125 
L 52.34375 71.578125 
L 65.1875 71.578125 
L 35.15625 42.578125 
L 66.5 0 
L 54 0 
L 28.515625 36.234375 
L 16.796875 24.8125 
L 16.796875 0 
z
" id="ArialMT-75"/>
       <path d="M 9.328125 0 
L 9.328125 71.578125 
L 18.796875 71.578125 
L 18.796875 0 
z
" id="ArialMT-73"/>
       <path d="M 7.71875 0 
L 7.71875 71.578125 
L 32.375 71.578125 
Q 40.71875 71.578125 45.125 70.5625 
Q 51.265625 69.140625 55.609375 65.4375 
Q 61.28125 60.640625 64.078125 53.1875 
Q 66.890625 45.75 66.890625 36.1875 
Q 66.890625 28.03125 64.984375 21.734375 
Q 63.09375 15.4375 60.109375 11.296875 
Q 57.125 7.171875 53.578125 4.796875 
Q 50.046875 2.4375 45.046875 1.21875 
Q 40.046875 0 33.546875 0 
z
M 17.1875 8.453125 
L 32.46875 8.453125 
Q 39.546875 8.453125 43.578125 9.765625 
Q 47.609375 11.078125 50 13.484375 
Q 53.375 16.84375 55.25 22.53125 
Q 57.125 28.21875 57.125 36.328125 
Q 57.125 47.5625 53.4375 53.59375 
Q 49.75 59.625 44.484375 61.671875 
Q 40.671875 63.140625 32.234375 63.140625 
L 17.1875 63.140625 
z
" id="ArialMT-68"/>
       <path d="M 7.625 0 
L 7.625 71.578125 
L 17.328125 71.578125 
L 54.9375 15.375 
L 54.9375 71.578125 
L 64.015625 71.578125 
L 64.015625 0 
L 54.296875 0 
L 16.703125 56.25 
L 16.703125 0 
z
" id="ArialMT-78"/>
       <path d="M 27.875 0 
L 27.875 30.328125 
L 0.296875 71.578125 
L 11.8125 71.578125 
L 25.921875 50 
Q 29.828125 43.953125 33.203125 37.890625 
Q 36.421875 43.5 41.015625 50.53125 
L 54.890625 71.578125 
L 65.921875 71.578125 
L 37.359375 30.328125 
L 37.359375 0 
z
" id="ArialMT-89"/>
      </defs>
      <g transform="translate(85.334257 413.924289)rotate(-45)scale(0.14 -0.14)">
       <use xlink:href="#ArialMT-65"/>
       <use x="66.699219" xlink:href="#ArialMT-52"/>
       <use x="122.314453" xlink:href="#ArialMT-57"/>
       <use x="177.929688" xlink:href="#ArialMT-56"/>
       <use x="233.544922" xlink:href="#ArialMT-32"/>
       <use x="261.328125" xlink:href="#ArialMT-40"/>
       <use x="294.628906" xlink:href="#ArialMT-75"/>
       <use x="361.328125" xlink:href="#ArialMT-73"/>
       <use x="389.111328" xlink:href="#ArialMT-68"/>
       <use x="461.328125" xlink:href="#ArialMT-78"/>
       <use x="533.544922" xlink:href="#ArialMT-69"/>
       <use x="600.244141" xlink:href="#ArialMT-89"/>
       <use x="666.943359" xlink:href="#ArialMT-41"/>
      </g>
     </g>
    </g>
    <g id="xtick_3">
     <g id="line2d_3">
      <g>
       <use style="stroke:#000000;stroke-width:0.8;" x="196.396647" xlink:href="#maf784c49e1" y="330.3981"/>
      </g>
     </g>
     <g id="text_3">
      <!-- SNB75 (CENTRAL NERVOUS SYSTEM) -->
      <defs>
       <path d="M 7.328125 0 
L 7.328125 71.578125 
L 34.1875 71.578125 
Q 42.390625 71.578125 47.34375 69.40625 
Q 52.296875 67.234375 55.09375 62.71875 
Q 57.90625 58.203125 57.90625 53.265625 
Q 57.90625 48.6875 55.421875 44.625 
Q 52.9375 40.578125 47.90625 38.09375 
Q 54.390625 36.1875 57.875 31.59375 
Q 61.375 27 61.375 20.75 
Q 61.375 15.71875 59.25 11.390625 
Q 57.125 7.078125 54 4.734375 
Q 50.875 2.390625 46.15625 1.1875 
Q 41.453125 0 34.625 0 
z
M 16.796875 41.5 
L 32.28125 41.5 
Q 38.578125 41.5 41.3125 42.328125 
Q 44.921875 43.40625 46.75 45.890625 
Q 48.578125 48.390625 48.578125 52.15625 
Q 48.578125 55.71875 46.875 58.421875 
Q 45.171875 61.140625 41.984375 62.140625 
Q 38.8125 63.140625 31.109375 63.140625 
L 16.796875 63.140625 
z
M 16.796875 8.453125 
L 34.625 8.453125 
Q 39.203125 8.453125 41.0625 8.796875 
Q 44.34375 9.375 46.53125 10.734375 
Q 48.734375 12.109375 50.140625 14.71875 
Q 51.5625 17.328125 51.5625 20.75 
Q 51.5625 24.75 49.515625 27.703125 
Q 47.46875 30.671875 43.828125 31.859375 
Q 40.1875 33.0625 33.34375 33.0625 
L 16.796875 33.0625 
z
" id="ArialMT-66"/>
       <path d="M 4.734375 62.203125 
L 4.734375 70.65625 
L 51.078125 70.65625 
L 51.078125 63.8125 
Q 44.234375 56.546875 37.515625 44.484375 
Q 30.8125 32.421875 27.15625 19.671875 
Q 24.515625 10.6875 23.78125 0 
L 14.75 0 
Q 14.890625 8.453125 18.0625 20.40625 
Q 21.234375 32.375 27.171875 43.484375 
Q 33.109375 54.59375 39.796875 62.203125 
z
" id="ArialMT-55"/>
       <path d="M 4.15625 18.75 
L 13.375 19.53125 
Q 14.40625 12.796875 18.140625 9.390625 
Q 21.875 6 27.15625 6 
Q 33.5 6 37.890625 10.78125 
Q 42.28125 15.578125 42.28125 23.484375 
Q 42.28125 31 38.0625 35.34375 
Q 33.84375 39.703125 27 39.703125 
Q 22.75 39.703125 19.328125 37.765625 
Q 15.921875 35.84375 13.96875 32.765625 
L 5.71875 33.84375 
L 12.640625 70.609375 
L 48.25 70.609375 
L 48.25 62.203125 
L 19.671875 62.203125 
L 15.828125 42.96875 
Q 22.265625 47.46875 29.34375 47.46875 
Q 38.71875 47.46875 45.15625 40.96875 
Q 51.609375 34.46875 51.609375 24.265625 
Q 51.609375 14.546875 45.953125 7.46875 
Q 39.0625 -1.21875 27.15625 -1.21875 
Q 17.390625 -1.21875 11.203125 4.25 
Q 5.03125 9.71875 4.15625 18.75 
z
" id="ArialMT-53"/>
       <path d="M 7.328125 0 
L 7.328125 71.578125 
L 16.796875 71.578125 
L 16.796875 8.453125 
L 52.046875 8.453125 
L 52.046875 0 
z
" id="ArialMT-76"/>
       <path d="M 54.6875 71.578125 
L 64.15625 71.578125 
L 64.15625 30.21875 
Q 64.15625 19.4375 61.71875 13.078125 
Q 59.28125 6.734375 52.90625 2.75 
Q 46.53125 -1.21875 36.1875 -1.21875 
Q 26.125 -1.21875 19.71875 2.25 
Q 13.328125 5.71875 10.59375 12.28125 
Q 7.859375 18.84375 7.859375 30.21875 
L 7.859375 71.578125 
L 17.328125 71.578125 
L 17.328125 30.28125 
Q 17.328125 20.953125 19.0625 16.53125 
Q 20.796875 12.109375 25.015625 9.71875 
Q 29.25 7.328125 35.359375 7.328125 
Q 45.796875 7.328125 50.234375 12.0625 
Q 54.6875 16.796875 54.6875 30.28125 
z
" id="ArialMT-85"/>
       <path d="M 7.421875 0 
L 7.421875 71.578125 
L 21.6875 71.578125 
L 38.625 20.90625 
Q 40.96875 13.8125 42.046875 10.296875 
Q 43.265625 14.203125 45.84375 21.78125 
L 62.984375 71.578125 
L 75.734375 71.578125 
L 75.734375 0 
L 66.609375 0 
L 66.609375 59.90625 
L 45.796875 0 
L 37.25 0 
L 16.546875 60.9375 
L 16.546875 0 
z
" id="ArialMT-77"/>
      </defs>
      <g transform="translate(12.241293 526.68263)rotate(-45)scale(0.14 -0.14)">
       <use xlink:href="#ArialMT-83"/>
       <use x="66.699219" xlink:href="#ArialMT-78"/>
       <use x="138.916016" xlink:href="#ArialMT-66"/>
       <use x="205.615234" xlink:href="#ArialMT-55"/>
       <use x="261.230469" xlink:href="#ArialMT-53"/>
       <use x="316.845703" xlink:href="#ArialMT-32"/>
       <use x="344.628906" xlink:href="#ArialMT-40"/>
       <use x="377.929688" xlink:href="#ArialMT-67"/>
       <use x="450.146484" xlink:href="#ArialMT-69"/>
       <use x="516.845703" xlink:href="#ArialMT-78"/>
       <use x="589.0625" xlink:href="#ArialMT-84"/>
       <use x="650.146484" xlink:href="#ArialMT-82"/>
       <use x="722.363281" xlink:href="#ArialMT-65"/>
       <use x="789.0625" xlink:href="#ArialMT-76"/>
       <use x="844.630859" xlink:href="#ArialMT-32"/>
       <use x="872.414062" xlink:href="#ArialMT-78"/>
       <use x="944.630859" xlink:href="#ArialMT-69"/>
       <use x="1011.330078" xlink:href="#ArialMT-82"/>
       <use x="1083.53125" xlink:href="#ArialMT-86"/>
       <use x="1150.230469" xlink:href="#ArialMT-79"/>
       <use x="1228.013672" xlink:href="#ArialMT-85"/>
       <use x="1300.230469" xlink:href="#ArialMT-83"/>
       <use x="1366.929688" xlink:href="#ArialMT-32"/>
       <use x="1394.712891" xlink:href="#ArialMT-83"/>
       <use x="1461.412109" xlink:href="#ArialMT-89"/>
       <use x="1528.111328" xlink:href="#ArialMT-83"/>
       <use x="1594.810547" xlink:href="#ArialMT-84"/>
       <use x="1655.894531" xlink:href="#ArialMT-69"/>
       <use x="1722.59375" xlink:href="#ArialMT-77"/>
       <use x="1805.894531" xlink:href="#ArialMT-41"/>
      </g>
     </g>
    </g>
    <g id="xtick_4">
     <g id="line2d_4">
      <g>
       <use style="stroke:#000000;stroke-width:0.8;" x="236.055837" xlink:href="#maf784c49e1" y="330.3981"/>
      </g>
     </g>
     <g id="text_4">
      <!-- U118MG (CENTRAL NERVOUS SYSTEM) -->
      <defs>
       <path d="M 37.25 0 
L 28.46875 0 
L 28.46875 56 
Q 25.296875 52.984375 20.140625 49.953125 
Q 14.984375 46.921875 10.890625 45.40625 
L 10.890625 53.90625 
Q 18.265625 57.375 23.78125 62.296875 
Q 29.296875 67.234375 31.59375 71.875 
L 37.25 71.875 
z
" id="ArialMT-49"/>
       <path d="M 41.21875 28.078125 
L 41.21875 36.46875 
L 71.53125 36.53125 
L 71.53125 9.96875 
Q 64.546875 4.390625 57.125 1.578125 
Q 49.703125 -1.21875 41.890625 -1.21875 
Q 31.34375 -1.21875 22.71875 3.296875 
Q 14.109375 7.8125 9.71875 16.359375 
Q 5.328125 24.90625 5.328125 35.453125 
Q 5.328125 45.90625 9.6875 54.953125 
Q 14.0625 64.015625 22.265625 68.40625 
Q 30.46875 72.796875 41.15625 72.796875 
Q 48.921875 72.796875 55.1875 70.28125 
Q 61.46875 67.78125 65.03125 63.28125 
Q 68.609375 58.796875 70.453125 51.5625 
L 61.921875 49.21875 
Q 60.296875 54.6875 57.90625 57.8125 
Q 55.515625 60.9375 51.0625 62.8125 
Q 46.625 64.703125 41.21875 64.703125 
Q 34.71875 64.703125 29.984375 62.71875 
Q 25.25 60.75 22.34375 57.515625 
Q 19.4375 54.296875 17.828125 50.4375 
Q 15.09375 43.796875 15.09375 36.03125 
Q 15.09375 26.46875 18.390625 20.015625 
Q 21.6875 13.578125 27.984375 10.453125 
Q 34.28125 7.328125 41.359375 7.328125 
Q 47.515625 7.328125 53.375 9.6875 
Q 59.234375 12.0625 62.25 14.75 
L 62.25 28.078125 
z
" id="ArialMT-71"/>
      </defs>
      <g transform="translate(43.666887 534.916226)rotate(-45)scale(0.14 -0.14)">
       <use xlink:href="#ArialMT-85"/>
       <use x="72.216797" xlink:href="#ArialMT-49"/>
       <use x="127.722656" xlink:href="#ArialMT-49"/>
       <use x="183.337891" xlink:href="#ArialMT-56"/>
       <use x="238.953125" xlink:href="#ArialMT-77"/>
       <use x="322.253906" xlink:href="#ArialMT-71"/>
       <use x="400.037109" xlink:href="#ArialMT-32"/>
       <use x="427.820312" xlink:href="#ArialMT-40"/>
       <use x="461.121094" xlink:href="#ArialMT-67"/>
       <use x="533.337891" xlink:href="#ArialMT-69"/>
       <use x="600.037109" xlink:href="#ArialMT-78"/>
       <use x="672.253906" xlink:href="#ArialMT-84"/>
       <use x="733.337891" xlink:href="#ArialMT-82"/>
       <use x="805.554688" xlink:href="#ArialMT-65"/>
       <use x="872.253906" xlink:href="#ArialMT-76"/>
       <use x="927.822266" xlink:href="#ArialMT-32"/>
       <use x="955.605469" xlink:href="#ArialMT-78"/>
       <use x="1027.822266" xlink:href="#ArialMT-69"/>
       <use x="1094.521484" xlink:href="#ArialMT-82"/>
       <use x="1166.722656" xlink:href="#ArialMT-86"/>
       <use x="1233.421875" xlink:href="#ArialMT-79"/>
       <use x="1311.205078" xlink:href="#ArialMT-85"/>
       <use x="1383.421875" xlink:href="#ArialMT-83"/>
       <use x="1450.121094" xlink:href="#ArialMT-32"/>
       <use x="1477.904297" xlink:href="#ArialMT-83"/>
       <use x="1544.603516" xlink:href="#ArialMT-89"/>
       <use x="1611.302734" xlink:href="#ArialMT-83"/>
       <use x="1678.001953" xlink:href="#ArialMT-84"/>
       <use x="1739.085938" xlink:href="#ArialMT-69"/>
       <use x="1805.785156" xlink:href="#ArialMT-77"/>
       <use x="1889.085938" xlink:href="#ArialMT-41"/>
      </g>
     </g>
    </g>
    <g id="xtick_5">
     <g id="line2d_5">
      <g>
       <use style="stroke:#000000;stroke-width:0.8;" x="275.715027" xlink:href="#maf784c49e1" y="330.3981"/>
      </g>
     </g>
     <g id="text_5">
      <!-- BHT101 (THYROID) -->
      <defs>
       <path d="M 8.015625 0 
L 8.015625 71.578125 
L 17.484375 71.578125 
L 17.484375 42.1875 
L 54.6875 42.1875 
L 54.6875 71.578125 
L 64.15625 71.578125 
L 64.15625 0 
L 54.6875 0 
L 54.6875 33.734375 
L 17.484375 33.734375 
L 17.484375 0 
z
" id="ArialMT-72"/>
       <path d="M 4.15625 35.296875 
Q 4.15625 48 6.765625 55.734375 
Q 9.375 63.484375 14.515625 67.671875 
Q 19.671875 71.875 27.484375 71.875 
Q 33.25 71.875 37.59375 69.546875 
Q 41.9375 67.234375 44.765625 62.859375 
Q 47.609375 58.5 49.21875 52.21875 
Q 50.828125 45.953125 50.828125 35.296875 
Q 50.828125 22.703125 48.234375 14.96875 
Q 45.65625 7.234375 40.5 3 
Q 35.359375 -1.21875 27.484375 -1.21875 
Q 17.140625 -1.21875 11.234375 6.203125 
Q 4.15625 15.140625 4.15625 35.296875 
z
M 13.1875 35.296875 
Q 13.1875 17.671875 17.3125 11.828125 
Q 21.4375 6 27.484375 6 
Q 33.546875 6 37.671875 11.859375 
Q 41.796875 17.71875 41.796875 35.296875 
Q 41.796875 52.984375 37.671875 58.78125 
Q 33.546875 64.59375 27.390625 64.59375 
Q 21.34375 64.59375 17.71875 59.46875 
Q 13.1875 52.9375 13.1875 35.296875 
z
" id="ArialMT-48"/>
      </defs>
      <g transform="translate(183.426985 434.815317)rotate(-45)scale(0.14 -0.14)">
       <use xlink:href="#ArialMT-66"/>
       <use x="66.699219" xlink:href="#ArialMT-72"/>
       <use x="138.916016" xlink:href="#ArialMT-84"/>
       <use x="200" xlink:href="#ArialMT-49"/>
       <use x="255.615234" xlink:href="#ArialMT-48"/>
       <use x="311.230469" xlink:href="#ArialMT-49"/>
       <use x="366.845703" xlink:href="#ArialMT-32"/>
       <use x="394.628906" xlink:href="#ArialMT-40"/>
       <use x="427.929688" xlink:href="#ArialMT-84"/>
       <use x="489.013672" xlink:href="#ArialMT-72"/>
       <use x="561.230469" xlink:href="#ArialMT-89"/>
       <use x="627.929688" xlink:href="#ArialMT-82"/>
       <use x="700.146484" xlink:href="#ArialMT-79"/>
       <use x="777.929688" xlink:href="#ArialMT-73"/>
       <use x="805.712891" xlink:href="#ArialMT-68"/>
       <use x="877.929688" xlink:href="#ArialMT-41"/>
      </g>
     </g>
    </g>
    <g id="xtick_6">
     <g id="line2d_6">
      <g>
       <use style="stroke:#000000;stroke-width:0.8;" x="315.374217" xlink:href="#maf784c49e1" y="330.3981"/>
      </g>
     </g>
     <g id="text_6">
      <!-- HS578T (BREAST) -->
      <g transform="translate(228.026642 429.868663)rotate(-45)scale(0.14 -0.14)">
       <use xlink:href="#ArialMT-72"/>
       <use x="72.216797" xlink:href="#ArialMT-83"/>
       <use x="138.916016" xlink:href="#ArialMT-53"/>
       <use x="194.53125" xlink:href="#ArialMT-55"/>
       <use x="250.146484" xlink:href="#ArialMT-56"/>
       <use x="305.761719" xlink:href="#ArialMT-84"/>
       <use x="366.830078" xlink:href="#ArialMT-32"/>
       <use x="394.613281" xlink:href="#ArialMT-40"/>
       <use x="427.914062" xlink:href="#ArialMT-66"/>
       <use x="494.613281" xlink:href="#ArialMT-82"/>
       <use x="566.830078" xlink:href="#ArialMT-69"/>
       <use x="633.529297" xlink:href="#ArialMT-65"/>
       <use x="700.228516" xlink:href="#ArialMT-83"/>
       <use x="766.927734" xlink:href="#ArialMT-84"/>
       <use x="828.011719" xlink:href="#ArialMT-41"/>
      </g>
     </g>
    </g>
    <g id="xtick_7">
     <g id="line2d_7">
      <g>
       <use style="stroke:#000000;stroke-width:0.8;" x="355.033406" xlink:href="#maf784c49e1" y="330.3981"/>
      </g>
     </g>
     <g id="text_7">
      <!-- CADOES1 (BONE) -->
      <g transform="translate(268.238038 429.322644)rotate(-45)scale(0.14 -0.14)">
       <use xlink:href="#ArialMT-67"/>
       <use x="72.216797" xlink:href="#ArialMT-65"/>
       <use x="138.916016" xlink:href="#ArialMT-68"/>
       <use x="211.132812" xlink:href="#ArialMT-79"/>
       <use x="288.916016" xlink:href="#ArialMT-69"/>
       <use x="355.615234" xlink:href="#ArialMT-83"/>
       <use x="422.314453" xlink:href="#ArialMT-49"/>
       <use x="477.929688" xlink:href="#ArialMT-32"/>
       <use x="505.712891" xlink:href="#ArialMT-40"/>
       <use x="539.013672" xlink:href="#ArialMT-66"/>
       <use x="605.712891" xlink:href="#ArialMT-79"/>
       <use x="683.496094" xlink:href="#ArialMT-78"/>
       <use x="755.712891" xlink:href="#ArialMT-69"/>
       <use x="822.412109" xlink:href="#ArialMT-41"/>
      </g>
     </g>
    </g>
    <g id="xtick_8">
     <g id="line2d_8">
      <g>
       <use style="stroke:#000000;stroke-width:0.8;" x="394.692596" xlink:href="#maf784c49e1" y="330.3981"/>
      </g>
     </g>
     <g id="text_8">
      <!-- RCC10RGB (KIDNEY) -->
      <g transform="translate(292.497326 444.716359)rotate(-45)scale(0.14 -0.14)">
       <use xlink:href="#ArialMT-82"/>
       <use x="72.216797" xlink:href="#ArialMT-67"/>
       <use x="144.433594" xlink:href="#ArialMT-67"/>
       <use x="216.650391" xlink:href="#ArialMT-49"/>
       <use x="272.265625" xlink:href="#ArialMT-48"/>
       <use x="327.880859" xlink:href="#ArialMT-82"/>
       <use x="400.097656" xlink:href="#ArialMT-71"/>
       <use x="477.880859" xlink:href="#ArialMT-66"/>
       <use x="544.580078" xlink:href="#ArialMT-32"/>
       <use x="572.363281" xlink:href="#ArialMT-40"/>
       <use x="605.664062" xlink:href="#ArialMT-75"/>
       <use x="672.363281" xlink:href="#ArialMT-73"/>
       <use x="700.146484" xlink:href="#ArialMT-68"/>
       <use x="772.363281" xlink:href="#ArialMT-78"/>
       <use x="844.580078" xlink:href="#ArialMT-69"/>
       <use x="911.279297" xlink:href="#ArialMT-89"/>
       <use x="977.978516" xlink:href="#ArialMT-41"/>
      </g>
     </g>
    </g>
    <g id="xtick_9">
     <g id="line2d_9">
      <g>
       <use style="stroke:#000000;stroke-width:0.8;" x="434.351786" xlink:href="#maf784c49e1" y="330.3981"/>
      </g>
     </g>
     <g id="text_9">
      <!-- GMS10 (CENTRAL NERVOUS SYSTEM) -->
      <g transform="translate(248.003074 528.875987)rotate(-45)scale(0.14 -0.14)">
       <use xlink:href="#ArialMT-71"/>
       <use x="77.783203" xlink:href="#ArialMT-77"/>
       <use x="161.083984" xlink:href="#ArialMT-83"/>
       <use x="227.783203" xlink:href="#ArialMT-49"/>
       <use x="283.398438" xlink:href="#ArialMT-48"/>
       <use x="339.013672" xlink:href="#ArialMT-32"/>
       <use x="366.796875" xlink:href="#ArialMT-40"/>
       <use x="400.097656" xlink:href="#ArialMT-67"/>
       <use x="472.314453" xlink:href="#ArialMT-69"/>
       <use x="539.013672" xlink:href="#ArialMT-78"/>
       <use x="611.230469" xlink:href="#ArialMT-84"/>
       <use x="672.314453" xlink:href="#ArialMT-82"/>
       <use x="744.53125" xlink:href="#ArialMT-65"/>
       <use x="811.230469" xlink:href="#ArialMT-76"/>
       <use x="866.798828" xlink:href="#ArialMT-32"/>
       <use x="894.582031" xlink:href="#ArialMT-78"/>
       <use x="966.798828" xlink:href="#ArialMT-69"/>
       <use x="1033.498047" xlink:href="#ArialMT-82"/>
       <use x="1105.699219" xlink:href="#ArialMT-86"/>
       <use x="1172.398438" xlink:href="#ArialMT-79"/>
       <use x="1250.181641" xlink:href="#ArialMT-85"/>
       <use x="1322.398438" xlink:href="#ArialMT-83"/>
       <use x="1389.097656" xlink:href="#ArialMT-32"/>
       <use x="1416.880859" xlink:href="#ArialMT-83"/>
       <use x="1483.580078" xlink:href="#ArialMT-89"/>
       <use x="1550.279297" xlink:href="#ArialMT-83"/>
       <use x="1616.978516" xlink:href="#ArialMT-84"/>
       <use x="1678.0625" xlink:href="#ArialMT-69"/>
       <use x="1744.761719" xlink:href="#ArialMT-77"/>
       <use x="1828.0625" xlink:href="#ArialMT-41"/>
      </g>
     </g>
    </g>
    <g id="xtick_10">
     <g id="line2d_10">
      <g>
       <use style="stroke:#000000;stroke-width:0.8;" x="474.010975" xlink:href="#maf784c49e1" y="330.3981"/>
      </g>
     </g>
     <g id="text_10">
      <!-- SKNSH (AUTONOMIC GANGLIA) -->
      <g transform="translate(321.223099 495.315152)rotate(-45)scale(0.14 -0.14)">
       <use xlink:href="#ArialMT-83"/>
       <use x="66.699219" xlink:href="#ArialMT-75"/>
       <use x="133.398438" xlink:href="#ArialMT-78"/>
       <use x="205.615234" xlink:href="#ArialMT-83"/>
       <use x="272.314453" xlink:href="#ArialMT-72"/>
       <use x="344.53125" xlink:href="#ArialMT-32"/>
       <use x="372.314453" xlink:href="#ArialMT-40"/>
       <use x="405.615234" xlink:href="#ArialMT-65"/>
       <use x="472.314453" xlink:href="#ArialMT-85"/>
       <use x="544.53125" xlink:href="#ArialMT-84"/>
       <use x="605.599609" xlink:href="#ArialMT-79"/>
       <use x="683.382812" xlink:href="#ArialMT-78"/>
       <use x="755.599609" xlink:href="#ArialMT-79"/>
       <use x="833.382812" xlink:href="#ArialMT-77"/>
       <use x="916.683594" xlink:href="#ArialMT-73"/>
       <use x="944.466797" xlink:href="#ArialMT-67"/>
       <use x="1016.683594" xlink:href="#ArialMT-32"/>
       <use x="1044.466797" xlink:href="#ArialMT-71"/>
       <use x="1122.25" xlink:href="#ArialMT-65"/>
       <use x="1188.949219" xlink:href="#ArialMT-78"/>
       <use x="1261.166016" xlink:href="#ArialMT-71"/>
       <use x="1338.949219" xlink:href="#ArialMT-76"/>
       <use x="1394.564453" xlink:href="#ArialMT-73"/>
       <use x="1422.347656" xlink:href="#ArialMT-65"/>
       <use x="1489.046875" xlink:href="#ArialMT-41"/>
      </g>
     </g>
    </g>
    <g id="xtick_11">
     <g id="line2d_11">
      <g>
       <use style="stroke:#000000;stroke-width:0.8;" x="513.670165" xlink:href="#maf784c49e1" y="330.3981"/>
      </g>
     </g>
     <g id="text_11">
      <!-- T24 (URINARY TRACT) -->
      <defs>
       <path d="M 50.34375 8.453125 
L 50.34375 0 
L 3.03125 0 
Q 2.9375 3.171875 4.046875 6.109375 
Q 5.859375 10.9375 9.828125 15.625 
Q 13.8125 20.3125 21.34375 26.46875 
Q 33.015625 36.03125 37.109375 41.625 
Q 41.21875 47.21875 41.21875 52.203125 
Q 41.21875 57.421875 37.46875 61 
Q 33.734375 64.59375 27.734375 64.59375 
Q 21.390625 64.59375 17.578125 60.78125 
Q 13.765625 56.984375 13.71875 50.25 
L 4.6875 51.171875 
Q 5.609375 61.28125 11.65625 66.578125 
Q 17.71875 71.875 27.9375 71.875 
Q 38.234375 71.875 44.234375 66.15625 
Q 50.25 60.453125 50.25 52 
Q 50.25 47.703125 48.484375 43.546875 
Q 46.734375 39.40625 42.65625 34.8125 
Q 38.578125 30.21875 29.109375 22.21875 
Q 21.1875 15.578125 18.9375 13.203125 
Q 16.703125 10.84375 15.234375 8.453125 
z
" id="ArialMT-50"/>
      </defs>
      <g transform="translate(404.893277 451.297976)rotate(-45)scale(0.14 -0.14)">
       <use xlink:href="#ArialMT-84"/>
       <use x="61.083984" xlink:href="#ArialMT-50"/>
       <use x="116.699219" xlink:href="#ArialMT-52"/>
       <use x="172.314453" xlink:href="#ArialMT-32"/>
       <use x="200.097656" xlink:href="#ArialMT-40"/>
       <use x="233.398438" xlink:href="#ArialMT-85"/>
       <use x="305.615234" xlink:href="#ArialMT-82"/>
       <use x="377.832031" xlink:href="#ArialMT-73"/>
       <use x="405.615234" xlink:href="#ArialMT-78"/>
       <use x="477.832031" xlink:href="#ArialMT-65"/>
       <use x="544.53125" xlink:href="#ArialMT-82"/>
       <use x="616.732422" xlink:href="#ArialMT-89"/>
       <use x="683.416016" xlink:href="#ArialMT-32"/>
       <use x="711.183594" xlink:href="#ArialMT-84"/>
       <use x="772.267578" xlink:href="#ArialMT-82"/>
       <use x="844.484375" xlink:href="#ArialMT-65"/>
       <use x="911.183594" xlink:href="#ArialMT-67"/>
       <use x="983.400391" xlink:href="#ArialMT-84"/>
       <use x="1044.484375" xlink:href="#ArialMT-41"/>
      </g>
     </g>
    </g>
   </g>
   <g id="matplotlib.axis_2">
    <g id="ytick_1">
     <g id="line2d_12">
      <defs>
       <path d="M 0 0 
L -3.5 0 
" id="m6146b0d6dc" style="stroke:#000000;stroke-width:0.8;"/>
      </defs>
      <g>
       <use style="stroke:#000000;stroke-width:0.8;" x="77.419078" xlink:href="#m6146b0d6dc" y="330.3981"/>
      </g>
     </g>
     <g id="text_12">
      <!-- 0 -->
      <g transform="translate(60.409391 336.840131)scale(0.18 -0.18)">
       <use xlink:href="#ArialMT-48"/>
      </g>
     </g>
    </g>
    <g id="ytick_2">
     <g id="line2d_13">
      <g>
       <use style="stroke:#000000;stroke-width:0.8;" x="77.419078" xlink:href="#m6146b0d6dc" y="276.026603"/>
      </g>
     </g>
     <g id="text_13">
      <!-- 5 -->
      <g transform="translate(60.409391 282.468634)scale(0.18 -0.18)">
       <use xlink:href="#ArialMT-53"/>
      </g>
     </g>
    </g>
    <g id="ytick_3">
     <g id="line2d_14">
      <g>
       <use style="stroke:#000000;stroke-width:0.8;" x="77.419078" xlink:href="#m6146b0d6dc" y="221.655106"/>
      </g>
     </g>
     <g id="text_14">
      <!-- 10 -->
      <g transform="translate(50.399703 228.097137)scale(0.18 -0.18)">
       <use xlink:href="#ArialMT-49"/>
       <use x="55.615234" xlink:href="#ArialMT-48"/>
      </g>
     </g>
    </g>
    <g id="ytick_4">
     <g id="line2d_15">
      <g>
       <use style="stroke:#000000;stroke-width:0.8;" x="77.419078" xlink:href="#m6146b0d6dc" y="167.283608"/>
      </g>
     </g>
     <g id="text_15">
      <!-- 15 -->
      <g transform="translate(50.399703 173.72564)scale(0.18 -0.18)">
       <use xlink:href="#ArialMT-49"/>
       <use x="55.615234" xlink:href="#ArialMT-53"/>
      </g>
     </g>
    </g>
    <g id="ytick_5">
     <g id="line2d_16">
      <g>
       <use style="stroke:#000000;stroke-width:0.8;" x="77.419078" xlink:href="#m6146b0d6dc" y="112.912111"/>
      </g>
     </g>
     <g id="text_16">
      <!-- 20 -->
      <g transform="translate(50.399703 119.354143)scale(0.18 -0.18)">
       <use xlink:href="#ArialMT-50"/>
       <use x="55.615234" xlink:href="#ArialMT-48"/>
      </g>
     </g>
    </g>
    <g id="ytick_6">
     <g id="line2d_17">
      <g>
       <use style="stroke:#000000;stroke-width:0.8;" x="77.419078" xlink:href="#m6146b0d6dc" y="58.540614"/>
      </g>
     </g>
     <g id="text_17">
      <!-- 25 -->
      <g transform="translate(50.399703 64.982646)scale(0.18 -0.18)">
       <use xlink:href="#ArialMT-50"/>
       <use x="55.615234" xlink:href="#ArialMT-53"/>
      </g>
     </g>
    </g>
   </g>
   <g id="text_18">
    <!-- Nearest neighbor cell lines to -->
    <defs>
     <path d="M 42.09375 16.703125 
L 51.171875 15.578125 
Q 49.03125 7.625 43.21875 3.21875 
Q 37.40625 -1.171875 28.375 -1.171875 
Q 17 -1.171875 10.328125 5.828125 
Q 3.65625 12.84375 3.65625 25.484375 
Q 3.65625 38.578125 10.390625 45.796875 
Q 17.140625 53.03125 27.875 53.03125 
Q 38.28125 53.03125 44.875 45.953125 
Q 51.46875 38.875 51.46875 26.03125 
Q 51.46875 25.25 51.421875 23.6875 
L 12.75 23.6875 
Q 13.234375 15.140625 17.578125 10.59375 
Q 21.921875 6.0625 28.421875 6.0625 
Q 33.25 6.0625 36.671875 8.59375 
Q 40.09375 11.140625 42.09375 16.703125 
z
M 13.234375 30.90625 
L 42.1875 30.90625 
Q 41.609375 37.453125 38.875 40.71875 
Q 34.671875 45.796875 27.984375 45.796875 
Q 21.921875 45.796875 17.796875 41.75 
Q 13.671875 37.703125 13.234375 30.90625 
z
" id="ArialMT-101"/>
     <path d="M 40.4375 6.390625 
Q 35.546875 2.25 31.03125 0.53125 
Q 26.515625 -1.171875 21.34375 -1.171875 
Q 12.796875 -1.171875 8.203125 3 
Q 3.609375 7.171875 3.609375 13.671875 
Q 3.609375 17.484375 5.34375 20.625 
Q 7.078125 23.78125 9.890625 25.6875 
Q 12.703125 27.59375 16.21875 28.5625 
Q 18.796875 29.25 24.03125 29.890625 
Q 34.671875 31.15625 39.703125 32.90625 
Q 39.75 34.71875 39.75 35.203125 
Q 39.75 40.578125 37.25 42.78125 
Q 33.890625 45.75 27.25 45.75 
Q 21.046875 45.75 18.09375 43.578125 
Q 15.140625 41.40625 13.71875 35.890625 
L 5.125 37.0625 
Q 6.296875 42.578125 8.984375 45.96875 
Q 11.671875 49.359375 16.75 51.1875 
Q 21.828125 53.03125 28.515625 53.03125 
Q 35.15625 53.03125 39.296875 51.46875 
Q 43.453125 49.90625 45.40625 47.53125 
Q 47.359375 45.171875 48.140625 41.546875 
Q 48.578125 39.3125 48.578125 33.453125 
L 48.578125 21.734375 
Q 48.578125 9.46875 49.140625 6.21875 
Q 49.703125 2.984375 51.375 0 
L 42.1875 0 
Q 40.828125 2.734375 40.4375 6.390625 
z
M 39.703125 26.03125 
Q 34.90625 24.078125 25.34375 22.703125 
Q 19.921875 21.921875 17.671875 20.9375 
Q 15.4375 19.96875 14.203125 18.09375 
Q 12.984375 16.21875 12.984375 13.921875 
Q 12.984375 10.40625 15.640625 8.0625 
Q 18.3125 5.71875 23.4375 5.71875 
Q 28.515625 5.71875 32.46875 7.9375 
Q 36.421875 10.15625 38.28125 14.015625 
Q 39.703125 17 39.703125 22.796875 
z
" id="ArialMT-97"/>
     <path d="M 6.5 0 
L 6.5 51.859375 
L 14.40625 51.859375 
L 14.40625 44 
Q 17.4375 49.515625 20 51.265625 
Q 22.5625 53.03125 25.640625 53.03125 
Q 30.078125 53.03125 34.671875 50.203125 
L 31.640625 42.046875 
Q 28.421875 43.953125 25.203125 43.953125 
Q 22.3125 43.953125 20.015625 42.21875 
Q 17.71875 40.484375 16.75 37.40625 
Q 15.28125 32.71875 15.28125 27.15625 
L 15.28125 0 
z
" id="ArialMT-114"/>
     <path d="M 3.078125 15.484375 
L 11.765625 16.84375 
Q 12.5 11.625 15.84375 8.84375 
Q 19.1875 6.0625 25.203125 6.0625 
Q 31.25 6.0625 34.171875 8.515625 
Q 37.109375 10.984375 37.109375 14.3125 
Q 37.109375 17.28125 34.515625 19 
Q 32.71875 20.171875 25.53125 21.96875 
Q 15.875 24.421875 12.140625 26.203125 
Q 8.40625 27.984375 6.46875 31.125 
Q 4.546875 34.28125 4.546875 38.09375 
Q 4.546875 41.546875 6.125 44.5 
Q 7.71875 47.46875 10.453125 49.421875 
Q 12.5 50.921875 16.03125 51.96875 
Q 19.578125 53.03125 23.640625 53.03125 
Q 29.734375 53.03125 34.34375 51.265625 
Q 38.96875 49.515625 41.15625 46.5 
Q 43.359375 43.5 44.1875 38.484375 
L 35.59375 37.3125 
Q 35.015625 41.3125 32.203125 43.546875 
Q 29.390625 45.796875 24.265625 45.796875 
Q 18.21875 45.796875 15.625 43.796875 
Q 13.03125 41.796875 13.03125 39.109375 
Q 13.03125 37.40625 14.109375 36.03125 
Q 15.1875 34.625 17.484375 33.6875 
Q 18.796875 33.203125 25.25 31.453125 
Q 34.578125 28.953125 38.25 27.359375 
Q 41.9375 25.78125 44.03125 22.75 
Q 46.140625 19.734375 46.140625 15.234375 
Q 46.140625 10.84375 43.578125 6.953125 
Q 41.015625 3.078125 36.171875 0.953125 
Q 31.34375 -1.171875 25.25 -1.171875 
Q 15.140625 -1.171875 9.84375 3.03125 
Q 4.546875 7.234375 3.078125 15.484375 
z
" id="ArialMT-115"/>
     <path d="M 25.78125 7.859375 
L 27.046875 0.09375 
Q 23.34375 -0.6875 20.40625 -0.6875 
Q 15.625 -0.6875 12.984375 0.828125 
Q 10.359375 2.34375 9.28125 4.8125 
Q 8.203125 7.28125 8.203125 15.1875 
L 8.203125 45.015625 
L 1.765625 45.015625 
L 1.765625 51.859375 
L 8.203125 51.859375 
L 8.203125 64.703125 
L 16.9375 69.96875 
L 16.9375 51.859375 
L 25.78125 51.859375 
L 25.78125 45.015625 
L 16.9375 45.015625 
L 16.9375 14.703125 
Q 16.9375 10.9375 17.40625 9.859375 
Q 17.875 8.796875 18.921875 8.15625 
Q 19.96875 7.515625 21.921875 7.515625 
Q 23.390625 7.515625 25.78125 7.859375 
z
" id="ArialMT-116"/>
     <path d="M 6.59375 0 
L 6.59375 51.859375 
L 14.5 51.859375 
L 14.5 44.484375 
Q 20.21875 53.03125 31 53.03125 
Q 35.6875 53.03125 39.625 51.34375 
Q 43.5625 49.65625 45.515625 46.921875 
Q 47.46875 44.1875 48.25 40.4375 
Q 48.734375 37.984375 48.734375 31.890625 
L 48.734375 0 
L 39.9375 0 
L 39.9375 31.546875 
Q 39.9375 36.921875 38.90625 39.578125 
Q 37.890625 42.234375 35.28125 43.8125 
Q 32.671875 45.40625 29.15625 45.40625 
Q 23.53125 45.40625 19.453125 41.84375 
Q 15.375 38.28125 15.375 28.328125 
L 15.375 0 
z
" id="ArialMT-110"/>
     <path d="M 6.640625 61.46875 
L 6.640625 71.578125 
L 15.4375 71.578125 
L 15.4375 61.46875 
z
M 6.640625 0 
L 6.640625 51.859375 
L 15.4375 51.859375 
L 15.4375 0 
z
" id="ArialMT-105"/>
     <path d="M 4.984375 -4.296875 
L 13.53125 -5.5625 
Q 14.0625 -9.515625 16.5 -11.328125 
Q 19.78125 -13.765625 25.4375 -13.765625 
Q 31.546875 -13.765625 34.859375 -11.328125 
Q 38.1875 -8.890625 39.359375 -4.5 
Q 40.046875 -1.8125 39.984375 6.78125 
Q 34.234375 0 25.640625 0 
Q 14.9375 0 9.078125 7.71875 
Q 3.21875 15.4375 3.21875 26.21875 
Q 3.21875 33.640625 5.90625 39.90625 
Q 8.59375 46.1875 13.6875 49.609375 
Q 18.796875 53.03125 25.6875 53.03125 
Q 34.859375 53.03125 40.828125 45.609375 
L 40.828125 51.859375 
L 48.921875 51.859375 
L 48.921875 7.03125 
Q 48.921875 -5.078125 46.453125 -10.125 
Q 44 -15.1875 38.640625 -18.109375 
Q 33.296875 -21.046875 25.484375 -21.046875 
Q 16.21875 -21.046875 10.5 -16.875 
Q 4.78125 -12.703125 4.984375 -4.296875 
z
M 12.25 26.859375 
Q 12.25 16.65625 16.296875 11.96875 
Q 20.359375 7.28125 26.46875 7.28125 
Q 32.515625 7.28125 36.609375 11.9375 
Q 40.71875 16.609375 40.71875 26.5625 
Q 40.71875 36.078125 36.5 40.90625 
Q 32.28125 45.75 26.3125 45.75 
Q 20.453125 45.75 16.34375 40.984375 
Q 12.25 36.234375 12.25 26.859375 
z
" id="ArialMT-103"/>
     <path d="M 6.59375 0 
L 6.59375 71.578125 
L 15.375 71.578125 
L 15.375 45.90625 
Q 21.53125 53.03125 30.90625 53.03125 
Q 36.671875 53.03125 40.921875 50.75 
Q 45.171875 48.484375 47 44.484375 
Q 48.828125 40.484375 48.828125 32.859375 
L 48.828125 0 
L 40.046875 0 
L 40.046875 32.859375 
Q 40.046875 39.453125 37.1875 42.453125 
Q 34.328125 45.453125 29.109375 45.453125 
Q 25.203125 45.453125 21.75 43.421875 
Q 18.3125 41.40625 16.84375 37.9375 
Q 15.375 34.46875 15.375 28.375 
L 15.375 0 
z
" id="ArialMT-104"/>
     <path d="M 14.703125 0 
L 6.546875 0 
L 6.546875 71.578125 
L 15.328125 71.578125 
L 15.328125 46.046875 
Q 20.90625 53.03125 29.546875 53.03125 
Q 34.328125 53.03125 38.59375 51.09375 
Q 42.875 49.171875 45.625 45.671875 
Q 48.390625 42.1875 49.953125 37.25 
Q 51.515625 32.328125 51.515625 26.703125 
Q 51.515625 13.375 44.921875 6.09375 
Q 38.328125 -1.171875 29.109375 -1.171875 
Q 19.921875 -1.171875 14.703125 6.5 
z
M 14.59375 26.3125 
Q 14.59375 17 17.140625 12.84375 
Q 21.296875 6.0625 28.375 6.0625 
Q 34.125 6.0625 38.328125 11.0625 
Q 42.53125 16.0625 42.53125 25.984375 
Q 42.53125 36.140625 38.5 40.96875 
Q 34.46875 45.796875 28.765625 45.796875 
Q 23 45.796875 18.796875 40.796875 
Q 14.59375 35.796875 14.59375 26.3125 
z
" id="ArialMT-98"/>
     <path d="M 3.328125 25.921875 
Q 3.328125 40.328125 11.328125 47.265625 
Q 18.015625 53.03125 27.640625 53.03125 
Q 38.328125 53.03125 45.109375 46.015625 
Q 51.90625 39.015625 51.90625 26.65625 
Q 51.90625 16.65625 48.90625 10.90625 
Q 45.90625 5.171875 40.15625 2 
Q 34.421875 -1.171875 27.640625 -1.171875 
Q 16.75 -1.171875 10.03125 5.8125 
Q 3.328125 12.796875 3.328125 25.921875 
z
M 12.359375 25.921875 
Q 12.359375 15.96875 16.703125 11.015625 
Q 21.046875 6.0625 27.640625 6.0625 
Q 34.1875 6.0625 38.53125 11.03125 
Q 42.875 16.015625 42.875 26.21875 
Q 42.875 35.84375 38.5 40.796875 
Q 34.125 45.75 27.640625 45.75 
Q 21.046875 45.75 16.703125 40.8125 
Q 12.359375 35.890625 12.359375 25.921875 
z
" id="ArialMT-111"/>
     <path d="M 40.4375 19 
L 49.078125 17.875 
Q 47.65625 8.9375 41.8125 3.875 
Q 35.984375 -1.171875 27.484375 -1.171875 
Q 16.84375 -1.171875 10.375 5.78125 
Q 3.90625 12.75 3.90625 25.734375 
Q 3.90625 34.125 6.6875 40.421875 
Q 9.46875 46.734375 15.15625 49.875 
Q 20.84375 53.03125 27.546875 53.03125 
Q 35.984375 53.03125 41.359375 48.75 
Q 46.734375 44.484375 48.25 36.625 
L 39.703125 35.296875 
Q 38.484375 40.53125 35.375 43.15625 
Q 32.28125 45.796875 27.875 45.796875 
Q 21.234375 45.796875 17.078125 41.03125 
Q 12.9375 36.28125 12.9375 25.984375 
Q 12.9375 15.53125 16.9375 10.796875 
Q 20.953125 6.0625 27.390625 6.0625 
Q 32.5625 6.0625 36.03125 9.234375 
Q 39.5 12.40625 40.4375 19 
z
" id="ArialMT-99"/>
     <path d="M 6.390625 0 
L 6.390625 71.578125 
L 15.1875 71.578125 
L 15.1875 0 
z
" id="ArialMT-108"/>
    </defs>
    <g transform="translate(176.507857 17.315865)scale(0.2 -0.2)">
     <use xlink:href="#ArialMT-78"/>
     <use x="72.216797" xlink:href="#ArialMT-101"/>
     <use x="127.832031" xlink:href="#ArialMT-97"/>
     <use x="183.447266" xlink:href="#ArialMT-114"/>
     <use x="216.748047" xlink:href="#ArialMT-101"/>
     <use x="272.363281" xlink:href="#ArialMT-115"/>
     <use x="322.363281" xlink:href="#ArialMT-116"/>
     <use x="350.146484" xlink:href="#ArialMT-32"/>
     <use x="377.929688" xlink:href="#ArialMT-110"/>
     <use x="433.544922" xlink:href="#ArialMT-101"/>
     <use x="489.160156" xlink:href="#ArialMT-105"/>
     <use x="511.376953" xlink:href="#ArialMT-103"/>
     <use x="566.992188" xlink:href="#ArialMT-104"/>
     <use x="622.607422" xlink:href="#ArialMT-98"/>
     <use x="678.222656" xlink:href="#ArialMT-111"/>
     <use x="733.837891" xlink:href="#ArialMT-114"/>
     <use x="767.138672" xlink:href="#ArialMT-32"/>
     <use x="794.921875" xlink:href="#ArialMT-99"/>
     <use x="844.921875" xlink:href="#ArialMT-101"/>
     <use x="900.537109" xlink:href="#ArialMT-108"/>
     <use x="922.753906" xlink:href="#ArialMT-108"/>
     <use x="944.970703" xlink:href="#ArialMT-32"/>
     <use x="972.753906" xlink:href="#ArialMT-108"/>
     <use x="994.970703" xlink:href="#ArialMT-105"/>
     <use x="1017.1875" xlink:href="#ArialMT-110"/>
     <use x="1072.802734" xlink:href="#ArialMT-101"/>
     <use x="1128.417969" xlink:href="#ArialMT-115"/>
     <use x="1178.417969" xlink:href="#ArialMT-32"/>
     <use x="1206.201172" xlink:href="#ArialMT-116"/>
     <use x="1233.984375" xlink:href="#ArialMT-111"/>
    </g>
    <!-- mCRPC profiles (n=150) -->
    <defs>
     <path d="M 6.59375 0 
L 6.59375 51.859375 
L 14.453125 51.859375 
L 14.453125 44.578125 
Q 16.890625 48.390625 20.9375 50.703125 
Q 25 53.03125 30.171875 53.03125 
Q 35.9375 53.03125 39.625 50.640625 
Q 43.3125 48.25 44.828125 43.953125 
Q 50.984375 53.03125 60.84375 53.03125 
Q 68.5625 53.03125 72.703125 48.75 
Q 76.859375 44.484375 76.859375 35.59375 
L 76.859375 0 
L 68.109375 0 
L 68.109375 32.671875 
Q 68.109375 37.9375 67.25 40.25 
Q 66.40625 42.578125 64.15625 43.984375 
Q 61.921875 45.40625 58.890625 45.40625 
Q 53.421875 45.40625 49.796875 41.765625 
Q 46.1875 38.140625 46.1875 30.125 
L 46.1875 0 
L 37.40625 0 
L 37.40625 33.6875 
Q 37.40625 39.546875 35.25 42.46875 
Q 33.109375 45.40625 28.21875 45.40625 
Q 24.515625 45.40625 21.359375 43.453125 
Q 18.21875 41.5 16.796875 37.734375 
Q 15.375 33.984375 15.375 26.90625 
L 15.375 0 
z
" id="ArialMT-109"/>
     <path d="M 6.59375 -19.875 
L 6.59375 51.859375 
L 14.59375 51.859375 
L 14.59375 45.125 
Q 17.4375 49.078125 21 51.046875 
Q 24.5625 53.03125 29.640625 53.03125 
Q 36.28125 53.03125 41.359375 49.609375 
Q 46.4375 46.1875 49.015625 39.953125 
Q 51.609375 33.734375 51.609375 26.3125 
Q 51.609375 18.359375 48.75 11.984375 
Q 45.90625 5.609375 40.453125 2.21875 
Q 35.015625 -1.171875 29 -1.171875 
Q 24.609375 -1.171875 21.109375 0.6875 
Q 17.625 2.546875 15.375 5.375 
L 15.375 -19.875 
z
M 14.546875 25.640625 
Q 14.546875 15.625 18.59375 10.84375 
Q 22.65625 6.0625 28.421875 6.0625 
Q 34.28125 6.0625 38.453125 11.015625 
Q 42.625 15.96875 42.625 26.375 
Q 42.625 36.28125 38.546875 41.203125 
Q 34.46875 46.140625 28.8125 46.140625 
Q 23.1875 46.140625 18.859375 40.890625 
Q 14.546875 35.640625 14.546875 25.640625 
z
" id="ArialMT-112"/>
     <path d="M 8.6875 0 
L 8.6875 45.015625 
L 0.921875 45.015625 
L 0.921875 51.859375 
L 8.6875 51.859375 
L 8.6875 57.375 
Q 8.6875 62.59375 9.625 65.140625 
Q 10.890625 68.5625 14.078125 70.671875 
Q 17.28125 72.796875 23.046875 72.796875 
Q 26.765625 72.796875 31.25 71.921875 
L 29.9375 64.265625 
Q 27.203125 64.75 24.75 64.75 
Q 20.75 64.75 19.09375 63.03125 
Q 17.4375 61.328125 17.4375 56.640625 
L 17.4375 51.859375 
L 27.546875 51.859375 
L 27.546875 45.015625 
L 17.4375 45.015625 
L 17.4375 0 
z
" id="ArialMT-102"/>
     <path d="M 52.828125 42.09375 
L 5.5625 42.09375 
L 5.5625 50.296875 
L 52.828125 50.296875 
z
M 52.828125 20.359375 
L 5.5625 20.359375 
L 5.5625 28.5625 
L 52.828125 28.5625 
z
" id="ArialMT-61"/>
    </defs>
    <g transform="translate(196.259419 38.99649)scale(0.2 -0.2)">
     <use xlink:href="#ArialMT-109"/>
     <use x="83.300781" xlink:href="#ArialMT-67"/>
     <use x="155.517578" xlink:href="#ArialMT-82"/>
     <use x="227.734375" xlink:href="#ArialMT-80"/>
     <use x="294.433594" xlink:href="#ArialMT-67"/>
     <use x="366.650391" xlink:href="#ArialMT-32"/>
     <use x="394.433594" xlink:href="#ArialMT-112"/>
     <use x="450.048828" xlink:href="#ArialMT-114"/>
     <use x="483.349609" xlink:href="#ArialMT-111"/>
     <use x="538.964844" xlink:href="#ArialMT-102"/>
     <use x="566.748047" xlink:href="#ArialMT-105"/>
     <use x="588.964844" xlink:href="#ArialMT-108"/>
     <use x="611.181641" xlink:href="#ArialMT-101"/>
     <use x="666.796875" xlink:href="#ArialMT-115"/>
     <use x="716.796875" xlink:href="#ArialMT-32"/>
     <use x="744.580078" xlink:href="#ArialMT-40"/>
     <use x="777.880859" xlink:href="#ArialMT-110"/>
     <use x="833.496094" xlink:href="#ArialMT-61"/>
     <use x="891.894531" xlink:href="#ArialMT-49"/>
     <use x="947.509766" xlink:href="#ArialMT-53"/>
     <use x="1003.125" xlink:href="#ArialMT-48"/>
     <use x="1058.740234" xlink:href="#ArialMT-41"/>
    </g>
   </g>
  </g>
 </g>
 <defs>
  <clipPath id="pa4b1d8b06a">
   <rect height="285.45036" width="456.080682" x="77.419078" y="44.94774"/>
  </clipPath>
 </defs>
</svg>
