<?xml version="1.0" encoding="utf-8" standalone="no"?>
<!DOCTYPE svg PUBLIC "-//W3C//DTD SVG 1.1//EN"
  "http://www.w3.org/Graphics/SVG/1.1/DTD/svg11.dtd">
<!-- Created with matplotlib (https://matplotlib.org/) -->
<svg height="540pt" version="1.1" viewBox="0 0 540 540" width="540pt" xmlns="http://www.w3.org/2000/svg" xmlns:xlink="http://www.w3.org/1999/xlink">
 <defs>
  <style type="text/css">
*{stroke-linecap:butt;stroke-linejoin:round;}
  </style>
 </defs>
 <g id="figure_1">
  <g id="patch_1">
   <path d="M 0 540 
L 540 540 
L 540 0 
L 0 0 
z
" style="fill:#ffffff;"/>
  </g>
  <g id="axes_1">
   <g id="patch_2">
    <path d="M 73.708053 496.28476 
L 491.858532 496.28476 
L 491.858532 22.103678 
L 73.708053 22.103678 
z
" style="fill:#ffffff;"/>
   </g>
   <g id="PathCollection_1">
    <defs>
     <path d="M 0 4.330127 
C 1.148363 4.330127 2.249847 3.873878 3.061862 3.061862 
C 3.873878 2.249847 4.330127 1.148363 4.330127 0 
C 4.330127 -1.148363 3.873878 -2.249847 3.061862 -3.061862 
C 2.249847 -3.873878 1.148363 -4.330127 0 -4.330127 
C -1.148363 -4.330127 -2.249847 -3.873878 -3.061862 -3.061862 
C -3.873878 -2.249847 -4.330127 -1.148363 -4.330127 0 
C -4.330127 1.148363 -3.873878 2.249847 -3.061862 3.061862 
C -2.249847 3.873878 -1.148363 4.330127 0 4.330127 
z
" id="ma8ff0ce21e" style="stroke:#bab0ac;stroke-opacity:0.75;"/>
    </defs>
    <g clip-path="url(#p3f1f530d93)">
     <use style="fill:#bab0ac;fill-opacity:0.75;stroke:#bab0ac;stroke-opacity:0.75;" x="302.908182" xlink:href="#ma8ff0ce21e" y="257.091817"/>
     <use style="fill:#bab0ac;fill-opacity:0.75;stroke:#bab0ac;stroke-opacity:0.75;" x="369.201058" xlink:href="#ma8ff0ce21e" y="219.825248"/>
     <use style="fill:#bab0ac;fill-opacity:0.75;stroke:#bab0ac;stroke-opacity:0.75;" x="196.008332" xlink:href="#ma8ff0ce21e" y="452.673922"/>
     <use style="fill:#bab0ac;fill-opacity:0.75;stroke:#bab0ac;stroke-opacity:0.75;" x="297.917425" xlink:href="#ma8ff0ce21e" y="250.091824"/>
     <use style="fill:#bab0ac;fill-opacity:0.75;stroke:#bab0ac;stroke-opacity:0.75;" x="300.095255" xlink:href="#ma8ff0ce21e" y="400.157027"/>
     <use style="fill:#bab0ac;fill-opacity:0.75;stroke:#bab0ac;stroke-opacity:0.75;" x="323.764818" xlink:href="#ma8ff0ce21e" y="341.587466"/>
     <use style="fill:#bab0ac;fill-opacity:0.75;stroke:#bab0ac;stroke-opacity:0.75;" x="329.99383" xlink:href="#ma8ff0ce21e" y="372.080997"/>
     <use style="fill:#bab0ac;fill-opacity:0.75;stroke:#bab0ac;stroke-opacity:0.75;" x="314.948714" xlink:href="#ma8ff0ce21e" y="443.298467"/>
     <use style="fill:#bab0ac;fill-opacity:0.75;stroke:#bab0ac;stroke-opacity:0.75;" x="439.728366" xlink:href="#ma8ff0ce21e" y="40.838215"/>
     <use style="fill:#bab0ac;fill-opacity:0.75;stroke:#bab0ac;stroke-opacity:0.75;" x="404.743849" xlink:href="#ma8ff0ce21e" y="376.945546"/>
     <use style="fill:#bab0ac;fill-opacity:0.75;stroke:#bab0ac;stroke-opacity:0.75;" x="411.999554" xlink:href="#ma8ff0ce21e" y="168.184538"/>
     <use style="fill:#bab0ac;fill-opacity:0.75;stroke:#bab0ac;stroke-opacity:0.75;" x="395.362267" xlink:href="#ma8ff0ce21e" y="104.192784"/>
     <use style="fill:#bab0ac;fill-opacity:0.75;stroke:#bab0ac;stroke-opacity:0.75;" x="473.00294" xlink:href="#ma8ff0ce21e" y="76.738724"/>
     <use style="fill:#bab0ac;fill-opacity:0.75;stroke:#bab0ac;stroke-opacity:0.75;" x="395.362267" xlink:href="#ma8ff0ce21e" y="191.689277"/>
     <use style="fill:#bab0ac;fill-opacity:0.75;stroke:#bab0ac;stroke-opacity:0.75;" x="323.267357" xlink:href="#ma8ff0ce21e" y="77.141168"/>
     <use style="fill:#bab0ac;fill-opacity:0.75;stroke:#bab0ac;stroke-opacity:0.75;" x="273.355496" xlink:href="#ma8ff0ce21e" y="485.768802"/>
    </g>
   </g>
   <g id="PathCollection_2">
    <defs>
     <path d="M 0 4.330127 
C 1.148363 4.330127 2.249847 3.873878 3.061862 3.061862 
C 3.873878 2.249847 4.330127 1.148363 4.330127 0 
C 4.330127 -1.148363 3.873878 -2.249847 3.061862 -3.061862 
C 2.249847 -3.873878 1.148363 -4.330127 0 -4.330127 
C -1.148363 -4.330127 -2.249847 -3.873878 -3.061862 -3.061862 
C -3.873878 -2.249847 -4.330127 -1.148363 -4.330127 0 
C -4.330127 1.148363 -3.873878 2.249847 -3.061862 3.061862 
C -2.249847 3.873878 -1.148363 4.330127 0 4.330127 
z
" id="m1f79d46441" style="stroke:#a70c36;"/>
    </defs>
    <g clip-path="url(#p3f1f530d93)">
     <use style="fill:#a70c36;stroke:#a70c36;" x="473.00294" xlink:href="#m1f79d46441" y="76.738724"/>
    </g>
   </g>
   <g id="matplotlib.axis_1">
    <g id="xtick_1">
     <g id="line2d_1">
      <path clip-path="url(#p3f1f530d93)" d="M 73.708053 496.28476 
L 73.708053 22.103678 
" style="fill:none;stroke:#b0b0b0;stroke-dasharray:2.96,1.28;stroke-dashoffset:0;stroke-opacity:0.5;stroke-width:0.8;"/>
     </g>
     <g id="line2d_2">
      <defs>
       <path d="M 0 0 
L 0 3.5 
" id="m81cc85503d" style="stroke:#000000;stroke-width:0.8;"/>
      </defs>
      <g>
       <use style="stroke:#000000;stroke-width:0.8;" x="73.708053" xlink:href="#m81cc85503d" y="496.28476"/>
      </g>
     </g>
     <g id="text_1">
      <!-- 0.000 -->
      <defs>
       <path d="M 4.15625 35.296875 
Q 4.15625 48 6.765625 55.734375 
Q 9.375 63.484375 14.515625 67.671875 
Q 19.671875 71.875 27.484375 71.875 
Q 33.25 71.875 37.59375 69.546875 
Q 41.9375 67.234375 44.765625 62.859375 
Q 47.609375 58.5 49.21875 52.21875 
Q 50.828125 45.953125 50.828125 35.296875 
Q 50.828125 22.703125 48.234375 14.96875 
Q 45.65625 7.234375 40.5 3 
Q 35.359375 -1.21875 27.484375 -1.21875 
Q 17.140625 -1.21875 11.234375 6.203125 
Q 4.15625 15.140625 4.15625 35.296875 
z
M 13.1875 35.296875 
Q 13.1875 17.671875 17.3125 11.828125 
Q 21.4375 6 27.484375 6 
Q 33.546875 6 37.671875 11.859375 
Q 41.796875 17.71875 41.796875 35.296875 
Q 41.796875 52.984375 37.671875 58.78125 
Q 33.546875 64.59375 27.390625 64.59375 
Q 21.34375 64.59375 17.71875 59.46875 
Q 13.1875 52.9375 13.1875 35.296875 
z
" id="ArialMT-48"/>
       <path d="M 9.078125 0 
L 9.078125 10.015625 
L 19.09375 10.015625 
L 19.09375 0 
z
" id="ArialMT-46"/>
      </defs>
      <g transform="translate(56.19274 513.305697)scale(0.14 -0.14)">
       <use xlink:href="#ArialMT-48"/>
       <use x="55.615234" xlink:href="#ArialMT-46"/>
       <use x="83.398438" xlink:href="#ArialMT-48"/>
       <use x="139.013672" xlink:href="#ArialMT-48"/>
       <use x="194.628906" xlink:href="#ArialMT-48"/>
      </g>
     </g>
    </g>
    <g id="xtick_2">
     <g id="line2d_3">
      <path clip-path="url(#p3f1f530d93)" d="M 125.976862 496.28476 
L 125.976862 22.103678 
" style="fill:none;stroke:#b0b0b0;stroke-dasharray:2.96,1.28;stroke-dashoffset:0;stroke-opacity:0.5;stroke-width:0.8;"/>
     </g>
     <g id="line2d_4">
      <g>
       <use style="stroke:#000000;stroke-width:0.8;" x="125.976862" xlink:href="#m81cc85503d" y="496.28476"/>
      </g>
     </g>
     <g id="text_2">
      <!-- 0.025 -->
      <defs>
       <path d="M 50.34375 8.453125 
L 50.34375 0 
L 3.03125 0 
Q 2.9375 3.171875 4.046875 6.109375 
Q 5.859375 10.9375 9.828125 15.625 
Q 13.8125 20.3125 21.34375 26.46875 
Q 33.015625 36.03125 37.109375 41.625 
Q 41.21875 47.21875 41.21875 52.203125 
Q 41.21875 57.421875 37.46875 61 
Q 33.734375 64.59375 27.734375 64.59375 
Q 21.390625 64.59375 17.578125 60.78125 
Q 13.765625 56.984375 13.71875 50.25 
L 4.6875 51.171875 
Q 5.609375 61.28125 11.65625 66.578125 
Q 17.71875 71.875 27.9375 71.875 
Q 38.234375 71.875 44.234375 66.15625 
Q 50.25 60.453125 50.25 52 
Q 50.25 47.703125 48.484375 43.546875 
Q 46.734375 39.40625 42.65625 34.8125 
Q 38.578125 30.21875 29.109375 22.21875 
Q 21.1875 15.578125 18.9375 13.203125 
Q 16.703125 10.84375 15.234375 8.453125 
z
" id="ArialMT-50"/>
       <path d="M 4.15625 18.75 
L 13.375 19.53125 
Q 14.40625 12.796875 18.140625 9.390625 
Q 21.875 6 27.15625 6 
Q 33.5 6 37.890625 10.78125 
Q 42.28125 15.578125 42.28125 23.484375 
Q 42.28125 31 38.0625 35.34375 
Q 33.84375 39.703125 27 39.703125 
Q 22.75 39.703125 19.328125 37.765625 
Q 15.921875 35.84375 13.96875 32.765625 
L 5.71875 33.84375 
L 12.640625 70.609375 
L 48.25 70.609375 
L 48.25 62.203125 
L 19.671875 62.203125 
L 15.828125 42.96875 
Q 22.265625 47.46875 29.34375 47.46875 
Q 38.71875 47.46875 45.15625 40.96875 
Q 51.609375 34.46875 51.609375 24.265625 
Q 51.609375 14.546875 45.953125 7.46875 
Q 39.0625 -1.21875 27.15625 -1.21875 
Q 17.390625 -1.21875 11.203125 4.25 
Q 5.03125 9.71875 4.15625 18.75 
z
" id="ArialMT-53"/>
      </defs>
      <g transform="translate(108.46155 513.305697)scale(0.14 -0.14)">
       <use xlink:href="#ArialMT-48"/>
       <use x="55.615234" xlink:href="#ArialMT-46"/>
       <use x="83.398438" xlink:href="#ArialMT-48"/>
       <use x="139.013672" xlink:href="#ArialMT-50"/>
       <use x="194.628906" xlink:href="#ArialMT-53"/>
      </g>
     </g>
    </g>
    <g id="xtick_3">
     <g id="line2d_5">
      <path clip-path="url(#p3f1f530d93)" d="M 178.245672 496.28476 
L 178.245672 22.103678 
" style="fill:none;stroke:#b0b0b0;stroke-dasharray:2.96,1.28;stroke-dashoffset:0;stroke-opacity:0.5;stroke-width:0.8;"/>
     </g>
     <g id="line2d_6">
      <g>
       <use style="stroke:#000000;stroke-width:0.8;" x="178.245672" xlink:href="#m81cc85503d" y="496.28476"/>
      </g>
     </g>
     <g id="text_3">
      <!-- 0.050 -->
      <g transform="translate(160.73036 513.305697)scale(0.14 -0.14)">
       <use xlink:href="#ArialMT-48"/>
       <use x="55.615234" xlink:href="#ArialMT-46"/>
       <use x="83.398438" xlink:href="#ArialMT-48"/>
       <use x="139.013672" xlink:href="#ArialMT-53"/>
       <use x="194.628906" xlink:href="#ArialMT-48"/>
      </g>
     </g>
    </g>
    <g id="xtick_4">
     <g id="line2d_7">
      <path clip-path="url(#p3f1f530d93)" d="M 230.514482 496.28476 
L 230.514482 22.103678 
" style="fill:none;stroke:#b0b0b0;stroke-dasharray:2.96,1.28;stroke-dashoffset:0;stroke-opacity:0.5;stroke-width:0.8;"/>
     </g>
     <g id="line2d_8">
      <g>
       <use style="stroke:#000000;stroke-width:0.8;" x="230.514482" xlink:href="#m81cc85503d" y="496.28476"/>
      </g>
     </g>
     <g id="text_4">
      <!-- 0.075 -->
      <defs>
       <path d="M 4.734375 62.203125 
L 4.734375 70.65625 
L 51.078125 70.65625 
L 51.078125 63.8125 
Q 44.234375 56.546875 37.515625 44.484375 
Q 30.8125 32.421875 27.15625 19.671875 
Q 24.515625 10.6875 23.78125 0 
L 14.75 0 
Q 14.890625 8.453125 18.0625 20.40625 
Q 21.234375 32.375 27.171875 43.484375 
Q 33.109375 54.59375 39.796875 62.203125 
z
" id="ArialMT-55"/>
      </defs>
      <g transform="translate(212.99917 513.305697)scale(0.14 -0.14)">
       <use xlink:href="#ArialMT-48"/>
       <use x="55.615234" xlink:href="#ArialMT-46"/>
       <use x="83.398438" xlink:href="#ArialMT-48"/>
       <use x="139.013672" xlink:href="#ArialMT-55"/>
       <use x="194.628906" xlink:href="#ArialMT-53"/>
      </g>
     </g>
    </g>
    <g id="xtick_5">
     <g id="line2d_9">
      <path clip-path="url(#p3f1f530d93)" d="M 282.783292 496.28476 
L 282.783292 22.103678 
" style="fill:none;stroke:#b0b0b0;stroke-dasharray:2.96,1.28;stroke-dashoffset:0;stroke-opacity:0.5;stroke-width:0.8;"/>
     </g>
     <g id="line2d_10">
      <g>
       <use style="stroke:#000000;stroke-width:0.8;" x="282.783292" xlink:href="#m81cc85503d" y="496.28476"/>
      </g>
     </g>
     <g id="text_5">
      <!-- 0.100 -->
      <defs>
       <path d="M 37.25 0 
L 28.46875 0 
L 28.46875 56 
Q 25.296875 52.984375 20.140625 49.953125 
Q 14.984375 46.921875 10.890625 45.40625 
L 10.890625 53.90625 
Q 18.265625 57.375 23.78125 62.296875 
Q 29.296875 67.234375 31.59375 71.875 
L 37.25 71.875 
z
" id="ArialMT-49"/>
      </defs>
      <g transform="translate(265.26798 513.305697)scale(0.14 -0.14)">
       <use xlink:href="#ArialMT-48"/>
       <use x="55.615234" xlink:href="#ArialMT-46"/>
       <use x="83.398438" xlink:href="#ArialMT-49"/>
       <use x="139.013672" xlink:href="#ArialMT-48"/>
       <use x="194.628906" xlink:href="#ArialMT-48"/>
      </g>
     </g>
    </g>
    <g id="xtick_6">
     <g id="line2d_11">
      <path clip-path="url(#p3f1f530d93)" d="M 335.052102 496.28476 
L 335.052102 22.103678 
" style="fill:none;stroke:#b0b0b0;stroke-dasharray:2.96,1.28;stroke-dashoffset:0;stroke-opacity:0.5;stroke-width:0.8;"/>
     </g>
     <g id="line2d_12">
      <g>
       <use style="stroke:#000000;stroke-width:0.8;" x="335.052102" xlink:href="#m81cc85503d" y="496.28476"/>
      </g>
     </g>
     <g id="text_6">
      <!-- 0.125 -->
      <g transform="translate(317.53679 513.305697)scale(0.14 -0.14)">
       <use xlink:href="#ArialMT-48"/>
       <use x="55.615234" xlink:href="#ArialMT-46"/>
       <use x="83.398438" xlink:href="#ArialMT-49"/>
       <use x="139.013672" xlink:href="#ArialMT-50"/>
       <use x="194.628906" xlink:href="#ArialMT-53"/>
      </g>
     </g>
    </g>
    <g id="xtick_7">
     <g id="line2d_13">
      <path clip-path="url(#p3f1f530d93)" d="M 387.320912 496.28476 
L 387.320912 22.103678 
" style="fill:none;stroke:#b0b0b0;stroke-dasharray:2.96,1.28;stroke-dashoffset:0;stroke-opacity:0.5;stroke-width:0.8;"/>
     </g>
     <g id="line2d_14">
      <g>
       <use style="stroke:#000000;stroke-width:0.8;" x="387.320912" xlink:href="#m81cc85503d" y="496.28476"/>
      </g>
     </g>
     <g id="text_7">
      <!-- 0.150 -->
      <g transform="translate(369.8056 513.305697)scale(0.14 -0.14)">
       <use xlink:href="#ArialMT-48"/>
       <use x="55.615234" xlink:href="#ArialMT-46"/>
       <use x="83.398438" xlink:href="#ArialMT-49"/>
       <use x="139.013672" xlink:href="#ArialMT-53"/>
       <use x="194.628906" xlink:href="#ArialMT-48"/>
      </g>
     </g>
    </g>
    <g id="xtick_8">
     <g id="line2d_15">
      <path clip-path="url(#p3f1f530d93)" d="M 439.589722 496.28476 
L 439.589722 22.103678 
" style="fill:none;stroke:#b0b0b0;stroke-dasharray:2.96,1.28;stroke-dashoffset:0;stroke-opacity:0.5;stroke-width:0.8;"/>
     </g>
     <g id="line2d_16">
      <g>
       <use style="stroke:#000000;stroke-width:0.8;" x="439.589722" xlink:href="#m81cc85503d" y="496.28476"/>
      </g>
     </g>
     <g id="text_8">
      <!-- 0.175 -->
      <g transform="translate(422.07441 513.305697)scale(0.14 -0.14)">
       <use xlink:href="#ArialMT-48"/>
       <use x="55.615234" xlink:href="#ArialMT-46"/>
       <use x="83.398438" xlink:href="#ArialMT-49"/>
       <use x="139.013672" xlink:href="#ArialMT-55"/>
       <use x="194.628906" xlink:href="#ArialMT-53"/>
      </g>
     </g>
    </g>
    <g id="xtick_9">
     <g id="line2d_17">
      <path clip-path="url(#p3f1f530d93)" d="M 491.858532 496.28476 
L 491.858532 22.103678 
" style="fill:none;stroke:#b0b0b0;stroke-dasharray:2.96,1.28;stroke-dashoffset:0;stroke-opacity:0.5;stroke-width:0.8;"/>
     </g>
     <g id="line2d_18">
      <g>
       <use style="stroke:#000000;stroke-width:0.8;" x="491.858532" xlink:href="#m81cc85503d" y="496.28476"/>
      </g>
     </g>
     <g id="text_9">
      <!-- 0.200 -->
      <g transform="translate(474.343219 513.305697)scale(0.14 -0.14)">
       <use xlink:href="#ArialMT-48"/>
       <use x="55.615234" xlink:href="#ArialMT-46"/>
       <use x="83.398438" xlink:href="#ArialMT-50"/>
       <use x="139.013672" xlink:href="#ArialMT-48"/>
       <use x="194.628906" xlink:href="#ArialMT-48"/>
      </g>
     </g>
    </g>
    <g id="text_10">
     <!-- Nearest neighbor average precision (AP@1) -->
     <defs>
      <path d="M 7.625 0 
L 7.625 71.578125 
L 17.328125 71.578125 
L 54.9375 15.375 
L 54.9375 71.578125 
L 64.015625 71.578125 
L 64.015625 0 
L 54.296875 0 
L 16.703125 56.25 
L 16.703125 0 
z
" id="ArialMT-78"/>
      <path d="M 42.09375 16.703125 
L 51.171875 15.578125 
Q 49.03125 7.625 43.21875 3.21875 
Q 37.40625 -1.171875 28.375 -1.171875 
Q 17 -1.171875 10.328125 5.828125 
Q 3.65625 12.84375 3.65625 25.484375 
Q 3.65625 38.578125 10.390625 45.796875 
Q 17.140625 53.03125 27.875 53.03125 
Q 38.28125 53.03125 44.875 45.953125 
Q 51.46875 38.875 51.46875 26.03125 
Q 51.46875 25.25 51.421875 23.6875 
L 12.75 23.6875 
Q 13.234375 15.140625 17.578125 10.59375 
Q 21.921875 6.0625 28.421875 6.0625 
Q 33.25 6.0625 36.671875 8.59375 
Q 40.09375 11.140625 42.09375 16.703125 
z
M 13.234375 30.90625 
L 42.1875 30.90625 
Q 41.609375 37.453125 38.875 40.71875 
Q 34.671875 45.796875 27.984375 45.796875 
Q 21.921875 45.796875 17.796875 41.75 
Q 13.671875 37.703125 13.234375 30.90625 
z
" id="ArialMT-101"/>
      <path d="M 40.4375 6.390625 
Q 35.546875 2.25 31.03125 0.53125 
Q 26.515625 -1.171875 21.34375 -1.171875 
Q 12.796875 -1.171875 8.203125 3 
Q 3.609375 7.171875 3.609375 13.671875 
Q 3.609375 17.484375 5.34375 20.625 
Q 7.078125 23.78125 9.890625 25.6875 
Q 12.703125 27.59375 16.21875 28.5625 
Q 18.796875 29.25 24.03125 29.890625 
Q 34.671875 31.15625 39.703125 32.90625 
Q 39.75 34.71875 39.75 35.203125 
Q 39.75 40.578125 37.25 42.78125 
Q 33.890625 45.75 27.25 45.75 
Q 21.046875 45.75 18.09375 43.578125 
Q 15.140625 41.40625 13.71875 35.890625 
L 5.125 37.0625 
Q 6.296875 42.578125 8.984375 45.96875 
Q 11.671875 49.359375 16.75 51.1875 
Q 21.828125 53.03125 28.515625 53.03125 
Q 35.15625 53.03125 39.296875 51.46875 
Q 43.453125 49.90625 45.40625 47.53125 
Q 47.359375 45.171875 48.140625 41.546875 
Q 48.578125 39.3125 48.578125 33.453125 
L 48.578125 21.734375 
Q 48.578125 9.46875 49.140625 6.21875 
Q 49.703125 2.984375 51.375 0 
L 42.1875 0 
Q 40.828125 2.734375 40.4375 6.390625 
z
M 39.703125 26.03125 
Q 34.90625 24.078125 25.34375 22.703125 
Q 19.921875 21.921875 17.671875 20.9375 
Q 15.4375 19.96875 14.203125 18.09375 
Q 12.984375 16.21875 12.984375 13.921875 
Q 12.984375 10.40625 15.640625 8.0625 
Q 18.3125 5.71875 23.4375 5.71875 
Q 28.515625 5.71875 32.46875 7.9375 
Q 36.421875 10.15625 38.28125 14.015625 
Q 39.703125 17 39.703125 22.796875 
z
" id="ArialMT-97"/>
      <path d="M 6.5 0 
L 6.5 51.859375 
L 14.40625 51.859375 
L 14.40625 44 
Q 17.4375 49.515625 20 51.265625 
Q 22.5625 53.03125 25.640625 53.03125 
Q 30.078125 53.03125 34.671875 50.203125 
L 31.640625 42.046875 
Q 28.421875 43.953125 25.203125 43.953125 
Q 22.3125 43.953125 20.015625 42.21875 
Q 17.71875 40.484375 16.75 37.40625 
Q 15.28125 32.71875 15.28125 27.15625 
L 15.28125 0 
z
" id="ArialMT-114"/>
      <path d="M 3.078125 15.484375 
L 11.765625 16.84375 
Q 12.5 11.625 15.84375 8.84375 
Q 19.1875 6.0625 25.203125 6.0625 
Q 31.25 6.0625 34.171875 8.515625 
Q 37.109375 10.984375 37.109375 14.3125 
Q 37.109375 17.28125 34.515625 19 
Q 32.71875 20.171875 25.53125 21.96875 
Q 15.875 24.421875 12.140625 26.203125 
Q 8.40625 27.984375 6.46875 31.125 
Q 4.546875 34.28125 4.546875 38.09375 
Q 4.546875 41.546875 6.125 44.5 
Q 7.71875 47.46875 10.453125 49.421875 
Q 12.5 50.921875 16.03125 51.96875 
Q 19.578125 53.03125 23.640625 53.03125 
Q 29.734375 53.03125 34.34375 51.265625 
Q 38.96875 49.515625 41.15625 46.5 
Q 43.359375 43.5 44.1875 38.484375 
L 35.59375 37.3125 
Q 35.015625 41.3125 32.203125 43.546875 
Q 29.390625 45.796875 24.265625 45.796875 
Q 18.21875 45.796875 15.625 43.796875 
Q 13.03125 41.796875 13.03125 39.109375 
Q 13.03125 37.40625 14.109375 36.03125 
Q 15.1875 34.625 17.484375 33.6875 
Q 18.796875 33.203125 25.25 31.453125 
Q 34.578125 28.953125 38.25 27.359375 
Q 41.9375 25.78125 44.03125 22.75 
Q 46.140625 19.734375 46.140625 15.234375 
Q 46.140625 10.84375 43.578125 6.953125 
Q 41.015625 3.078125 36.171875 0.953125 
Q 31.34375 -1.171875 25.25 -1.171875 
Q 15.140625 -1.171875 9.84375 3.03125 
Q 4.546875 7.234375 3.078125 15.484375 
z
" id="ArialMT-115"/>
      <path d="M 25.78125 7.859375 
L 27.046875 0.09375 
Q 23.34375 -0.6875 20.40625 -0.6875 
Q 15.625 -0.6875 12.984375 0.828125 
Q 10.359375 2.34375 9.28125 4.8125 
Q 8.203125 7.28125 8.203125 15.1875 
L 8.203125 45.015625 
L 1.765625 45.015625 
L 1.765625 51.859375 
L 8.203125 51.859375 
L 8.203125 64.703125 
L 16.9375 69.96875 
L 16.9375 51.859375 
L 25.78125 51.859375 
L 25.78125 45.015625 
L 16.9375 45.015625 
L 16.9375 14.703125 
Q 16.9375 10.9375 17.40625 9.859375 
Q 17.875 8.796875 18.921875 8.15625 
Q 19.96875 7.515625 21.921875 7.515625 
Q 23.390625 7.515625 25.78125 7.859375 
z
" id="ArialMT-116"/>
      <path id="ArialMT-32"/>
      <path d="M 6.59375 0 
L 6.59375 51.859375 
L 14.5 51.859375 
L 14.5 44.484375 
Q 20.21875 53.03125 31 53.03125 
Q 35.6875 53.03125 39.625 51.34375 
Q 43.5625 49.65625 45.515625 46.921875 
Q 47.46875 44.1875 48.25 40.4375 
Q 48.734375 37.984375 48.734375 31.890625 
L 48.734375 0 
L 39.9375 0 
L 39.9375 31.546875 
Q 39.9375 36.921875 38.90625 39.578125 
Q 37.890625 42.234375 35.28125 43.8125 
Q 32.671875 45.40625 29.15625 45.40625 
Q 23.53125 45.40625 19.453125 41.84375 
Q 15.375 38.28125 15.375 28.328125 
L 15.375 0 
z
" id="ArialMT-110"/>
      <path d="M 6.640625 61.46875 
L 6.640625 71.578125 
L 15.4375 71.578125 
L 15.4375 61.46875 
z
M 6.640625 0 
L 6.640625 51.859375 
L 15.4375 51.859375 
L 15.4375 0 
z
" id="ArialMT-105"/>
      <path d="M 4.984375 -4.296875 
L 13.53125 -5.5625 
Q 14.0625 -9.515625 16.5 -11.328125 
Q 19.78125 -13.765625 25.4375 -13.765625 
Q 31.546875 -13.765625 34.859375 -11.328125 
Q 38.1875 -8.890625 39.359375 -4.5 
Q 40.046875 -1.8125 39.984375 6.78125 
Q 34.234375 0 25.640625 0 
Q 14.9375 0 9.078125 7.71875 
Q 3.21875 15.4375 3.21875 26.21875 
Q 3.21875 33.640625 5.90625 39.90625 
Q 8.59375 46.1875 13.6875 49.609375 
Q 18.796875 53.03125 25.6875 53.03125 
Q 34.859375 53.03125 40.828125 45.609375 
L 40.828125 51.859375 
L 48.921875 51.859375 
L 48.921875 7.03125 
Q 48.921875 -5.078125 46.453125 -10.125 
Q 44 -15.1875 38.640625 -18.109375 
Q 33.296875 -21.046875 25.484375 -21.046875 
Q 16.21875 -21.046875 10.5 -16.875 
Q 4.78125 -12.703125 4.984375 -4.296875 
z
M 12.25 26.859375 
Q 12.25 16.65625 16.296875 11.96875 
Q 20.359375 7.28125 26.46875 7.28125 
Q 32.515625 7.28125 36.609375 11.9375 
Q 40.71875 16.609375 40.71875 26.5625 
Q 40.71875 36.078125 36.5 40.90625 
Q 32.28125 45.75 26.3125 45.75 
Q 20.453125 45.75 16.34375 40.984375 
Q 12.25 36.234375 12.25 26.859375 
z
" id="ArialMT-103"/>
      <path d="M 6.59375 0 
L 6.59375 71.578125 
L 15.375 71.578125 
L 15.375 45.90625 
Q 21.53125 53.03125 30.90625 53.03125 
Q 36.671875 53.03125 40.921875 50.75 
Q 45.171875 48.484375 47 44.484375 
Q 48.828125 40.484375 48.828125 32.859375 
L 48.828125 0 
L 40.046875 0 
L 40.046875 32.859375 
Q 40.046875 39.453125 37.1875 42.453125 
Q 34.328125 45.453125 29.109375 45.453125 
Q 25.203125 45.453125 21.75 43.421875 
Q 18.3125 41.40625 16.84375 37.9375 
Q 15.375 34.46875 15.375 28.375 
L 15.375 0 
z
" id="ArialMT-104"/>
      <path d="M 14.703125 0 
L 6.546875 0 
L 6.546875 71.578125 
L 15.328125 71.578125 
L 15.328125 46.046875 
Q 20.90625 53.03125 29.546875 53.03125 
Q 34.328125 53.03125 38.59375 51.09375 
Q 42.875 49.171875 45.625 45.671875 
Q 48.390625 42.1875 49.953125 37.25 
Q 51.515625 32.328125 51.515625 26.703125 
Q 51.515625 13.375 44.921875 6.09375 
Q 38.328125 -1.171875 29.109375 -1.171875 
Q 19.921875 -1.171875 14.703125 6.5 
z
M 14.59375 26.3125 
Q 14.59375 17 17.140625 12.84375 
Q 21.296875 6.0625 28.375 6.0625 
Q 34.125 6.0625 38.328125 11.0625 
Q 42.53125 16.0625 42.53125 25.984375 
Q 42.53125 36.140625 38.5 40.96875 
Q 34.46875 45.796875 28.765625 45.796875 
Q 23 45.796875 18.796875 40.796875 
Q 14.59375 35.796875 14.59375 26.3125 
z
" id="ArialMT-98"/>
      <path d="M 3.328125 25.921875 
Q 3.328125 40.328125 11.328125 47.265625 
Q 18.015625 53.03125 27.640625 53.03125 
Q 38.328125 53.03125 45.109375 46.015625 
Q 51.90625 39.015625 51.90625 26.65625 
Q 51.90625 16.65625 48.90625 10.90625 
Q 45.90625 5.171875 40.15625 2 
Q 34.421875 -1.171875 27.640625 -1.171875 
Q 16.75 -1.171875 10.03125 5.8125 
Q 3.328125 12.796875 3.328125 25.921875 
z
M 12.359375 25.921875 
Q 12.359375 15.96875 16.703125 11.015625 
Q 21.046875 6.0625 27.640625 6.0625 
Q 34.1875 6.0625 38.53125 11.03125 
Q 42.875 16.015625 42.875 26.21875 
Q 42.875 35.84375 38.5 40.796875 
Q 34.125 45.75 27.640625 45.75 
Q 21.046875 45.75 16.703125 40.8125 
Q 12.359375 35.890625 12.359375 25.921875 
z
" id="ArialMT-111"/>
      <path d="M 21 0 
L 1.265625 51.859375 
L 10.546875 51.859375 
L 21.6875 20.796875 
Q 23.484375 15.765625 25 10.359375 
Q 26.171875 14.453125 28.265625 20.21875 
L 39.796875 51.859375 
L 48.828125 51.859375 
L 29.203125 0 
z
" id="ArialMT-118"/>
      <path d="M 6.59375 -19.875 
L 6.59375 51.859375 
L 14.59375 51.859375 
L 14.59375 45.125 
Q 17.4375 49.078125 21 51.046875 
Q 24.5625 53.03125 29.640625 53.03125 
Q 36.28125 53.03125 41.359375 49.609375 
Q 46.4375 46.1875 49.015625 39.953125 
Q 51.609375 33.734375 51.609375 26.3125 
Q 51.609375 18.359375 48.75 11.984375 
Q 45.90625 5.609375 40.453125 2.21875 
Q 35.015625 -1.171875 29 -1.171875 
Q 24.609375 -1.171875 21.109375 0.6875 
Q 17.625 2.546875 15.375 5.375 
L 15.375 -19.875 
z
M 14.546875 25.640625 
Q 14.546875 15.625 18.59375 10.84375 
Q 22.65625 6.0625 28.421875 6.0625 
Q 34.28125 6.0625 38.453125 11.015625 
Q 42.625 15.96875 42.625 26.375 
Q 42.625 36.28125 38.546875 41.203125 
Q 34.46875 46.140625 28.8125 46.140625 
Q 23.1875 46.140625 18.859375 40.890625 
Q 14.546875 35.640625 14.546875 25.640625 
z
" id="ArialMT-112"/>
      <path d="M 40.4375 19 
L 49.078125 17.875 
Q 47.65625 8.9375 41.8125 3.875 
Q 35.984375 -1.171875 27.484375 -1.171875 
Q 16.84375 -1.171875 10.375 5.78125 
Q 3.90625 12.75 3.90625 25.734375 
Q 3.90625 34.125 6.6875 40.421875 
Q 9.46875 46.734375 15.15625 49.875 
Q 20.84375 53.03125 27.546875 53.03125 
Q 35.984375 53.03125 41.359375 48.75 
Q 46.734375 44.484375 48.25 36.625 
L 39.703125 35.296875 
Q 38.484375 40.53125 35.375 43.15625 
Q 32.28125 45.796875 27.875 45.796875 
Q 21.234375 45.796875 17.078125 41.03125 
Q 12.9375 36.28125 12.9375 25.984375 
Q 12.9375 15.53125 16.9375 10.796875 
Q 20.953125 6.0625 27.390625 6.0625 
Q 32.5625 6.0625 36.03125 9.234375 
Q 39.5 12.40625 40.4375 19 
z
" id="ArialMT-99"/>
      <path d="M 23.390625 -21.046875 
Q 16.109375 -11.859375 11.078125 0.4375 
Q 6.0625 12.75 6.0625 25.921875 
Q 6.0625 37.546875 9.8125 48.1875 
Q 14.203125 60.546875 23.390625 72.796875 
L 29.6875 72.796875 
Q 23.78125 62.640625 21.875 58.296875 
Q 18.890625 51.5625 17.1875 44.234375 
Q 15.09375 35.109375 15.09375 25.875 
Q 15.09375 2.390625 29.6875 -21.046875 
z
" id="ArialMT-40"/>
      <path d="M -0.140625 0 
L 27.34375 71.578125 
L 37.546875 71.578125 
L 66.84375 0 
L 56.0625 0 
L 47.703125 21.6875 
L 17.78125 21.6875 
L 9.90625 0 
z
M 20.515625 29.390625 
L 44.78125 29.390625 
L 37.3125 49.21875 
Q 33.890625 58.25 32.234375 64.0625 
Q 30.859375 57.171875 28.375 50.390625 
z
" id="ArialMT-65"/>
      <path d="M 7.71875 0 
L 7.71875 71.578125 
L 34.71875 71.578125 
Q 41.84375 71.578125 45.609375 70.90625 
Q 50.875 70.015625 54.4375 67.546875 
Q 58.015625 65.09375 60.1875 60.640625 
Q 62.359375 56.203125 62.359375 50.875 
Q 62.359375 41.75 56.546875 35.421875 
Q 50.734375 29.109375 35.546875 29.109375 
L 17.1875 29.109375 
L 17.1875 0 
z
M 17.1875 37.546875 
L 35.6875 37.546875 
Q 44.875 37.546875 48.734375 40.96875 
Q 52.59375 44.390625 52.59375 50.59375 
Q 52.59375 55.078125 50.3125 58.265625 
Q 48.046875 61.46875 44.34375 62.5 
Q 41.9375 63.140625 35.5 63.140625 
L 17.1875 63.140625 
z
" id="ArialMT-80"/>
      <path d="M 56.6875 7.953125 
Q 53.515625 4.296875 49.578125 2.078125 
Q 45.65625 -0.140625 41.703125 -0.140625 
Q 37.359375 -0.140625 33.25 2.390625 
Q 29.15625 4.9375 26.59375 10.203125 
Q 24.03125 15.484375 24.03125 21.78125 
Q 24.03125 29.546875 28 37.328125 
Q 31.984375 45.125 37.890625 49.03125 
Q 43.796875 52.9375 49.359375 52.9375 
Q 53.609375 52.9375 57.46875 50.703125 
Q 61.328125 48.484375 64.109375 43.953125 
L 65.765625 51.515625 
L 74.515625 51.515625 
L 67.484375 18.75 
Q 66.015625 11.921875 66.015625 11.1875 
Q 66.015625 9.859375 67.015625 8.90625 
Q 68.015625 7.953125 69.4375 7.953125 
Q 72.015625 7.953125 76.21875 10.9375 
Q 81.78125 14.84375 85.03125 21.40625 
Q 88.28125 27.984375 88.28125 34.96875 
Q 88.28125 43.109375 84.109375 50.1875 
Q 79.9375 57.28125 71.65625 61.515625 
Q 63.375 65.765625 53.375 65.765625 
Q 41.9375 65.765625 32.484375 60.421875 
Q 23.046875 55.078125 17.84375 45.09375 
Q 12.640625 35.109375 12.640625 23.6875 
Q 12.640625 11.71875 17.84375 3.078125 
Q 23.046875 -5.5625 32.875 -9.6875 
Q 42.71875 -13.8125 54.6875 -13.8125 
Q 67.484375 -13.8125 76.125 -9.515625 
Q 84.765625 -5.21875 89.0625 0.921875 
L 97.90625 0.921875 
Q 95.40625 -4.203125 89.34375 -9.515625 
Q 83.296875 -14.84375 74.953125 -17.9375 
Q 66.609375 -21.046875 54.828125 -21.046875 
Q 44 -21.046875 34.84375 -18.265625 
Q 25.6875 -15.484375 19.234375 -9.890625 
Q 12.796875 -4.296875 9.515625 2.984375 
Q 5.421875 12.203125 5.421875 22.90625 
Q 5.421875 34.8125 10.296875 45.609375 
Q 16.265625 58.84375 27.21875 65.875 
Q 38.1875 72.90625 53.8125 72.90625 
Q 65.921875 72.90625 75.5625 67.9375 
Q 85.203125 62.984375 90.765625 53.171875 
Q 95.515625 44.734375 95.515625 34.8125 
Q 95.515625 20.65625 85.546875 9.671875 
Q 76.65625 -0.203125 66.109375 -0.203125 
Q 62.75 -0.203125 60.671875 0.828125 
Q 58.59375 1.859375 57.625 3.765625 
Q 56.984375 4.984375 56.6875 7.953125 
z
M 33.0625 21.1875 
Q 33.0625 14.5 36.234375 10.78125 
Q 39.40625 7.078125 43.5 7.078125 
Q 46.234375 7.078125 49.265625 8.71875 
Q 52.296875 10.359375 55.046875 13.578125 
Q 57.8125 16.796875 59.5625 21.75 
Q 61.328125 26.703125 61.328125 31.6875 
Q 61.328125 38.328125 58.03125 41.984375 
Q 54.734375 45.65625 50 45.65625 
Q 46.875 45.65625 44.109375 44.0625 
Q 41.359375 42.484375 38.765625 38.96875 
Q 36.1875 35.453125 34.625 30.421875 
Q 33.0625 25.390625 33.0625 21.1875 
z
" id="ArialMT-64"/>
      <path d="M 12.359375 -21.046875 
L 6.0625 -21.046875 
Q 20.65625 2.390625 20.65625 25.875 
Q 20.65625 35.0625 18.5625 44.09375 
Q 16.890625 51.421875 13.921875 58.15625 
Q 12.015625 62.546875 6.0625 72.796875 
L 12.359375 72.796875 
Q 21.53125 60.546875 25.921875 48.1875 
Q 29.6875 37.546875 29.6875 25.921875 
Q 29.6875 12.75 24.625 0.4375 
Q 19.578125 -11.859375 12.359375 -21.046875 
z
" id="ArialMT-41"/>
     </defs>
     <g transform="translate(105.567667 533.211323)scale(0.18 -0.18)">
      <use xlink:href="#ArialMT-78"/>
      <use x="72.216797" xlink:href="#ArialMT-101"/>
      <use x="127.832031" xlink:href="#ArialMT-97"/>
      <use x="183.447266" xlink:href="#ArialMT-114"/>
      <use x="216.748047" xlink:href="#ArialMT-101"/>
      <use x="272.363281" xlink:href="#ArialMT-115"/>
      <use x="322.363281" xlink:href="#ArialMT-116"/>
      <use x="350.146484" xlink:href="#ArialMT-32"/>
      <use x="377.929688" xlink:href="#ArialMT-110"/>
      <use x="433.544922" xlink:href="#ArialMT-101"/>
      <use x="489.160156" xlink:href="#ArialMT-105"/>
      <use x="511.376953" xlink:href="#ArialMT-103"/>
      <use x="566.992188" xlink:href="#ArialMT-104"/>
      <use x="622.607422" xlink:href="#ArialMT-98"/>
      <use x="678.222656" xlink:href="#ArialMT-111"/>
      <use x="733.837891" xlink:href="#ArialMT-114"/>
      <use x="767.138672" xlink:href="#ArialMT-32"/>
      <use x="794.921875" xlink:href="#ArialMT-97"/>
      <use x="850.537109" xlink:href="#ArialMT-118"/>
      <use x="900.537109" xlink:href="#ArialMT-101"/>
      <use x="956.152344" xlink:href="#ArialMT-114"/>
      <use x="989.453125" xlink:href="#ArialMT-97"/>
      <use x="1045.068359" xlink:href="#ArialMT-103"/>
      <use x="1100.683594" xlink:href="#ArialMT-101"/>
      <use x="1156.298828" xlink:href="#ArialMT-32"/>
      <use x="1184.082031" xlink:href="#ArialMT-112"/>
      <use x="1239.697266" xlink:href="#ArialMT-114"/>
      <use x="1272.998047" xlink:href="#ArialMT-101"/>
      <use x="1328.613281" xlink:href="#ArialMT-99"/>
      <use x="1378.613281" xlink:href="#ArialMT-105"/>
      <use x="1400.830078" xlink:href="#ArialMT-115"/>
      <use x="1450.830078" xlink:href="#ArialMT-105"/>
      <use x="1473.046875" xlink:href="#ArialMT-111"/>
      <use x="1528.662109" xlink:href="#ArialMT-110"/>
      <use x="1584.277344" xlink:href="#ArialMT-32"/>
      <use x="1612.060547" xlink:href="#ArialMT-40"/>
      <use x="1645.361328" xlink:href="#ArialMT-65"/>
      <use x="1712.060547" xlink:href="#ArialMT-80"/>
      <use x="1778.759766" xlink:href="#ArialMT-64"/>
      <use x="1880.273438" xlink:href="#ArialMT-49"/>
      <use x="1935.888672" xlink:href="#ArialMT-41"/>
     </g>
    </g>
   </g>
   <g id="matplotlib.axis_2">
    <g id="ytick_1">
     <g id="line2d_19">
      <path clip-path="url(#p3f1f530d93)" d="M 73.708053 496.28476 
L 491.858532 496.28476 
" style="fill:none;stroke:#b0b0b0;stroke-dasharray:2.96,1.28;stroke-dashoffset:0;stroke-opacity:0.5;stroke-width:0.8;"/>
     </g>
     <g id="line2d_20">
      <defs>
       <path d="M 0 0 
L -3.5 0 
" id="m101becc5a5" style="stroke:#000000;stroke-width:0.8;"/>
      </defs>
      <g>
       <use style="stroke:#000000;stroke-width:0.8;" x="73.708053" xlink:href="#m101becc5a5" y="496.28476"/>
      </g>
     </g>
     <g id="text_11">
      <!-- 0.1100 -->
      <g transform="translate(23.907428 501.295229)scale(0.14 -0.14)">
       <use xlink:href="#ArialMT-48"/>
       <use x="55.615234" xlink:href="#ArialMT-46"/>
       <use x="83.398438" xlink:href="#ArialMT-49"/>
       <use x="138.904297" xlink:href="#ArialMT-49"/>
       <use x="194.519531" xlink:href="#ArialMT-48"/>
       <use x="250.134766" xlink:href="#ArialMT-48"/>
      </g>
     </g>
    </g>
    <g id="ytick_2">
     <g id="line2d_21">
      <path clip-path="url(#p3f1f530d93)" d="M 73.708053 435.492314 
L 491.858532 435.492314 
" style="fill:none;stroke:#b0b0b0;stroke-dasharray:2.96,1.28;stroke-dashoffset:0;stroke-opacity:0.5;stroke-width:0.8;"/>
     </g>
     <g id="line2d_22">
      <g>
       <use style="stroke:#000000;stroke-width:0.8;" x="73.708053" xlink:href="#m101becc5a5" y="435.492314"/>
      </g>
     </g>
     <g id="text_12">
      <!-- 0.1125 -->
      <g transform="translate(23.907428 440.502782)scale(0.14 -0.14)">
       <use xlink:href="#ArialMT-48"/>
       <use x="55.615234" xlink:href="#ArialMT-46"/>
       <use x="83.398438" xlink:href="#ArialMT-49"/>
       <use x="138.904297" xlink:href="#ArialMT-49"/>
       <use x="194.519531" xlink:href="#ArialMT-50"/>
       <use x="250.134766" xlink:href="#ArialMT-53"/>
      </g>
     </g>
    </g>
    <g id="ytick_3">
     <g id="line2d_23">
      <path clip-path="url(#p3f1f530d93)" d="M 73.708053 374.699867 
L 491.858532 374.699867 
" style="fill:none;stroke:#b0b0b0;stroke-dasharray:2.96,1.28;stroke-dashoffset:0;stroke-opacity:0.5;stroke-width:0.8;"/>
     </g>
     <g id="line2d_24">
      <g>
       <use style="stroke:#000000;stroke-width:0.8;" x="73.708053" xlink:href="#m101becc5a5" y="374.699867"/>
      </g>
     </g>
     <g id="text_13">
      <!-- 0.1150 -->
      <g transform="translate(23.907428 379.710336)scale(0.14 -0.14)">
       <use xlink:href="#ArialMT-48"/>
       <use x="55.615234" xlink:href="#ArialMT-46"/>
       <use x="83.398438" xlink:href="#ArialMT-49"/>
       <use x="138.904297" xlink:href="#ArialMT-49"/>
       <use x="194.519531" xlink:href="#ArialMT-53"/>
       <use x="250.134766" xlink:href="#ArialMT-48"/>
      </g>
     </g>
    </g>
    <g id="ytick_4">
     <g id="line2d_25">
      <path clip-path="url(#p3f1f530d93)" d="M 73.708053 313.907421 
L 491.858532 313.907421 
" style="fill:none;stroke:#b0b0b0;stroke-dasharray:2.96,1.28;stroke-dashoffset:0;stroke-opacity:0.5;stroke-width:0.8;"/>
     </g>
     <g id="line2d_26">
      <g>
       <use style="stroke:#000000;stroke-width:0.8;" x="73.708053" xlink:href="#m101becc5a5" y="313.907421"/>
      </g>
     </g>
     <g id="text_14">
      <!-- 0.1175 -->
      <g transform="translate(23.907428 318.917889)scale(0.14 -0.14)">
       <use xlink:href="#ArialMT-48"/>
       <use x="55.615234" xlink:href="#ArialMT-46"/>
       <use x="83.398438" xlink:href="#ArialMT-49"/>
       <use x="138.904297" xlink:href="#ArialMT-49"/>
       <use x="194.519531" xlink:href="#ArialMT-55"/>
       <use x="250.134766" xlink:href="#ArialMT-53"/>
      </g>
     </g>
    </g>
    <g id="ytick_5">
     <g id="line2d_27">
      <path clip-path="url(#p3f1f530d93)" d="M 73.708053 253.114974 
L 491.858532 253.114974 
" style="fill:none;stroke:#b0b0b0;stroke-dasharray:2.96,1.28;stroke-dashoffset:0;stroke-opacity:0.5;stroke-width:0.8;"/>
     </g>
     <g id="line2d_28">
      <g>
       <use style="stroke:#000000;stroke-width:0.8;" x="73.708053" xlink:href="#m101becc5a5" y="253.114974"/>
      </g>
     </g>
     <g id="text_15">
      <!-- 0.1200 -->
      <g transform="translate(23.892115 258.125443)scale(0.14 -0.14)">
       <use xlink:href="#ArialMT-48"/>
       <use x="55.615234" xlink:href="#ArialMT-46"/>
       <use x="83.398438" xlink:href="#ArialMT-49"/>
       <use x="139.013672" xlink:href="#ArialMT-50"/>
       <use x="194.628906" xlink:href="#ArialMT-48"/>
       <use x="250.244141" xlink:href="#ArialMT-48"/>
      </g>
     </g>
    </g>
    <g id="ytick_6">
     <g id="line2d_29">
      <path clip-path="url(#p3f1f530d93)" d="M 73.708053 192.322528 
L 491.858532 192.322528 
" style="fill:none;stroke:#b0b0b0;stroke-dasharray:2.96,1.28;stroke-dashoffset:0;stroke-opacity:0.5;stroke-width:0.8;"/>
     </g>
     <g id="line2d_30">
      <g>
       <use style="stroke:#000000;stroke-width:0.8;" x="73.708053" xlink:href="#m101becc5a5" y="192.322528"/>
      </g>
     </g>
     <g id="text_16">
      <!-- 0.1225 -->
      <g transform="translate(23.892115 197.332996)scale(0.14 -0.14)">
       <use xlink:href="#ArialMT-48"/>
       <use x="55.615234" xlink:href="#ArialMT-46"/>
       <use x="83.398438" xlink:href="#ArialMT-49"/>
       <use x="139.013672" xlink:href="#ArialMT-50"/>
       <use x="194.628906" xlink:href="#ArialMT-50"/>
       <use x="250.244141" xlink:href="#ArialMT-53"/>
      </g>
     </g>
    </g>
    <g id="ytick_7">
     <g id="line2d_31">
      <path clip-path="url(#p3f1f530d93)" d="M 73.708053 131.530081 
L 491.858532 131.530081 
" style="fill:none;stroke:#b0b0b0;stroke-dasharray:2.96,1.28;stroke-dashoffset:0;stroke-opacity:0.5;stroke-width:0.8;"/>
     </g>
     <g id="line2d_32">
      <g>
       <use style="stroke:#000000;stroke-width:0.8;" x="73.708053" xlink:href="#m101becc5a5" y="131.530081"/>
      </g>
     </g>
     <g id="text_17">
      <!-- 0.1250 -->
      <g transform="translate(23.892115 136.54055)scale(0.14 -0.14)">
       <use xlink:href="#ArialMT-48"/>
       <use x="55.615234" xlink:href="#ArialMT-46"/>
       <use x="83.398438" xlink:href="#ArialMT-49"/>
       <use x="139.013672" xlink:href="#ArialMT-50"/>
       <use x="194.628906" xlink:href="#ArialMT-53"/>
       <use x="250.244141" xlink:href="#ArialMT-48"/>
      </g>
     </g>
    </g>
    <g id="ytick_8">
     <g id="line2d_33">
      <path clip-path="url(#p3f1f530d93)" d="M 73.708053 70.737635 
L 491.858532 70.737635 
" style="fill:none;stroke:#b0b0b0;stroke-dasharray:2.96,1.28;stroke-dashoffset:0;stroke-opacity:0.5;stroke-width:0.8;"/>
     </g>
     <g id="line2d_34">
      <g>
       <use style="stroke:#000000;stroke-width:0.8;" x="73.708053" xlink:href="#m101becc5a5" y="70.737635"/>
      </g>
     </g>
     <g id="text_18">
      <!-- 0.1275 -->
      <g transform="translate(23.892115 75.748103)scale(0.14 -0.14)">
       <use xlink:href="#ArialMT-48"/>
       <use x="55.615234" xlink:href="#ArialMT-46"/>
       <use x="83.398438" xlink:href="#ArialMT-49"/>
       <use x="139.013672" xlink:href="#ArialMT-50"/>
       <use x="194.628906" xlink:href="#ArialMT-55"/>
       <use x="250.244141" xlink:href="#ArialMT-53"/>
      </g>
     </g>
    </g>
    <g id="text_19">
     <!-- Mean Average Precision (mAP) -->
     <defs>
      <path d="M 7.421875 0 
L 7.421875 71.578125 
L 21.6875 71.578125 
L 38.625 20.90625 
Q 40.96875 13.8125 42.046875 10.296875 
Q 43.265625 14.203125 45.84375 21.78125 
L 62.984375 71.578125 
L 75.734375 71.578125 
L 75.734375 0 
L 66.609375 0 
L 66.609375 59.90625 
L 45.796875 0 
L 37.25 0 
L 16.546875 60.9375 
L 16.546875 0 
z
" id="ArialMT-77"/>
      <path d="M 6.59375 0 
L 6.59375 51.859375 
L 14.453125 51.859375 
L 14.453125 44.578125 
Q 16.890625 48.390625 20.9375 50.703125 
Q 25 53.03125 30.171875 53.03125 
Q 35.9375 53.03125 39.625 50.640625 
Q 43.3125 48.25 44.828125 43.953125 
Q 50.984375 53.03125 60.84375 53.03125 
Q 68.5625 53.03125 72.703125 48.75 
Q 76.859375 44.484375 76.859375 35.59375 
L 76.859375 0 
L 68.109375 0 
L 68.109375 32.671875 
Q 68.109375 37.9375 67.25 40.25 
Q 66.40625 42.578125 64.15625 43.984375 
Q 61.921875 45.40625 58.890625 45.40625 
Q 53.421875 45.40625 49.796875 41.765625 
Q 46.1875 38.140625 46.1875 30.125 
L 46.1875 0 
L 37.40625 0 
L 37.40625 33.6875 
Q 37.40625 39.546875 35.25 42.46875 
Q 33.109375 45.40625 28.21875 45.40625 
Q 24.515625 45.40625 21.359375 43.453125 
Q 18.21875 41.5 16.796875 37.734375 
Q 15.375 33.984375 15.375 26.90625 
L 15.375 0 
z
" id="ArialMT-109"/>
     </defs>
     <g transform="translate(16.103677 385.227969)rotate(-90)scale(0.18 -0.18)">
      <use xlink:href="#ArialMT-77"/>
      <use x="83.300781" xlink:href="#ArialMT-101"/>
      <use x="138.916016" xlink:href="#ArialMT-97"/>
      <use x="194.53125" xlink:href="#ArialMT-110"/>
      <use x="250.146484" xlink:href="#ArialMT-32"/>
      <use x="277.851562" xlink:href="#ArialMT-65"/>
      <use x="344.535156" xlink:href="#ArialMT-118"/>
      <use x="394.535156" xlink:href="#ArialMT-101"/>
      <use x="450.150391" xlink:href="#ArialMT-114"/>
      <use x="483.451172" xlink:href="#ArialMT-97"/>
      <use x="539.066406" xlink:href="#ArialMT-103"/>
      <use x="594.681641" xlink:href="#ArialMT-101"/>
      <use x="650.296875" xlink:href="#ArialMT-32"/>
      <use x="678.080078" xlink:href="#ArialMT-80"/>
      <use x="744.779297" xlink:href="#ArialMT-114"/>
      <use x="778.080078" xlink:href="#ArialMT-101"/>
      <use x="833.695312" xlink:href="#ArialMT-99"/>
      <use x="883.695312" xlink:href="#ArialMT-105"/>
      <use x="905.912109" xlink:href="#ArialMT-115"/>
      <use x="955.912109" xlink:href="#ArialMT-105"/>
      <use x="978.128906" xlink:href="#ArialMT-111"/>
      <use x="1033.744141" xlink:href="#ArialMT-110"/>
      <use x="1089.359375" xlink:href="#ArialMT-32"/>
      <use x="1117.142578" xlink:href="#ArialMT-40"/>
      <use x="1150.443359" xlink:href="#ArialMT-109"/>
      <use x="1233.744141" xlink:href="#ArialMT-65"/>
      <use x="1300.443359" xlink:href="#ArialMT-80"/>
      <use x="1367.142578" xlink:href="#ArialMT-41"/>
     </g>
    </g>
   </g>
   <g id="text_20">
    <!-- CGC feature types -->
    <defs>
     <path d="M 58.796875 25.09375 
L 68.265625 22.703125 
Q 65.28125 11.03125 57.546875 4.90625 
Q 49.8125 -1.21875 38.625 -1.21875 
Q 27.046875 -1.21875 19.796875 3.484375 
Q 12.546875 8.203125 8.765625 17.140625 
Q 4.984375 26.078125 4.984375 36.328125 
Q 4.984375 47.515625 9.25 55.828125 
Q 13.53125 64.15625 21.40625 68.46875 
Q 29.296875 72.796875 38.765625 72.796875 
Q 49.515625 72.796875 56.828125 67.328125 
Q 64.15625 61.859375 67.046875 51.953125 
L 57.71875 49.75 
Q 55.21875 57.5625 50.484375 61.125 
Q 45.75 64.703125 38.578125 64.703125 
Q 30.328125 64.703125 24.78125 60.734375 
Q 19.234375 56.78125 16.984375 50.109375 
Q 14.75 43.453125 14.75 36.375 
Q 14.75 27.25 17.40625 20.4375 
Q 20.0625 13.625 25.671875 10.25 
Q 31.296875 6.890625 37.84375 6.890625 
Q 45.796875 6.890625 51.3125 11.46875 
Q 56.84375 16.0625 58.796875 25.09375 
z
" id="ArialMT-67"/>
     <path d="M 41.21875 28.078125 
L 41.21875 36.46875 
L 71.53125 36.53125 
L 71.53125 9.96875 
Q 64.546875 4.390625 57.125 1.578125 
Q 49.703125 -1.21875 41.890625 -1.21875 
Q 31.34375 -1.21875 22.71875 3.296875 
Q 14.109375 7.8125 9.71875 16.359375 
Q 5.328125 24.90625 5.328125 35.453125 
Q 5.328125 45.90625 9.6875 54.953125 
Q 14.0625 64.015625 22.265625 68.40625 
Q 30.46875 72.796875 41.15625 72.796875 
Q 48.921875 72.796875 55.1875 70.28125 
Q 61.46875 67.78125 65.03125 63.28125 
Q 68.609375 58.796875 70.453125 51.5625 
L 61.921875 49.21875 
Q 60.296875 54.6875 57.90625 57.8125 
Q 55.515625 60.9375 51.0625 62.8125 
Q 46.625 64.703125 41.21875 64.703125 
Q 34.71875 64.703125 29.984375 62.71875 
Q 25.25 60.75 22.34375 57.515625 
Q 19.4375 54.296875 17.828125 50.4375 
Q 15.09375 43.796875 15.09375 36.03125 
Q 15.09375 26.46875 18.390625 20.015625 
Q 21.6875 13.578125 27.984375 10.453125 
Q 34.28125 7.328125 41.359375 7.328125 
Q 47.515625 7.328125 53.375 9.6875 
Q 59.234375 12.0625 62.25 14.75 
L 62.25 28.078125 
z
" id="ArialMT-71"/>
     <path d="M 8.6875 0 
L 8.6875 45.015625 
L 0.921875 45.015625 
L 0.921875 51.859375 
L 8.6875 51.859375 
L 8.6875 57.375 
Q 8.6875 62.59375 9.625 65.140625 
Q 10.890625 68.5625 14.078125 70.671875 
Q 17.28125 72.796875 23.046875 72.796875 
Q 26.765625 72.796875 31.25 71.921875 
L 29.9375 64.265625 
Q 27.203125 64.75 24.75 64.75 
Q 20.75 64.75 19.09375 63.03125 
Q 17.4375 61.328125 17.4375 56.640625 
L 17.4375 51.859375 
L 27.546875 51.859375 
L 27.546875 45.015625 
L 17.4375 45.015625 
L 17.4375 0 
z
" id="ArialMT-102"/>
     <path d="M 40.578125 0 
L 40.578125 7.625 
Q 34.515625 -1.171875 24.125 -1.171875 
Q 19.53125 -1.171875 15.546875 0.578125 
Q 11.578125 2.34375 9.640625 5 
Q 7.71875 7.671875 6.9375 11.53125 
Q 6.390625 14.109375 6.390625 19.734375 
L 6.390625 51.859375 
L 15.1875 51.859375 
L 15.1875 23.09375 
Q 15.1875 16.21875 15.71875 13.8125 
Q 16.546875 10.359375 19.234375 8.375 
Q 21.921875 6.390625 25.875 6.390625 
Q 29.828125 6.390625 33.296875 8.421875 
Q 36.765625 10.453125 38.203125 13.9375 
Q 39.65625 17.4375 39.65625 24.078125 
L 39.65625 51.859375 
L 48.4375 51.859375 
L 48.4375 0 
z
" id="ArialMT-117"/>
     <path d="M 6.203125 -19.96875 
L 5.21875 -11.71875 
Q 8.109375 -12.5 10.25 -12.5 
Q 13.1875 -12.5 14.9375 -11.515625 
Q 16.703125 -10.546875 17.828125 -8.796875 
Q 18.65625 -7.46875 20.515625 -2.25 
Q 20.75 -1.515625 21.296875 -0.09375 
L 1.609375 51.859375 
L 11.078125 51.859375 
L 21.875 21.828125 
Q 23.96875 16.109375 25.640625 9.8125 
Q 27.15625 15.875 29.25 21.625 
L 40.328125 51.859375 
L 49.125 51.859375 
L 29.390625 -0.875 
Q 26.21875 -9.421875 24.46875 -12.640625 
Q 22.125 -17 19.09375 -19.015625 
Q 16.0625 -21.046875 11.859375 -21.046875 
Q 9.328125 -21.046875 6.203125 -19.96875 
z
" id="ArialMT-121"/>
    </defs>
    <g transform="translate(153.031836 251.905806)scale(0.16 -0.16)">
     <use xlink:href="#ArialMT-67"/>
     <use x="72.216797" xlink:href="#ArialMT-71"/>
     <use x="150" xlink:href="#ArialMT-67"/>
     <use x="222.216797" xlink:href="#ArialMT-32"/>
     <use x="250" xlink:href="#ArialMT-102"/>
     <use x="277.783203" xlink:href="#ArialMT-101"/>
     <use x="333.398438" xlink:href="#ArialMT-97"/>
     <use x="389.013672" xlink:href="#ArialMT-116"/>
     <use x="416.796875" xlink:href="#ArialMT-117"/>
     <use x="472.412109" xlink:href="#ArialMT-114"/>
     <use x="505.712891" xlink:href="#ArialMT-101"/>
     <use x="561.328125" xlink:href="#ArialMT-32"/>
     <use x="589.111328" xlink:href="#ArialMT-116"/>
     <use x="616.894531" xlink:href="#ArialMT-121"/>
     <use x="666.894531" xlink:href="#ArialMT-112"/>
     <use x="722.509766" xlink:href="#ArialMT-101"/>
     <use x="778.125" xlink:href="#ArialMT-115"/>
    </g>
    <!-- (Jaccard) -->
    <defs>
     <path d="M 2.875 20.3125 
L 11.421875 21.484375 
Q 11.765625 13.28125 14.5 10.25 
Q 17.234375 7.234375 22.078125 7.234375 
Q 25.640625 7.234375 28.21875 8.859375 
Q 30.8125 10.5 31.78125 13.296875 
Q 32.765625 16.109375 32.765625 22.265625 
L 32.765625 71.578125 
L 42.234375 71.578125 
L 42.234375 22.796875 
Q 42.234375 13.8125 40.0625 8.875 
Q 37.890625 3.953125 33.171875 1.359375 
Q 28.46875 -1.21875 22.125 -1.21875 
Q 12.703125 -1.21875 7.6875 4.203125 
Q 2.6875 9.625 2.875 20.3125 
z
" id="ArialMT-74"/>
     <path d="M 40.234375 0 
L 40.234375 6.546875 
Q 35.296875 -1.171875 25.734375 -1.171875 
Q 19.53125 -1.171875 14.328125 2.25 
Q 9.125 5.671875 6.265625 11.796875 
Q 3.421875 17.921875 3.421875 25.875 
Q 3.421875 33.640625 6 39.96875 
Q 8.59375 46.296875 13.765625 49.65625 
Q 18.953125 53.03125 25.34375 53.03125 
Q 30.03125 53.03125 33.6875 51.046875 
Q 37.359375 49.078125 39.65625 45.90625 
L 39.65625 71.578125 
L 48.390625 71.578125 
L 48.390625 0 
z
M 12.453125 25.875 
Q 12.453125 15.921875 16.640625 10.984375 
Q 20.84375 6.0625 26.5625 6.0625 
Q 32.328125 6.0625 36.34375 10.765625 
Q 40.375 15.484375 40.375 25.140625 
Q 40.375 35.796875 36.265625 40.765625 
Q 32.171875 45.75 26.171875 45.75 
Q 20.3125 45.75 16.375 40.96875 
Q 12.453125 36.1875 12.453125 25.875 
z
" id="ArialMT-100"/>
    </defs>
    <g transform="translate(185.940586 269.250306)scale(0.16 -0.16)">
     <use xlink:href="#ArialMT-40"/>
     <use x="33.300781" xlink:href="#ArialMT-74"/>
     <use x="83.300781" xlink:href="#ArialMT-97"/>
     <use x="138.916016" xlink:href="#ArialMT-99"/>
     <use x="188.916016" xlink:href="#ArialMT-99"/>
     <use x="238.916016" xlink:href="#ArialMT-97"/>
     <use x="294.53125" xlink:href="#ArialMT-114"/>
     <use x="327.832031" xlink:href="#ArialMT-100"/>
     <use x="383.447266" xlink:href="#ArialMT-41"/>
    </g>
   </g>
   <g id="text_21">
    <!-- CGC genes -->
    <g transform="translate(285.59101 202.480748)scale(0.16 -0.16)">
     <use xlink:href="#ArialMT-67"/>
     <use x="72.216797" xlink:href="#ArialMT-71"/>
     <use x="150" xlink:href="#ArialMT-67"/>
     <use x="222.216797" xlink:href="#ArialMT-32"/>
     <use x="250" xlink:href="#ArialMT-103"/>
     <use x="305.615234" xlink:href="#ArialMT-101"/>
     <use x="361.230469" xlink:href="#ArialMT-110"/>
     <use x="416.845703" xlink:href="#ArialMT-101"/>
     <use x="472.460938" xlink:href="#ArialMT-115"/>
    </g>
    <!-- (Jaccard) -->
    <g transform="translate(294.04851 219.825248)scale(0.16 -0.16)">
     <use xlink:href="#ArialMT-40"/>
     <use x="33.300781" xlink:href="#ArialMT-74"/>
     <use x="83.300781" xlink:href="#ArialMT-97"/>
     <use x="138.916016" xlink:href="#ArialMT-99"/>
     <use x="188.916016" xlink:href="#ArialMT-99"/>
     <use x="238.916016" xlink:href="#ArialMT-97"/>
     <use x="294.53125" xlink:href="#ArialMT-114"/>
     <use x="327.832031" xlink:href="#ArialMT-100"/>
     <use x="383.447266" xlink:href="#ArialMT-41"/>
    </g>
   </g>
   <g id="text_22">
    <!-- CGC genes -->
    <g transform="translate(112.398284 440.192817)scale(0.16 -0.16)">
     <use xlink:href="#ArialMT-67"/>
     <use x="72.216797" xlink:href="#ArialMT-71"/>
     <use x="150" xlink:href="#ArialMT-67"/>
     <use x="222.216797" xlink:href="#ArialMT-32"/>
     <use x="250" xlink:href="#ArialMT-103"/>
     <use x="305.615234" xlink:href="#ArialMT-101"/>
     <use x="361.230469" xlink:href="#ArialMT-110"/>
     <use x="416.845703" xlink:href="#ArialMT-101"/>
     <use x="472.460938" xlink:href="#ArialMT-115"/>
    </g>
    <!-- (PCA) -->
    <g transform="translate(132.415784 457.537317)scale(0.16 -0.16)">
     <use xlink:href="#ArialMT-40"/>
     <use x="33.300781" xlink:href="#ArialMT-80"/>
     <use x="100" xlink:href="#ArialMT-67"/>
     <use x="172.216797" xlink:href="#ArialMT-65"/>
     <use x="238.916016" xlink:href="#ArialMT-41"/>
    </g>
   </g>
   <g id="text_23">
    <!-- Compatibility -->
    <defs>
     <path d="M 6.390625 0 
L 6.390625 71.578125 
L 15.1875 71.578125 
L 15.1875 0 
z
" id="ArialMT-108"/>
    </defs>
    <g transform="translate(309.621866 274.408803)scale(0.16 -0.16)">
     <use xlink:href="#ArialMT-67"/>
     <use x="72.216797" xlink:href="#ArialMT-111"/>
     <use x="127.832031" xlink:href="#ArialMT-109"/>
     <use x="211.132812" xlink:href="#ArialMT-112"/>
     <use x="266.748047" xlink:href="#ArialMT-97"/>
     <use x="322.363281" xlink:href="#ArialMT-116"/>
     <use x="350.146484" xlink:href="#ArialMT-105"/>
     <use x="372.363281" xlink:href="#ArialMT-98"/>
     <use x="427.978516" xlink:href="#ArialMT-105"/>
     <use x="450.195312" xlink:href="#ArialMT-108"/>
     <use x="472.412109" xlink:href="#ArialMT-105"/>
     <use x="494.628906" xlink:href="#ArialMT-116"/>
     <use x="522.412109" xlink:href="#ArialMT-121"/>
    </g>
   </g>
   <g id="text_24">
    <!-- MOAlmanac feature types (Jaccard) -->
    <defs>
     <path d="M 4.828125 34.859375 
Q 4.828125 52.6875 14.390625 62.765625 
Q 23.96875 72.859375 39.109375 72.859375 
Q 49.03125 72.859375 56.984375 68.109375 
Q 64.9375 63.375 69.109375 54.90625 
Q 73.296875 46.4375 73.296875 35.6875 
Q 73.296875 24.8125 68.890625 16.21875 
Q 64.5 7.625 56.4375 3.203125 
Q 48.390625 -1.21875 39.0625 -1.21875 
Q 28.953125 -1.21875 20.984375 3.65625 
Q 13.03125 8.546875 8.921875 16.984375 
Q 4.828125 25.4375 4.828125 34.859375 
z
M 14.59375 34.71875 
Q 14.59375 21.78125 21.546875 14.328125 
Q 28.515625 6.890625 39.015625 6.890625 
Q 49.703125 6.890625 56.609375 14.40625 
Q 63.53125 21.921875 63.53125 35.75 
Q 63.53125 44.484375 60.578125 51 
Q 57.625 57.515625 51.921875 61.109375 
Q 46.234375 64.703125 39.15625 64.703125 
Q 29.109375 64.703125 21.84375 57.78125 
Q 14.59375 50.875 14.59375 34.71875 
z
" id="ArialMT-79"/>
    </defs>
    <g transform="translate(234.779077 424.474005)scale(0.16 -0.16)">
     <use xlink:href="#ArialMT-77"/>
     <use x="83.300781" xlink:href="#ArialMT-79"/>
     <use x="161.083984" xlink:href="#ArialMT-65"/>
     <use x="227.783203" xlink:href="#ArialMT-108"/>
     <use x="250" xlink:href="#ArialMT-109"/>
     <use x="333.300781" xlink:href="#ArialMT-97"/>
     <use x="388.916016" xlink:href="#ArialMT-110"/>
     <use x="444.53125" xlink:href="#ArialMT-97"/>
     <use x="500.146484" xlink:href="#ArialMT-99"/>
     <use x="550.146484" xlink:href="#ArialMT-32"/>
     <use x="577.929688" xlink:href="#ArialMT-102"/>
     <use x="605.712891" xlink:href="#ArialMT-101"/>
     <use x="661.328125" xlink:href="#ArialMT-97"/>
     <use x="716.943359" xlink:href="#ArialMT-116"/>
     <use x="744.726562" xlink:href="#ArialMT-117"/>
     <use x="800.341797" xlink:href="#ArialMT-114"/>
     <use x="833.642578" xlink:href="#ArialMT-101"/>
     <use x="889.257812" xlink:href="#ArialMT-32"/>
     <use x="917.041016" xlink:href="#ArialMT-116"/>
     <use x="944.824219" xlink:href="#ArialMT-121"/>
     <use x="994.824219" xlink:href="#ArialMT-112"/>
     <use x="1050.439453" xlink:href="#ArialMT-101"/>
     <use x="1106.054688" xlink:href="#ArialMT-115"/>
     <use x="1156.054688" xlink:href="#ArialMT-32"/>
     <use x="1183.837891" xlink:href="#ArialMT-40"/>
     <use x="1217.138672" xlink:href="#ArialMT-74"/>
     <use x="1267.138672" xlink:href="#ArialMT-97"/>
     <use x="1322.753906" xlink:href="#ArialMT-99"/>
     <use x="1372.753906" xlink:href="#ArialMT-99"/>
     <use x="1422.753906" xlink:href="#ArialMT-97"/>
     <use x="1478.369141" xlink:href="#ArialMT-114"/>
     <use x="1511.669922" xlink:href="#ArialMT-100"/>
     <use x="1567.285156" xlink:href="#ArialMT-41"/>
    </g>
   </g>
   <g id="text_25">
    <!-- MOAlmanac features (Jaccard) -->
    <g transform="translate(98.077186 334.292372)scale(0.16 -0.16)">
     <use xlink:href="#ArialMT-77"/>
     <use x="83.300781" xlink:href="#ArialMT-79"/>
     <use x="161.083984" xlink:href="#ArialMT-65"/>
     <use x="227.783203" xlink:href="#ArialMT-108"/>
     <use x="250" xlink:href="#ArialMT-109"/>
     <use x="333.300781" xlink:href="#ArialMT-97"/>
     <use x="388.916016" xlink:href="#ArialMT-110"/>
     <use x="444.53125" xlink:href="#ArialMT-97"/>
     <use x="500.146484" xlink:href="#ArialMT-99"/>
     <use x="550.146484" xlink:href="#ArialMT-32"/>
     <use x="577.929688" xlink:href="#ArialMT-102"/>
     <use x="605.712891" xlink:href="#ArialMT-101"/>
     <use x="661.328125" xlink:href="#ArialMT-97"/>
     <use x="716.943359" xlink:href="#ArialMT-116"/>
     <use x="744.726562" xlink:href="#ArialMT-117"/>
     <use x="800.341797" xlink:href="#ArialMT-114"/>
     <use x="833.642578" xlink:href="#ArialMT-101"/>
     <use x="889.257812" xlink:href="#ArialMT-115"/>
     <use x="939.257812" xlink:href="#ArialMT-32"/>
     <use x="967.041016" xlink:href="#ArialMT-40"/>
     <use x="1000.341797" xlink:href="#ArialMT-74"/>
     <use x="1050.341797" xlink:href="#ArialMT-97"/>
     <use x="1105.957031" xlink:href="#ArialMT-99"/>
     <use x="1155.957031" xlink:href="#ArialMT-99"/>
     <use x="1205.957031" xlink:href="#ArialMT-97"/>
     <use x="1261.572266" xlink:href="#ArialMT-114"/>
     <use x="1294.873047" xlink:href="#ArialMT-100"/>
     <use x="1350.488281" xlink:href="#ArialMT-41"/>
    </g>
   </g>
   <g id="text_26">
    <!-- MOAlmanac genes (Jaccard) -->
    <g transform="translate(111.414948 372.080997)scale(0.16 -0.16)">
     <use xlink:href="#ArialMT-77"/>
     <use x="83.300781" xlink:href="#ArialMT-79"/>
     <use x="161.083984" xlink:href="#ArialMT-65"/>
     <use x="227.783203" xlink:href="#ArialMT-108"/>
     <use x="250" xlink:href="#ArialMT-109"/>
     <use x="333.300781" xlink:href="#ArialMT-97"/>
     <use x="388.916016" xlink:href="#ArialMT-110"/>
     <use x="444.53125" xlink:href="#ArialMT-97"/>
     <use x="500.146484" xlink:href="#ArialMT-99"/>
     <use x="550.146484" xlink:href="#ArialMT-32"/>
     <use x="577.929688" xlink:href="#ArialMT-103"/>
     <use x="633.544922" xlink:href="#ArialMT-101"/>
     <use x="689.160156" xlink:href="#ArialMT-110"/>
     <use x="744.775391" xlink:href="#ArialMT-101"/>
     <use x="800.390625" xlink:href="#ArialMT-115"/>
     <use x="850.390625" xlink:href="#ArialMT-32"/>
     <use x="878.173828" xlink:href="#ArialMT-40"/>
     <use x="911.474609" xlink:href="#ArialMT-74"/>
     <use x="961.474609" xlink:href="#ArialMT-97"/>
     <use x="1017.089844" xlink:href="#ArialMT-99"/>
     <use x="1067.089844" xlink:href="#ArialMT-99"/>
     <use x="1117.089844" xlink:href="#ArialMT-97"/>
     <use x="1172.705078" xlink:href="#ArialMT-114"/>
     <use x="1206.005859" xlink:href="#ArialMT-100"/>
     <use x="1261.621094" xlink:href="#ArialMT-41"/>
    </g>
   </g>
   <g id="text_27">
    <!-- MOAlmanac genes (PCA) -->
    <g transform="translate(327.458834 455.456957)scale(0.16 -0.16)">
     <use xlink:href="#ArialMT-77"/>
     <use x="83.300781" xlink:href="#ArialMT-79"/>
     <use x="161.083984" xlink:href="#ArialMT-65"/>
     <use x="227.783203" xlink:href="#ArialMT-108"/>
     <use x="250" xlink:href="#ArialMT-109"/>
     <use x="333.300781" xlink:href="#ArialMT-97"/>
     <use x="388.916016" xlink:href="#ArialMT-110"/>
     <use x="444.53125" xlink:href="#ArialMT-97"/>
     <use x="500.146484" xlink:href="#ArialMT-99"/>
     <use x="550.146484" xlink:href="#ArialMT-32"/>
     <use x="577.929688" xlink:href="#ArialMT-103"/>
     <use x="633.544922" xlink:href="#ArialMT-101"/>
     <use x="689.160156" xlink:href="#ArialMT-110"/>
     <use x="744.775391" xlink:href="#ArialMT-101"/>
     <use x="800.390625" xlink:href="#ArialMT-115"/>
     <use x="850.390625" xlink:href="#ArialMT-32"/>
     <use x="878.173828" xlink:href="#ArialMT-40"/>
     <use x="911.474609" xlink:href="#ArialMT-80"/>
     <use x="978.173828" xlink:href="#ArialMT-67"/>
     <use x="1050.390625" xlink:href="#ArialMT-65"/>
     <use x="1117.089844" xlink:href="#ArialMT-41"/>
    </g>
   </g>
   <g id="text_28">
    <!-- Multi-pass sort: -->
    <defs>
     <path d="M 3.171875 21.484375 
L 3.171875 30.328125 
L 30.171875 30.328125 
L 30.171875 21.484375 
z
" id="ArialMT-45"/>
     <path d="M 9.03125 41.84375 
L 9.03125 51.859375 
L 19.046875 51.859375 
L 19.046875 41.84375 
z
M 9.03125 0 
L 9.03125 10.015625 
L 19.046875 10.015625 
L 19.046875 0 
z
" id="ArialMT-58"/>
    </defs>
    <g transform="translate(322.774544 48.232194)scale(0.16 -0.16)">
     <use xlink:href="#ArialMT-77"/>
     <use x="83.300781" xlink:href="#ArialMT-117"/>
     <use x="138.916016" xlink:href="#ArialMT-108"/>
     <use x="161.132812" xlink:href="#ArialMT-116"/>
     <use x="188.916016" xlink:href="#ArialMT-105"/>
     <use x="211.132812" xlink:href="#ArialMT-45"/>
     <use x="244.433594" xlink:href="#ArialMT-112"/>
     <use x="300.048828" xlink:href="#ArialMT-97"/>
     <use x="355.664062" xlink:href="#ArialMT-115"/>
     <use x="405.664062" xlink:href="#ArialMT-115"/>
     <use x="455.664062" xlink:href="#ArialMT-32"/>
     <use x="483.447266" xlink:href="#ArialMT-115"/>
     <use x="533.447266" xlink:href="#ArialMT-111"/>
     <use x="589.0625" xlink:href="#ArialMT-114"/>
     <use x="622.363281" xlink:href="#ArialMT-116"/>
     <use x="650.146484" xlink:href="#ArialMT-58"/>
    </g>
    <!-- FDA &amp; CGC -->
    <defs>
     <path d="M 8.203125 0 
L 8.203125 71.578125 
L 56.5 71.578125 
L 56.5 63.140625 
L 17.671875 63.140625 
L 17.671875 40.96875 
L 51.265625 40.96875 
L 51.265625 32.515625 
L 17.671875 32.515625 
L 17.671875 0 
z
" id="ArialMT-70"/>
     <path d="M 7.71875 0 
L 7.71875 71.578125 
L 32.375 71.578125 
Q 40.71875 71.578125 45.125 70.5625 
Q 51.265625 69.140625 55.609375 65.4375 
Q 61.28125 60.640625 64.078125 53.1875 
Q 66.890625 45.75 66.890625 36.1875 
Q 66.890625 28.03125 64.984375 21.734375 
Q 63.09375 15.4375 60.109375 11.296875 
Q 57.125 7.171875 53.578125 4.796875 
Q 50.046875 2.4375 45.046875 1.21875 
Q 40.046875 0 33.546875 0 
z
M 17.1875 8.453125 
L 32.46875 8.453125 
Q 39.546875 8.453125 43.578125 9.765625 
Q 47.609375 11.078125 50 13.484375 
Q 53.375 16.84375 55.25 22.53125 
Q 57.125 28.21875 57.125 36.328125 
Q 57.125 47.5625 53.4375 53.59375 
Q 49.75 59.625 44.484375 61.671875 
Q 40.671875 63.140625 32.234375 63.140625 
L 17.1875 63.140625 
z
" id="ArialMT-68"/>
     <path d="M 47.515625 8.453125 
Q 43.171875 3.609375 38.03125 1.1875 
Q 32.90625 -1.21875 26.953125 -1.21875 
Q 15.96875 -1.21875 9.515625 6.203125 
Q 4.296875 12.25 4.296875 19.734375 
Q 4.296875 26.375 8.5625 31.71875 
Q 12.84375 37.0625 21.34375 41.109375 
Q 16.5 46.6875 14.890625 50.140625 
Q 13.28125 53.609375 13.28125 56.84375 
Q 13.28125 63.28125 18.328125 68.03125 
Q 23.390625 72.796875 31.0625 72.796875 
Q 38.375 72.796875 43.03125 68.296875 
Q 47.703125 63.8125 47.703125 57.515625 
Q 47.703125 47.3125 34.1875 40.09375 
L 47.015625 23.734375 
Q 49.21875 28.03125 50.4375 33.6875 
L 59.578125 31.734375 
Q 57.234375 22.359375 53.21875 16.3125 
Q 58.15625 9.765625 64.40625 5.328125 
L 58.5 -1.65625 
Q 53.171875 1.765625 47.515625 8.453125 
z
M 29.640625 45.75 
Q 35.359375 49.125 37.03125 51.65625 
Q 38.71875 54.203125 38.71875 57.28125 
Q 38.71875 60.9375 36.390625 63.25 
Q 34.078125 65.578125 30.609375 65.578125 
Q 27.046875 65.578125 24.671875 63.28125 
Q 22.3125 60.984375 22.3125 57.671875 
Q 22.3125 56 23.171875 54.171875 
Q 24.03125 52.34375 25.734375 50.296875 
z
M 42 15.375 
L 25.875 35.359375 
Q 18.75 31.109375 16.25 27.46875 
Q 13.765625 23.828125 13.765625 20.265625 
Q 13.765625 15.921875 17.234375 11.234375 
Q 20.703125 6.546875 27.046875 6.546875 
Q 31 6.546875 35.21875 9 
Q 39.453125 11.46875 42 15.375 
z
" id="ArialMT-38"/>
    </defs>
    <g transform="translate(333.453294 65.155194)scale(0.16 -0.16)">
     <use xlink:href="#ArialMT-70"/>
     <use x="61.083984" xlink:href="#ArialMT-68"/>
     <use x="133.300781" xlink:href="#ArialMT-65"/>
     <use x="199.921875" xlink:href="#ArialMT-32"/>
     <use x="227.705078" xlink:href="#ArialMT-38"/>
     <use x="294.404297" xlink:href="#ArialMT-32"/>
     <use x="322.1875" xlink:href="#ArialMT-67"/>
     <use x="394.404297" xlink:href="#ArialMT-71"/>
     <use x="472.1875" xlink:href="#ArialMT-67"/>
    </g>
   </g>
   <g id="text_29">
    <!-- Nonsyn. -->
    <g transform="translate(417.212647 347.864057)scale(0.16 -0.16)">
     <use xlink:href="#ArialMT-78"/>
     <use x="72.216797" xlink:href="#ArialMT-111"/>
     <use x="127.832031" xlink:href="#ArialMT-110"/>
     <use x="183.447266" xlink:href="#ArialMT-115"/>
     <use x="233.447266" xlink:href="#ArialMT-121"/>
     <use x="283.447266" xlink:href="#ArialMT-110"/>
     <use x="339.0625" xlink:href="#ArialMT-46"/>
    </g>
    <!-- variant count -->
    <g transform="translate(400.757647 364.974557)scale(0.16 -0.16)">
     <use xlink:href="#ArialMT-118"/>
     <use x="50" xlink:href="#ArialMT-97"/>
     <use x="105.615234" xlink:href="#ArialMT-114"/>
     <use x="138.916016" xlink:href="#ArialMT-105"/>
     <use x="161.132812" xlink:href="#ArialMT-97"/>
     <use x="216.748047" xlink:href="#ArialMT-110"/>
     <use x="272.363281" xlink:href="#ArialMT-116"/>
     <use x="300.146484" xlink:href="#ArialMT-32"/>
     <use x="327.929688" xlink:href="#ArialMT-99"/>
     <use x="377.929688" xlink:href="#ArialMT-111"/>
     <use x="433.544922" xlink:href="#ArialMT-117"/>
     <use x="489.160156" xlink:href="#ArialMT-110"/>
     <use x="544.775391" xlink:href="#ArialMT-116"/>
    </g>
   </g>
   <g id="text_30">
    <!-- SNF: CGC -->
    <defs>
     <path d="M 4.5 23 
L 13.421875 23.78125 
Q 14.0625 18.40625 16.375 14.96875 
Q 18.703125 11.53125 23.578125 9.40625 
Q 28.46875 7.28125 34.578125 7.28125 
Q 39.984375 7.28125 44.140625 8.890625 
Q 48.296875 10.5 50.3125 13.296875 
Q 52.34375 16.109375 52.34375 19.4375 
Q 52.34375 22.796875 50.390625 25.3125 
Q 48.4375 27.828125 43.953125 29.546875 
Q 41.0625 30.671875 31.203125 33.03125 
Q 21.34375 35.40625 17.390625 37.5 
Q 12.25 40.1875 9.734375 44.15625 
Q 7.234375 48.140625 7.234375 53.078125 
Q 7.234375 58.5 10.296875 63.203125 
Q 13.375 67.921875 19.28125 70.359375 
Q 25.203125 72.796875 32.421875 72.796875 
Q 40.375 72.796875 46.453125 70.234375 
Q 52.546875 67.671875 55.8125 62.6875 
Q 59.078125 57.71875 59.328125 51.421875 
L 50.25 50.734375 
Q 49.515625 57.515625 45.28125 60.984375 
Q 41.0625 64.453125 32.8125 64.453125 
Q 24.21875 64.453125 20.28125 61.296875 
Q 16.359375 58.15625 16.359375 53.71875 
Q 16.359375 49.859375 19.140625 47.359375 
Q 21.875 44.875 33.421875 42.265625 
Q 44.96875 39.65625 49.265625 37.703125 
Q 55.515625 34.8125 58.484375 30.390625 
Q 61.46875 25.984375 61.46875 20.21875 
Q 61.46875 14.5 58.203125 9.4375 
Q 54.9375 4.390625 48.796875 1.578125 
Q 42.671875 -1.21875 35.015625 -1.21875 
Q 25.296875 -1.21875 18.71875 1.609375 
Q 12.15625 4.4375 8.421875 10.125 
Q 4.6875 15.828125 4.5 23 
z
" id="ArialMT-83"/>
    </defs>
    <g transform="translate(415.592102 192.501516)scale(0.16 -0.16)">
     <use xlink:href="#ArialMT-83"/>
     <use x="66.699219" xlink:href="#ArialMT-78"/>
     <use x="138.916016" xlink:href="#ArialMT-70"/>
     <use x="200" xlink:href="#ArialMT-58"/>
     <use x="227.783203" xlink:href="#ArialMT-32"/>
     <use x="255.566406" xlink:href="#ArialMT-67"/>
     <use x="327.783203" xlink:href="#ArialMT-71"/>
     <use x="405.566406" xlink:href="#ArialMT-67"/>
    </g>
   </g>
   <g id="text_31">
    <!-- SNF: FDA &amp; CGC genes -->
    <g transform="translate(307.347267 128.509762)scale(0.16 -0.16)">
     <use xlink:href="#ArialMT-83"/>
     <use x="66.699219" xlink:href="#ArialMT-78"/>
     <use x="138.916016" xlink:href="#ArialMT-70"/>
     <use x="200" xlink:href="#ArialMT-58"/>
     <use x="227.783203" xlink:href="#ArialMT-32"/>
     <use x="255.566406" xlink:href="#ArialMT-70"/>
     <use x="316.650391" xlink:href="#ArialMT-68"/>
     <use x="388.867188" xlink:href="#ArialMT-65"/>
     <use x="455.488281" xlink:href="#ArialMT-32"/>
     <use x="483.271484" xlink:href="#ArialMT-38"/>
     <use x="549.970703" xlink:href="#ArialMT-32"/>
     <use x="577.753906" xlink:href="#ArialMT-67"/>
     <use x="649.970703" xlink:href="#ArialMT-71"/>
     <use x="727.753906" xlink:href="#ArialMT-67"/>
     <use x="799.970703" xlink:href="#ArialMT-32"/>
     <use x="827.753906" xlink:href="#ArialMT-103"/>
     <use x="883.369141" xlink:href="#ArialMT-101"/>
     <use x="938.984375" xlink:href="#ArialMT-110"/>
     <use x="994.599609" xlink:href="#ArialMT-101"/>
     <use x="1050.214844" xlink:href="#ArialMT-115"/>
    </g>
   </g>
   <g id="text_32">
    <!-- SNF: FDA &amp; CGC -->
    <g transform="translate(409.00544 101.055703)scale(0.16 -0.16)">
     <use xlink:href="#ArialMT-83"/>
     <use x="66.699219" xlink:href="#ArialMT-78"/>
     <use x="138.916016" xlink:href="#ArialMT-70"/>
     <use x="200" xlink:href="#ArialMT-58"/>
     <use x="227.783203" xlink:href="#ArialMT-32"/>
     <use x="255.566406" xlink:href="#ArialMT-70"/>
     <use x="316.650391" xlink:href="#ArialMT-68"/>
     <use x="388.867188" xlink:href="#ArialMT-65"/>
     <use x="455.488281" xlink:href="#ArialMT-32"/>
     <use x="483.271484" xlink:href="#ArialMT-38"/>
     <use x="549.970703" xlink:href="#ArialMT-32"/>
     <use x="577.753906" xlink:href="#ArialMT-67"/>
     <use x="649.970703" xlink:href="#ArialMT-71"/>
     <use x="727.753906" xlink:href="#ArialMT-67"/>
    </g>
   </g>
   <g id="text_33">
    <!-- SNF: MOAlmanac -->
    <g transform="translate(404.083601 216.006256)scale(0.16 -0.16)">
     <use xlink:href="#ArialMT-83"/>
     <use x="66.699219" xlink:href="#ArialMT-78"/>
     <use x="138.916016" xlink:href="#ArialMT-70"/>
     <use x="200" xlink:href="#ArialMT-58"/>
     <use x="227.783203" xlink:href="#ArialMT-32"/>
     <use x="255.566406" xlink:href="#ArialMT-77"/>
     <use x="338.867188" xlink:href="#ArialMT-79"/>
     <use x="416.650391" xlink:href="#ArialMT-65"/>
     <use x="483.349609" xlink:href="#ArialMT-108"/>
     <use x="505.566406" xlink:href="#ArialMT-109"/>
     <use x="588.867188" xlink:href="#ArialMT-97"/>
     <use x="644.482422" xlink:href="#ArialMT-110"/>
     <use x="700.097656" xlink:href="#ArialMT-97"/>
     <use x="755.712891" xlink:href="#ArialMT-99"/>
    </g>
   </g>
   <g id="text_34">
    <!-- Somatic tree -->
    <g transform="translate(278.363607 101.458147)scale(0.16 -0.16)">
     <use xlink:href="#ArialMT-83"/>
     <use x="66.699219" xlink:href="#ArialMT-111"/>
     <use x="122.314453" xlink:href="#ArialMT-109"/>
     <use x="205.615234" xlink:href="#ArialMT-97"/>
     <use x="261.230469" xlink:href="#ArialMT-116"/>
     <use x="289.013672" xlink:href="#ArialMT-105"/>
     <use x="311.230469" xlink:href="#ArialMT-99"/>
     <use x="361.230469" xlink:href="#ArialMT-32"/>
     <use x="389.013672" xlink:href="#ArialMT-116"/>
     <use x="416.796875" xlink:href="#ArialMT-114"/>
     <use x="450.097656" xlink:href="#ArialMT-101"/>
     <use x="505.712891" xlink:href="#ArialMT-101"/>
    </g>
   </g>
   <g id="text_35">
    <!-- Random mAP -->
    <defs>
     <path d="M 7.859375 0 
L 7.859375 71.578125 
L 39.59375 71.578125 
Q 49.171875 71.578125 54.140625 69.640625 
Q 59.125 67.71875 62.109375 62.828125 
Q 65.09375 57.953125 65.09375 52.046875 
Q 65.09375 44.4375 60.15625 39.203125 
Q 55.21875 33.984375 44.921875 32.5625 
Q 48.6875 30.765625 50.640625 29 
Q 54.78125 25.203125 58.5 19.484375 
L 70.953125 0 
L 59.03125 0 
L 49.5625 14.890625 
Q 45.40625 21.34375 42.71875 24.75 
Q 40.046875 28.171875 37.921875 29.53125 
Q 35.796875 30.90625 33.59375 31.453125 
Q 31.984375 31.78125 28.328125 31.78125 
L 17.328125 31.78125 
L 17.328125 0 
z
M 17.328125 39.984375 
L 37.703125 39.984375 
Q 44.1875 39.984375 47.84375 41.328125 
Q 51.515625 42.671875 53.421875 45.625 
Q 55.328125 48.578125 55.328125 52.046875 
Q 55.328125 57.125 51.640625 60.390625 
Q 47.953125 63.671875 39.984375 63.671875 
L 17.328125 63.671875 
z
" id="ArialMT-82"/>
    </defs>
    <g transform="translate(223.560496 473.610313)scale(0.16 -0.16)">
     <use xlink:href="#ArialMT-82"/>
     <use x="72.216797" xlink:href="#ArialMT-97"/>
     <use x="127.832031" xlink:href="#ArialMT-110"/>
     <use x="183.447266" xlink:href="#ArialMT-100"/>
     <use x="239.0625" xlink:href="#ArialMT-111"/>
     <use x="294.677734" xlink:href="#ArialMT-109"/>
     <use x="377.978516" xlink:href="#ArialMT-32"/>
     <use x="405.761719" xlink:href="#ArialMT-109"/>
     <use x="489.0625" xlink:href="#ArialMT-65"/>
     <use x="555.761719" xlink:href="#ArialMT-80"/>
    </g>
   </g>
   <g id="text_36">
    <!-- Performance of Matchmaking Models -->
    <defs>
     <path d="M 6.640625 0 
L 6.640625 71.578125 
L 15.4375 71.578125 
L 15.4375 30.765625 
L 36.234375 51.859375 
L 47.609375 51.859375 
L 27.78125 32.625 
L 49.609375 0 
L 38.765625 0 
L 21.625 26.515625 
L 15.4375 20.5625 
L 15.4375 0 
z
" id="ArialMT-107"/>
    </defs>
    <g transform="translate(133.730636 16.103678)scale(0.18 -0.18)">
     <use xlink:href="#ArialMT-80"/>
     <use x="66.699219" xlink:href="#ArialMT-101"/>
     <use x="122.314453" xlink:href="#ArialMT-114"/>
     <use x="155.615234" xlink:href="#ArialMT-102"/>
     <use x="183.398438" xlink:href="#ArialMT-111"/>
     <use x="239.013672" xlink:href="#ArialMT-114"/>
     <use x="272.314453" xlink:href="#ArialMT-109"/>
     <use x="355.615234" xlink:href="#ArialMT-97"/>
     <use x="411.230469" xlink:href="#ArialMT-110"/>
     <use x="466.845703" xlink:href="#ArialMT-99"/>
     <use x="516.845703" xlink:href="#ArialMT-101"/>
     <use x="572.460938" xlink:href="#ArialMT-32"/>
     <use x="600.244141" xlink:href="#ArialMT-111"/>
     <use x="655.859375" xlink:href="#ArialMT-102"/>
     <use x="683.642578" xlink:href="#ArialMT-32"/>
     <use x="711.425781" xlink:href="#ArialMT-77"/>
     <use x="794.726562" xlink:href="#ArialMT-97"/>
     <use x="850.341797" xlink:href="#ArialMT-116"/>
     <use x="878.125" xlink:href="#ArialMT-99"/>
     <use x="928.125" xlink:href="#ArialMT-104"/>
     <use x="983.740234" xlink:href="#ArialMT-109"/>
     <use x="1067.041016" xlink:href="#ArialMT-97"/>
     <use x="1122.65625" xlink:href="#ArialMT-107"/>
     <use x="1172.65625" xlink:href="#ArialMT-105"/>
     <use x="1194.873047" xlink:href="#ArialMT-110"/>
     <use x="1250.488281" xlink:href="#ArialMT-103"/>
     <use x="1306.103516" xlink:href="#ArialMT-32"/>
     <use x="1333.886719" xlink:href="#ArialMT-77"/>
     <use x="1417.1875" xlink:href="#ArialMT-111"/>
     <use x="1472.802734" xlink:href="#ArialMT-100"/>
     <use x="1528.417969" xlink:href="#ArialMT-101"/>
     <use x="1584.033203" xlink:href="#ArialMT-108"/>
     <use x="1606.25" xlink:href="#ArialMT-115"/>
    </g>
   </g>
   <g id="legend_1">
    <g id="PathCollection_3">
     <g>
      <use style="fill:#bab0ac;fill-opacity:0.75;stroke:#bab0ac;stroke-opacity:0.75;" x="104.108053" xlink:href="#ma8ff0ce21e" y="43.756178"/>
     </g>
    </g>
    <g id="text_37">
     <!-- Attempted models -->
     <g transform="translate(132.908052 47.956178)scale(0.16 -0.16)">
      <use xlink:href="#ArialMT-65"/>
      <use x="66.699219" xlink:href="#ArialMT-116"/>
      <use x="94.482422" xlink:href="#ArialMT-116"/>
      <use x="122.265625" xlink:href="#ArialMT-101"/>
      <use x="177.880859" xlink:href="#ArialMT-109"/>
      <use x="261.181641" xlink:href="#ArialMT-112"/>
      <use x="316.796875" xlink:href="#ArialMT-116"/>
      <use x="344.580078" xlink:href="#ArialMT-101"/>
      <use x="400.195312" xlink:href="#ArialMT-100"/>
      <use x="455.810547" xlink:href="#ArialMT-32"/>
      <use x="483.59375" xlink:href="#ArialMT-109"/>
      <use x="566.894531" xlink:href="#ArialMT-111"/>
      <use x="622.509766" xlink:href="#ArialMT-100"/>
      <use x="678.125" xlink:href="#ArialMT-101"/>
      <use x="733.740234" xlink:href="#ArialMT-108"/>
      <use x="755.957031" xlink:href="#ArialMT-115"/>
     </g>
    </g>
    <g id="PathCollection_4">
     <g>
      <use style="fill:#a70c36;stroke:#a70c36;" x="104.108053" xlink:href="#m1f79d46441" y="66.388678"/>
     </g>
    </g>
    <g id="text_38">
     <!-- Chosen model -->
     <g transform="translate(132.908052 70.588678)scale(0.16 -0.16)">
      <use xlink:href="#ArialMT-67"/>
      <use x="72.216797" xlink:href="#ArialMT-104"/>
      <use x="127.832031" xlink:href="#ArialMT-111"/>
      <use x="183.447266" xlink:href="#ArialMT-115"/>
      <use x="233.447266" xlink:href="#ArialMT-101"/>
      <use x="289.0625" xlink:href="#ArialMT-110"/>
      <use x="344.677734" xlink:href="#ArialMT-32"/>
      <use x="372.460938" xlink:href="#ArialMT-109"/>
      <use x="455.761719" xlink:href="#ArialMT-111"/>
      <use x="511.376953" xlink:href="#ArialMT-100"/>
      <use x="566.992188" xlink:href="#ArialMT-101"/>
      <use x="622.607422" xlink:href="#ArialMT-108"/>
     </g>
    </g>
   </g>
  </g>
 </g>
 <defs>
  <clipPath id="p3f1f530d93">
   <rect height="474.181082" width="418.150479" x="73.708053" y="22.103678"/>
  </clipPath>
 </defs>
</svg>
