<?xml version="1.0" encoding="utf-8" standalone="no"?>
<!DOCTYPE svg PUBLIC "-//W3C//DTD SVG 1.1//EN"
  "http://www.w3.org/Graphics/SVG/1.1/DTD/svg11.dtd">
<!-- Created with matplotlib (https://matplotlib.org/) -->
<svg height="959.76pt" version="1.1" viewBox="0 0 720 959.76" width="720pt" xmlns="http://www.w3.org/2000/svg" xmlns:xlink="http://www.w3.org/1999/xlink">
 <defs>
  <style type="text/css">
*{stroke-linecap:butt;stroke-linejoin:round;}
  </style>
 </defs>
 <g id="figure_1">
  <g id="patch_1">
   <path d="M 0 959.76 
L 720 959.76 
L 720 0 
L 0 0 
z
" style="fill:#ffffff;"/>
  </g>
  <g id="axes_1">
   <g id="patch_2">
    <path d="M 90 173.295703 
L 648 173.295703 
L 648 115.1712 
L 90 115.1712 
z
" style="fill:#ffffff;"/>
   </g>
   <g id="matplotlib.axis_1">
    <g id="xtick_1"/>
    <g id="xtick_2"/>
    <g id="xtick_3"/>
    <g id="xtick_4"/>
    <g id="xtick_5"/>
    <g id="xtick_6"/>
   </g>
   <g id="matplotlib.axis_2">
    <g id="ytick_1"/>
    <g id="ytick_2"/>
    <g id="ytick_3"/>
   </g>
   <g id="legend_1">
    <g id="patch_3">
     <path d="M 82.290937 147.860326 
L 110.290937 147.860326 
L 110.290937 138.060326 
L 82.290937 138.060326 
z
" style="fill:#4e79a7;stroke:#4e79a7;stroke-linejoin:miter;"/>
    </g>
    <g id="text_1">
     <!-- PHIAL &amp; TARGET -->
     <defs>
      <path d="M 7.71875 0 
L 7.71875 71.578125 
L 34.71875 71.578125 
Q 41.84375 71.578125 45.609375 70.90625 
Q 50.875 70.015625 54.4375 67.546875 
Q 58.015625 65.09375 60.1875 60.640625 
Q 62.359375 56.203125 62.359375 50.875 
Q 62.359375 41.75 56.546875 35.421875 
Q 50.734375 29.109375 35.546875 29.109375 
L 17.1875 29.109375 
L 17.1875 0 
z
M 17.1875 37.546875 
L 35.6875 37.546875 
Q 44.875 37.546875 48.734375 40.96875 
Q 52.59375 44.390625 52.59375 50.59375 
Q 52.59375 55.078125 50.3125 58.265625 
Q 48.046875 61.46875 44.34375 62.5 
Q 41.9375 63.140625 35.5 63.140625 
L 17.1875 63.140625 
z
" id="ArialMT-80"/>
      <path d="M 8.015625 0 
L 8.015625 71.578125 
L 17.484375 71.578125 
L 17.484375 42.1875 
L 54.6875 42.1875 
L 54.6875 71.578125 
L 64.15625 71.578125 
L 64.15625 0 
L 54.6875 0 
L 54.6875 33.734375 
L 17.484375 33.734375 
L 17.484375 0 
z
" id="ArialMT-72"/>
      <path d="M 9.328125 0 
L 9.328125 71.578125 
L 18.796875 71.578125 
L 18.796875 0 
z
" id="ArialMT-73"/>
      <path d="M -0.140625 0 
L 27.34375 71.578125 
L 37.546875 71.578125 
L 66.84375 0 
L 56.0625 0 
L 47.703125 21.6875 
L 17.78125 21.6875 
L 9.90625 0 
z
M 20.515625 29.390625 
L 44.78125 29.390625 
L 37.3125 49.21875 
Q 33.890625 58.25 32.234375 64.0625 
Q 30.859375 57.171875 28.375 50.390625 
z
" id="ArialMT-65"/>
      <path d="M 7.328125 0 
L 7.328125 71.578125 
L 16.796875 71.578125 
L 16.796875 8.453125 
L 52.046875 8.453125 
L 52.046875 0 
z
" id="ArialMT-76"/>
      <path id="ArialMT-32"/>
      <path d="M 47.515625 8.453125 
Q 43.171875 3.609375 38.03125 1.1875 
Q 32.90625 -1.21875 26.953125 -1.21875 
Q 15.96875 -1.21875 9.515625 6.203125 
Q 4.296875 12.25 4.296875 19.734375 
Q 4.296875 26.375 8.5625 31.71875 
Q 12.84375 37.0625 21.34375 41.109375 
Q 16.5 46.6875 14.890625 50.140625 
Q 13.28125 53.609375 13.28125 56.84375 
Q 13.28125 63.28125 18.328125 68.03125 
Q 23.390625 72.796875 31.0625 72.796875 
Q 38.375 72.796875 43.03125 68.296875 
Q 47.703125 63.8125 47.703125 57.515625 
Q 47.703125 47.3125 34.1875 40.09375 
L 47.015625 23.734375 
Q 49.21875 28.03125 50.4375 33.6875 
L 59.578125 31.734375 
Q 57.234375 22.359375 53.21875 16.3125 
Q 58.15625 9.765625 64.40625 5.328125 
L 58.5 -1.65625 
Q 53.171875 1.765625 47.515625 8.453125 
z
M 29.640625 45.75 
Q 35.359375 49.125 37.03125 51.65625 
Q 38.71875 54.203125 38.71875 57.28125 
Q 38.71875 60.9375 36.390625 63.25 
Q 34.078125 65.578125 30.609375 65.578125 
Q 27.046875 65.578125 24.671875 63.28125 
Q 22.3125 60.984375 22.3125 57.671875 
Q 22.3125 56 23.171875 54.171875 
Q 24.03125 52.34375 25.734375 50.296875 
z
M 42 15.375 
L 25.875 35.359375 
Q 18.75 31.109375 16.25 27.46875 
Q 13.765625 23.828125 13.765625 20.265625 
Q 13.765625 15.921875 17.234375 11.234375 
Q 20.703125 6.546875 27.046875 6.546875 
Q 31 6.546875 35.21875 9 
Q 39.453125 11.46875 42 15.375 
z
" id="ArialMT-38"/>
      <path d="M 25.921875 0 
L 25.921875 63.140625 
L 2.34375 63.140625 
L 2.34375 71.578125 
L 59.078125 71.578125 
L 59.078125 63.140625 
L 35.40625 63.140625 
L 35.40625 0 
z
" id="ArialMT-84"/>
      <path d="M 7.859375 0 
L 7.859375 71.578125 
L 39.59375 71.578125 
Q 49.171875 71.578125 54.140625 69.640625 
Q 59.125 67.71875 62.109375 62.828125 
Q 65.09375 57.953125 65.09375 52.046875 
Q 65.09375 44.4375 60.15625 39.203125 
Q 55.21875 33.984375 44.921875 32.5625 
Q 48.6875 30.765625 50.640625 29 
Q 54.78125 25.203125 58.5 19.484375 
L 70.953125 0 
L 59.03125 0 
L 49.5625 14.890625 
Q 45.40625 21.34375 42.71875 24.75 
Q 40.046875 28.171875 37.921875 29.53125 
Q 35.796875 30.90625 33.59375 31.453125 
Q 31.984375 31.78125 28.328125 31.78125 
L 17.328125 31.78125 
L 17.328125 0 
z
M 17.328125 39.984375 
L 37.703125 39.984375 
Q 44.1875 39.984375 47.84375 41.328125 
Q 51.515625 42.671875 53.421875 45.625 
Q 55.328125 48.578125 55.328125 52.046875 
Q 55.328125 57.125 51.640625 60.390625 
Q 47.953125 63.671875 39.984375 63.671875 
L 17.328125 63.671875 
z
" id="ArialMT-82"/>
      <path d="M 41.21875 28.078125 
L 41.21875 36.46875 
L 71.53125 36.53125 
L 71.53125 9.96875 
Q 64.546875 4.390625 57.125 1.578125 
Q 49.703125 -1.21875 41.890625 -1.21875 
Q 31.34375 -1.21875 22.71875 3.296875 
Q 14.109375 7.8125 9.71875 16.359375 
Q 5.328125 24.90625 5.328125 35.453125 
Q 5.328125 45.90625 9.6875 54.953125 
Q 14.0625 64.015625 22.265625 68.40625 
Q 30.46875 72.796875 41.15625 72.796875 
Q 48.921875 72.796875 55.1875 70.28125 
Q 61.46875 67.78125 65.03125 63.28125 
Q 68.609375 58.796875 70.453125 51.5625 
L 61.921875 49.21875 
Q 60.296875 54.6875 57.90625 57.8125 
Q 55.515625 60.9375 51.0625 62.8125 
Q 46.625 64.703125 41.21875 64.703125 
Q 34.71875 64.703125 29.984375 62.71875 
Q 25.25 60.75 22.34375 57.515625 
Q 19.4375 54.296875 17.828125 50.4375 
Q 15.09375 43.796875 15.09375 36.03125 
Q 15.09375 26.46875 18.390625 20.015625 
Q 21.6875 13.578125 27.984375 10.453125 
Q 34.28125 7.328125 41.359375 7.328125 
Q 47.515625 7.328125 53.375 9.6875 
Q 59.234375 12.0625 62.25 14.75 
L 62.25 28.078125 
z
" id="ArialMT-71"/>
      <path d="M 7.90625 0 
L 7.90625 71.578125 
L 59.671875 71.578125 
L 59.671875 63.140625 
L 17.390625 63.140625 
L 17.390625 41.21875 
L 56.984375 41.21875 
L 56.984375 32.8125 
L 17.390625 32.8125 
L 17.390625 8.453125 
L 61.328125 8.453125 
L 61.328125 0 
z
" id="ArialMT-69"/>
     </defs>
     <g transform="translate(121.490937 147.860326)scale(0.14 -0.14)">
      <use xlink:href="#ArialMT-80"/>
      <use x="66.699219" xlink:href="#ArialMT-72"/>
      <use x="138.916016" xlink:href="#ArialMT-73"/>
      <use x="166.699219" xlink:href="#ArialMT-65"/>
      <use x="233.398438" xlink:href="#ArialMT-76"/>
      <use x="288.966797" xlink:href="#ArialMT-32"/>
      <use x="316.75" xlink:href="#ArialMT-38"/>
      <use x="383.449219" xlink:href="#ArialMT-32"/>
      <use x="411.216797" xlink:href="#ArialMT-84"/>
      <use x="472.191406" xlink:href="#ArialMT-65"/>
      <use x="538.890625" xlink:href="#ArialMT-82"/>
      <use x="611.107422" xlink:href="#ArialMT-71"/>
      <use x="688.890625" xlink:href="#ArialMT-69"/>
      <use x="755.589844" xlink:href="#ArialMT-84"/>
     </g>
    </g>
    <g id="patch_4">
     <path d="M 263.825 147.860326 
L 291.825 147.860326 
L 291.825 138.060326 
L 263.825 138.060326 
z
" style="fill:#f28e2b;stroke:#f28e2b;stroke-linejoin:miter;"/>
    </g>
    <g id="text_2">
     <!-- MOAlmanac (SNVs &amp; CNAs) -->
     <defs>
      <path d="M 7.421875 0 
L 7.421875 71.578125 
L 21.6875 71.578125 
L 38.625 20.90625 
Q 40.96875 13.8125 42.046875 10.296875 
Q 43.265625 14.203125 45.84375 21.78125 
L 62.984375 71.578125 
L 75.734375 71.578125 
L 75.734375 0 
L 66.609375 0 
L 66.609375 59.90625 
L 45.796875 0 
L 37.25 0 
L 16.546875 60.9375 
L 16.546875 0 
z
" id="ArialMT-77"/>
      <path d="M 4.828125 34.859375 
Q 4.828125 52.6875 14.390625 62.765625 
Q 23.96875 72.859375 39.109375 72.859375 
Q 49.03125 72.859375 56.984375 68.109375 
Q 64.9375 63.375 69.109375 54.90625 
Q 73.296875 46.4375 73.296875 35.6875 
Q 73.296875 24.8125 68.890625 16.21875 
Q 64.5 7.625 56.4375 3.203125 
Q 48.390625 -1.21875 39.0625 -1.21875 
Q 28.953125 -1.21875 20.984375 3.65625 
Q 13.03125 8.546875 8.921875 16.984375 
Q 4.828125 25.4375 4.828125 34.859375 
z
M 14.59375 34.71875 
Q 14.59375 21.78125 21.546875 14.328125 
Q 28.515625 6.890625 39.015625 6.890625 
Q 49.703125 6.890625 56.609375 14.40625 
Q 63.53125 21.921875 63.53125 35.75 
Q 63.53125 44.484375 60.578125 51 
Q 57.625 57.515625 51.921875 61.109375 
Q 46.234375 64.703125 39.15625 64.703125 
Q 29.109375 64.703125 21.84375 57.78125 
Q 14.59375 50.875 14.59375 34.71875 
z
" id="ArialMT-79"/>
      <path d="M 6.390625 0 
L 6.390625 71.578125 
L 15.1875 71.578125 
L 15.1875 0 
z
" id="ArialMT-108"/>
      <path d="M 6.59375 0 
L 6.59375 51.859375 
L 14.453125 51.859375 
L 14.453125 44.578125 
Q 16.890625 48.390625 20.9375 50.703125 
Q 25 53.03125 30.171875 53.03125 
Q 35.9375 53.03125 39.625 50.640625 
Q 43.3125 48.25 44.828125 43.953125 
Q 50.984375 53.03125 60.84375 53.03125 
Q 68.5625 53.03125 72.703125 48.75 
Q 76.859375 44.484375 76.859375 35.59375 
L 76.859375 0 
L 68.109375 0 
L 68.109375 32.671875 
Q 68.109375 37.9375 67.25 40.25 
Q 66.40625 42.578125 64.15625 43.984375 
Q 61.921875 45.40625 58.890625 45.40625 
Q 53.421875 45.40625 49.796875 41.765625 
Q 46.1875 38.140625 46.1875 30.125 
L 46.1875 0 
L 37.40625 0 
L 37.40625 33.6875 
Q 37.40625 39.546875 35.25 42.46875 
Q 33.109375 45.40625 28.21875 45.40625 
Q 24.515625 45.40625 21.359375 43.453125 
Q 18.21875 41.5 16.796875 37.734375 
Q 15.375 33.984375 15.375 26.90625 
L 15.375 0 
z
" id="ArialMT-109"/>
      <path d="M 40.4375 6.390625 
Q 35.546875 2.25 31.03125 0.53125 
Q 26.515625 -1.171875 21.34375 -1.171875 
Q 12.796875 -1.171875 8.203125 3 
Q 3.609375 7.171875 3.609375 13.671875 
Q 3.609375 17.484375 5.34375 20.625 
Q 7.078125 23.78125 9.890625 25.6875 
Q 12.703125 27.59375 16.21875 28.5625 
Q 18.796875 29.25 24.03125 29.890625 
Q 34.671875 31.15625 39.703125 32.90625 
Q 39.75 34.71875 39.75 35.203125 
Q 39.75 40.578125 37.25 42.78125 
Q 33.890625 45.75 27.25 45.75 
Q 21.046875 45.75 18.09375 43.578125 
Q 15.140625 41.40625 13.71875 35.890625 
L 5.125 37.0625 
Q 6.296875 42.578125 8.984375 45.96875 
Q 11.671875 49.359375 16.75 51.1875 
Q 21.828125 53.03125 28.515625 53.03125 
Q 35.15625 53.03125 39.296875 51.46875 
Q 43.453125 49.90625 45.40625 47.53125 
Q 47.359375 45.171875 48.140625 41.546875 
Q 48.578125 39.3125 48.578125 33.453125 
L 48.578125 21.734375 
Q 48.578125 9.46875 49.140625 6.21875 
Q 49.703125 2.984375 51.375 0 
L 42.1875 0 
Q 40.828125 2.734375 40.4375 6.390625 
z
M 39.703125 26.03125 
Q 34.90625 24.078125 25.34375 22.703125 
Q 19.921875 21.921875 17.671875 20.9375 
Q 15.4375 19.96875 14.203125 18.09375 
Q 12.984375 16.21875 12.984375 13.921875 
Q 12.984375 10.40625 15.640625 8.0625 
Q 18.3125 5.71875 23.4375 5.71875 
Q 28.515625 5.71875 32.46875 7.9375 
Q 36.421875 10.15625 38.28125 14.015625 
Q 39.703125 17 39.703125 22.796875 
z
" id="ArialMT-97"/>
      <path d="M 6.59375 0 
L 6.59375 51.859375 
L 14.5 51.859375 
L 14.5 44.484375 
Q 20.21875 53.03125 31 53.03125 
Q 35.6875 53.03125 39.625 51.34375 
Q 43.5625 49.65625 45.515625 46.921875 
Q 47.46875 44.1875 48.25 40.4375 
Q 48.734375 37.984375 48.734375 31.890625 
L 48.734375 0 
L 39.9375 0 
L 39.9375 31.546875 
Q 39.9375 36.921875 38.90625 39.578125 
Q 37.890625 42.234375 35.28125 43.8125 
Q 32.671875 45.40625 29.15625 45.40625 
Q 23.53125 45.40625 19.453125 41.84375 
Q 15.375 38.28125 15.375 28.328125 
L 15.375 0 
z
" id="ArialMT-110"/>
      <path d="M 40.4375 19 
L 49.078125 17.875 
Q 47.65625 8.9375 41.8125 3.875 
Q 35.984375 -1.171875 27.484375 -1.171875 
Q 16.84375 -1.171875 10.375 5.78125 
Q 3.90625 12.75 3.90625 25.734375 
Q 3.90625 34.125 6.6875 40.421875 
Q 9.46875 46.734375 15.15625 49.875 
Q 20.84375 53.03125 27.546875 53.03125 
Q 35.984375 53.03125 41.359375 48.75 
Q 46.734375 44.484375 48.25 36.625 
L 39.703125 35.296875 
Q 38.484375 40.53125 35.375 43.15625 
Q 32.28125 45.796875 27.875 45.796875 
Q 21.234375 45.796875 17.078125 41.03125 
Q 12.9375 36.28125 12.9375 25.984375 
Q 12.9375 15.53125 16.9375 10.796875 
Q 20.953125 6.0625 27.390625 6.0625 
Q 32.5625 6.0625 36.03125 9.234375 
Q 39.5 12.40625 40.4375 19 
z
" id="ArialMT-99"/>
      <path d="M 23.390625 -21.046875 
Q 16.109375 -11.859375 11.078125 0.4375 
Q 6.0625 12.75 6.0625 25.921875 
Q 6.0625 37.546875 9.8125 48.1875 
Q 14.203125 60.546875 23.390625 72.796875 
L 29.6875 72.796875 
Q 23.78125 62.640625 21.875 58.296875 
Q 18.890625 51.5625 17.1875 44.234375 
Q 15.09375 35.109375 15.09375 25.875 
Q 15.09375 2.390625 29.6875 -21.046875 
z
" id="ArialMT-40"/>
      <path d="M 4.5 23 
L 13.421875 23.78125 
Q 14.0625 18.40625 16.375 14.96875 
Q 18.703125 11.53125 23.578125 9.40625 
Q 28.46875 7.28125 34.578125 7.28125 
Q 39.984375 7.28125 44.140625 8.890625 
Q 48.296875 10.5 50.3125 13.296875 
Q 52.34375 16.109375 52.34375 19.4375 
Q 52.34375 22.796875 50.390625 25.3125 
Q 48.4375 27.828125 43.953125 29.546875 
Q 41.0625 30.671875 31.203125 33.03125 
Q 21.34375 35.40625 17.390625 37.5 
Q 12.25 40.1875 9.734375 44.15625 
Q 7.234375 48.140625 7.234375 53.078125 
Q 7.234375 58.5 10.296875 63.203125 
Q 13.375 67.921875 19.28125 70.359375 
Q 25.203125 72.796875 32.421875 72.796875 
Q 40.375 72.796875 46.453125 70.234375 
Q 52.546875 67.671875 55.8125 62.6875 
Q 59.078125 57.71875 59.328125 51.421875 
L 50.25 50.734375 
Q 49.515625 57.515625 45.28125 60.984375 
Q 41.0625 64.453125 32.8125 64.453125 
Q 24.21875 64.453125 20.28125 61.296875 
Q 16.359375 58.15625 16.359375 53.71875 
Q 16.359375 49.859375 19.140625 47.359375 
Q 21.875 44.875 33.421875 42.265625 
Q 44.96875 39.65625 49.265625 37.703125 
Q 55.515625 34.8125 58.484375 30.390625 
Q 61.46875 25.984375 61.46875 20.21875 
Q 61.46875 14.5 58.203125 9.4375 
Q 54.9375 4.390625 48.796875 1.578125 
Q 42.671875 -1.21875 35.015625 -1.21875 
Q 25.296875 -1.21875 18.71875 1.609375 
Q 12.15625 4.4375 8.421875 10.125 
Q 4.6875 15.828125 4.5 23 
z
" id="ArialMT-83"/>
      <path d="M 7.625 0 
L 7.625 71.578125 
L 17.328125 71.578125 
L 54.9375 15.375 
L 54.9375 71.578125 
L 64.015625 71.578125 
L 64.015625 0 
L 54.296875 0 
L 16.703125 56.25 
L 16.703125 0 
z
" id="ArialMT-78"/>
      <path d="M 28.171875 0 
L 0.4375 71.578125 
L 10.6875 71.578125 
L 29.296875 19.578125 
Q 31.546875 13.328125 33.0625 7.859375 
Q 34.71875 13.71875 36.921875 19.578125 
L 56.25 71.578125 
L 65.921875 71.578125 
L 37.890625 0 
z
" id="ArialMT-86"/>
      <path d="M 3.078125 15.484375 
L 11.765625 16.84375 
Q 12.5 11.625 15.84375 8.84375 
Q 19.1875 6.0625 25.203125 6.0625 
Q 31.25 6.0625 34.171875 8.515625 
Q 37.109375 10.984375 37.109375 14.3125 
Q 37.109375 17.28125 34.515625 19 
Q 32.71875 20.171875 25.53125 21.96875 
Q 15.875 24.421875 12.140625 26.203125 
Q 8.40625 27.984375 6.46875 31.125 
Q 4.546875 34.28125 4.546875 38.09375 
Q 4.546875 41.546875 6.125 44.5 
Q 7.71875 47.46875 10.453125 49.421875 
Q 12.5 50.921875 16.03125 51.96875 
Q 19.578125 53.03125 23.640625 53.03125 
Q 29.734375 53.03125 34.34375 51.265625 
Q 38.96875 49.515625 41.15625 46.5 
Q 43.359375 43.5 44.1875 38.484375 
L 35.59375 37.3125 
Q 35.015625 41.3125 32.203125 43.546875 
Q 29.390625 45.796875 24.265625 45.796875 
Q 18.21875 45.796875 15.625 43.796875 
Q 13.03125 41.796875 13.03125 39.109375 
Q 13.03125 37.40625 14.109375 36.03125 
Q 15.1875 34.625 17.484375 33.6875 
Q 18.796875 33.203125 25.25 31.453125 
Q 34.578125 28.953125 38.25 27.359375 
Q 41.9375 25.78125 44.03125 22.75 
Q 46.140625 19.734375 46.140625 15.234375 
Q 46.140625 10.84375 43.578125 6.953125 
Q 41.015625 3.078125 36.171875 0.953125 
Q 31.34375 -1.171875 25.25 -1.171875 
Q 15.140625 -1.171875 9.84375 3.03125 
Q 4.546875 7.234375 3.078125 15.484375 
z
" id="ArialMT-115"/>
      <path d="M 58.796875 25.09375 
L 68.265625 22.703125 
Q 65.28125 11.03125 57.546875 4.90625 
Q 49.8125 -1.21875 38.625 -1.21875 
Q 27.046875 -1.21875 19.796875 3.484375 
Q 12.546875 8.203125 8.765625 17.140625 
Q 4.984375 26.078125 4.984375 36.328125 
Q 4.984375 47.515625 9.25 55.828125 
Q 13.53125 64.15625 21.40625 68.46875 
Q 29.296875 72.796875 38.765625 72.796875 
Q 49.515625 72.796875 56.828125 67.328125 
Q 64.15625 61.859375 67.046875 51.953125 
L 57.71875 49.75 
Q 55.21875 57.5625 50.484375 61.125 
Q 45.75 64.703125 38.578125 64.703125 
Q 30.328125 64.703125 24.78125 60.734375 
Q 19.234375 56.78125 16.984375 50.109375 
Q 14.75 43.453125 14.75 36.375 
Q 14.75 27.25 17.40625 20.4375 
Q 20.0625 13.625 25.671875 10.25 
Q 31.296875 6.890625 37.84375 6.890625 
Q 45.796875 6.890625 51.3125 11.46875 
Q 56.84375 16.0625 58.796875 25.09375 
z
" id="ArialMT-67"/>
      <path d="M 12.359375 -21.046875 
L 6.0625 -21.046875 
Q 20.65625 2.390625 20.65625 25.875 
Q 20.65625 35.0625 18.5625 44.09375 
Q 16.890625 51.421875 13.921875 58.15625 
Q 12.015625 62.546875 6.0625 72.796875 
L 12.359375 72.796875 
Q 21.53125 60.546875 25.921875 48.1875 
Q 29.6875 37.546875 29.6875 25.921875 
Q 29.6875 12.75 24.625 0.4375 
Q 19.578125 -11.859375 12.359375 -21.046875 
z
" id="ArialMT-41"/>
     </defs>
     <g transform="translate(303.025 147.860326)scale(0.14 -0.14)">
      <use xlink:href="#ArialMT-77"/>
      <use x="83.300781" xlink:href="#ArialMT-79"/>
      <use x="161.083984" xlink:href="#ArialMT-65"/>
      <use x="227.783203" xlink:href="#ArialMT-108"/>
      <use x="250" xlink:href="#ArialMT-109"/>
      <use x="333.300781" xlink:href="#ArialMT-97"/>
      <use x="388.916016" xlink:href="#ArialMT-110"/>
      <use x="444.53125" xlink:href="#ArialMT-97"/>
      <use x="500.146484" xlink:href="#ArialMT-99"/>
      <use x="550.146484" xlink:href="#ArialMT-32"/>
      <use x="577.929688" xlink:href="#ArialMT-40"/>
      <use x="611.230469" xlink:href="#ArialMT-83"/>
      <use x="677.929688" xlink:href="#ArialMT-78"/>
      <use x="750.146484" xlink:href="#ArialMT-86"/>
      <use x="816.845703" xlink:href="#ArialMT-115"/>
      <use x="866.845703" xlink:href="#ArialMT-32"/>
      <use x="894.628906" xlink:href="#ArialMT-38"/>
      <use x="961.328125" xlink:href="#ArialMT-32"/>
      <use x="989.111328" xlink:href="#ArialMT-67"/>
      <use x="1061.328125" xlink:href="#ArialMT-78"/>
      <use x="1133.544922" xlink:href="#ArialMT-65"/>
      <use x="1200.244141" xlink:href="#ArialMT-115"/>
      <use x="1250.244141" xlink:href="#ArialMT-41"/>
     </g>
    </g>
    <g id="patch_5">
     <path d="M 510.719375 147.860326 
L 538.719375 147.860326 
L 538.719375 138.060326 
L 510.719375 138.060326 
z
" style="fill:#e15759;stroke:#e15759;stroke-linejoin:miter;"/>
    </g>
    <g id="text_3">
     <!-- MOAlmanac (All) -->
     <g transform="translate(549.919375 147.860326)scale(0.14 -0.14)">
      <use xlink:href="#ArialMT-77"/>
      <use x="83.300781" xlink:href="#ArialMT-79"/>
      <use x="161.083984" xlink:href="#ArialMT-65"/>
      <use x="227.783203" xlink:href="#ArialMT-108"/>
      <use x="250" xlink:href="#ArialMT-109"/>
      <use x="333.300781" xlink:href="#ArialMT-97"/>
      <use x="388.916016" xlink:href="#ArialMT-110"/>
      <use x="444.53125" xlink:href="#ArialMT-97"/>
      <use x="500.146484" xlink:href="#ArialMT-99"/>
      <use x="550.146484" xlink:href="#ArialMT-32"/>
      <use x="577.929688" xlink:href="#ArialMT-40"/>
      <use x="611.230469" xlink:href="#ArialMT-65"/>
      <use x="677.929688" xlink:href="#ArialMT-108"/>
      <use x="700.146484" xlink:href="#ArialMT-108"/>
      <use x="722.363281" xlink:href="#ArialMT-41"/>
     </g>
    </g>
   </g>
  </g>
  <g id="axes_2">
   <g id="patch_6">
    <path d="M 329.142857 361.231595 
C 329.142857 340.487147 325.094034 319.940731 317.223948 300.747143 
C 309.353862 281.553554 297.812774 264.079246 283.24934 249.306348 
C 268.685907 234.533451 251.378181 222.744015 232.29893 214.600658 
C 213.219679 206.4573 192.733173 202.115498 171.990841 201.819278 
C 151.248509 201.523058 130.646372 205.278077 111.34236 212.873286 
C 92.038348 220.468495 74.401021 231.758883 59.421671 246.109883 
C 44.442322 260.460882 32.406943 277.598497 23.991974 296.559519 
C 15.577005 315.520542 10.943109 335.942961 10.35073 356.678949 
C 9.758351 377.414936 13.2188 398.068591 20.537583 417.479091 
C 27.856367 436.889591 38.893752 454.686341 53.029391 469.869087 
C 67.16503 485.051834 84.129039 497.330702 102.967967 506.015566 
C 121.806896 514.70043 142.161063 519.625475 162.886477 520.513893 
C 183.611892 521.40231 204.312854 518.237138 223.825883 511.196272 
C 243.338912 504.155406 261.291456 493.373274 276.674504 479.455878 
C 292.057552 465.538482 304.577405 448.751538 313.530393 430.038546 
C 322.483382 411.325553 327.698572 391.043789 328.882846 370.333174 
L 169.714286 361.231595 
L 329.142857 361.231595 
z
" style="fill:#e15759;"/>
   </g>
   <g id="patch_7">
    <path d="M 328.882846 370.333174 
C 328.969495 368.817867 329.034499 367.3014 329.077841 365.784236 
C 329.121183 364.267073 329.142857 362.749368 329.142857 361.231586 
L 169.714286 361.231595 
L 328.882846 370.333174 
z
" style="fill:#ffffff;"/>
   </g>
   <g id="patch_8">
    <path d="M 297.257143 361.231595 
C 297.257143 344.636037 294.018084 328.198904 287.722016 312.844033 
C 281.425947 297.489162 272.193076 283.509716 260.54233 271.691398 
C 248.891583 259.87308 235.045402 250.441531 219.782001 243.926845 
C 204.5186 237.412159 188.129396 233.938717 171.53553 233.701741 
C 154.941664 233.464766 138.459955 236.468781 123.016745 242.544948 
C 107.573536 248.621115 93.463674 257.653426 81.480194 269.134225 
C 69.496715 280.615024 59.868411 294.325116 53.136436 309.493935 
C 46.404461 324.662753 42.697345 341.000688 42.223441 357.589478 
C 41.749538 374.178268 44.517897 390.701192 50.372924 406.229592 
C 56.227951 421.757991 65.057859 435.995391 76.36637 448.141589 
C 87.674881 460.287786 101.246088 470.11088 116.317231 477.058772 
C 131.388374 484.006663 147.671707 487.946699 164.252039 488.657433 
C 180.83237 489.368167 197.393141 486.836029 213.003564 481.203336 
C 228.613987 475.570644 242.976022 466.944938 255.28246 455.811021 
C 267.588899 444.677104 277.604781 431.24755 284.767172 416.277156 
C 291.929563 401.306762 296.101714 385.08135 297.049134 368.512858 
L 169.714286 361.231595 
L 297.257143 361.231595 
z
" style="fill:#f28e2b;"/>
   </g>
   <g id="patch_9">
    <path d="M 297.049134 368.512858 
C 297.118453 367.300612 297.170457 366.087439 297.20513 364.873708 
C 297.239804 363.659978 297.257143 362.445814 297.257143 361.231588 
L 169.714286 361.231595 
L 297.049134 368.512858 
z
" style="fill:#ffffff;"/>
   </g>
   <g id="patch_10">
    <path d="M 265.371429 361.231595 
C 265.371429 349.703539 263.287485 338.269856 259.220308 327.483099 
C 255.153131 316.696342 249.169311 306.733118 241.558027 298.074918 
C 233.946743 289.416719 224.832613 282.205301 214.656091 276.78917 
C 204.47957 271.373039 193.407275 267.840871 181.974295 266.363364 
C 170.541314 264.885858 158.934837 265.487203 147.715767 268.138339 
C 136.496697 270.789476 125.848719 275.446997 116.286418 281.88582 
C 106.724116 288.324644 98.404049 296.439348 91.728301 305.837776 
C 85.052553 315.236204 80.130422 325.764478 77.199779 336.9138 
C 74.269137 348.063123 73.377965 359.65095 74.569332 371.11728 
C 75.760699 382.583609 79.015098 393.740706 84.175254 404.049384 
C 89.335411 414.358062 96.31684 423.649541 104.782151 431.474793 
C 113.247463 439.300045 123.058056 445.53095 133.739818 449.866388 
C 144.42158 454.201827 155.799621 456.570816 167.324077 456.85887 
C 178.848533 457.146925 190.330718 455.349328 201.215735 451.552952 
C 212.100752 447.756577 222.210384 442.023579 231.056065 434.631016 
C 239.901747 427.238453 247.33865 418.307361 253.007373 408.269352 
L 169.714286 361.231595 
L 265.371429 361.231595 
z
" style="fill:#4e79a7;"/>
   </g>
   <g id="patch_11">
    <path d="M 253.007373 408.269352 
C 257.043098 401.123008 260.142386 393.486903 262.228793 385.549384 
C 264.3152 377.611866 265.371429 369.438735 265.371429 361.231586 
L 169.714286 361.231595 
L 253.007373 408.269352 
z
" style="fill:#ffffff;"/>
   </g>
   <g id="patch_12">
    <path clip-path="url(#p74c75c68e6)" d="M 169.714286 425.003023 
C 186.626666 425.003023 202.848636 418.283663 214.807495 406.324804 
C 226.766354 394.365945 233.485714 378.143975 233.485714 361.231595 
C 233.485714 344.319214 226.766354 328.097244 214.807495 316.138385 
C 202.848636 304.179526 186.626666 297.460166 169.714286 297.460166 
C 152.801905 297.460166 136.579935 304.179526 124.621076 316.138385 
C 112.662217 328.097244 105.942857 344.319214 105.942857 361.231595 
C 105.942857 378.143975 112.662217 394.365945 124.621076 406.324804 
C 136.579935 418.283663 152.801905 425.003023 169.714286 425.003023 
z
" style="fill:#ffffff;stroke:#ffffff;stroke-linejoin:miter;"/>
   </g>
   <g id="matplotlib.axis_3"/>
   <g id="matplotlib.axis_4"/>
   <g id="text_4">
    <!-- 109 -->
    <defs>
     <path d="M 37.25 0 
L 28.46875 0 
L 28.46875 56 
Q 25.296875 52.984375 20.140625 49.953125 
Q 14.984375 46.921875 10.890625 45.40625 
L 10.890625 53.90625 
Q 18.265625 57.375 23.78125 62.296875 
Q 29.296875 67.234375 31.59375 71.875 
L 37.25 71.875 
z
" id="ArialMT-49"/>
     <path d="M 4.15625 35.296875 
Q 4.15625 48 6.765625 55.734375 
Q 9.375 63.484375 14.515625 67.671875 
Q 19.671875 71.875 27.484375 71.875 
Q 33.25 71.875 37.59375 69.546875 
Q 41.9375 67.234375 44.765625 62.859375 
Q 47.609375 58.5 49.21875 52.21875 
Q 50.828125 45.953125 50.828125 35.296875 
Q 50.828125 22.703125 48.234375 14.96875 
Q 45.65625 7.234375 40.5 3 
Q 35.359375 -1.21875 27.484375 -1.21875 
Q 17.140625 -1.21875 11.234375 6.203125 
Q 4.15625 15.140625 4.15625 35.296875 
z
M 13.1875 35.296875 
Q 13.1875 17.671875 17.3125 11.828125 
Q 21.4375 6 27.484375 6 
Q 33.546875 6 37.671875 11.859375 
Q 41.796875 17.71875 41.796875 35.296875 
Q 41.796875 52.984375 37.671875 58.78125 
Q 33.546875 64.59375 27.390625 64.59375 
Q 21.34375 64.59375 17.71875 59.46875 
Q 13.1875 52.9375 13.1875 35.296875 
z
" id="ArialMT-48"/>
     <path d="M 5.46875 16.546875 
L 13.921875 17.328125 
Q 14.984375 11.375 18.015625 8.6875 
Q 21.046875 6 25.78125 6 
Q 29.828125 6 32.875 7.859375 
Q 35.9375 9.71875 37.890625 12.8125 
Q 39.84375 15.921875 41.15625 21.1875 
Q 42.484375 26.46875 42.484375 31.9375 
Q 42.484375 32.515625 42.4375 33.6875 
Q 39.796875 29.5 35.234375 26.875 
Q 30.671875 24.265625 25.34375 24.265625 
Q 16.453125 24.265625 10.296875 30.703125 
Q 4.15625 37.15625 4.15625 47.703125 
Q 4.15625 58.59375 10.578125 65.234375 
Q 17 71.875 26.65625 71.875 
Q 33.640625 71.875 39.421875 68.109375 
Q 45.21875 64.359375 48.21875 57.390625 
Q 51.21875 50.4375 51.21875 37.25 
Q 51.21875 23.53125 48.234375 15.40625 
Q 45.265625 7.28125 39.375 3.03125 
Q 33.5 -1.21875 25.59375 -1.21875 
Q 17.1875 -1.21875 11.859375 3.4375 
Q 6.546875 8.109375 5.46875 16.546875 
z
M 41.453125 48.140625 
Q 41.453125 55.71875 37.421875 60.15625 
Q 33.40625 64.59375 27.734375 64.59375 
Q 21.875 64.59375 17.53125 59.8125 
Q 13.1875 55.03125 13.1875 47.40625 
Q 13.1875 40.578125 17.3125 36.296875 
Q 21.4375 32.03125 27.484375 32.03125 
Q 33.59375 32.03125 37.515625 36.296875 
Q 41.453125 40.578125 41.453125 48.140625 
z
" id="ArialMT-57"/>
    </defs>
    <g transform="translate(12.492962 361.026591)scale(0.14 -0.14)">
     <use xlink:href="#ArialMT-49"/>
     <use x="55.615234" xlink:href="#ArialMT-48"/>
     <use x="111.230469" xlink:href="#ArialMT-57"/>
    </g>
   </g>
   <g id="text_5">
    <!-- 109 -->
    <g transform="translate(45.640581 361.973541)scale(0.14 -0.14)">
     <use xlink:href="#ArialMT-49"/>
     <use x="55.615234" xlink:href="#ArialMT-48"/>
     <use x="111.230469" xlink:href="#ArialMT-57"/>
    </g>
   </g>
   <g id="text_6">
    <!-- 101 -->
    <g transform="translate(79.747904 347.342002)scale(0.14 -0.14)">
     <use xlink:href="#ArialMT-49"/>
     <use x="55.615234" xlink:href="#ArialMT-48"/>
     <use x="111.230469" xlink:href="#ArialMT-49"/>
    </g>
   </g>
   <g id="text_7">
    <!-- MEL -->
    <g transform="translate(155.321629 357.180563)scale(0.14 -0.14)">
     <use xlink:href="#ArialMT-77"/>
     <use x="83.300781" xlink:href="#ArialMT-69"/>
     <use x="150" xlink:href="#ArialMT-76"/>
    </g>
    <!-- (n = 110) -->
    <defs>
     <path d="M 52.828125 42.09375 
L 5.5625 42.09375 
L 5.5625 50.296875 
L 52.828125 50.296875 
z
M 52.828125 20.359375 
L 5.5625 20.359375 
L 5.5625 28.5625 
L 52.828125 28.5625 
z
" id="ArialMT-61"/>
    </defs>
    <g transform="translate(141.511942 372.192938)scale(0.14 -0.14)">
     <use xlink:href="#ArialMT-40"/>
     <use x="33.300781" xlink:href="#ArialMT-110"/>
     <use x="88.916016" xlink:href="#ArialMT-32"/>
     <use x="116.699219" xlink:href="#ArialMT-61"/>
     <use x="175.097656" xlink:href="#ArialMT-32"/>
     <use x="202.880859" xlink:href="#ArialMT-49"/>
     <use x="258.386719" xlink:href="#ArialMT-49"/>
     <use x="314.001953" xlink:href="#ArialMT-48"/>
     <use x="369.617188" xlink:href="#ArialMT-41"/>
    </g>
   </g>
  </g>
  <g id="axes_3">
   <g id="patch_13">
    <path d="M 727.714286 361.231595 
C 727.714286 340.436078 723.645503 319.840062 715.737729 300.606742 
C 707.829955 281.373421 696.234914 263.871823 681.607458 249.090381 
C 666.980002 234.30894 649.600785 222.531262 630.451327 214.422515 
C 611.30187 206.313767 590.74959 202.029531 569.955214 201.811765 
C 549.160838 201.593999 528.523344 205.446882 509.20827 213.152815 
C 489.893195 220.858749 472.271136 232.26988 457.33733 246.741747 
C 442.403523 261.213613 430.4445 278.468544 422.135668 297.532039 
C 413.826837 316.595533 409.327616 337.101822 408.892108 357.892778 
C 408.4566 378.683733 412.093161 399.360443 419.596408 418.755153 
C 427.099656 438.149862 438.325628 455.89045 452.640317 470.974984 
C 466.955006 486.059518 484.08376 498.198575 503.059201 506.70658 
C 522.034641 515.214584 542.492692 519.928296 563.277947 520.581498 
C 584.063202 521.2347 604.776859 517.814861 624.249077 510.515121 
C 643.721296 503.215382 661.578467 492.175801 676.812074 478.019859 
C 692.045681 463.863916 704.363441 446.86322 713.069686 427.977913 
C 721.77593 409.092607 726.703615 388.685039 727.57444 367.907764 
L 568.285714 361.231595 
L 727.714286 361.231595 
z
" style="fill:#e15759;"/>
   </g>
   <g id="patch_14">
    <path d="M 727.57444 367.907764 
C 727.621049 366.795709 727.656011 365.683196 727.679321 364.570408 
C 727.70263 363.457621 727.714286 362.34462 727.714286 361.231588 
L 568.285714 361.231595 
L 727.57444 367.907764 
z
" style="fill:#ffffff;"/>
   </g>
   <g id="patch_15">
    <path d="M 695.828571 361.231595 
C 695.828571 345.381325 692.873905 329.669052 687.116276 314.901495 
C 681.358646 300.133938 672.898307 286.568237 662.169641 274.9009 
C 651.440974 263.233563 638.630793 253.667747 624.396814 246.694592 
C 610.162835 239.721438 594.752907 235.462365 578.958227 234.136048 
C 563.163547 232.809732 547.259139 234.439266 532.061588 238.940986 
C 516.864037 243.442705 502.637969 250.738224 490.1138 260.452965 
C 477.58963 270.167707 466.985434 282.132514 458.845666 295.733073 
C 450.705899 309.333633 445.172293 324.333126 442.528963 339.961429 
C 439.885633 355.589731 440.178606 371.574717 443.392838 387.095662 
C 446.607071 402.616607 452.686597 417.403255 461.319271 430.69641 
C 469.951946 443.989564 480.987455 455.557759 493.859197 464.807045 
C 506.730939 474.056331 521.214787 480.825655 536.56709 484.767457 
C 551.919394 488.709259 567.872833 489.754904 583.608304 487.850703 
C 599.343776 485.946503 614.587286 481.125614 628.556184 473.635558 
C 642.525081 466.145502 654.976132 456.116698 665.270059 444.064059 
C 675.563987 432.011421 683.521547 418.144812 688.734172 403.176193 
L 568.285714 361.231595 
L 695.828571 361.231595 
z
" style="fill:#f28e2b;"/>
   </g>
   <g id="patch_16">
    <path d="M 688.734172 403.176193 
C 691.07817 396.44515 692.85382 389.529451 694.042465 382.501763 
C 695.23111 375.474076 695.828571 368.359101 695.828571 361.231601 
L 568.285714 361.231595 
L 688.734172 403.176193 
z
" style="fill:#ffffff;"/>
   </g>
   <g id="patch_17">
    <path d="M 663.942857 361.231595 
C 663.942857 350.269433 662.058487 339.388401 658.372202 329.064628 
C 654.685917 318.740855 649.252281 309.127151 642.309058 300.64419 
C 635.365834 292.161229 627.015795 284.934573 617.624319 279.280444 
C 608.232844 273.626316 597.938941 269.628406 587.19305 267.461655 
C 576.44716 265.294903 565.408338 264.991381 554.55962 266.564371 
C 543.710901 268.13736 533.212866 271.563577 523.524885 276.6931 
C 513.836903 281.822622 505.102374 288.579523 497.703501 296.668136 
C 490.304628 304.756749 484.350927 314.057348 480.102919 324.162961 
C 475.85491 334.268574 473.375473 345.029619 472.7731 355.975218 
C 472.170727 366.920817 473.454336 377.888955 476.567758 388.399692 
C 479.68118 398.910428 484.578332 408.808186 491.044924 417.659862 
C 497.511517 426.511538 505.451834 434.186111 514.518425 440.34776 
C 523.585016 446.509408 533.643679 451.066929 544.254271 453.820896 
C 554.864862 456.574862 565.870327 457.484511 576.78909 456.510037 
C 587.707853 455.535563 598.378297 452.691391 608.333509 448.101976 
C 618.288722 443.51256 627.381346 437.245832 635.213511 429.576009 
L 568.285714 361.231595 
L 663.942857 361.231595 
z
" style="fill:#4e79a7;"/>
   </g>
   <g id="patch_18">
    <path d="M 635.213511 429.576009 
C 644.308859 420.669186 651.535376 410.035689 656.46851 398.300228 
C 661.401643 386.564767 663.942857 373.96175 663.942857 361.231595 
L 568.285714 361.231595 
L 635.213511 429.576009 
z
" style="fill:#ffffff;"/>
   </g>
   <g id="patch_19">
    <path clip-path="url(#p96beceb54e)" d="M 568.285714 425.003023 
C 585.198095 425.003023 601.420065 418.283663 613.378924 406.324804 
C 625.337783 394.365945 632.057143 378.143975 632.057143 361.231595 
C 632.057143 344.319214 625.337783 328.097244 613.378924 316.138385 
C 601.420065 304.179526 585.198095 297.460166 568.285714 297.460166 
C 551.373334 297.460166 535.151364 304.179526 523.192505 316.138385 
C 511.233646 328.097244 504.514286 344.319214 504.514286 361.231595 
C 504.514286 378.143975 511.233646 394.365945 523.192505 406.324804 
C 535.151364 418.283663 551.373334 425.003023 568.285714 425.003023 
z
" style="fill:#ffffff;stroke:#ffffff;stroke-linejoin:miter;"/>
   </g>
   <g id="matplotlib.axis_5"/>
   <g id="matplotlib.axis_6"/>
   <g id="text_8">
    <!-- 149 -->
    <defs>
     <path d="M 32.328125 0 
L 32.328125 17.140625 
L 1.265625 17.140625 
L 1.265625 25.203125 
L 33.9375 71.578125 
L 41.109375 71.578125 
L 41.109375 25.203125 
L 50.78125 25.203125 
L 50.78125 17.140625 
L 41.109375 17.140625 
L 41.109375 0 
z
M 32.328125 25.203125 
L 32.328125 57.46875 
L 9.90625 25.203125 
z
" id="ArialMT-52"/>
    </defs>
    <g transform="translate(411.039148 362.046207)scale(0.14 -0.14)">
     <use xlink:href="#ArialMT-49"/>
     <use x="55.615234" xlink:href="#ArialMT-52"/>
     <use x="111.230469" xlink:href="#ArialMT-57"/>
    </g>
   </g>
   <g id="text_9">
    <!-- 142 -->
    <defs>
     <path d="M 50.34375 8.453125 
L 50.34375 0 
L 3.03125 0 
Q 2.9375 3.171875 4.046875 6.109375 
Q 5.859375 10.9375 9.828125 15.625 
Q 13.8125 20.3125 21.34375 26.46875 
Q 33.015625 36.03125 37.109375 41.625 
Q 41.21875 47.21875 41.21875 52.203125 
Q 41.21875 57.421875 37.46875 61 
Q 33.734375 64.59375 27.734375 64.59375 
Q 21.390625 64.59375 17.578125 60.78125 
Q 13.765625 56.984375 13.71875 50.25 
L 4.6875 51.171875 
Q 5.609375 61.28125 11.65625 66.578125 
Q 17.71875 71.875 27.9375 71.875 
Q 38.234375 71.875 44.234375 66.15625 
Q 50.25 60.453125 50.25 52 
Q 50.25 47.703125 48.484375 43.546875 
Q 46.734375 39.40625 42.65625 34.8125 
Q 38.578125 30.21875 29.109375 22.21875 
Q 21.1875 15.578125 18.9375 13.203125 
Q 16.703125 10.84375 15.234375 8.453125 
z
" id="ArialMT-50"/>
    </defs>
    <g transform="translate(445.581943 348.047382)scale(0.14 -0.14)">
     <use xlink:href="#ArialMT-49"/>
     <use x="55.615234" xlink:href="#ArialMT-52"/>
     <use x="111.230469" xlink:href="#ArialMT-50"/>
    </g>
   </g>
   <g id="text_10">
    <!-- 131 -->
    <defs>
     <path d="M 4.203125 18.890625 
L 12.984375 20.0625 
Q 14.5 12.59375 18.140625 9.296875 
Q 21.78125 6 27 6 
Q 33.203125 6 37.46875 10.296875 
Q 41.75 14.59375 41.75 20.953125 
Q 41.75 27 37.796875 30.921875 
Q 33.84375 34.859375 27.734375 34.859375 
Q 25.25 34.859375 21.53125 33.890625 
L 22.515625 41.609375 
Q 23.390625 41.5 23.921875 41.5 
Q 29.546875 41.5 34.03125 44.421875 
Q 38.53125 47.359375 38.53125 53.46875 
Q 38.53125 58.296875 35.25 61.46875 
Q 31.984375 64.65625 26.8125 64.65625 
Q 21.6875 64.65625 18.265625 61.421875 
Q 14.84375 58.203125 13.875 51.765625 
L 5.078125 53.328125 
Q 6.6875 62.15625 12.390625 67.015625 
Q 18.109375 71.875 26.609375 71.875 
Q 32.46875 71.875 37.390625 69.359375 
Q 42.328125 66.84375 44.9375 62.5 
Q 47.5625 58.15625 47.5625 53.265625 
Q 47.5625 48.640625 45.0625 44.828125 
Q 42.578125 41.015625 37.703125 38.765625 
Q 44.046875 37.3125 47.5625 32.6875 
Q 51.078125 28.078125 51.078125 21.140625 
Q 51.078125 11.765625 44.234375 5.25 
Q 37.40625 -1.265625 26.953125 -1.265625 
Q 17.53125 -1.265625 11.296875 4.34375 
Q 5.078125 9.96875 4.203125 18.890625 
z
" id="ArialMT-51"/>
    </defs>
    <g transform="translate(481.438164 338.161397)scale(0.14 -0.14)">
     <use xlink:href="#ArialMT-49"/>
     <use x="55.615234" xlink:href="#ArialMT-51"/>
     <use x="111.230469" xlink:href="#ArialMT-49"/>
    </g>
   </g>
   <g id="text_11">
    <!-- mCRPC -->
    <g transform="translate(542.619777 357.180563)scale(0.14 -0.14)">
     <use xlink:href="#ArialMT-109"/>
     <use x="83.300781" xlink:href="#ArialMT-67"/>
     <use x="155.517578" xlink:href="#ArialMT-82"/>
     <use x="227.734375" xlink:href="#ArialMT-80"/>
     <use x="294.433594" xlink:href="#ArialMT-67"/>
    </g>
    <!-- (n = 150) -->
    <defs>
     <path d="M 4.15625 18.75 
L 13.375 19.53125 
Q 14.40625 12.796875 18.140625 9.390625 
Q 21.875 6 27.15625 6 
Q 33.5 6 37.890625 10.78125 
Q 42.28125 15.578125 42.28125 23.484375 
Q 42.28125 31 38.0625 35.34375 
Q 33.84375 39.703125 27 39.703125 
Q 22.75 39.703125 19.328125 37.765625 
Q 15.921875 35.84375 13.96875 32.765625 
L 5.71875 33.84375 
L 12.640625 70.609375 
L 48.25 70.609375 
L 48.25 62.203125 
L 19.671875 62.203125 
L 15.828125 42.96875 
Q 22.265625 47.46875 29.34375 47.46875 
Q 38.71875 47.46875 45.15625 40.96875 
Q 51.609375 34.46875 51.609375 24.265625 
Q 51.609375 14.546875 45.953125 7.46875 
Q 39.0625 -1.21875 27.15625 -1.21875 
Q 17.390625 -1.21875 11.203125 4.25 
Q 5.03125 9.71875 4.15625 18.75 
z
" id="ArialMT-53"/>
    </defs>
    <g transform="translate(540.075714 372.192938)scale(0.14 -0.14)">
     <use xlink:href="#ArialMT-40"/>
     <use x="33.300781" xlink:href="#ArialMT-110"/>
     <use x="88.916016" xlink:href="#ArialMT-32"/>
     <use x="116.699219" xlink:href="#ArialMT-61"/>
     <use x="175.097656" xlink:href="#ArialMT-32"/>
     <use x="202.880859" xlink:href="#ArialMT-49"/>
     <use x="258.496094" xlink:href="#ArialMT-53"/>
     <use x="314.111328" xlink:href="#ArialMT-48"/>
     <use x="369.726562" xlink:href="#ArialMT-41"/>
    </g>
   </g>
  </g>
  <g id="axes_4">
   <g id="patch_20">
    <path d="M 329.142857 694.478743 
C 329.142857 676.69889 326.16858 659.043643 320.343363 642.24513 
C 314.518147 625.446618 305.92364 609.740296 294.91624 595.777477 
C 283.908841 581.814658 270.642833 569.79105 255.668335 560.20525 
C 240.693836 550.619451 224.220735 543.605818 206.932141 539.455195 
C 189.643547 535.304571 171.781784 534.075134 154.087546 535.817865 
C 136.393308 537.560596 119.114605 542.251069 102.967954 549.694778 
C 86.821302 557.138488 72.03302 567.231099 59.21635 579.554091 
C 46.39968 591.877084 35.734266 606.257732 27.662383 622.099697 
C 19.5905 637.941663 14.225287 655.022897 11.789229 672.635075 
C 9.353171 690.247252 9.880414 708.143512 13.349092 725.581729 
C 16.817771 743.019947 23.179268 759.755701 32.169783 775.09499 
C 41.160299 790.43428 52.653817 804.162103 66.173725 815.709192 
C 79.693632 827.256281 95.050427 836.460787 111.607293 842.941017 
C 128.164158 849.421247 145.689025 853.08637 163.45517 853.784402 
C 181.221316 854.482433 198.979721 852.203589 215.993979 847.042367 
C 233.008236 841.881146 249.039867 833.90989 263.424068 823.459153 
L 169.714286 694.478743 
L 329.142857 694.478743 
z
" style="fill:#e15759;"/>
   </g>
   <g id="patch_21">
    <path d="M 263.424068 823.459153 
C 283.777527 808.671495 300.344587 789.273954 311.766195 766.857776 
C 323.187803 744.441599 329.142862 719.636975 329.142857 694.478713 
L 169.714286 694.478743 
L 263.424068 823.459153 
z
" style="fill:#ffffff;"/>
   </g>
   <g id="patch_22">
    <path d="M 297.257143 694.478743 
C 297.257143 670.278484 290.369428 646.570815 277.40228 626.137861 
C 264.435132 605.704906 245.916438 589.378482 224.019388 579.074513 
C 202.122338 568.770545 177.738351 564.908502 153.728918 567.941601 
C 129.719486 570.974699 107.062019 580.779463 88.4154 596.20529 
C 69.768781 611.631118 55.892105 632.050031 48.413816 655.065847 
C 40.935527 678.081662 40.160063 702.757416 46.178426 726.197379 
C 52.196789 749.637342 64.763974 770.887284 82.405207 787.453499 
C 100.046439 804.019713 122.043553 815.227798 145.81516 819.76247 
L 169.714286 694.478743 
L 297.257143 694.478743 
z
" style="fill:#f28e2b;"/>
   </g>
   <g id="patch_23">
    <path d="M 145.81516 819.76247 
C 164.256416 823.280324 183.24895 822.683456 201.432927 818.014601 
C 219.616903 813.345746 236.547729 804.719056 251.013181 792.752189 
C 265.478633 780.785322 277.125035 765.770864 285.118523 748.783829 
C 293.112011 731.796794 297.257146 713.25251 297.257143 694.478719 
L 169.714286 694.478743 
L 145.81516 819.76247 
z
" style="fill:#ffffff;"/>
   </g>
   <g id="patch_24">
    <path d="M 265.371429 694.478743 
C 265.371429 680.90506 262.482284 667.485553 256.896518 655.114454 
C 251.310753 642.743355 243.155257 631.701697 232.973487 622.725259 
C 222.791717 613.748822 210.81497 607.041522 197.841338 603.050313 
C 184.867707 599.059103 171.191911 597.874652 157.72526 599.575886 
L 169.714286 694.478743 
L 265.371429 694.478743 
z
" style="fill:#4e79a7;"/>
   </g>
   <g id="patch_25">
    <path d="M 157.72526 599.575886 
C 139.464759 601.882725 122.252334 609.411596 108.16313 621.254811 
C 94.073926 633.098027 83.697851 648.759716 78.285854 666.351695 
C 72.873857 683.943673 72.652535 702.729372 77.648571 720.443972 
C 82.644607 738.158571 92.648819 754.06037 106.455091 766.232233 
C 120.261364 778.404097 137.291634 786.336394 155.492719 789.072802 
C 173.693804 791.80921 192.303632 789.235156 209.078587 781.660971 
C 225.853543 774.086785 240.091265 761.829594 250.075244 746.367137 
C 260.059222 730.90468 265.371432 712.884361 265.371429 694.478725 
L 169.714286 694.478743 
L 157.72526 599.575886 
z
" style="fill:#ffffff;"/>
   </g>
   <g id="patch_26">
    <path clip-path="url(#p395386b770)" d="M 169.714286 758.250172 
C 186.626666 758.250172 202.848636 751.530812 214.807495 739.571953 
C 226.766354 727.613094 233.485714 711.391124 233.485714 694.478743 
C 233.485714 677.566363 226.766354 661.344393 214.807495 649.385534 
C 202.848636 637.426675 186.626666 630.707315 169.714286 630.707315 
C 152.801905 630.707315 136.579935 637.426675 124.621076 649.385534 
C 112.662217 661.344393 105.942857 677.566363 105.942857 694.478743 
C 105.942857 711.391124 112.662217 727.613094 124.621076 739.571953 
C 136.579935 751.530812 152.801905 758.250172 169.714286 758.250172 
z
" style="fill:#ffffff;stroke:#ffffff;stroke-linejoin:miter;"/>
   </g>
   <g id="matplotlib.axis_7"/>
   <g id="matplotlib.axis_8"/>
   <g id="text_12">
    <!-- 85 -->
    <defs>
     <path d="M 17.671875 38.8125 
Q 12.203125 40.828125 9.5625 44.53125 
Q 6.9375 48.25 6.9375 53.421875 
Q 6.9375 61.234375 12.546875 66.546875 
Q 18.171875 71.875 27.484375 71.875 
Q 36.859375 71.875 42.578125 66.421875 
Q 48.296875 60.984375 48.296875 53.171875 
Q 48.296875 48.1875 45.671875 44.5 
Q 43.0625 40.828125 37.75 38.8125 
Q 44.34375 36.671875 47.78125 31.875 
Q 51.21875 27.09375 51.21875 20.453125 
Q 51.21875 11.28125 44.71875 5.03125 
Q 38.234375 -1.21875 27.640625 -1.21875 
Q 17.046875 -1.21875 10.546875 5.046875 
Q 4.046875 11.328125 4.046875 20.703125 
Q 4.046875 27.6875 7.59375 32.390625 
Q 11.140625 37.109375 17.671875 38.8125 
z
M 15.921875 53.71875 
Q 15.921875 48.640625 19.1875 45.40625 
Q 22.46875 42.1875 27.6875 42.1875 
Q 32.765625 42.1875 36.015625 45.375 
Q 39.265625 48.578125 39.265625 53.21875 
Q 39.265625 58.0625 35.90625 61.359375 
Q 32.5625 64.65625 27.59375 64.65625 
Q 22.5625 64.65625 19.234375 61.421875 
Q 15.921875 58.203125 15.921875 53.71875 
z
M 13.09375 20.65625 
Q 13.09375 16.890625 14.875 13.375 
Q 16.65625 9.859375 20.171875 7.921875 
Q 23.6875 6 27.734375 6 
Q 34.03125 6 38.125 10.046875 
Q 42.234375 14.109375 42.234375 20.359375 
Q 42.234375 26.703125 38.015625 30.859375 
Q 33.796875 35.015625 27.4375 35.015625 
Q 21.234375 35.015625 17.15625 30.90625 
Q 13.09375 26.8125 13.09375 20.65625 
z
" id="ArialMT-56"/>
    </defs>
    <g transform="translate(33.399543 636.575773)scale(0.14 -0.14)">
     <use xlink:href="#ArialMT-56"/>
     <use x="55.615234" xlink:href="#ArialMT-53"/>
    </g>
   </g>
   <g id="text_13">
    <!-- 72 -->
    <defs>
     <path d="M 4.734375 62.203125 
L 4.734375 70.65625 
L 51.078125 70.65625 
L 51.078125 63.8125 
Q 44.234375 56.546875 37.515625 44.484375 
Q 30.8125 32.421875 27.15625 19.671875 
Q 24.515625 10.6875 23.78125 0 
L 14.75 0 
Q 14.890625 8.453125 18.0625 20.40625 
Q 21.234375 32.375 27.171875 43.484375 
Q 33.109375 54.59375 39.796875 62.203125 
z
" id="ArialMT-55"/>
    </defs>
    <g transform="translate(87.478574 617.51373)scale(0.14 -0.14)">
     <use xlink:href="#ArialMT-55"/>
     <use x="55.615234" xlink:href="#ArialMT-50"/>
    </g>
   </g>
   <g id="text_14">
    <!-- 27 -->
    <g transform="translate(217.791279 643.565314)scale(0.14 -0.14)">
     <use xlink:href="#ArialMT-50"/>
     <use x="55.615234" xlink:href="#ArialMT-55"/>
    </g>
   </g>
   <g id="text_15">
    <!-- KIRP -->
    <defs>
     <path d="M 7.328125 0 
L 7.328125 71.578125 
L 16.796875 71.578125 
L 16.796875 36.078125 
L 52.34375 71.578125 
L 65.1875 71.578125 
L 35.15625 42.578125 
L 66.5 0 
L 54 0 
L 28.515625 36.234375 
L 16.796875 24.8125 
L 16.796875 0 
z
" id="ArialMT-75"/>
    </defs>
    <g transform="translate(153.375848 690.427712)scale(0.14 -0.14)">
     <use xlink:href="#ArialMT-75"/>
     <use x="66.699219" xlink:href="#ArialMT-73"/>
     <use x="94.482422" xlink:href="#ArialMT-82"/>
     <use x="166.699219" xlink:href="#ArialMT-80"/>
    </g>
    <!-- (n = 100) -->
    <g transform="translate(141.504286 705.440087)scale(0.14 -0.14)">
     <use xlink:href="#ArialMT-40"/>
     <use x="33.300781" xlink:href="#ArialMT-110"/>
     <use x="88.916016" xlink:href="#ArialMT-32"/>
     <use x="116.699219" xlink:href="#ArialMT-61"/>
     <use x="175.097656" xlink:href="#ArialMT-32"/>
     <use x="202.880859" xlink:href="#ArialMT-49"/>
     <use x="258.496094" xlink:href="#ArialMT-48"/>
     <use x="314.111328" xlink:href="#ArialMT-48"/>
     <use x="369.726562" xlink:href="#ArialMT-41"/>
    </g>
   </g>
  </g>
  <g id="axes_5">
   <g id="patch_27">
    <path d="M 727.714286 694.478743 
C 727.714286 676.752315 724.757856 659.14937 718.966866 642.395543 
C 713.175877 625.641716 704.63101 609.970424 693.684504 596.027674 
C 682.737997 582.084924 669.542361 570.064969 654.641548 560.463299 
C 639.740736 550.861629 623.342349 543.812016 606.122366 539.605062 
C 588.902383 535.398108 571.100717 534.092424 553.451192 535.741834 
C 535.801667 537.391244 518.550181 541.972768 502.407879 549.297546 
C 486.265577 556.622323 471.457357 566.588303 458.593647 578.784665 
C 445.729938 590.981027 434.989958 605.23785 426.816436 620.967433 
C 418.642914 636.697017 413.149723 653.680215 410.563307 671.21694 
C 407.97689 688.753665 408.333282 706.599592 411.61779 724.019072 
C 414.902299 741.438552 421.069165 758.188893 429.864174 773.579607 
C 438.659184 788.970321 449.959804 802.786982 463.300197 814.460036 
C 476.640591 826.13309 491.834896 835.499905 508.256769 842.17436 
C 524.678643 848.848815 542.099292 852.73792 559.800597 853.681357 
C 577.501902 854.624794 595.237245 852.609419 612.275535 847.718311 
C 629.313826 842.827202 645.417682 835.128504 659.923267 824.939574 
L 568.285714 694.478743 
L 727.714286 694.478743 
z
" style="fill:#e15759;"/>
   </g>
   <g id="patch_28">
    <path d="M 659.923267 824.939574 
C 680.862534 810.231533 697.95626 790.696196 709.754996 767.990047 
C 721.553732 745.283897 727.714288 720.067386 727.714286 694.478728 
L 568.285714 694.478743 
L 659.923267 824.939574 
z
" style="fill:#ffffff;"/>
   </g>
   <g id="patch_29">
    <path d="M 695.828571 694.478743 
C 695.828571 670.55544 689.097605 647.107952 676.408185 626.827345 
C 663.718765 606.546737 645.575655 590.23974 624.061138 579.777904 
C 602.546622 569.316069 578.516511 565.115551 554.728738 567.658442 
C 530.940965 570.201334 508.34177 579.386483 489.524859 594.159712 
C 470.707948 608.932941 456.421827 628.706594 448.306114 651.211251 
C 440.1904 673.715909 438.567923 698.056373 443.624894 721.43909 
C 448.681865 744.821808 460.217126 766.316652 476.906777 783.456663 
C 493.596428 800.596675 514.776581 812.700051 538.016393 818.377688 
L 568.285714 694.478743 
L 695.828571 694.478743 
z
" style="fill:#f28e2b;"/>
   </g>
   <g id="patch_30">
    <path d="M 538.016393 818.377688 
C 556.788116 822.963743 576.358908 823.224281 595.246061 819.139564 
C 614.133214 815.054846 631.8474 806.730701 647.04657 794.797775 
C 662.245739 782.864849 674.536112 767.632301 682.986553 750.254168 
C 691.436995 732.876034 695.828571 713.802549 695.828571 694.478743 
L 568.285714 694.478743 
L 538.016393 818.377688 
z
" style="fill:#ffffff;"/>
   </g>
   <g id="patch_31">
    <path d="M 663.942857 694.478743 
C 663.942857 679.125549 660.246522 663.995643 653.167279 650.371953 
C 646.088037 636.748264 635.8318 625.027063 623.268238 616.20224 
C 610.704677 607.377416 596.199226 601.705658 580.981864 599.667896 
C 565.764502 597.630134 550.277854 599.285642 535.8351 604.494041 
C 521.392345 609.702441 508.413578 618.312236 497.999324 629.593365 
C 487.585069 640.874495 480.038245 654.498826 475.998779 669.311095 
C 471.959313 684.123363 471.544699 699.692726 474.790096 714.69899 
C 478.035493 729.705255 484.846501 743.711936 494.645587 755.531349 
L 568.285714 694.478743 
L 663.942857 694.478743 
z
" style="fill:#4e79a7;"/>
   </g>
   <g id="patch_32">
    <path d="M 494.645587 755.531349 
C 507.203837 770.678796 524.135048 781.588803 543.118061 786.765677 
C 562.101074 791.942552 582.226866 791.138394 600.736321 784.463448 
C 619.245775 777.788503 635.252547 765.562406 646.56221 749.461278 
C 657.871874 733.36015 663.942853 714.155011 663.942857 694.478761 
L 568.285714 694.478743 
L 494.645587 755.531349 
z
" style="fill:#ffffff;"/>
   </g>
   <g id="patch_33">
    <path clip-path="url(#p490cb7a3c9)" d="M 568.285714 758.250172 
C 585.198095 758.250172 601.420065 751.530812 613.378924 739.571953 
C 625.337783 727.613094 632.057143 711.391124 632.057143 694.478743 
C 632.057143 677.566363 625.337783 661.344393 613.378924 649.385534 
C 601.420065 637.426675 585.198095 630.707315 568.285714 630.707315 
C 551.373334 630.707315 535.151364 637.426675 523.192505 649.385534 
C 511.233646 661.344393 504.514286 677.566363 504.514286 694.478743 
C 504.514286 711.391124 511.233646 727.613094 523.192505 739.571953 
C 535.151364 751.530812 551.373334 758.250172 568.285714 758.250172 
z
" style="fill:#ffffff;stroke:#ffffff;stroke-linejoin:miter;"/>
   </g>
   <g id="matplotlib.axis_9"/>
   <g id="matplotlib.axis_10"/>
   <g id="text_16">
    <!-- 50 -->
    <g transform="translate(432.466203 635.613349)scale(0.14 -0.14)">
     <use xlink:href="#ArialMT-53"/>
     <use x="55.615234" xlink:href="#ArialMT-48"/>
    </g>
   </g>
   <g id="text_17">
    <!-- 42 -->
    <g transform="translate(488.131188 615.836356)scale(0.14 -0.14)">
     <use xlink:href="#ArialMT-52"/>
     <use x="55.615234" xlink:href="#ArialMT-50"/>
    </g>
   </g>
   <g id="text_18">
    <!-- 36 -->
    <defs>
     <path d="M 49.75 54.046875 
L 41.015625 53.375 
Q 39.84375 58.546875 37.703125 60.890625 
Q 34.125 64.65625 28.90625 64.65625 
Q 24.703125 64.65625 21.53125 62.3125 
Q 17.390625 59.28125 14.984375 53.46875 
Q 12.59375 47.65625 12.5 36.921875 
Q 15.671875 41.75 20.265625 44.09375 
Q 24.859375 46.4375 29.890625 46.4375 
Q 38.671875 46.4375 44.84375 39.96875 
Q 51.03125 33.5 51.03125 23.25 
Q 51.03125 16.5 48.125 10.71875 
Q 45.21875 4.9375 40.140625 1.859375 
Q 35.0625 -1.21875 28.609375 -1.21875 
Q 17.625 -1.21875 10.6875 6.859375 
Q 3.765625 14.9375 3.765625 33.5 
Q 3.765625 54.25 11.421875 63.671875 
Q 18.109375 71.875 29.4375 71.875 
Q 37.890625 71.875 43.28125 67.140625 
Q 48.6875 62.40625 49.75 54.046875 
z
M 13.875 23.1875 
Q 13.875 18.65625 15.796875 14.5 
Q 17.71875 10.359375 21.1875 8.171875 
Q 24.65625 6 28.46875 6 
Q 34.03125 6 38.03125 10.484375 
Q 42.046875 14.984375 42.046875 22.703125 
Q 42.046875 30.125 38.078125 34.390625 
Q 34.125 38.671875 28.125 38.671875 
Q 22.171875 38.671875 18.015625 34.390625 
Q 13.875 30.125 13.875 23.1875 
z
" id="ArialMT-54"/>
    </defs>
    <g transform="translate(526.754598 626.1102)scale(0.14 -0.14)">
     <use xlink:href="#ArialMT-51"/>
     <use x="55.615234" xlink:href="#ArialMT-54"/>
    </g>
   </g>
   <g id="text_19">
    <!-- OS -->
    <g transform="translate(558.171808 690.427712)scale(0.14 -0.14)">
     <use xlink:href="#ArialMT-79"/>
     <use x="77.783203" xlink:href="#ArialMT-83"/>
    </g>
    <!-- (n = 59) -->
    <g transform="translate(543.968371 705.440087)scale(0.14 -0.14)">
     <use xlink:href="#ArialMT-40"/>
     <use x="33.300781" xlink:href="#ArialMT-110"/>
     <use x="88.916016" xlink:href="#ArialMT-32"/>
     <use x="116.699219" xlink:href="#ArialMT-61"/>
     <use x="175.097656" xlink:href="#ArialMT-32"/>
     <use x="202.880859" xlink:href="#ArialMT-53"/>
     <use x="258.496094" xlink:href="#ArialMT-57"/>
     <use x="314.111328" xlink:href="#ArialMT-41"/>
    </g>
   </g>
  </g>
  <g id="text_20">
   <!-- Number of patient profiles with a Putatively Actionable or Investigate Actionability event -->
   <defs>
    <path d="M 40.578125 0 
L 40.578125 7.625 
Q 34.515625 -1.171875 24.125 -1.171875 
Q 19.53125 -1.171875 15.546875 0.578125 
Q 11.578125 2.34375 9.640625 5 
Q 7.71875 7.671875 6.9375 11.53125 
Q 6.390625 14.109375 6.390625 19.734375 
L 6.390625 51.859375 
L 15.1875 51.859375 
L 15.1875 23.09375 
Q 15.1875 16.21875 15.71875 13.8125 
Q 16.546875 10.359375 19.234375 8.375 
Q 21.921875 6.390625 25.875 6.390625 
Q 29.828125 6.390625 33.296875 8.421875 
Q 36.765625 10.453125 38.203125 13.9375 
Q 39.65625 17.4375 39.65625 24.078125 
L 39.65625 51.859375 
L 48.4375 51.859375 
L 48.4375 0 
z
" id="ArialMT-117"/>
    <path d="M 14.703125 0 
L 6.546875 0 
L 6.546875 71.578125 
L 15.328125 71.578125 
L 15.328125 46.046875 
Q 20.90625 53.03125 29.546875 53.03125 
Q 34.328125 53.03125 38.59375 51.09375 
Q 42.875 49.171875 45.625 45.671875 
Q 48.390625 42.1875 49.953125 37.25 
Q 51.515625 32.328125 51.515625 26.703125 
Q 51.515625 13.375 44.921875 6.09375 
Q 38.328125 -1.171875 29.109375 -1.171875 
Q 19.921875 -1.171875 14.703125 6.5 
z
M 14.59375 26.3125 
Q 14.59375 17 17.140625 12.84375 
Q 21.296875 6.0625 28.375 6.0625 
Q 34.125 6.0625 38.328125 11.0625 
Q 42.53125 16.0625 42.53125 25.984375 
Q 42.53125 36.140625 38.5 40.96875 
Q 34.46875 45.796875 28.765625 45.796875 
Q 23 45.796875 18.796875 40.796875 
Q 14.59375 35.796875 14.59375 26.3125 
z
" id="ArialMT-98"/>
    <path d="M 42.09375 16.703125 
L 51.171875 15.578125 
Q 49.03125 7.625 43.21875 3.21875 
Q 37.40625 -1.171875 28.375 -1.171875 
Q 17 -1.171875 10.328125 5.828125 
Q 3.65625 12.84375 3.65625 25.484375 
Q 3.65625 38.578125 10.390625 45.796875 
Q 17.140625 53.03125 27.875 53.03125 
Q 38.28125 53.03125 44.875 45.953125 
Q 51.46875 38.875 51.46875 26.03125 
Q 51.46875 25.25 51.421875 23.6875 
L 12.75 23.6875 
Q 13.234375 15.140625 17.578125 10.59375 
Q 21.921875 6.0625 28.421875 6.0625 
Q 33.25 6.0625 36.671875 8.59375 
Q 40.09375 11.140625 42.09375 16.703125 
z
M 13.234375 30.90625 
L 42.1875 30.90625 
Q 41.609375 37.453125 38.875 40.71875 
Q 34.671875 45.796875 27.984375 45.796875 
Q 21.921875 45.796875 17.796875 41.75 
Q 13.671875 37.703125 13.234375 30.90625 
z
" id="ArialMT-101"/>
    <path d="M 6.5 0 
L 6.5 51.859375 
L 14.40625 51.859375 
L 14.40625 44 
Q 17.4375 49.515625 20 51.265625 
Q 22.5625 53.03125 25.640625 53.03125 
Q 30.078125 53.03125 34.671875 50.203125 
L 31.640625 42.046875 
Q 28.421875 43.953125 25.203125 43.953125 
Q 22.3125 43.953125 20.015625 42.21875 
Q 17.71875 40.484375 16.75 37.40625 
Q 15.28125 32.71875 15.28125 27.15625 
L 15.28125 0 
z
" id="ArialMT-114"/>
    <path d="M 3.328125 25.921875 
Q 3.328125 40.328125 11.328125 47.265625 
Q 18.015625 53.03125 27.640625 53.03125 
Q 38.328125 53.03125 45.109375 46.015625 
Q 51.90625 39.015625 51.90625 26.65625 
Q 51.90625 16.65625 48.90625 10.90625 
Q 45.90625 5.171875 40.15625 2 
Q 34.421875 -1.171875 27.640625 -1.171875 
Q 16.75 -1.171875 10.03125 5.8125 
Q 3.328125 12.796875 3.328125 25.921875 
z
M 12.359375 25.921875 
Q 12.359375 15.96875 16.703125 11.015625 
Q 21.046875 6.0625 27.640625 6.0625 
Q 34.1875 6.0625 38.53125 11.03125 
Q 42.875 16.015625 42.875 26.21875 
Q 42.875 35.84375 38.5 40.796875 
Q 34.125 45.75 27.640625 45.75 
Q 21.046875 45.75 16.703125 40.8125 
Q 12.359375 35.890625 12.359375 25.921875 
z
" id="ArialMT-111"/>
    <path d="M 8.6875 0 
L 8.6875 45.015625 
L 0.921875 45.015625 
L 0.921875 51.859375 
L 8.6875 51.859375 
L 8.6875 57.375 
Q 8.6875 62.59375 9.625 65.140625 
Q 10.890625 68.5625 14.078125 70.671875 
Q 17.28125 72.796875 23.046875 72.796875 
Q 26.765625 72.796875 31.25 71.921875 
L 29.9375 64.265625 
Q 27.203125 64.75 24.75 64.75 
Q 20.75 64.75 19.09375 63.03125 
Q 17.4375 61.328125 17.4375 56.640625 
L 17.4375 51.859375 
L 27.546875 51.859375 
L 27.546875 45.015625 
L 17.4375 45.015625 
L 17.4375 0 
z
" id="ArialMT-102"/>
    <path d="M 6.59375 -19.875 
L 6.59375 51.859375 
L 14.59375 51.859375 
L 14.59375 45.125 
Q 17.4375 49.078125 21 51.046875 
Q 24.5625 53.03125 29.640625 53.03125 
Q 36.28125 53.03125 41.359375 49.609375 
Q 46.4375 46.1875 49.015625 39.953125 
Q 51.609375 33.734375 51.609375 26.3125 
Q 51.609375 18.359375 48.75 11.984375 
Q 45.90625 5.609375 40.453125 2.21875 
Q 35.015625 -1.171875 29 -1.171875 
Q 24.609375 -1.171875 21.109375 0.6875 
Q 17.625 2.546875 15.375 5.375 
L 15.375 -19.875 
z
M 14.546875 25.640625 
Q 14.546875 15.625 18.59375 10.84375 
Q 22.65625 6.0625 28.421875 6.0625 
Q 34.28125 6.0625 38.453125 11.015625 
Q 42.625 15.96875 42.625 26.375 
Q 42.625 36.28125 38.546875 41.203125 
Q 34.46875 46.140625 28.8125 46.140625 
Q 23.1875 46.140625 18.859375 40.890625 
Q 14.546875 35.640625 14.546875 25.640625 
z
" id="ArialMT-112"/>
    <path d="M 25.78125 7.859375 
L 27.046875 0.09375 
Q 23.34375 -0.6875 20.40625 -0.6875 
Q 15.625 -0.6875 12.984375 0.828125 
Q 10.359375 2.34375 9.28125 4.8125 
Q 8.203125 7.28125 8.203125 15.1875 
L 8.203125 45.015625 
L 1.765625 45.015625 
L 1.765625 51.859375 
L 8.203125 51.859375 
L 8.203125 64.703125 
L 16.9375 69.96875 
L 16.9375 51.859375 
L 25.78125 51.859375 
L 25.78125 45.015625 
L 16.9375 45.015625 
L 16.9375 14.703125 
Q 16.9375 10.9375 17.40625 9.859375 
Q 17.875 8.796875 18.921875 8.15625 
Q 19.96875 7.515625 21.921875 7.515625 
Q 23.390625 7.515625 25.78125 7.859375 
z
" id="ArialMT-116"/>
    <path d="M 6.640625 61.46875 
L 6.640625 71.578125 
L 15.4375 71.578125 
L 15.4375 61.46875 
z
M 6.640625 0 
L 6.640625 51.859375 
L 15.4375 51.859375 
L 15.4375 0 
z
" id="ArialMT-105"/>
    <path d="M 16.15625 0 
L 0.296875 51.859375 
L 9.375 51.859375 
L 17.625 21.921875 
L 20.703125 10.796875 
Q 20.90625 11.625 23.390625 21.484375 
L 31.640625 51.859375 
L 40.671875 51.859375 
L 48.4375 21.78125 
L 51.03125 11.859375 
L 54 21.875 
L 62.890625 51.859375 
L 71.4375 51.859375 
L 55.21875 0 
L 46.09375 0 
L 37.84375 31.0625 
L 35.84375 39.890625 
L 25.34375 0 
z
" id="ArialMT-119"/>
    <path d="M 6.59375 0 
L 6.59375 71.578125 
L 15.375 71.578125 
L 15.375 45.90625 
Q 21.53125 53.03125 30.90625 53.03125 
Q 36.671875 53.03125 40.921875 50.75 
Q 45.171875 48.484375 47 44.484375 
Q 48.828125 40.484375 48.828125 32.859375 
L 48.828125 0 
L 40.046875 0 
L 40.046875 32.859375 
Q 40.046875 39.453125 37.1875 42.453125 
Q 34.328125 45.453125 29.109375 45.453125 
Q 25.203125 45.453125 21.75 43.421875 
Q 18.3125 41.40625 16.84375 37.9375 
Q 15.375 34.46875 15.375 28.375 
L 15.375 0 
z
" id="ArialMT-104"/>
    <path d="M 21 0 
L 1.265625 51.859375 
L 10.546875 51.859375 
L 21.6875 20.796875 
Q 23.484375 15.765625 25 10.359375 
Q 26.171875 14.453125 28.265625 20.21875 
L 39.796875 51.859375 
L 48.828125 51.859375 
L 29.203125 0 
z
" id="ArialMT-118"/>
    <path d="M 6.203125 -19.96875 
L 5.21875 -11.71875 
Q 8.109375 -12.5 10.25 -12.5 
Q 13.1875 -12.5 14.9375 -11.515625 
Q 16.703125 -10.546875 17.828125 -8.796875 
Q 18.65625 -7.46875 20.515625 -2.25 
Q 20.75 -1.515625 21.296875 -0.09375 
L 1.609375 51.859375 
L 11.078125 51.859375 
L 21.875 21.828125 
Q 23.96875 16.109375 25.640625 9.8125 
Q 27.15625 15.875 29.25 21.625 
L 40.328125 51.859375 
L 49.125 51.859375 
L 29.390625 -0.875 
Q 26.21875 -9.421875 24.46875 -12.640625 
Q 22.125 -17 19.09375 -19.015625 
Q 16.0625 -21.046875 11.859375 -21.046875 
Q 9.328125 -21.046875 6.203125 -19.96875 
z
" id="ArialMT-121"/>
    <path d="M 4.984375 -4.296875 
L 13.53125 -5.5625 
Q 14.0625 -9.515625 16.5 -11.328125 
Q 19.78125 -13.765625 25.4375 -13.765625 
Q 31.546875 -13.765625 34.859375 -11.328125 
Q 38.1875 -8.890625 39.359375 -4.5 
Q 40.046875 -1.8125 39.984375 6.78125 
Q 34.234375 0 25.640625 0 
Q 14.9375 0 9.078125 7.71875 
Q 3.21875 15.4375 3.21875 26.21875 
Q 3.21875 33.640625 5.90625 39.90625 
Q 8.59375 46.1875 13.6875 49.609375 
Q 18.796875 53.03125 25.6875 53.03125 
Q 34.859375 53.03125 40.828125 45.609375 
L 40.828125 51.859375 
L 48.921875 51.859375 
L 48.921875 7.03125 
Q 48.921875 -5.078125 46.453125 -10.125 
Q 44 -15.1875 38.640625 -18.109375 
Q 33.296875 -21.046875 25.484375 -21.046875 
Q 16.21875 -21.046875 10.5 -16.875 
Q 4.78125 -12.703125 4.984375 -4.296875 
z
M 12.25 26.859375 
Q 12.25 16.65625 16.296875 11.96875 
Q 20.359375 7.28125 26.46875 7.28125 
Q 32.515625 7.28125 36.609375 11.9375 
Q 40.71875 16.609375 40.71875 26.5625 
Q 40.71875 36.078125 36.5 40.90625 
Q 32.28125 45.75 26.3125 45.75 
Q 20.453125 45.75 16.34375 40.984375 
Q 12.25 36.234375 12.25 26.859375 
z
" id="ArialMT-103"/>
   </defs>
   <g transform="translate(51.86625 107.6235)scale(0.16 -0.16)">
    <use xlink:href="#ArialMT-78"/>
    <use x="72.216797" xlink:href="#ArialMT-117"/>
    <use x="127.832031" xlink:href="#ArialMT-109"/>
    <use x="211.132812" xlink:href="#ArialMT-98"/>
    <use x="266.748047" xlink:href="#ArialMT-101"/>
    <use x="322.363281" xlink:href="#ArialMT-114"/>
    <use x="355.664062" xlink:href="#ArialMT-32"/>
    <use x="383.447266" xlink:href="#ArialMT-111"/>
    <use x="439.0625" xlink:href="#ArialMT-102"/>
    <use x="466.845703" xlink:href="#ArialMT-32"/>
    <use x="494.628906" xlink:href="#ArialMT-112"/>
    <use x="550.244141" xlink:href="#ArialMT-97"/>
    <use x="605.859375" xlink:href="#ArialMT-116"/>
    <use x="633.642578" xlink:href="#ArialMT-105"/>
    <use x="655.859375" xlink:href="#ArialMT-101"/>
    <use x="711.474609" xlink:href="#ArialMT-110"/>
    <use x="767.089844" xlink:href="#ArialMT-116"/>
    <use x="794.873047" xlink:href="#ArialMT-32"/>
    <use x="822.65625" xlink:href="#ArialMT-112"/>
    <use x="878.271484" xlink:href="#ArialMT-114"/>
    <use x="911.572266" xlink:href="#ArialMT-111"/>
    <use x="967.1875" xlink:href="#ArialMT-102"/>
    <use x="994.970703" xlink:href="#ArialMT-105"/>
    <use x="1017.1875" xlink:href="#ArialMT-108"/>
    <use x="1039.404297" xlink:href="#ArialMT-101"/>
    <use x="1095.019531" xlink:href="#ArialMT-115"/>
    <use x="1145.019531" xlink:href="#ArialMT-32"/>
    <use x="1172.802734" xlink:href="#ArialMT-119"/>
    <use x="1245.019531" xlink:href="#ArialMT-105"/>
    <use x="1267.236328" xlink:href="#ArialMT-116"/>
    <use x="1295.019531" xlink:href="#ArialMT-104"/>
    <use x="1350.634766" xlink:href="#ArialMT-32"/>
    <use x="1378.417969" xlink:href="#ArialMT-97"/>
    <use x="1434.033203" xlink:href="#ArialMT-32"/>
    <use x="1461.816406" xlink:href="#ArialMT-80"/>
    <use x="1528.515625" xlink:href="#ArialMT-117"/>
    <use x="1584.130859" xlink:href="#ArialMT-116"/>
    <use x="1611.914062" xlink:href="#ArialMT-97"/>
    <use x="1667.529297" xlink:href="#ArialMT-116"/>
    <use x="1695.3125" xlink:href="#ArialMT-105"/>
    <use x="1717.529297" xlink:href="#ArialMT-118"/>
    <use x="1767.529297" xlink:href="#ArialMT-101"/>
    <use x="1823.144531" xlink:href="#ArialMT-108"/>
    <use x="1845.361328" xlink:href="#ArialMT-121"/>
    <use x="1895.361328" xlink:href="#ArialMT-32"/>
    <use x="1923.066406" xlink:href="#ArialMT-65"/>
    <use x="1989.765625" xlink:href="#ArialMT-99"/>
    <use x="2039.765625" xlink:href="#ArialMT-116"/>
    <use x="2067.548828" xlink:href="#ArialMT-105"/>
    <use x="2089.765625" xlink:href="#ArialMT-111"/>
    <use x="2145.380859" xlink:href="#ArialMT-110"/>
    <use x="2200.996094" xlink:href="#ArialMT-97"/>
    <use x="2256.611328" xlink:href="#ArialMT-98"/>
    <use x="2312.226562" xlink:href="#ArialMT-108"/>
    <use x="2334.443359" xlink:href="#ArialMT-101"/>
    <use x="2390.058594" xlink:href="#ArialMT-32"/>
    <use x="2417.841797" xlink:href="#ArialMT-111"/>
    <use x="2473.457031" xlink:href="#ArialMT-114"/>
    <use x="2506.757812" xlink:href="#ArialMT-32"/>
    <use x="2534.541016" xlink:href="#ArialMT-73"/>
    <use x="2562.324219" xlink:href="#ArialMT-110"/>
    <use x="2617.939453" xlink:href="#ArialMT-118"/>
    <use x="2667.939453" xlink:href="#ArialMT-101"/>
    <use x="2723.554688" xlink:href="#ArialMT-115"/>
    <use x="2773.554688" xlink:href="#ArialMT-116"/>
    <use x="2801.337891" xlink:href="#ArialMT-105"/>
    <use x="2823.554688" xlink:href="#ArialMT-103"/>
    <use x="2879.169922" xlink:href="#ArialMT-97"/>
    <use x="2934.785156" xlink:href="#ArialMT-116"/>
    <use x="2962.568359" xlink:href="#ArialMT-101"/>
    <use x="3018.183594" xlink:href="#ArialMT-32"/>
    <use x="3045.888672" xlink:href="#ArialMT-65"/>
    <use x="3112.587891" xlink:href="#ArialMT-99"/>
    <use x="3162.587891" xlink:href="#ArialMT-116"/>
    <use x="3190.371094" xlink:href="#ArialMT-105"/>
    <use x="3212.587891" xlink:href="#ArialMT-111"/>
    <use x="3268.203125" xlink:href="#ArialMT-110"/>
    <use x="3323.818359" xlink:href="#ArialMT-97"/>
    <use x="3379.433594" xlink:href="#ArialMT-98"/>
    <use x="3435.048828" xlink:href="#ArialMT-105"/>
    <use x="3457.265625" xlink:href="#ArialMT-108"/>
    <use x="3479.482422" xlink:href="#ArialMT-105"/>
    <use x="3501.699219" xlink:href="#ArialMT-116"/>
    <use x="3529.482422" xlink:href="#ArialMT-121"/>
    <use x="3579.482422" xlink:href="#ArialMT-32"/>
    <use x="3607.265625" xlink:href="#ArialMT-101"/>
    <use x="3662.880859" xlink:href="#ArialMT-118"/>
    <use x="3712.880859" xlink:href="#ArialMT-101"/>
    <use x="3768.496094" xlink:href="#ArialMT-110"/>
    <use x="3824.111328" xlink:href="#ArialMT-116"/>
   </g>
  </g>
 </g>
 <defs>
  <clipPath id="p74c75c68e6">
   <rect height="159.428571" width="159.428571" x="90" y="281.517309"/>
  </clipPath>
  <clipPath id="p96beceb54e">
   <rect height="159.428571" width="159.428571" x="488.571429" y="281.517309"/>
  </clipPath>
  <clipPath id="p395386b770">
   <rect height="159.428571" width="159.428571" x="90" y="614.764458"/>
  </clipPath>
  <clipPath id="p490cb7a3c9">
   <rect height="159.428571" width="159.428571" x="488.571429" y="614.764458"/>
  </clipPath>
 </defs>
</svg>
